<mxfile host="app.diagrams.net" modified="2023-03-19T19:00:39.758Z" agent="5.0 (Windows NT 10.0; Win64; x64) AppleWebKit/537.36 (KHTML, like Gecko) Chrome/111.0.0.0 Safari/537.36" etag="exYjKvl5wNvQjFcAK9HR" version="21.0.8" type="github">
  <diagram name="Page-1" id="Rt0_p9dI7zNELIXdeyna">
    <mxGraphModel dx="2391" dy="1147" grid="1" gridSize="10" guides="1" tooltips="1" connect="1" arrows="1" fold="1" page="1" pageScale="1" pageWidth="3300" pageHeight="4681" math="0" shadow="0">
      <root>
        <mxCell id="0" />
        <mxCell id="1" parent="0" />
        <mxCell id="7f94tFSoGYnsbO0w17XI-64" value="" style="shape=image;verticalLabelPosition=bottom;labelBackgroundColor=default;verticalAlign=top;aspect=fixed;imageAspect=0;image=data:image/svg+xml,PHN2ZyB4bWxucz0iaHR0cDovL3d3dy53My5vcmcvMjAwMC9zdmciIHN0eWxlPSJjdXJzb3I6IG1vdmU7IiBoZWlnaHQ9Ijk2MyIgd2lkdGg9Ijk1OCIgdmlld0JveD0iMCAwIDk1OCA5NjMiPjxnIHRyYW5zZm9ybT0idHJhbnNsYXRlKDMyNi41NjE4NDg4MDI5NjUyLDEzOS41MDk1OTI1MjM4NjU3KSBzY2FsZSgwLjY1OTc1Mzk1NTM4NjQ0NykiPjxwYXRoIHN0eWxlPSJzdHJva2Utd2lkdGg6IDAuNTsgc3Ryb2tlLW9wYWNpdHk6IDE7IHN0cm9rZTogcmdiKDgwLCA4MCwgODApOyIgZD0iTTIzMy42NjY2NjY2NjY2NjY2NiwyMDgsIDQzOS42NjY2NjY2NjY2NjY2Myw4NyIgbWFya2VyLWVuZD0iIiBjbGFzcz0ibGluayIvPjxwYXRoIHN0eWxlPSJzdHJva2Utd2lkdGg6IDAuNTsgc3Ryb2tlLW9wYWNpdHk6IDE7IHN0cm9rZTogcmdiKDgwLCA4MCwgODApOyIgZD0iTTIzMy42NjY2NjY2NjY2NjY2NiwyMDgsIDQzOS42NjY2NjY2NjY2NjY2MywxNDYiIG1hcmtlci1lbmQ9IiIgY2xhc3M9ImxpbmsiLz48cGF0aCBzdHlsZT0ic3Ryb2tlLXdpZHRoOiAwLjU7IHN0cm9rZS1vcGFjaXR5OiAxOyBzdHJva2U6IHJnYig4MCwgODAsIDgwKTsiIGQ9Ik0yMzMuNjY2NjY2NjY2NjY2NjYsMjA4LCA0MzkuNjY2NjY2NjY2NjY2NjMsMjA1IiBtYXJrZXItZW5kPSIiIGNsYXNzPSJsaW5rIi8+PHBhdGggc3R5bGU9InN0cm9rZS13aWR0aDogMC41OyBzdHJva2Utb3BhY2l0eTogMTsgc3Ryb2tlOiByZ2IoODAsIDgwLCA4MCk7IiBkPSJNMjMzLjY2NjY2NjY2NjY2NjY2LDIwOCwgNDM5LjY2NjY2NjY2NjY2NjYzLDI2NCIgbWFya2VyLWVuZD0iIiBjbGFzcz0ibGluayIvPjxwYXRoIHN0eWxlPSJzdHJva2Utd2lkdGg6IDAuNTsgc3Ryb2tlLW9wYWNpdHk6IDE7IHN0cm9rZTogcmdiKDgwLCA4MCwgODApOyIgZD0iTTIzMy42NjY2NjY2NjY2NjY2NiwyMDgsIDQzOS42NjY2NjY2NjY2NjY2MywzMjMiIG1hcmtlci1lbmQ9IiIgY2xhc3M9ImxpbmsiLz48cGF0aCBzdHlsZT0ic3Ryb2tlLXdpZHRoOiAwLjU7IHN0cm9rZS1vcGFjaXR5OiAxOyBzdHJva2U6IHJnYig4MCwgODAsIDgwKTsiIGQ9Ik0yMzMuNjY2NjY2NjY2NjY2NjYsMjA4LCA0MzkuNjY2NjY2NjY2NjY2NjMsMzgyIiBtYXJrZXItZW5kPSIiIGNsYXNzPSJsaW5rIi8+PHBhdGggc3R5bGU9InN0cm9rZS13aWR0aDogMC41OyBzdHJva2Utb3BhY2l0eTogMTsgc3Ryb2tlOiByZ2IoODAsIDgwLCA4MCk7IiBkPSJNMjMzLjY2NjY2NjY2NjY2NjY2LDIwOCwgNDM5LjY2NjY2NjY2NjY2NjYzLDQ0MSIgbWFya2VyLWVuZD0iIiBjbGFzcz0ibGluayIvPjxwYXRoIHN0eWxlPSJzdHJva2Utd2lkdGg6IDAuNTsgc3Ryb2tlLW9wYWNpdHk6IDE7IHN0cm9rZTogcmdiKDgwLCA4MCwgODApOyIgZD0iTTIzMy42NjY2NjY2NjY2NjY2NiwyNDMsIDQzOS42NjY2NjY2NjY2NjY2Myw4NyIgbWFya2VyLWVuZD0iIiBjbGFzcz0ibGluayIvPjxwYXRoIHN0eWxlPSJzdHJva2Utd2lkdGg6IDAuNTsgc3Ryb2tlLW9wYWNpdHk6IDE7IHN0cm9rZTogcmdiKDgwLCA4MCwgODApOyIgZD0iTTIzMy42NjY2NjY2NjY2NjY2NiwyNDMsIDQzOS42NjY2NjY2NjY2NjY2MywxNDYiIG1hcmtlci1lbmQ9IiIgY2xhc3M9ImxpbmsiLz48cGF0aCBzdHlsZT0ic3Ryb2tlLXdpZHRoOiAwLjU7IHN0cm9rZS1vcGFjaXR5OiAxOyBzdHJva2U6IHJnYig4MCwgODAsIDgwKTsiIGQ9Ik0yMzMuNjY2NjY2NjY2NjY2NjYsMjQzLCA0MzkuNjY2NjY2NjY2NjY2NjMsMjA1IiBtYXJrZXItZW5kPSIiIGNsYXNzPSJsaW5rIi8+PHBhdGggc3R5bGU9InN0cm9rZS13aWR0aDogMC41OyBzdHJva2Utb3BhY2l0eTogMTsgc3Ryb2tlOiByZ2IoODAsIDgwLCA4MCk7IiBkPSJNMjMzLjY2NjY2NjY2NjY2NjY2LDI0MywgNDM5LjY2NjY2NjY2NjY2NjYzLDI2NCIgbWFya2VyLWVuZD0iIiBjbGFzcz0ibGluayIvPjxwYXRoIHN0eWxlPSJzdHJva2Utd2lkdGg6IDAuNTsgc3Ryb2tlLW9wYWNpdHk6IDE7IHN0cm9rZTogcmdiKDgwLCA4MCwgODApOyIgZD0iTTIzMy42NjY2NjY2NjY2NjY2NiwyNDMsIDQzOS42NjY2NjY2NjY2NjY2MywzMjMiIG1hcmtlci1lbmQ9IiIgY2xhc3M9ImxpbmsiLz48cGF0aCBzdHlsZT0ic3Ryb2tlLXdpZHRoOiAwLjU7IHN0cm9rZS1vcGFjaXR5OiAxOyBzdHJva2U6IHJnYig4MCwgODAsIDgwKTsiIGQ9Ik0yMzMuNjY2NjY2NjY2NjY2NjYsMjQzLCA0MzkuNjY2NjY2NjY2NjY2NjMsMzgyIiBtYXJrZXItZW5kPSIiIGNsYXNzPSJsaW5rIi8+PHBhdGggc3R5bGU9InN0cm9rZS13aWR0aDogMC41OyBzdHJva2Utb3BhY2l0eTogMTsgc3Ryb2tlOiByZ2IoODAsIDgwLCA4MCk7IiBkPSJNMjMzLjY2NjY2NjY2NjY2NjY2LDI0MywgNDM5LjY2NjY2NjY2NjY2NjYzLDQ0MSIgbWFya2VyLWVuZD0iIiBjbGFzcz0ibGluayIvPjxwYXRoIHN0eWxlPSJzdHJva2Utd2lkdGg6IDAuNTsgc3Ryb2tlLW9wYWNpdHk6IDE7IHN0cm9rZTogcmdiKDgwLCA4MCwgODApOyIgZD0iTTIzMy42NjY2NjY2NjY2NjY2NiwyNzgsIDQzOS42NjY2NjY2NjY2NjY2Myw4NyIgbWFya2VyLWVuZD0iIiBjbGFzcz0ibGluayIvPjxwYXRoIHN0eWxlPSJzdHJva2Utd2lkdGg6IDAuNTsgc3Ryb2tlLW9wYWNpdHk6IDE7IHN0cm9rZTogcmdiKDgwLCA4MCwgODApOyIgZD0iTTIzMy42NjY2NjY2NjY2NjY2NiwyNzgsIDQzOS42NjY2NjY2NjY2NjY2MywxNDYiIG1hcmtlci1lbmQ9IiIgY2xhc3M9ImxpbmsiLz48cGF0aCBzdHlsZT0ic3Ryb2tlLXdpZHRoOiAwLjU7IHN0cm9rZS1vcGFjaXR5OiAxOyBzdHJva2U6IHJnYig4MCwgODAsIDgwKTsiIGQ9Ik0yMzMuNjY2NjY2NjY2NjY2NjYsMjc4LCA0MzkuNjY2NjY2NjY2NjY2NjMsMjA1IiBtYXJrZXItZW5kPSIiIGNsYXNzPSJsaW5rIi8+PHBhdGggc3R5bGU9InN0cm9rZS13aWR0aDogMC41OyBzdHJva2Utb3BhY2l0eTogMTsgc3Ryb2tlOiByZ2IoODAsIDgwLCA4MCk7IiBkPSJNMjMzLjY2NjY2NjY2NjY2NjY2LDI3OCwgNDM5LjY2NjY2NjY2NjY2NjYzLDI2NCIgbWFya2VyLWVuZD0iIiBjbGFzcz0ibGluayIvPjxwYXRoIHN0eWxlPSJzdHJva2Utd2lkdGg6IDAuNTsgc3Ryb2tlLW9wYWNpdHk6IDE7IHN0cm9rZTogcmdiKDgwLCA4MCwgODApOyIgZD0iTTIzMy42NjY2NjY2NjY2NjY2NiwyNzgsIDQzOS42NjY2NjY2NjY2NjY2MywzMjMiIG1hcmtlci1lbmQ9IiIgY2xhc3M9ImxpbmsiLz48cGF0aCBzdHlsZT0ic3Ryb2tlLXdpZHRoOiAwLjU7IHN0cm9rZS1vcGFjaXR5OiAxOyBzdHJva2U6IHJnYig4MCwgODAsIDgwKTsiIGQ9Ik0yMzMuNjY2NjY2NjY2NjY2NjYsMjc4LCA0MzkuNjY2NjY2NjY2NjY2NjMsMzgyIiBtYXJrZXItZW5kPSIiIGNsYXNzPSJsaW5rIi8+PHBhdGggc3R5bGU9InN0cm9rZS13aWR0aDogMC41OyBzdHJva2Utb3BhY2l0eTogMTsgc3Ryb2tlOiByZ2IoODAsIDgwLCA4MCk7IiBkPSJNMjMzLjY2NjY2NjY2NjY2NjY2LDI3OCwgNDM5LjY2NjY2NjY2NjY2NjYzLDQ0MSIgbWFya2VyLWVuZD0iIiBjbGFzcz0ibGluayIvPjxwYXRoIHN0eWxlPSJzdHJva2Utd2lkdGg6IDAuNTsgc3Ryb2tlLW9wYWNpdHk6IDE7IHN0cm9rZTogcmdiKDgwLCA4MCwgODApOyIgZD0iTTIzMy42NjY2NjY2NjY2NjY2NiwzMTMsIDQzOS42NjY2NjY2NjY2NjY2Myw4NyIgbWFya2VyLWVuZD0iIiBjbGFzcz0ibGluayIvPjxwYXRoIHN0eWxlPSJzdHJva2Utd2lkdGg6IDAuNTsgc3Ryb2tlLW9wYWNpdHk6IDE7IHN0cm9rZTogcmdiKDgwLCA4MCwgODApOyIgZD0iTTIzMy42NjY2NjY2NjY2NjY2NiwzMTMsIDQzOS42NjY2NjY2NjY2NjY2MywxNDYiIG1hcmtlci1lbmQ9IiIgY2xhc3M9ImxpbmsiLz48cGF0aCBzdHlsZT0ic3Ryb2tlLXdpZHRoOiAwLjU7IHN0cm9rZS1vcGFjaXR5OiAxOyBzdHJva2U6IHJnYig4MCwgODAsIDgwKTsiIGQ9Ik0yMzMuNjY2NjY2NjY2NjY2NjYsMzEzLCA0MzkuNjY2NjY2NjY2NjY2NjMsMjA1IiBtYXJrZXItZW5kPSIiIGNsYXNzPSJsaW5rIi8+PHBhdGggc3R5bGU9InN0cm9rZS13aWR0aDogMC41OyBzdHJva2Utb3BhY2l0eTogMTsgc3Ryb2tlOiByZ2IoODAsIDgwLCA4MCk7IiBkPSJNMjMzLjY2NjY2NjY2NjY2NjY2LDMxMywgNDM5LjY2NjY2NjY2NjY2NjYzLDI2NCIgbWFya2VyLWVuZD0iIiBjbGFzcz0ibGluayIvPjxwYXRoIHN0eWxlPSJzdHJva2Utd2lkdGg6IDAuNTsgc3Ryb2tlLW9wYWNpdHk6IDE7IHN0cm9rZTogcmdiKDgwLCA4MCwgODApOyIgZD0iTTIzMy42NjY2NjY2NjY2NjY2NiwzMTMsIDQzOS42NjY2NjY2NjY2NjY2MywzMjMiIG1hcmtlci1lbmQ9IiIgY2xhc3M9ImxpbmsiLz48cGF0aCBzdHlsZT0ic3Ryb2tlLXdpZHRoOiAwLjU7IHN0cm9rZS1vcGFjaXR5OiAxOyBzdHJva2U6IHJnYig4MCwgODAsIDgwKTsiIGQ9Ik0yMzMuNjY2NjY2NjY2NjY2NjYsMzEzLCA0MzkuNjY2NjY2NjY2NjY2NjMsMzgyIiBtYXJrZXItZW5kPSIiIGNsYXNzPSJsaW5rIi8+PHBhdGggc3R5bGU9InN0cm9rZS13aWR0aDogMC41OyBzdHJva2Utb3BhY2l0eTogMTsgc3Ryb2tlOiByZ2IoODAsIDgwLCA4MCk7IiBkPSJNMjMzLjY2NjY2NjY2NjY2NjY2LDMxMywgNDM5LjY2NjY2NjY2NjY2NjYzLDQ0MSIgbWFya2VyLWVuZD0iIiBjbGFzcz0ibGluayIvPjxwYXRoIHN0eWxlPSJzdHJva2Utd2lkdGg6IDAuNTsgc3Ryb2tlLW9wYWNpdHk6IDE7IHN0cm9rZTogcmdiKDgwLCA4MCwgODApOyIgZD0iTTQzOS42NjY2NjY2NjY2NjY2MywyOCwgNjQ1LjY2NjY2NjY2NjY2NjYsOTMuNSIgbWFya2VyLWVuZD0iIiBjbGFzcz0ibGluayIvPjxwYXRoIHN0eWxlPSJzdHJva2Utd2lkdGg6IDAuNTsgc3Ryb2tlLW9wYWNpdHk6IDE7IHN0cm9rZTogcmdiKDgwLCA4MCwgODApOyIgZD0iTTQzOS42NjY2NjY2NjY2NjY2MywyOCwgNjQ1LjY2NjY2NjY2NjY2NjYsMTUxLjUiIG1hcmtlci1lbmQ9IiIgY2xhc3M9ImxpbmsiLz48cGF0aCBzdHlsZT0ic3Ryb2tlLXdpZHRoOiAwLjU7IHN0cm9rZS1vcGFjaXR5OiAxOyBzdHJva2U6IHJnYig4MCwgODAsIDgwKTsiIGQ9Ik00MzkuNjY2NjY2NjY2NjY2NjMsMjgsIDY0NS42NjY2NjY2NjY2NjY2LDIwOS41IiBtYXJrZXItZW5kPSIiIGNsYXNzPSJsaW5rIi8+PHBhdGggc3R5bGU9InN0cm9rZS13aWR0aDogMC41OyBzdHJva2Utb3BhY2l0eTogMTsgc3Ryb2tlOiByZ2IoODAsIDgwLCA4MCk7IiBkPSJNNDM5LjY2NjY2NjY2NjY2NjYzLDI4LCA2NDUuNjY2NjY2NjY2NjY2NiwyNjcuNSIgbWFya2VyLWVuZD0iIiBjbGFzcz0ibGluayIvPjxwYXRoIHN0eWxlPSJzdHJva2Utd2lkdGg6IDAuNTsgc3Ryb2tlLW9wYWNpdHk6IDE7IHN0cm9rZTogcmdiKDgwLCA4MCwgODApOyIgZD0iTTQzOS42NjY2NjY2NjY2NjY2MywyOCwgNjQ1LjY2NjY2NjY2NjY2NjYsMzI1LjUiIG1hcmtlci1lbmQ9IiIgY2xhc3M9ImxpbmsiLz48cGF0aCBzdHlsZT0ic3Ryb2tlLXdpZHRoOiAwLjU7IHN0cm9rZS1vcGFjaXR5OiAxOyBzdHJva2U6IHJnYig4MCwgODAsIDgwKTsiIGQ9Ik00MzkuNjY2NjY2NjY2NjY2NjMsMjgsIDY0NS42NjY2NjY2NjY2NjY2LDM4My41IiBtYXJrZXItZW5kPSIiIGNsYXNzPSJsaW5rIi8+PHBhdGggc3R5bGU9InN0cm9rZS13aWR0aDogMC41OyBzdHJva2Utb3BhY2l0eTogMTsgc3Ryb2tlOiByZ2IoODAsIDgwLCA4MCk7IiBkPSJNNDM5LjY2NjY2NjY2NjY2NjYzLDI4LCA2NDUuNjY2NjY2NjY2NjY2Niw0NDEuNSIgbWFya2VyLWVuZD0iIiBjbGFzcz0ibGluayIvPjxwYXRoIHN0eWxlPSJzdHJva2Utd2lkdGg6IDAuNTsgc3Ryb2tlLW9wYWNpdHk6IDE7IHN0cm9rZTogcmdiKDgwLCA4MCwgODApOyIgZD0iTTQzOS42NjY2NjY2NjY2NjY2Myw4NywgNjQ1LjY2NjY2NjY2NjY2NjYsOTMuNSIgbWFya2VyLWVuZD0iIiBjbGFzcz0ibGluayIvPjxwYXRoIHN0eWxlPSJzdHJva2Utd2lkdGg6IDAuNTsgc3Ryb2tlLW9wYWNpdHk6IDE7IHN0cm9rZTogcmdiKDgwLCA4MCwgODApOyIgZD0iTTQzOS42NjY2NjY2NjY2NjY2Myw4NywgNjQ1LjY2NjY2NjY2NjY2NjYsMTUxLjUiIG1hcmtlci1lbmQ9IiIgY2xhc3M9ImxpbmsiLz48cGF0aCBzdHlsZT0ic3Ryb2tlLXdpZHRoOiAwLjU7IHN0cm9rZS1vcGFjaXR5OiAxOyBzdHJva2U6IHJnYig4MCwgODAsIDgwKTsiIGQ9Ik00MzkuNjY2NjY2NjY2NjY2NjMsODcsIDY0NS42NjY2NjY2NjY2NjY2LDIwOS41IiBtYXJrZXItZW5kPSIiIGNsYXNzPSJsaW5rIi8+PHBhdGggc3R5bGU9InN0cm9rZS13aWR0aDogMC41OyBzdHJva2Utb3BhY2l0eTogMTsgc3Ryb2tlOiByZ2IoODAsIDgwLCA4MCk7IiBkPSJNNDM5LjY2NjY2NjY2NjY2NjYzLDg3LCA2NDUuNjY2NjY2NjY2NjY2NiwyNjcuNSIgbWFya2VyLWVuZD0iIiBjbGFzcz0ibGluayIvPjxwYXRoIHN0eWxlPSJzdHJva2Utd2lkdGg6IDAuNTsgc3Ryb2tlLW9wYWNpdHk6IDE7IHN0cm9rZTogcmdiKDgwLCA4MCwgODApOyIgZD0iTTQzOS42NjY2NjY2NjY2NjY2Myw4NywgNjQ1LjY2NjY2NjY2NjY2NjYsMzI1LjUiIG1hcmtlci1lbmQ9IiIgY2xhc3M9ImxpbmsiLz48cGF0aCBzdHlsZT0ic3Ryb2tlLXdpZHRoOiAwLjU7IHN0cm9rZS1vcGFjaXR5OiAxOyBzdHJva2U6IHJnYig4MCwgODAsIDgwKTsiIGQ9Ik00MzkuNjY2NjY2NjY2NjY2NjMsODcsIDY0NS42NjY2NjY2NjY2NjY2LDM4My41IiBtYXJrZXItZW5kPSIiIGNsYXNzPSJsaW5rIi8+PHBhdGggc3R5bGU9InN0cm9rZS13aWR0aDogMC41OyBzdHJva2Utb3BhY2l0eTogMTsgc3Ryb2tlOiByZ2IoODAsIDgwLCA4MCk7IiBkPSJNNDM5LjY2NjY2NjY2NjY2NjYzLDg3LCA2NDUuNjY2NjY2NjY2NjY2Niw0NDEuNSIgbWFya2VyLWVuZD0iIiBjbGFzcz0ibGluayIvPjxwYXRoIHN0eWxlPSJzdHJva2Utd2lkdGg6IDAuNTsgc3Ryb2tlLW9wYWNpdHk6IDE7IHN0cm9rZTogcmdiKDgwLCA4MCwgODApOyIgZD0iTTQzOS42NjY2NjY2NjY2NjY2MywxNDYsIDY0NS42NjY2NjY2NjY2NjY2LDkzLjUiIG1hcmtlci1lbmQ9IiIgY2xhc3M9ImxpbmsiLz48cGF0aCBzdHlsZT0ic3Ryb2tlLXdpZHRoOiAwLjU7IHN0cm9rZS1vcGFjaXR5OiAxOyBzdHJva2U6IHJnYig4MCwgODAsIDgwKTsiIGQ9Ik00MzkuNjY2NjY2NjY2NjY2NjMsMTQ2LCA2NDUuNjY2NjY2NjY2NjY2NiwxNTEuNSIgbWFya2VyLWVuZD0iIiBjbGFzcz0ibGluayIvPjxwYXRoIHN0eWxlPSJzdHJva2Utd2lkdGg6IDAuNTsgc3Ryb2tlLW9wYWNpdHk6IDE7IHN0cm9rZTogcmdiKDgwLCA4MCwgODApOyIgZD0iTTQzOS42NjY2NjY2NjY2NjY2MywxNDYsIDY0NS42NjY2NjY2NjY2NjY2LDIwOS41IiBtYXJrZXItZW5kPSIiIGNsYXNzPSJsaW5rIi8+PHBhdGggc3R5bGU9InN0cm9rZS13aWR0aDogMC41OyBzdHJva2Utb3BhY2l0eTogMTsgc3Ryb2tlOiByZ2IoODAsIDgwLCA4MCk7IiBkPSJNNDM5LjY2NjY2NjY2NjY2NjYzLDE0NiwgNjQ1LjY2NjY2NjY2NjY2NjYsMjY3LjUiIG1hcmtlci1lbmQ9IiIgY2xhc3M9ImxpbmsiLz48cGF0aCBzdHlsZT0ic3Ryb2tlLXdpZHRoOiAwLjU7IHN0cm9rZS1vcGFjaXR5OiAxOyBzdHJva2U6IHJnYig4MCwgODAsIDgwKTsiIGQ9Ik00MzkuNjY2NjY2NjY2NjY2NjMsMTQ2LCA2NDUuNjY2NjY2NjY2NjY2NiwzMjUuNSIgbWFya2VyLWVuZD0iIiBjbGFzcz0ibGluayIvPjxwYXRoIHN0eWxlPSJzdHJva2Utd2lkdGg6IDAuNTsgc3Ryb2tlLW9wYWNpdHk6IDE7IHN0cm9rZTogcmdiKDgwLCA4MCwgODApOyIgZD0iTTQzOS42NjY2NjY2NjY2NjY2MywxNDYsIDY0NS42NjY2NjY2NjY2NjY2LDM4My41IiBtYXJrZXItZW5kPSIiIGNsYXNzPSJsaW5rIi8+PHBhdGggc3R5bGU9InN0cm9rZS13aWR0aDogMC41OyBzdHJva2Utb3BhY2l0eTogMTsgc3Ryb2tlOiByZ2IoODAsIDgwLCA4MCk7IiBkPSJNNDM5LjY2NjY2NjY2NjY2NjYzLDE0NiwgNjQ1LjY2NjY2NjY2NjY2NjYsNDQxLjUiIG1hcmtlci1lbmQ9IiIgY2xhc3M9ImxpbmsiLz48cGF0aCBzdHlsZT0ic3Ryb2tlLXdpZHRoOiAwLjU7IHN0cm9rZS1vcGFjaXR5OiAxOyBzdHJva2U6IHJnYig4MCwgODAsIDgwKTsiIGQ9Ik00MzkuNjY2NjY2NjY2NjY2NjMsMjA1LCA2NDUuNjY2NjY2NjY2NjY2Niw5My41IiBtYXJrZXItZW5kPSIiIGNsYXNzPSJsaW5rIi8+PHBhdGggc3R5bGU9InN0cm9rZS13aWR0aDogMC41OyBzdHJva2Utb3BhY2l0eTogMTsgc3Ryb2tlOiByZ2IoODAsIDgwLCA4MCk7IiBkPSJNNDM5LjY2NjY2NjY2NjY2NjYzLDIwNSwgNjQ1LjY2NjY2NjY2NjY2NjYsMTUxLjUiIG1hcmtlci1lbmQ9IiIgY2xhc3M9ImxpbmsiLz48cGF0aCBzdHlsZT0ic3Ryb2tlLXdpZHRoOiAwLjU7IHN0cm9rZS1vcGFjaXR5OiAxOyBzdHJva2U6IHJnYig4MCwgODAsIDgwKTsiIGQ9Ik00MzkuNjY2NjY2NjY2NjY2NjMsMjA1LCA2NDUuNjY2NjY2NjY2NjY2NiwyMDkuNSIgbWFya2VyLWVuZD0iIiBjbGFzcz0ibGluayIvPjxwYXRoIHN0eWxlPSJzdHJva2Utd2lkdGg6IDAuNTsgc3Ryb2tlLW9wYWNpdHk6IDE7IHN0cm9rZTogcmdiKDgwLCA4MCwgODApOyIgZD0iTTQzOS42NjY2NjY2NjY2NjY2MywyMDUsIDY0NS42NjY2NjY2NjY2NjY2LDI2Ny41IiBtYXJrZXItZW5kPSIiIGNsYXNzPSJsaW5rIi8+PHBhdGggc3R5bGU9InN0cm9rZS13aWR0aDogMC41OyBzdHJva2Utb3BhY2l0eTogMTsgc3Ryb2tlOiByZ2IoODAsIDgwLCA4MCk7IiBkPSJNNDM5LjY2NjY2NjY2NjY2NjYzLDIwNSwgNjQ1LjY2NjY2NjY2NjY2NjYsMzI1LjUiIG1hcmtlci1lbmQ9IiIgY2xhc3M9ImxpbmsiLz48cGF0aCBzdHlsZT0ic3Ryb2tlLXdpZHRoOiAwLjU7IHN0cm9rZS1vcGFjaXR5OiAxOyBzdHJva2U6IHJnYig4MCwgODAsIDgwKTsiIGQ9Ik00MzkuNjY2NjY2NjY2NjY2NjMsMjA1LCA2NDUuNjY2NjY2NjY2NjY2NiwzODMuNSIgbWFya2VyLWVuZD0iIiBjbGFzcz0ibGluayIvPjxwYXRoIHN0eWxlPSJzdHJva2Utd2lkdGg6IDAuNTsgc3Ryb2tlLW9wYWNpdHk6IDE7IHN0cm9rZTogcmdiKDgwLCA4MCwgODApOyIgZD0iTTQzOS42NjY2NjY2NjY2NjY2MywyMDUsIDY0NS42NjY2NjY2NjY2NjY2LDQ0MS41IiBtYXJrZXItZW5kPSIiIGNsYXNzPSJsaW5rIi8+PHBhdGggc3R5bGU9InN0cm9rZS13aWR0aDogMC41OyBzdHJva2Utb3BhY2l0eTogMTsgc3Ryb2tlOiByZ2IoODAsIDgwLCA4MCk7IiBkPSJNNDM5LjY2NjY2NjY2NjY2NjYzLDI2NCwgNjQ1LjY2NjY2NjY2NjY2NjYsOTMuNSIgbWFya2VyLWVuZD0iIiBjbGFzcz0ibGluayIvPjxwYXRoIHN0eWxlPSJzdHJva2Utd2lkdGg6IDAuNTsgc3Ryb2tlLW9wYWNpdHk6IDE7IHN0cm9rZTogcmdiKDgwLCA4MCwgODApOyIgZD0iTTQzOS42NjY2NjY2NjY2NjY2MywyNjQsIDY0NS42NjY2NjY2NjY2NjY2LDE1MS41IiBtYXJrZXItZW5kPSIiIGNsYXNzPSJsaW5rIi8+PHBhdGggc3R5bGU9InN0cm9rZS13aWR0aDogMC41OyBzdHJva2Utb3BhY2l0eTogMTsgc3Ryb2tlOiByZ2IoODAsIDgwLCA4MCk7IiBkPSJNNDM5LjY2NjY2NjY2NjY2NjYzLDI2NCwgNjQ1LjY2NjY2NjY2NjY2NjYsMjA5LjUiIG1hcmtlci1lbmQ9IiIgY2xhc3M9ImxpbmsiLz48cGF0aCBzdHlsZT0ic3Ryb2tlLXdpZHRoOiAwLjU7IHN0cm9rZS1vcGFjaXR5OiAxOyBzdHJva2U6IHJnYig4MCwgODAsIDgwKTsiIGQ9Ik00MzkuNjY2NjY2NjY2NjY2NjMsMjY0LCA2NDUuNjY2NjY2NjY2NjY2NiwyNjcuNSIgbWFya2VyLWVuZD0iIiBjbGFzcz0ibGluayIvPjxwYXRoIHN0eWxlPSJzdHJva2Utd2lkdGg6IDAuNTsgc3Ryb2tlLW9wYWNpdHk6IDE7IHN0cm9rZTogcmdiKDgwLCA4MCwgODApOyIgZD0iTTQzOS42NjY2NjY2NjY2NjY2MywyNjQsIDY0NS42NjY2NjY2NjY2NjY2LDMyNS41IiBtYXJrZXItZW5kPSIiIGNsYXNzPSJsaW5rIi8+PHBhdGggc3R5bGU9InN0cm9rZS13aWR0aDogMC41OyBzdHJva2Utb3BhY2l0eTogMTsgc3Ryb2tlOiByZ2IoODAsIDgwLCA4MCk7IiBkPSJNNDM5LjY2NjY2NjY2NjY2NjYzLDI2NCwgNjQ1LjY2NjY2NjY2NjY2NjYsMzgzLjUiIG1hcmtlci1lbmQ9IiIgY2xhc3M9ImxpbmsiLz48cGF0aCBzdHlsZT0ic3Ryb2tlLXdpZHRoOiAwLjU7IHN0cm9rZS1vcGFjaXR5OiAxOyBzdHJva2U6IHJnYig4MCwgODAsIDgwKTsiIGQ9Ik00MzkuNjY2NjY2NjY2NjY2NjMsMjY0LCA2NDUuNjY2NjY2NjY2NjY2Niw0NDEuNSIgbWFya2VyLWVuZD0iIiBjbGFzcz0ibGluayIvPjxwYXRoIHN0eWxlPSJzdHJva2Utd2lkdGg6IDAuNTsgc3Ryb2tlLW9wYWNpdHk6IDE7IHN0cm9rZTogcmdiKDgwLCA4MCwgODApOyIgZD0iTTQzOS42NjY2NjY2NjY2NjY2MywzMjMsIDY0NS42NjY2NjY2NjY2NjY2LDkzLjUiIG1hcmtlci1lbmQ9IiIgY2xhc3M9ImxpbmsiLz48cGF0aCBzdHlsZT0ic3Ryb2tlLXdpZHRoOiAwLjU7IHN0cm9rZS1vcGFjaXR5OiAxOyBzdHJva2U6IHJnYig4MCwgODAsIDgwKTsiIGQ9Ik00MzkuNjY2NjY2NjY2NjY2NjMsMzIzLCA2NDUuNjY2NjY2NjY2NjY2NiwxNTEuNSIgbWFya2VyLWVuZD0iIiBjbGFzcz0ibGluayIvPjxwYXRoIHN0eWxlPSJzdHJva2Utd2lkdGg6IDAuNTsgc3Ryb2tlLW9wYWNpdHk6IDE7IHN0cm9rZTogcmdiKDgwLCA4MCwgODApOyIgZD0iTTQzOS42NjY2NjY2NjY2NjY2MywzMjMsIDY0NS42NjY2NjY2NjY2NjY2LDIwOS41IiBtYXJrZXItZW5kPSIiIGNsYXNzPSJsaW5rIi8+PHBhdGggc3R5bGU9InN0cm9rZS13aWR0aDogMC41OyBzdHJva2Utb3BhY2l0eTogMTsgc3Ryb2tlOiByZ2IoODAsIDgwLCA4MCk7IiBkPSJNNDM5LjY2NjY2NjY2NjY2NjYzLDMyMywgNjQ1LjY2NjY2NjY2NjY2NjYsMjY3LjUiIG1hcmtlci1lbmQ9IiIgY2xhc3M9ImxpbmsiLz48cGF0aCBzdHlsZT0ic3Ryb2tlLXdpZHRoOiAwLjU7IHN0cm9rZS1vcGFjaXR5OiAxOyBzdHJva2U6IHJnYig4MCwgODAsIDgwKTsiIGQ9Ik00MzkuNjY2NjY2NjY2NjY2NjMsMzIzLCA2NDUuNjY2NjY2NjY2NjY2NiwzMjUuNSIgbWFya2VyLWVuZD0iIiBjbGFzcz0ibGluayIvPjxwYXRoIHN0eWxlPSJzdHJva2Utd2lkdGg6IDAuNTsgc3Ryb2tlLW9wYWNpdHk6IDE7IHN0cm9rZTogcmdiKDgwLCA4MCwgODApOyIgZD0iTTQzOS42NjY2NjY2NjY2NjY2MywzMjMsIDY0NS42NjY2NjY2NjY2NjY2LDM4My41IiBtYXJrZXItZW5kPSIiIGNsYXNzPSJsaW5rIi8+PHBhdGggc3R5bGU9InN0cm9rZS13aWR0aDogMC41OyBzdHJva2Utb3BhY2l0eTogMTsgc3Ryb2tlOiByZ2IoODAsIDgwLCA4MCk7IiBkPSJNNDM5LjY2NjY2NjY2NjY2NjYzLDMyMywgNjQ1LjY2NjY2NjY2NjY2NjYsNDQxLjUiIG1hcmtlci1lbmQ9IiIgY2xhc3M9ImxpbmsiLz48cGF0aCBzdHlsZT0ic3Ryb2tlLXdpZHRoOiAwLjU7IHN0cm9rZS1vcGFjaXR5OiAxOyBzdHJva2U6IHJnYig4MCwgODAsIDgwKTsiIGQ9Ik00MzkuNjY2NjY2NjY2NjY2NjMsMzgyLCA2NDUuNjY2NjY2NjY2NjY2Niw5My41IiBtYXJrZXItZW5kPSIiIGNsYXNzPSJsaW5rIi8+PHBhdGggc3R5bGU9InN0cm9rZS13aWR0aDogMC41OyBzdHJva2Utb3BhY2l0eTogMTsgc3Ryb2tlOiByZ2IoODAsIDgwLCA4MCk7IiBkPSJNNDM5LjY2NjY2NjY2NjY2NjYzLDM4MiwgNjQ1LjY2NjY2NjY2NjY2NjYsMTUxLjUiIG1hcmtlci1lbmQ9IiIgY2xhc3M9ImxpbmsiLz48cGF0aCBzdHlsZT0ic3Ryb2tlLXdpZHRoOiAwLjU7IHN0cm9rZS1vcGFjaXR5OiAxOyBzdHJva2U6IHJnYig4MCwgODAsIDgwKTsiIGQ9Ik00MzkuNjY2NjY2NjY2NjY2NjMsMzgyLCA2NDUuNjY2NjY2NjY2NjY2NiwyMDkuNSIgbWFya2VyLWVuZD0iIiBjbGFzcz0ibGluayIvPjxwYXRoIHN0eWxlPSJzdHJva2Utd2lkdGg6IDAuNTsgc3Ryb2tlLW9wYWNpdHk6IDE7IHN0cm9rZTogcmdiKDgwLCA4MCwgODApOyIgZD0iTTQzOS42NjY2NjY2NjY2NjY2MywzODIsIDY0NS42NjY2NjY2NjY2NjY2LDI2Ny41IiBtYXJrZXItZW5kPSIiIGNsYXNzPSJsaW5rIi8+PHBhdGggc3R5bGU9InN0cm9rZS13aWR0aDogMC41OyBzdHJva2Utb3BhY2l0eTogMTsgc3Ryb2tlOiByZ2IoODAsIDgwLCA4MCk7IiBkPSJNNDM5LjY2NjY2NjY2NjY2NjYzLDM4MiwgNjQ1LjY2NjY2NjY2NjY2NjYsMzI1LjUiIG1hcmtlci1lbmQ9IiIgY2xhc3M9ImxpbmsiLz48cGF0aCBzdHlsZT0ic3Ryb2tlLXdpZHRoOiAwLjU7IHN0cm9rZS1vcGFjaXR5OiAxOyBzdHJva2U6IHJnYig4MCwgODAsIDgwKTsiIGQ9Ik00MzkuNjY2NjY2NjY2NjY2NjMsMzgyLCA2NDUuNjY2NjY2NjY2NjY2NiwzODMuNSIgbWFya2VyLWVuZD0iIiBjbGFzcz0ibGluayIvPjxwYXRoIHN0eWxlPSJzdHJva2Utd2lkdGg6IDAuNTsgc3Ryb2tlLW9wYWNpdHk6IDE7IHN0cm9rZTogcmdiKDgwLCA4MCwgODApOyIgZD0iTTQzOS42NjY2NjY2NjY2NjY2MywzODIsIDY0NS42NjY2NjY2NjY2NjY2LDQ0MS41IiBtYXJrZXItZW5kPSIiIGNsYXNzPSJsaW5rIi8+PHBhdGggc3R5bGU9InN0cm9rZS13aWR0aDogMC41OyBzdHJva2Utb3BhY2l0eTogMTsgc3Ryb2tlOiByZ2IoODAsIDgwLCA4MCk7IiBkPSJNNDM5LjY2NjY2NjY2NjY2NjYzLDQ0MSwgNjQ1LjY2NjY2NjY2NjY2NjYsOTMuNSIgbWFya2VyLWVuZD0iIiBjbGFzcz0ibGluayIvPjxwYXRoIHN0eWxlPSJzdHJva2Utd2lkdGg6IDAuNTsgc3Ryb2tlLW9wYWNpdHk6IDE7IHN0cm9rZTogcmdiKDgwLCA4MCwgODApOyIgZD0iTTQzOS42NjY2NjY2NjY2NjY2Myw0NDEsIDY0NS42NjY2NjY2NjY2NjY2LDE1MS41IiBtYXJrZXItZW5kPSIiIGNsYXNzPSJsaW5rIi8+PHBhdGggc3R5bGU9InN0cm9rZS13aWR0aDogMC41OyBzdHJva2Utb3BhY2l0eTogMTsgc3Ryb2tlOiByZ2IoODAsIDgwLCA4MCk7IiBkPSJNNDM5LjY2NjY2NjY2NjY2NjYzLDQ0MSwgNjQ1LjY2NjY2NjY2NjY2NjYsMjA5LjUiIG1hcmtlci1lbmQ9IiIgY2xhc3M9ImxpbmsiLz48cGF0aCBzdHlsZT0ic3Ryb2tlLXdpZHRoOiAwLjU7IHN0cm9rZS1vcGFjaXR5OiAxOyBzdHJva2U6IHJnYig4MCwgODAsIDgwKTsiIGQ9Ik00MzkuNjY2NjY2NjY2NjY2NjMsNDQxLCA2NDUuNjY2NjY2NjY2NjY2NiwyNjcuNSIgbWFya2VyLWVuZD0iIiBjbGFzcz0ibGluayIvPjxwYXRoIHN0eWxlPSJzdHJva2Utd2lkdGg6IDAuNTsgc3Ryb2tlLW9wYWNpdHk6IDE7IHN0cm9rZTogcmdiKDgwLCA4MCwgODApOyIgZD0iTTQzOS42NjY2NjY2NjY2NjY2Myw0NDEsIDY0NS42NjY2NjY2NjY2NjY2LDMyNS41IiBtYXJrZXItZW5kPSIiIGNsYXNzPSJsaW5rIi8+PHBhdGggc3R5bGU9InN0cm9rZS13aWR0aDogMC41OyBzdHJva2Utb3BhY2l0eTogMTsgc3Ryb2tlOiByZ2IoODAsIDgwLCA4MCk7IiBkPSJNNDM5LjY2NjY2NjY2NjY2NjYzLDQ0MSwgNjQ1LjY2NjY2NjY2NjY2NjYsMzgzLjUiIG1hcmtlci1lbmQ9IiIgY2xhc3M9ImxpbmsiLz48cGF0aCBzdHlsZT0ic3Ryb2tlLXdpZHRoOiAwLjU7IHN0cm9rZS1vcGFjaXR5OiAxOyBzdHJva2U6IHJnYig4MCwgODAsIDgwKTsiIGQ9Ik00MzkuNjY2NjY2NjY2NjY2NjMsNDQxLCA2NDUuNjY2NjY2NjY2NjY2Niw0NDEuNSIgbWFya2VyLWVuZD0iIiBjbGFzcz0ibGluayIvPjxwYXRoIHN0eWxlPSJzdHJva2Utd2lkdGg6IDAuNTsgc3Ryb2tlLW9wYWNpdHk6IDE7IHN0cm9rZTogcmdiKDgwLCA4MCwgODApOyIgZD0iTTY0NS42NjY2NjY2NjY2NjY2LDM1LjUsIDg1MS42NjY2NjY2NjY2NjY2LDE4NS41IiBtYXJrZXItZW5kPSIiIGNsYXNzPSJsaW5rIi8+PHBhdGggc3R5bGU9InN0cm9rZS13aWR0aDogMC41OyBzdHJva2Utb3BhY2l0eTogMTsgc3Ryb2tlOiByZ2IoODAsIDgwLCA4MCk7IiBkPSJNNjQ1LjY2NjY2NjY2NjY2NjYsOTMuNSwgODUxLjY2NjY2NjY2NjY2NjYsMTg1LjUiIG1hcmtlci1lbmQ9IiIgY2xhc3M9ImxpbmsiLz48cGF0aCBzdHlsZT0ic3Ryb2tlLXdpZHRoOiAwLjU7IHN0cm9rZS1vcGFjaXR5OiAxOyBzdHJva2U6IHJnYig4MCwgODAsIDgwKTsiIGQ9Ik02NDUuNjY2NjY2NjY2NjY2NiwxNTEuNSwgODUxLjY2NjY2NjY2NjY2NjYsMTg1LjUiIG1hcmtlci1lbmQ9IiIgY2xhc3M9ImxpbmsiLz48cGF0aCBzdHlsZT0ic3Ryb2tlLXdpZHRoOiAwLjU7IHN0cm9rZS1vcGFjaXR5OiAxOyBzdHJva2U6IHJnYig4MCwgODAsIDgwKTsiIGQ9Ik02NDUuNjY2NjY2NjY2NjY2NiwyMDkuNSwgODUxLjY2NjY2NjY2NjY2NjYsMTg1LjUiIG1hcmtlci1lbmQ9IiIgY2xhc3M9ImxpbmsiLz48cGF0aCBzdHlsZT0ic3Ryb2tlLXdpZHRoOiAwLjU7IHN0cm9rZS1vcGFjaXR5OiAxOyBzdHJva2U6IHJnYig4MCwgODAsIDgwKTsiIGQ9Ik02NDUuNjY2NjY2NjY2NjY2NiwyNjcuNSwgODUxLjY2NjY2NjY2NjY2NjYsMTg1LjUiIG1hcmtlci1lbmQ9IiIgY2xhc3M9ImxpbmsiLz48cGF0aCBzdHlsZT0ic3Ryb2tlLXdpZHRoOiAwLjU7IHN0cm9rZS1vcGFjaXR5OiAxOyBzdHJva2U6IHJnYig4MCwgODAsIDgwKTsiIGQ9Ik02NDUuNjY2NjY2NjY2NjY2NiwzMjUuNSwgODUxLjY2NjY2NjY2NjY2NjYsMTg1LjUiIG1hcmtlci1lbmQ9IiIgY2xhc3M9ImxpbmsiLz48cGF0aCBzdHlsZT0ic3Ryb2tlLXdpZHRoOiAwLjU7IHN0cm9rZS1vcGFjaXR5OiAxOyBzdHJva2U6IHJnYig4MCwgODAsIDgwKTsiIGQ9Ik02NDUuNjY2NjY2NjY2NjY2NiwzODMuNSwgODUxLjY2NjY2NjY2NjY2NjYsMTg1LjUiIG1hcmtlci1lbmQ9IiIgY2xhc3M9ImxpbmsiLz48cGF0aCBzdHlsZT0ic3Ryb2tlLXdpZHRoOiAwLjU7IHN0cm9rZS1vcGFjaXR5OiAxOyBzdHJva2U6IHJnYig4MCwgODAsIDgwKTsiIGQ9Ik02NDUuNjY2NjY2NjY2NjY2Niw0NDEuNSwgODUxLjY2NjY2NjY2NjY2NjYsMTg1LjUiIG1hcmtlci1lbmQ9IiIgY2xhc3M9ImxpbmsiLz48cGF0aCBzdHlsZT0ic3Ryb2tlLXdpZHRoOiAwLjU7IHN0cm9rZS1vcGFjaXR5OiAxOyBzdHJva2U6IHJnYig4MCwgODAsIDgwKTsiIGQ9Ik0yMzMuNjY2NjY2NjY2NjY2NjYsMjA4LCA0MzkuNjY2NjY2NjY2NjY2NjMsMjgiIG1hcmtlci1lbmQ9IiIgY2xhc3M9ImxpbmsiLz48cGF0aCBzdHlsZT0ic3Ryb2tlLXdpZHRoOiAwLjU7IHN0cm9rZS1vcGFjaXR5OiAxOyBzdHJva2U6IHJnYig4MCwgODAsIDgwKTsiIGQ9Ik0yMzMuNjY2NjY2NjY2NjY2NjYsMjQzLCA0MzkuNjY2NjY2NjY2NjY2NjMsMjgiIG1hcmtlci1lbmQ9IiIgY2xhc3M9ImxpbmsiLz48cGF0aCBzdHlsZT0ic3Ryb2tlLXdpZHRoOiAwLjU7IHN0cm9rZS1vcGFjaXR5OiAxOyBzdHJva2U6IHJnYig4MCwgODAsIDgwKTsiIGQ9Ik0yMzMuNjY2NjY2NjY2NjY2NjYsMjc4LCA0MzkuNjY2NjY2NjY2NjY2NjMsMjgiIG1hcmtlci1lbmQ9IiIgY2xhc3M9ImxpbmsiLz48cGF0aCBzdHlsZT0ic3Ryb2tlLXdpZHRoOiAwLjU7IHN0cm9rZS1vcGFjaXR5OiAxOyBzdHJva2U6IHJnYig4MCwgODAsIDgwKTsiIGQ9Ik0yMzMuNjY2NjY2NjY2NjY2NjYsMzEzLCA0MzkuNjY2NjY2NjY2NjY2NjMsMjgiIG1hcmtlci1lbmQ9IiIgY2xhc3M9ImxpbmsiLz48cGF0aCBzdHlsZT0ic3Ryb2tlLXdpZHRoOiAwLjU7IHN0cm9rZS1vcGFjaXR5OiAxOyBzdHJva2U6IHJnYig4MCwgODAsIDgwKTsiIGQ9Ik00MzkuNjY2NjY2NjY2NjY2NjMsMjgsIDY0NS42NjY2NjY2NjY2NjY2LDM1LjUiIG1hcmtlci1lbmQ9IiIgY2xhc3M9ImxpbmsiLz48cGF0aCBzdHlsZT0ic3Ryb2tlLXdpZHRoOiAwLjU7IHN0cm9rZS1vcGFjaXR5OiAxOyBzdHJva2U6IHJnYig4MCwgODAsIDgwKTsiIGQ9Ik00MzkuNjY2NjY2NjY2NjY2NjMsODcsIDY0NS42NjY2NjY2NjY2NjY2LDM1LjUiIG1hcmtlci1lbmQ9IiIgY2xhc3M9ImxpbmsiLz48cGF0aCBzdHlsZT0ic3Ryb2tlLXdpZHRoOiAwLjU7IHN0cm9rZS1vcGFjaXR5OiAxOyBzdHJva2U6IHJnYig4MCwgODAsIDgwKTsiIGQ9Ik00MzkuNjY2NjY2NjY2NjY2NjMsMTQ2LCA2NDUuNjY2NjY2NjY2NjY2NiwzNS41IiBtYXJrZXItZW5kPSIiIGNsYXNzPSJsaW5rIi8+PHBhdGggc3R5bGU9InN0cm9rZS13aWR0aDogMC41OyBzdHJva2Utb3BhY2l0eTogMTsgc3Ryb2tlOiByZ2IoODAsIDgwLCA4MCk7IiBkPSJNNDM5LjY2NjY2NjY2NjY2NjYzLDIwNSwgNjQ1LjY2NjY2NjY2NjY2NjYsMzUuNSIgbWFya2VyLWVuZD0iIiBjbGFzcz0ibGluayIvPjxwYXRoIHN0eWxlPSJzdHJva2Utd2lkdGg6IDAuNTsgc3Ryb2tlLW9wYWNpdHk6IDE7IHN0cm9rZTogcmdiKDgwLCA4MCwgODApOyIgZD0iTTQzOS42NjY2NjY2NjY2NjY2MywyNjQsIDY0NS42NjY2NjY2NjY2NjY2LDM1LjUiIG1hcmtlci1lbmQ9IiIgY2xhc3M9ImxpbmsiLz48cGF0aCBzdHlsZT0ic3Ryb2tlLXdpZHRoOiAwLjU7IHN0cm9rZS1vcGFjaXR5OiAxOyBzdHJva2U6IHJnYig4MCwgODAsIDgwKTsiIGQ9Ik00MzkuNjY2NjY2NjY2NjY2NjMsMzIzLCA2NDUuNjY2NjY2NjY2NjY2NiwzNS41IiBtYXJrZXItZW5kPSIiIGNsYXNzPSJsaW5rIi8+PHBhdGggc3R5bGU9InN0cm9rZS13aWR0aDogMC41OyBzdHJva2Utb3BhY2l0eTogMTsgc3Ryb2tlOiByZ2IoODAsIDgwLCA4MCk7IiBkPSJNNDM5LjY2NjY2NjY2NjY2NjYzLDM4MiwgNjQ1LjY2NjY2NjY2NjY2NjYsMzUuNSIgbWFya2VyLWVuZD0iIiBjbGFzcz0ibGluayIvPjxwYXRoIHN0eWxlPSJzdHJva2Utd2lkdGg6IDAuNTsgc3Ryb2tlLW9wYWNpdHk6IDE7IHN0cm9rZTogcmdiKDgwLCA4MCwgODApOyIgZD0iTTQzOS42NjY2NjY2NjY2NjY2Myw0NDEsIDY0NS42NjY2NjY2NjY2NjY2LDM1LjUiIG1hcmtlci1lbmQ9IiIgY2xhc3M9ImxpbmsiLz48cGF0aCBzdHlsZT0ic3Ryb2tlLXdpZHRoOiAwLjU7IHN0cm9rZS1vcGFjaXR5OiAxOyBzdHJva2U6IHJnYig4MCwgODAsIDgwKTsiIGQ9Ik02NDUuNjY2NjY2NjY2NjY2NiwzNS41LCA4NTEuNjY2NjY2NjY2NjY2NiwyMjMuNSIgbWFya2VyLWVuZD0iIiBjbGFzcz0ibGluayIvPjxwYXRoIHN0eWxlPSJzdHJva2Utd2lkdGg6IDAuNTsgc3Ryb2tlLW9wYWNpdHk6IDE7IHN0cm9rZTogcmdiKDgwLCA4MCwgODApOyIgZD0iTTY0NS42NjY2NjY2NjY2NjY2LDM1LjUsIDg1MS42NjY2NjY2NjY2NjY2LDI2MS41IiBtYXJrZXItZW5kPSIiIGNsYXNzPSJsaW5rIi8+PHBhdGggc3R5bGU9InN0cm9rZS13aWR0aDogMC41OyBzdHJva2Utb3BhY2l0eTogMTsgc3Ryb2tlOiByZ2IoODAsIDgwLCA4MCk7IiBkPSJNNjQ1LjY2NjY2NjY2NjY2NjYsMzUuNSwgODUxLjY2NjY2NjY2NjY2NjYsMjk5LjUiIG1hcmtlci1lbmQ9IiIgY2xhc3M9ImxpbmsiLz48cGF0aCBzdHlsZT0ic3Ryb2tlLXdpZHRoOiAwLjU7IHN0cm9rZS1vcGFjaXR5OiAxOyBzdHJva2U6IHJnYig4MCwgODAsIDgwKTsiIGQ9Ik02NDUuNjY2NjY2NjY2NjY2Niw5My41LCA4NTEuNjY2NjY2NjY2NjY2NiwyMjMuNSIgbWFya2VyLWVuZD0iIiBjbGFzcz0ibGluayIvPjxwYXRoIHN0eWxlPSJzdHJva2Utd2lkdGg6IDAuNTsgc3Ryb2tlLW9wYWNpdHk6IDE7IHN0cm9rZTogcmdiKDgwLCA4MCwgODApOyIgZD0iTTY0NS42NjY2NjY2NjY2NjY2LDkzLjUsIDg1MS42NjY2NjY2NjY2NjY2LDI2MS41IiBtYXJrZXItZW5kPSIiIGNsYXNzPSJsaW5rIi8+PHBhdGggc3R5bGU9InN0cm9rZS13aWR0aDogMC41OyBzdHJva2Utb3BhY2l0eTogMTsgc3Ryb2tlOiByZ2IoODAsIDgwLCA4MCk7IiBkPSJNNjQ1LjY2NjY2NjY2NjY2NjYsOTMuNSwgODUxLjY2NjY2NjY2NjY2NjYsMjk5LjUiIG1hcmtlci1lbmQ9IiIgY2xhc3M9ImxpbmsiLz48cGF0aCBzdHlsZT0ic3Ryb2tlLXdpZHRoOiAwLjU7IHN0cm9rZS1vcGFjaXR5OiAxOyBzdHJva2U6IHJnYig4MCwgODAsIDgwKTsiIGQ9Ik02NDUuNjY2NjY2NjY2NjY2NiwxNTEuNSwgODUxLjY2NjY2NjY2NjY2NjYsMjIzLjUiIG1hcmtlci1lbmQ9IiIgY2xhc3M9ImxpbmsiLz48cGF0aCBzdHlsZT0ic3Ryb2tlLXdpZHRoOiAwLjU7IHN0cm9rZS1vcGFjaXR5OiAxOyBzdHJva2U6IHJnYig4MCwgODAsIDgwKTsiIGQ9Ik02NDUuNjY2NjY2NjY2NjY2NiwxNTEuNSwgODUxLjY2NjY2NjY2NjY2NjYsMjYxLjUiIG1hcmtlci1lbmQ9IiIgY2xhc3M9ImxpbmsiLz48cGF0aCBzdHlsZT0ic3Ryb2tlLXdpZHRoOiAwLjU7IHN0cm9rZS1vcGFjaXR5OiAxOyBzdHJva2U6IHJnYig4MCwgODAsIDgwKTsiIGQ9Ik02NDUuNjY2NjY2NjY2NjY2NiwxNTEuNSwgODUxLjY2NjY2NjY2NjY2NjYsMjk5LjUiIG1hcmtlci1lbmQ9IiIgY2xhc3M9ImxpbmsiLz48cGF0aCBzdHlsZT0ic3Ryb2tlLXdpZHRoOiAwLjU7IHN0cm9rZS1vcGFjaXR5OiAxOyBzdHJva2U6IHJnYig4MCwgODAsIDgwKTsiIGQ9Ik02NDUuNjY2NjY2NjY2NjY2NiwyMDkuNSwgODUxLjY2NjY2NjY2NjY2NjYsMjIzLjUiIG1hcmtlci1lbmQ9IiIgY2xhc3M9ImxpbmsiLz48cGF0aCBzdHlsZT0ic3Ryb2tlLXdpZHRoOiAwLjU7IHN0cm9rZS1vcGFjaXR5OiAxOyBzdHJva2U6IHJnYig4MCwgODAsIDgwKTsiIGQ9Ik02NDUuNjY2NjY2NjY2NjY2NiwyMDkuNSwgODUxLjY2NjY2NjY2NjY2NjYsMjYxLjUiIG1hcmtlci1lbmQ9IiIgY2xhc3M9ImxpbmsiLz48cGF0aCBzdHlsZT0ic3Ryb2tlLXdpZHRoOiAwLjU7IHN0cm9rZS1vcGFjaXR5OiAxOyBzdHJva2U6IHJnYig4MCwgODAsIDgwKTsiIGQ9Ik02NDUuNjY2NjY2NjY2NjY2NiwyMDkuNSwgODUxLjY2NjY2NjY2NjY2NjYsMjk5LjUiIG1hcmtlci1lbmQ9IiIgY2xhc3M9ImxpbmsiLz48cGF0aCBzdHlsZT0ic3Ryb2tlLXdpZHRoOiAwLjU7IHN0cm9rZS1vcGFjaXR5OiAxOyBzdHJva2U6IHJnYig4MCwgODAsIDgwKTsiIGQ9Ik02NDUuNjY2NjY2NjY2NjY2NiwyNjcuNSwgODUxLjY2NjY2NjY2NjY2NjYsMjIzLjUiIG1hcmtlci1lbmQ9IiIgY2xhc3M9ImxpbmsiLz48cGF0aCBzdHlsZT0ic3Ryb2tlLXdpZHRoOiAwLjU7IHN0cm9rZS1vcGFjaXR5OiAxOyBzdHJva2U6IHJnYig4MCwgODAsIDgwKTsiIGQ9Ik02NDUuNjY2NjY2NjY2NjY2NiwyNjcuNSwgODUxLjY2NjY2NjY2NjY2NjYsMjYxLjUiIG1hcmtlci1lbmQ9IiIgY2xhc3M9ImxpbmsiLz48cGF0aCBzdHlsZT0ic3Ryb2tlLXdpZHRoOiAwLjU7IHN0cm9rZS1vcGFjaXR5OiAxOyBzdHJva2U6IHJnYig4MCwgODAsIDgwKTsiIGQ9Ik02NDUuNjY2NjY2NjY2NjY2NiwyNjcuNSwgODUxLjY2NjY2NjY2NjY2NjYsMjk5LjUiIG1hcmtlci1lbmQ9IiIgY2xhc3M9ImxpbmsiLz48cGF0aCBzdHlsZT0ic3Ryb2tlLXdpZHRoOiAwLjU7IHN0cm9rZS1vcGFjaXR5OiAxOyBzdHJva2U6IHJnYig4MCwgODAsIDgwKTsiIGQ9Ik02NDUuNjY2NjY2NjY2NjY2NiwzMjUuNSwgODUxLjY2NjY2NjY2NjY2NjYsMjIzLjUiIG1hcmtlci1lbmQ9IiIgY2xhc3M9ImxpbmsiLz48cGF0aCBzdHlsZT0ic3Ryb2tlLXdpZHRoOiAwLjU7IHN0cm9rZS1vcGFjaXR5OiAxOyBzdHJva2U6IHJnYig4MCwgODAsIDgwKTsiIGQ9Ik02NDUuNjY2NjY2NjY2NjY2NiwzMjUuNSwgODUxLjY2NjY2NjY2NjY2NjYsMjYxLjUiIG1hcmtlci1lbmQ9IiIgY2xhc3M9ImxpbmsiLz48cGF0aCBzdHlsZT0ic3Ryb2tlLXdpZHRoOiAwLjU7IHN0cm9rZS1vcGFjaXR5OiAxOyBzdHJva2U6IHJnYig4MCwgODAsIDgwKTsiIGQ9Ik02NDUuNjY2NjY2NjY2NjY2NiwzMjUuNSwgODUxLjY2NjY2NjY2NjY2NjYsMjk5LjUiIG1hcmtlci1lbmQ9IiIgY2xhc3M9ImxpbmsiLz48cGF0aCBzdHlsZT0ic3Ryb2tlLXdpZHRoOiAwLjU7IHN0cm9rZS1vcGFjaXR5OiAxOyBzdHJva2U6IHJnYig4MCwgODAsIDgwKTsiIGQ9Ik02NDUuNjY2NjY2NjY2NjY2NiwzODMuNSwgODUxLjY2NjY2NjY2NjY2NjYsMjIzLjUiIG1hcmtlci1lbmQ9IiIgY2xhc3M9ImxpbmsiLz48cGF0aCBzdHlsZT0ic3Ryb2tlLXdpZHRoOiAwLjU7IHN0cm9rZS1vcGFjaXR5OiAxOyBzdHJva2U6IHJnYig4MCwgODAsIDgwKTsiIGQ9Ik02NDUuNjY2NjY2NjY2NjY2NiwzODMuNSwgODUxLjY2NjY2NjY2NjY2NjYsMjYxLjUiIG1hcmtlci1lbmQ9IiIgY2xhc3M9ImxpbmsiLz48cGF0aCBzdHlsZT0ic3Ryb2tlLXdpZHRoOiAwLjU7IHN0cm9rZS1vcGFjaXR5OiAxOyBzdHJva2U6IHJnYig4MCwgODAsIDgwKTsiIGQ9Ik02NDUuNjY2NjY2NjY2NjY2NiwzODMuNSwgODUxLjY2NjY2NjY2NjY2NjYsMjk5LjUiIG1hcmtlci1lbmQ9IiIgY2xhc3M9ImxpbmsiLz48cGF0aCBzdHlsZT0ic3Ryb2tlLXdpZHRoOiAwLjU7IHN0cm9rZS1vcGFjaXR5OiAxOyBzdHJva2U6IHJnYig4MCwgODAsIDgwKTsiIGQ9Ik02NDUuNjY2NjY2NjY2NjY2Niw0NDEuNSwgODUxLjY2NjY2NjY2NjY2NjYsMjIzLjUiIG1hcmtlci1lbmQ9IiIgY2xhc3M9ImxpbmsiLz48cGF0aCBzdHlsZT0ic3Ryb2tlLXdpZHRoOiAwLjU7IHN0cm9rZS1vcGFjaXR5OiAxOyBzdHJva2U6IHJnYig4MCwgODAsIDgwKTsiIGQ9Ik02NDUuNjY2NjY2NjY2NjY2Niw0NDEuNSwgODUxLjY2NjY2NjY2NjY2NjYsMjYxLjUiIG1hcmtlci1lbmQ9IiIgY2xhc3M9ImxpbmsiLz48cGF0aCBzdHlsZT0ic3Ryb2tlLXdpZHRoOiAwLjU7IHN0cm9rZS1vcGFjaXR5OiAxOyBzdHJva2U6IHJnYig4MCwgODAsIDgwKTsiIGQ9Ik02NDUuNjY2NjY2NjY2NjY2Niw0NDEuNSwgODUxLjY2NjY2NjY2NjY2NjYsMjk5LjUiIG1hcmtlci1lbmQ9IiIgY2xhc3M9ImxpbmsiLz48cGF0aCBzdHlsZT0ic3Ryb2tlLXdpZHRoOiAwLjU7IHN0cm9rZS1vcGFjaXR5OiAxOyBzdHJva2U6IHJnYig4MCwgODAsIDgwKTsiIGQ9Ik0yMzMuNjY2NjY2NjY2NjY2NjYsMzQ4LCA0MzkuNjY2NjY2NjY2NjY2NjMsMjgiIG1hcmtlci1lbmQ9IiIgY2xhc3M9ImxpbmsiLz48cGF0aCBzdHlsZT0ic3Ryb2tlLXdpZHRoOiAwLjU7IHN0cm9rZS1vcGFjaXR5OiAxOyBzdHJva2U6IHJnYig4MCwgODAsIDgwKTsiIGQ9Ik0yMzMuNjY2NjY2NjY2NjY2NjYsMzQ4LCA0MzkuNjY2NjY2NjY2NjY2NjMsODciIG1hcmtlci1lbmQ9IiIgY2xhc3M9ImxpbmsiLz48cGF0aCBzdHlsZT0ic3Ryb2tlLXdpZHRoOiAwLjU7IHN0cm9rZS1vcGFjaXR5OiAxOyBzdHJva2U6IHJnYig4MCwgODAsIDgwKTsiIGQ9Ik0yMzMuNjY2NjY2NjY2NjY2NjYsMzQ4LCA0MzkuNjY2NjY2NjY2NjY2NjMsMTQ2IiBtYXJrZXItZW5kPSIiIGNsYXNzPSJsaW5rIi8+PHBhdGggc3R5bGU9InN0cm9rZS13aWR0aDogMC41OyBzdHJva2Utb3BhY2l0eTogMTsgc3Ryb2tlOiByZ2IoODAsIDgwLCA4MCk7IiBkPSJNMjMzLjY2NjY2NjY2NjY2NjY2LDM0OCwgNDM5LjY2NjY2NjY2NjY2NjYzLDIwNSIgbWFya2VyLWVuZD0iIiBjbGFzcz0ibGluayIvPjxwYXRoIHN0eWxlPSJzdHJva2Utd2lkdGg6IDAuNTsgc3Ryb2tlLW9wYWNpdHk6IDE7IHN0cm9rZTogcmdiKDgwLCA4MCwgODApOyIgZD0iTTIzMy42NjY2NjY2NjY2NjY2NiwzNDgsIDQzOS42NjY2NjY2NjY2NjY2MywyNjQiIG1hcmtlci1lbmQ9IiIgY2xhc3M9ImxpbmsiLz48cGF0aCBzdHlsZT0ic3Ryb2tlLXdpZHRoOiAwLjU7IHN0cm9rZS1vcGFjaXR5OiAxOyBzdHJva2U6IHJnYig4MCwgODAsIDgwKTsiIGQ9Ik0yMzMuNjY2NjY2NjY2NjY2NjYsMzQ4LCA0MzkuNjY2NjY2NjY2NjY2NjMsMzIzIiBtYXJrZXItZW5kPSIiIGNsYXNzPSJsaW5rIi8+PHBhdGggc3R5bGU9InN0cm9rZS13aWR0aDogMC41OyBzdHJva2Utb3BhY2l0eTogMTsgc3Ryb2tlOiByZ2IoODAsIDgwLCA4MCk7IiBkPSJNMjMzLjY2NjY2NjY2NjY2NjY2LDM0OCwgNDM5LjY2NjY2NjY2NjY2NjYzLDM4MiIgbWFya2VyLWVuZD0iIiBjbGFzcz0ibGluayIvPjxwYXRoIHN0eWxlPSJzdHJva2Utd2lkdGg6IDAuNTsgc3Ryb2tlLW9wYWNpdHk6IDE7IHN0cm9rZTogcmdiKDgwLCA4MCwgODApOyIgZD0iTTIzMy42NjY2NjY2NjY2NjY2NiwzNDgsIDQzOS42NjY2NjY2NjY2NjY2Myw0NDEiIG1hcmtlci1lbmQ9IiIgY2xhc3M9ImxpbmsiLz48cGF0aCBzdHlsZT0ic3Ryb2tlLXdpZHRoOiAwLjU7IHN0cm9rZS1vcGFjaXR5OiAxOyBzdHJva2U6IHJnYig4MCwgODAsIDgwKTsiIGQ9Ik0yMzMuNjY2NjY2NjY2NjY2NjYsMzgzLCA0MzkuNjY2NjY2NjY2NjY2NjMsMjgiIG1hcmtlci1lbmQ9IiIgY2xhc3M9ImxpbmsiLz48cGF0aCBzdHlsZT0ic3Ryb2tlLXdpZHRoOiAwLjU7IHN0cm9rZS1vcGFjaXR5OiAxOyBzdHJva2U6IHJnYig4MCwgODAsIDgwKTsiIGQ9Ik0yMzMuNjY2NjY2NjY2NjY2NjYsMzgzLCA0MzkuNjY2NjY2NjY2NjY2NjMsODciIG1hcmtlci1lbmQ9IiIgY2xhc3M9ImxpbmsiLz48cGF0aCBzdHlsZT0ic3Ryb2tlLXdpZHRoOiAwLjU7IHN0cm9rZS1vcGFjaXR5OiAxOyBzdHJva2U6IHJnYig4MCwgODAsIDgwKTsiIGQ9Ik0yMzMuNjY2NjY2NjY2NjY2NjYsMzgzLCA0MzkuNjY2NjY2NjY2NjY2NjMsMTQ2IiBtYXJrZXItZW5kPSIiIGNsYXNzPSJsaW5rIi8+PHBhdGggc3R5bGU9InN0cm9rZS13aWR0aDogMC41OyBzdHJva2Utb3BhY2l0eTogMTsgc3Ryb2tlOiByZ2IoODAsIDgwLCA4MCk7IiBkPSJNMjMzLjY2NjY2NjY2NjY2NjY2LDM4MywgNDM5LjY2NjY2NjY2NjY2NjYzLDIwNSIgbWFya2VyLWVuZD0iIiBjbGFzcz0ibGluayIvPjxwYXRoIHN0eWxlPSJzdHJva2Utd2lkdGg6IDAuNTsgc3Ryb2tlLW9wYWNpdHk6IDE7IHN0cm9rZTogcmdiKDgwLCA4MCwgODApOyIgZD0iTTIzMy42NjY2NjY2NjY2NjY2NiwzODMsIDQzOS42NjY2NjY2NjY2NjY2MywyNjQiIG1hcmtlci1lbmQ9IiIgY2xhc3M9ImxpbmsiLz48cGF0aCBzdHlsZT0ic3Ryb2tlLXdpZHRoOiAwLjU7IHN0cm9rZS1vcGFjaXR5OiAxOyBzdHJva2U6IHJnYig4MCwgODAsIDgwKTsiIGQ9Ik0yMzMuNjY2NjY2NjY2NjY2NjYsMzgzLCA0MzkuNjY2NjY2NjY2NjY2NjMsMzIzIiBtYXJrZXItZW5kPSIiIGNsYXNzPSJsaW5rIi8+PHBhdGggc3R5bGU9InN0cm9rZS13aWR0aDogMC41OyBzdHJva2Utb3BhY2l0eTogMTsgc3Ryb2tlOiByZ2IoODAsIDgwLCA4MCk7IiBkPSJNMjMzLjY2NjY2NjY2NjY2NjY2LDM4MywgNDM5LjY2NjY2NjY2NjY2NjYzLDM4MiIgbWFya2VyLWVuZD0iIiBjbGFzcz0ibGluayIvPjxwYXRoIHN0eWxlPSJzdHJva2Utd2lkdGg6IDAuNTsgc3Ryb2tlLW9wYWNpdHk6IDE7IHN0cm9rZTogcmdiKDgwLCA4MCwgODApOyIgZD0iTTIzMy42NjY2NjY2NjY2NjY2NiwzODMsIDQzOS42NjY2NjY2NjY2NjY2Myw0NDEiIG1hcmtlci1lbmQ9IiIgY2xhc3M9ImxpbmsiLz48cGF0aCBzdHlsZT0ic3Ryb2tlLXdpZHRoOiAwLjU7IHN0cm9rZS1vcGFjaXR5OiAxOyBzdHJva2U6IHJnYig4MCwgODAsIDgwKTsiIGQ9Ik0yMzMuNjY2NjY2NjY2NjY2NjYsNDE4LCA0MzkuNjY2NjY2NjY2NjY2NjMsMjgiIG1hcmtlci1lbmQ9IiIgY2xhc3M9ImxpbmsiLz48cGF0aCBzdHlsZT0ic3Ryb2tlLXdpZHRoOiAwLjU7IHN0cm9rZS1vcGFjaXR5OiAxOyBzdHJva2U6IHJnYig4MCwgODAsIDgwKTsiIGQ9Ik0yMzMuNjY2NjY2NjY2NjY2NjYsNDE4LCA0MzkuNjY2NjY2NjY2NjY2NjMsODciIG1hcmtlci1lbmQ9IiIgY2xhc3M9ImxpbmsiLz48cGF0aCBzdHlsZT0ic3Ryb2tlLXdpZHRoOiAwLjU7IHN0cm9rZS1vcGFjaXR5OiAxOyBzdHJva2U6IHJnYig4MCwgODAsIDgwKTsiIGQ9Ik0yMzMuNjY2NjY2NjY2NjY2NjYsNDE4LCA0MzkuNjY2NjY2NjY2NjY2NjMsMTQ2IiBtYXJrZXItZW5kPSIiIGNsYXNzPSJsaW5rIi8+PHBhdGggc3R5bGU9InN0cm9rZS13aWR0aDogMC41OyBzdHJva2Utb3BhY2l0eTogMTsgc3Ryb2tlOiByZ2IoODAsIDgwLCA4MCk7IiBkPSJNMjMzLjY2NjY2NjY2NjY2NjY2LDQxOCwgNDM5LjY2NjY2NjY2NjY2NjYzLDIwNSIgbWFya2VyLWVuZD0iIiBjbGFzcz0ibGluayIvPjxwYXRoIHN0eWxlPSJzdHJva2Utd2lkdGg6IDAuNTsgc3Ryb2tlLW9wYWNpdHk6IDE7IHN0cm9rZTogcmdiKDgwLCA4MCwgODApOyIgZD0iTTIzMy42NjY2NjY2NjY2NjY2Niw0MTgsIDQzOS42NjY2NjY2NjY2NjY2MywyNjQiIG1hcmtlci1lbmQ9IiIgY2xhc3M9ImxpbmsiLz48cGF0aCBzdHlsZT0ic3Ryb2tlLXdpZHRoOiAwLjU7IHN0cm9rZS1vcGFjaXR5OiAxOyBzdHJva2U6IHJnYig4MCwgODAsIDgwKTsiIGQ9Ik0yMzMuNjY2NjY2NjY2NjY2NjYsNDE4LCA0MzkuNjY2NjY2NjY2NjY2NjMsMzIzIiBtYXJrZXItZW5kPSIiIGNsYXNzPSJsaW5rIi8+PHBhdGggc3R5bGU9InN0cm9rZS13aWR0aDogMC41OyBzdHJva2Utb3BhY2l0eTogMTsgc3Ryb2tlOiByZ2IoODAsIDgwLCA4MCk7IiBkPSJNMjMzLjY2NjY2NjY2NjY2NjY2LDQxOCwgNDM5LjY2NjY2NjY2NjY2NjYzLDM4MiIgbWFya2VyLWVuZD0iIiBjbGFzcz0ibGluayIvPjxwYXRoIHN0eWxlPSJzdHJva2Utd2lkdGg6IDAuNTsgc3Ryb2tlLW9wYWNpdHk6IDE7IHN0cm9rZTogcmdiKDgwLCA4MCwgODApOyIgZD0iTTIzMy42NjY2NjY2NjY2NjY2Niw0MTgsIDQzOS42NjY2NjY2NjY2NjY2Myw0NDEiIG1hcmtlci1lbmQ9IiIgY2xhc3M9ImxpbmsiLz48cGF0aCBzdHlsZT0ic3Ryb2tlLXdpZHRoOiAwLjU7IHN0cm9rZS1vcGFjaXR5OiAxOyBzdHJva2U6IHJnYig4MCwgODAsIDgwKTsiIGQ9Ik0yMzMuNjY2NjY2NjY2NjY2NjYsNDUzLCA0MzkuNjY2NjY2NjY2NjY2NjMsMjgiIG1hcmtlci1lbmQ9IiIgY2xhc3M9ImxpbmsiLz48cGF0aCBzdHlsZT0ic3Ryb2tlLXdpZHRoOiAwLjU7IHN0cm9rZS1vcGFjaXR5OiAxOyBzdHJva2U6IHJnYig4MCwgODAsIDgwKTsiIGQ9Ik0yMzMuNjY2NjY2NjY2NjY2NjYsNDUzLCA0MzkuNjY2NjY2NjY2NjY2NjMsODciIG1hcmtlci1lbmQ9IiIgY2xhc3M9ImxpbmsiLz48cGF0aCBzdHlsZT0ic3Ryb2tlLXdpZHRoOiAwLjU7IHN0cm9rZS1vcGFjaXR5OiAxOyBzdHJva2U6IHJnYig4MCwgODAsIDgwKTsiIGQ9Ik0yMzMuNjY2NjY2NjY2NjY2NjYsNDUzLCA0MzkuNjY2NjY2NjY2NjY2NjMsMTQ2IiBtYXJrZXItZW5kPSIiIGNsYXNzPSJsaW5rIi8+PHBhdGggc3R5bGU9InN0cm9rZS13aWR0aDogMC41OyBzdHJva2Utb3BhY2l0eTogMTsgc3Ryb2tlOiByZ2IoODAsIDgwLCA4MCk7IiBkPSJNMjMzLjY2NjY2NjY2NjY2NjY2LDQ1MywgNDM5LjY2NjY2NjY2NjY2NjYzLDIwNSIgbWFya2VyLWVuZD0iIiBjbGFzcz0ibGluayIvPjxwYXRoIHN0eWxlPSJzdHJva2Utd2lkdGg6IDAuNTsgc3Ryb2tlLW9wYWNpdHk6IDE7IHN0cm9rZTogcmdiKDgwLCA4MCwgODApOyIgZD0iTTIzMy42NjY2NjY2NjY2NjY2Niw0NTMsIDQzOS42NjY2NjY2NjY2NjY2MywyNjQiIG1hcmtlci1lbmQ9IiIgY2xhc3M9ImxpbmsiLz48cGF0aCBzdHlsZT0ic3Ryb2tlLXdpZHRoOiAwLjU7IHN0cm9rZS1vcGFjaXR5OiAxOyBzdHJva2U6IHJnYig4MCwgODAsIDgwKTsiIGQ9Ik0yMzMuNjY2NjY2NjY2NjY2NjYsNDUzLCA0MzkuNjY2NjY2NjY2NjY2NjMsMzIzIiBtYXJrZXItZW5kPSIiIGNsYXNzPSJsaW5rIi8+PHBhdGggc3R5bGU9InN0cm9rZS13aWR0aDogMC41OyBzdHJva2Utb3BhY2l0eTogMTsgc3Ryb2tlOiByZ2IoODAsIDgwLCA4MCk7IiBkPSJNMjMzLjY2NjY2NjY2NjY2NjY2LDQ1MywgNDM5LjY2NjY2NjY2NjY2NjYzLDM4MiIgbWFya2VyLWVuZD0iIiBjbGFzcz0ibGluayIvPjxwYXRoIHN0eWxlPSJzdHJva2Utd2lkdGg6IDAuNTsgc3Ryb2tlLW9wYWNpdHk6IDE7IHN0cm9rZTogcmdiKDgwLCA4MCwgODApOyIgZD0iTTIzMy42NjY2NjY2NjY2NjY2Niw0NTMsIDQzOS42NjY2NjY2NjY2NjY2Myw0NDEiIG1hcmtlci1lbmQ9IiIgY2xhc3M9ImxpbmsiLz48cGF0aCBzdHlsZT0ic3Ryb2tlLXdpZHRoOiAwLjU7IHN0cm9rZS1vcGFjaXR5OiAxOyBzdHJva2U6IHJnYig4MCwgODAsIDgwKTsiIGQ9Ik0yMzMuNjY2NjY2NjY2NjY2NjYsNDg4LCA0MzkuNjY2NjY2NjY2NjY2NjMsMjgiIG1hcmtlci1lbmQ9IiIgY2xhc3M9ImxpbmsiLz48cGF0aCBzdHlsZT0ic3Ryb2tlLXdpZHRoOiAwLjU7IHN0cm9rZS1vcGFjaXR5OiAxOyBzdHJva2U6IHJnYig4MCwgODAsIDgwKTsiIGQ9Ik0yMzMuNjY2NjY2NjY2NjY2NjYsNDg4LCA0MzkuNjY2NjY2NjY2NjY2NjMsODciIG1hcmtlci1lbmQ9IiIgY2xhc3M9ImxpbmsiLz48cGF0aCBzdHlsZT0ic3Ryb2tlLXdpZHRoOiAwLjU7IHN0cm9rZS1vcGFjaXR5OiAxOyBzdHJva2U6IHJnYig4MCwgODAsIDgwKTsiIGQ9Ik0yMzMuNjY2NjY2NjY2NjY2NjYsNDg4LCA0MzkuNjY2NjY2NjY2NjY2NjMsMTQ2IiBtYXJrZXItZW5kPSIiIGNsYXNzPSJsaW5rIi8+PHBhdGggc3R5bGU9InN0cm9rZS13aWR0aDogMC41OyBzdHJva2Utb3BhY2l0eTogMTsgc3Ryb2tlOiByZ2IoODAsIDgwLCA4MCk7IiBkPSJNMjMzLjY2NjY2NjY2NjY2NjY2LDQ4OCwgNDM5LjY2NjY2NjY2NjY2NjYzLDIwNSIgbWFya2VyLWVuZD0iIiBjbGFzcz0ibGluayIvPjxwYXRoIHN0eWxlPSJzdHJva2Utd2lkdGg6IDAuNTsgc3Ryb2tlLW9wYWNpdHk6IDE7IHN0cm9rZTogcmdiKDgwLCA4MCwgODApOyIgZD0iTTIzMy42NjY2NjY2NjY2NjY2Niw0ODgsIDQzOS42NjY2NjY2NjY2NjY2MywyNjQiIG1hcmtlci1lbmQ9IiIgY2xhc3M9ImxpbmsiLz48cGF0aCBzdHlsZT0ic3Ryb2tlLXdpZHRoOiAwLjU7IHN0cm9rZS1vcGFjaXR5OiAxOyBzdHJva2U6IHJnYig4MCwgODAsIDgwKTsiIGQ9Ik0yMzMuNjY2NjY2NjY2NjY2NjYsNDg4LCA0MzkuNjY2NjY2NjY2NjY2NjMsMzIzIiBtYXJrZXItZW5kPSIiIGNsYXNzPSJsaW5rIi8+PHBhdGggc3R5bGU9InN0cm9rZS13aWR0aDogMC41OyBzdHJva2Utb3BhY2l0eTogMTsgc3Ryb2tlOiByZ2IoODAsIDgwLCA4MCk7IiBkPSJNMjMzLjY2NjY2NjY2NjY2NjY2LDQ4OCwgNDM5LjY2NjY2NjY2NjY2NjYzLDM4MiIgbWFya2VyLWVuZD0iIiBjbGFzcz0ibGluayIvPjxwYXRoIHN0eWxlPSJzdHJva2Utd2lkdGg6IDAuNTsgc3Ryb2tlLW9wYWNpdHk6IDE7IHN0cm9rZTogcmdiKDgwLCA4MCwgODApOyIgZD0iTTIzMy42NjY2NjY2NjY2NjY2Niw0ODgsIDQzOS42NjY2NjY2NjY2NjY2Myw0NDEiIG1hcmtlci1lbmQ9IiIgY2xhc3M9ImxpbmsiLz48cGF0aCBzdHlsZT0ic3Ryb2tlLXdpZHRoOiAwLjU7IHN0cm9rZS1vcGFjaXR5OiAxOyBzdHJva2U6IHJnYig4MCwgODAsIDgwKTsiIGQ9Ik02NDUuNjY2NjY2NjY2NjY2NiwzNS41LCA4NTEuNjY2NjY2NjY2NjY2NiwzMzcuNSIgbWFya2VyLWVuZD0iIiBjbGFzcz0ibGluayIvPjxwYXRoIHN0eWxlPSJzdHJva2Utd2lkdGg6IDAuNTsgc3Ryb2tlLW9wYWNpdHk6IDE7IHN0cm9rZTogcmdiKDgwLCA4MCwgODApOyIgZD0iTTY0NS42NjY2NjY2NjY2NjY2LDM1LjUsIDg1MS42NjY2NjY2NjY2NjY2LDM3NS41IiBtYXJrZXItZW5kPSIiIGNsYXNzPSJsaW5rIi8+PHBhdGggc3R5bGU9InN0cm9rZS13aWR0aDogMC41OyBzdHJva2Utb3BhY2l0eTogMTsgc3Ryb2tlOiByZ2IoODAsIDgwLCA4MCk7IiBkPSJNNjQ1LjY2NjY2NjY2NjY2NjYsMzUuNSwgODUxLjY2NjY2NjY2NjY2NjYsNDEzLjUiIG1hcmtlci1lbmQ9IiIgY2xhc3M9ImxpbmsiLz48cGF0aCBzdHlsZT0ic3Ryb2tlLXdpZHRoOiAwLjU7IHN0cm9rZS1vcGFjaXR5OiAxOyBzdHJva2U6IHJnYig4MCwgODAsIDgwKTsiIGQ9Ik02NDUuNjY2NjY2NjY2NjY2NiwzNS41LCA4NTEuNjY2NjY2NjY2NjY2Niw0NTEuNSIgbWFya2VyLWVuZD0iIiBjbGFzcz0ibGluayIvPjxwYXRoIHN0eWxlPSJzdHJva2Utd2lkdGg6IDAuNTsgc3Ryb2tlLW9wYWNpdHk6IDE7IHN0cm9rZTogcmdiKDgwLCA4MCwgODApOyIgZD0iTTY0NS42NjY2NjY2NjY2NjY2LDM1LjUsIDg1MS42NjY2NjY2NjY2NjY2LDQ4OS41IiBtYXJrZXItZW5kPSIiIGNsYXNzPSJsaW5rIi8+PHBhdGggc3R5bGU9InN0cm9rZS13aWR0aDogMC41OyBzdHJva2Utb3BhY2l0eTogMTsgc3Ryb2tlOiByZ2IoODAsIDgwLCA4MCk7IiBkPSJNNjQ1LjY2NjY2NjY2NjY2NjYsOTMuNSwgODUxLjY2NjY2NjY2NjY2NjYsMzM3LjUiIG1hcmtlci1lbmQ9IiIgY2xhc3M9ImxpbmsiLz48cGF0aCBzdHlsZT0ic3Ryb2tlLXdpZHRoOiAwLjU7IHN0cm9rZS1vcGFjaXR5OiAxOyBzdHJva2U6IHJnYig4MCwgODAsIDgwKTsiIGQ9Ik02NDUuNjY2NjY2NjY2NjY2Niw5My41LCA4NTEuNjY2NjY2NjY2NjY2NiwzNzUuNSIgbWFya2VyLWVuZD0iIiBjbGFzcz0ibGluayIvPjxwYXRoIHN0eWxlPSJzdHJva2Utd2lkdGg6IDAuNTsgc3Ryb2tlLW9wYWNpdHk6IDE7IHN0cm9rZTogcmdiKDgwLCA4MCwgODApOyIgZD0iTTY0NS42NjY2NjY2NjY2NjY2LDkzLjUsIDg1MS42NjY2NjY2NjY2NjY2LDQxMy41IiBtYXJrZXItZW5kPSIiIGNsYXNzPSJsaW5rIi8+PHBhdGggc3R5bGU9InN0cm9rZS13aWR0aDogMC41OyBzdHJva2Utb3BhY2l0eTogMTsgc3Ryb2tlOiByZ2IoODAsIDgwLCA4MCk7IiBkPSJNNjQ1LjY2NjY2NjY2NjY2NjYsOTMuNSwgODUxLjY2NjY2NjY2NjY2NjYsNDUxLjUiIG1hcmtlci1lbmQ9IiIgY2xhc3M9ImxpbmsiLz48cGF0aCBzdHlsZT0ic3Ryb2tlLXdpZHRoOiAwLjU7IHN0cm9rZS1vcGFjaXR5OiAxOyBzdHJva2U6IHJnYig4MCwgODAsIDgwKTsiIGQ9Ik02NDUuNjY2NjY2NjY2NjY2Niw5My41LCA4NTEuNjY2NjY2NjY2NjY2Niw0ODkuNSIgbWFya2VyLWVuZD0iIiBjbGFzcz0ibGluayIvPjxwYXRoIHN0eWxlPSJzdHJva2Utd2lkdGg6IDAuNTsgc3Ryb2tlLW9wYWNpdHk6IDE7IHN0cm9rZTogcmdiKDgwLCA4MCwgODApOyIgZD0iTTY0NS42NjY2NjY2NjY2NjY2LDE1MS41LCA4NTEuNjY2NjY2NjY2NjY2NiwzMzcuNSIgbWFya2VyLWVuZD0iIiBjbGFzcz0ibGluayIvPjxwYXRoIHN0eWxlPSJzdHJva2Utd2lkdGg6IDAuNTsgc3Ryb2tlLW9wYWNpdHk6IDE7IHN0cm9rZTogcmdiKDgwLCA4MCwgODApOyIgZD0iTTY0NS42NjY2NjY2NjY2NjY2LDE1MS41LCA4NTEuNjY2NjY2NjY2NjY2NiwzNzUuNSIgbWFya2VyLWVuZD0iIiBjbGFzcz0ibGluayIvPjxwYXRoIHN0eWxlPSJzdHJva2Utd2lkdGg6IDAuNTsgc3Ryb2tlLW9wYWNpdHk6IDE7IHN0cm9rZTogcmdiKDgwLCA4MCwgODApOyIgZD0iTTY0NS42NjY2NjY2NjY2NjY2LDE1MS41LCA4NTEuNjY2NjY2NjY2NjY2Niw0MTMuNSIgbWFya2VyLWVuZD0iIiBjbGFzcz0ibGluayIvPjxwYXRoIHN0eWxlPSJzdHJva2Utd2lkdGg6IDAuNTsgc3Ryb2tlLW9wYWNpdHk6IDE7IHN0cm9rZTogcmdiKDgwLCA4MCwgODApOyIgZD0iTTY0NS42NjY2NjY2NjY2NjY2LDE1MS41LCA4NTEuNjY2NjY2NjY2NjY2Niw0NTEuNSIgbWFya2VyLWVuZD0iIiBjbGFzcz0ibGluayIvPjxwYXRoIHN0eWxlPSJzdHJva2Utd2lkdGg6IDAuNTsgc3Ryb2tlLW9wYWNpdHk6IDE7IHN0cm9rZTogcmdiKDgwLCA4MCwgODApOyIgZD0iTTY0NS42NjY2NjY2NjY2NjY2LDE1MS41LCA4NTEuNjY2NjY2NjY2NjY2Niw0ODkuNSIgbWFya2VyLWVuZD0iIiBjbGFzcz0ibGluayIvPjxwYXRoIHN0eWxlPSJzdHJva2Utd2lkdGg6IDAuNTsgc3Ryb2tlLW9wYWNpdHk6IDE7IHN0cm9rZTogcmdiKDgwLCA4MCwgODApOyIgZD0iTTY0NS42NjY2NjY2NjY2NjY2LDIwOS41LCA4NTEuNjY2NjY2NjY2NjY2NiwzMzcuNSIgbWFya2VyLWVuZD0iIiBjbGFzcz0ibGluayIvPjxwYXRoIHN0eWxlPSJzdHJva2Utd2lkdGg6IDAuNTsgc3Ryb2tlLW9wYWNpdHk6IDE7IHN0cm9rZTogcmdiKDgwLCA4MCwgODApOyIgZD0iTTY0NS42NjY2NjY2NjY2NjY2LDIwOS41LCA4NTEuNjY2NjY2NjY2NjY2NiwzNzUuNSIgbWFya2VyLWVuZD0iIiBjbGFzcz0ibGluayIvPjxwYXRoIHN0eWxlPSJzdHJva2Utd2lkdGg6IDAuNTsgc3Ryb2tlLW9wYWNpdHk6IDE7IHN0cm9rZTogcmdiKDgwLCA4MCwgODApOyIgZD0iTTY0NS42NjY2NjY2NjY2NjY2LDIwOS41LCA4NTEuNjY2NjY2NjY2NjY2Niw0MTMuNSIgbWFya2VyLWVuZD0iIiBjbGFzcz0ibGluayIvPjxwYXRoIHN0eWxlPSJzdHJva2Utd2lkdGg6IDAuNTsgc3Ryb2tlLW9wYWNpdHk6IDE7IHN0cm9rZTogcmdiKDgwLCA4MCwgODApOyIgZD0iTTY0NS42NjY2NjY2NjY2NjY2LDIwOS41LCA4NTEuNjY2NjY2NjY2NjY2Niw0NTEuNSIgbWFya2VyLWVuZD0iIiBjbGFzcz0ibGluayIvPjxwYXRoIHN0eWxlPSJzdHJva2Utd2lkdGg6IDAuNTsgc3Ryb2tlLW9wYWNpdHk6IDE7IHN0cm9rZTogcmdiKDgwLCA4MCwgODApOyIgZD0iTTY0NS42NjY2NjY2NjY2NjY2LDIwOS41LCA4NTEuNjY2NjY2NjY2NjY2Niw0ODkuNSIgbWFya2VyLWVuZD0iIiBjbGFzcz0ibGluayIvPjxwYXRoIHN0eWxlPSJzdHJva2Utd2lkdGg6IDAuNTsgc3Ryb2tlLW9wYWNpdHk6IDE7IHN0cm9rZTogcmdiKDgwLCA4MCwgODApOyIgZD0iTTY0NS42NjY2NjY2NjY2NjY2LDI2Ny41LCA4NTEuNjY2NjY2NjY2NjY2NiwzMzcuNSIgbWFya2VyLWVuZD0iIiBjbGFzcz0ibGluayIvPjxwYXRoIHN0eWxlPSJzdHJva2Utd2lkdGg6IDAuNTsgc3Ryb2tlLW9wYWNpdHk6IDE7IHN0cm9rZTogcmdiKDgwLCA4MCwgODApOyIgZD0iTTY0NS42NjY2NjY2NjY2NjY2LDI2Ny41LCA4NTEuNjY2NjY2NjY2NjY2NiwzNzUuNSIgbWFya2VyLWVuZD0iIiBjbGFzcz0ibGluayIvPjxwYXRoIHN0eWxlPSJzdHJva2Utd2lkdGg6IDAuNTsgc3Ryb2tlLW9wYWNpdHk6IDE7IHN0cm9rZTogcmdiKDgwLCA4MCwgODApOyIgZD0iTTY0NS42NjY2NjY2NjY2NjY2LDI2Ny41LCA4NTEuNjY2NjY2NjY2NjY2Niw0MTMuNSIgbWFya2VyLWVuZD0iIiBjbGFzcz0ibGluayIvPjxwYXRoIHN0eWxlPSJzdHJva2Utd2lkdGg6IDAuNTsgc3Ryb2tlLW9wYWNpdHk6IDE7IHN0cm9rZTogcmdiKDgwLCA4MCwgODApOyIgZD0iTTY0NS42NjY2NjY2NjY2NjY2LDI2Ny41LCA4NTEuNjY2NjY2NjY2NjY2Niw0NTEuNSIgbWFya2VyLWVuZD0iIiBjbGFzcz0ibGluayIvPjxwYXRoIHN0eWxlPSJzdHJva2Utd2lkdGg6IDAuNTsgc3Ryb2tlLW9wYWNpdHk6IDE7IHN0cm9rZTogcmdiKDgwLCA4MCwgODApOyIgZD0iTTY0NS42NjY2NjY2NjY2NjY2LDI2Ny41LCA4NTEuNjY2NjY2NjY2NjY2Niw0ODkuNSIgbWFya2VyLWVuZD0iIiBjbGFzcz0ibGluayIvPjxwYXRoIHN0eWxlPSJzdHJva2Utd2lkdGg6IDAuNTsgc3Ryb2tlLW9wYWNpdHk6IDE7IHN0cm9rZTogcmdiKDgwLCA4MCwgODApOyIgZD0iTTY0NS42NjY2NjY2NjY2NjY2LDMyNS41LCA4NTEuNjY2NjY2NjY2NjY2NiwzMzcuNSIgbWFya2VyLWVuZD0iIiBjbGFzcz0ibGluayIvPjxwYXRoIHN0eWxlPSJzdHJva2Utd2lkdGg6IDAuNTsgc3Ryb2tlLW9wYWNpdHk6IDE7IHN0cm9rZTogcmdiKDgwLCA4MCwgODApOyIgZD0iTTY0NS42NjY2NjY2NjY2NjY2LDMyNS41LCA4NTEuNjY2NjY2NjY2NjY2NiwzNzUuNSIgbWFya2VyLWVuZD0iIiBjbGFzcz0ibGluayIvPjxwYXRoIHN0eWxlPSJzdHJva2Utd2lkdGg6IDAuNTsgc3Ryb2tlLW9wYWNpdHk6IDE7IHN0cm9rZTogcmdiKDgwLCA4MCwgODApOyIgZD0iTTY0NS42NjY2NjY2NjY2NjY2LDMyNS41LCA4NTEuNjY2NjY2NjY2NjY2Niw0MTMuNSIgbWFya2VyLWVuZD0iIiBjbGFzcz0ibGluayIvPjxwYXRoIHN0eWxlPSJzdHJva2Utd2lkdGg6IDAuNTsgc3Ryb2tlLW9wYWNpdHk6IDE7IHN0cm9rZTogcmdiKDgwLCA4MCwgODApOyIgZD0iTTY0NS42NjY2NjY2NjY2NjY2LDMyNS41LCA4NTEuNjY2NjY2NjY2NjY2Niw0NTEuNSIgbWFya2VyLWVuZD0iIiBjbGFzcz0ibGluayIvPjxwYXRoIHN0eWxlPSJzdHJva2Utd2lkdGg6IDAuNTsgc3Ryb2tlLW9wYWNpdHk6IDE7IHN0cm9rZTogcmdiKDgwLCA4MCwgODApOyIgZD0iTTY0NS42NjY2NjY2NjY2NjY2LDMyNS41LCA4NTEuNjY2NjY2NjY2NjY2Niw0ODkuNSIgbWFya2VyLWVuZD0iIiBjbGFzcz0ibGluayIvPjxwYXRoIHN0eWxlPSJzdHJva2Utd2lkdGg6IDAuNTsgc3Ryb2tlLW9wYWNpdHk6IDE7IHN0cm9rZTogcmdiKDgwLCA4MCwgODApOyIgZD0iTTY0NS42NjY2NjY2NjY2NjY2LDM4My41LCA4NTEuNjY2NjY2NjY2NjY2NiwzMzcuNSIgbWFya2VyLWVuZD0iIiBjbGFzcz0ibGluayIvPjxwYXRoIHN0eWxlPSJzdHJva2Utd2lkdGg6IDAuNTsgc3Ryb2tlLW9wYWNpdHk6IDE7IHN0cm9rZTogcmdiKDgwLCA4MCwgODApOyIgZD0iTTY0NS42NjY2NjY2NjY2NjY2LDM4My41LCA4NTEuNjY2NjY2NjY2NjY2NiwzNzUuNSIgbWFya2VyLWVuZD0iIiBjbGFzcz0ibGluayIvPjxwYXRoIHN0eWxlPSJzdHJva2Utd2lkdGg6IDAuNTsgc3Ryb2tlLW9wYWNpdHk6IDE7IHN0cm9rZTogcmdiKDgwLCA4MCwgODApOyIgZD0iTTY0NS42NjY2NjY2NjY2NjY2LDM4My41LCA4NTEuNjY2NjY2NjY2NjY2Niw0MTMuNSIgbWFya2VyLWVuZD0iIiBjbGFzcz0ibGluayIvPjxwYXRoIHN0eWxlPSJzdHJva2Utd2lkdGg6IDAuNTsgc3Ryb2tlLW9wYWNpdHk6IDE7IHN0cm9rZTogcmdiKDgwLCA4MCwgODApOyIgZD0iTTY0NS42NjY2NjY2NjY2NjY2LDM4My41LCA4NTEuNjY2NjY2NjY2NjY2Niw0NTEuNSIgbWFya2VyLWVuZD0iIiBjbGFzcz0ibGluayIvPjxwYXRoIHN0eWxlPSJzdHJva2Utd2lkdGg6IDAuNTsgc3Ryb2tlLW9wYWNpdHk6IDE7IHN0cm9rZTogcmdiKDgwLCA4MCwgODApOyIgZD0iTTY0NS42NjY2NjY2NjY2NjY2LDM4My41LCA4NTEuNjY2NjY2NjY2NjY2Niw0ODkuNSIgbWFya2VyLWVuZD0iIiBjbGFzcz0ibGluayIvPjxwYXRoIHN0eWxlPSJzdHJva2Utd2lkdGg6IDAuNTsgc3Ryb2tlLW9wYWNpdHk6IDE7IHN0cm9rZTogcmdiKDgwLCA4MCwgODApOyIgZD0iTTY0NS42NjY2NjY2NjY2NjY2LDQ0MS41LCA4NTEuNjY2NjY2NjY2NjY2NiwzMzcuNSIgbWFya2VyLWVuZD0iIiBjbGFzcz0ibGluayIvPjxwYXRoIHN0eWxlPSJzdHJva2Utd2lkdGg6IDAuNTsgc3Ryb2tlLW9wYWNpdHk6IDE7IHN0cm9rZTogcmdiKDgwLCA4MCwgODApOyIgZD0iTTY0NS42NjY2NjY2NjY2NjY2LDQ0MS41LCA4NTEuNjY2NjY2NjY2NjY2NiwzNzUuNSIgbWFya2VyLWVuZD0iIiBjbGFzcz0ibGluayIvPjxwYXRoIHN0eWxlPSJzdHJva2Utd2lkdGg6IDAuNTsgc3Ryb2tlLW9wYWNpdHk6IDE7IHN0cm9rZTogcmdiKDgwLCA4MCwgODApOyIgZD0iTTY0NS42NjY2NjY2NjY2NjY2LDQ0MS41LCA4NTEuNjY2NjY2NjY2NjY2Niw0MTMuNSIgbWFya2VyLWVuZD0iIiBjbGFzcz0ibGluayIvPjxwYXRoIHN0eWxlPSJzdHJva2Utd2lkdGg6IDAuNTsgc3Ryb2tlLW9wYWNpdHk6IDE7IHN0cm9rZTogcmdiKDgwLCA4MCwgODApOyIgZD0iTTY0NS42NjY2NjY2NjY2NjY2LDQ0MS41LCA4NTEuNjY2NjY2NjY2NjY2Niw0NTEuNSIgbWFya2VyLWVuZD0iIiBjbGFzcz0ibGluayIvPjxwYXRoIHN0eWxlPSJzdHJva2Utd2lkdGg6IDAuNTsgc3Ryb2tlLW9wYWNpdHk6IDE7IHN0cm9rZTogcmdiKDgwLCA4MCwgODApOyIgZD0iTTY0NS42NjY2NjY2NjY2NjY2LDQ0MS41LCA4NTEuNjY2NjY2NjY2NjY2Niw0ODkuNSIgbWFya2VyLWVuZD0iIiBjbGFzcz0ibGluayIvPjxwYXRoIHN0eWxlPSJzdHJva2Utd2lkdGg6IDAuNTsgc3Ryb2tlLW9wYWNpdHk6IDE7IHN0cm9rZTogcmdiKDgwLCA4MCwgODApOyIgZD0iTTIzMy42NjY2NjY2NjY2NjY2NiwyMDgsIDQzOS42NjY2NjY2NjY2NjY2Myw1MDAiIG1hcmtlci1lbmQ9IiIgY2xhc3M9ImxpbmsiLz48cGF0aCBzdHlsZT0ic3Ryb2tlLXdpZHRoOiAwLjU7IHN0cm9rZS1vcGFjaXR5OiAxOyBzdHJva2U6IHJnYig4MCwgODAsIDgwKTsiIGQ9Ik0yMzMuNjY2NjY2NjY2NjY2NjYsMjA4LCA0MzkuNjY2NjY2NjY2NjY2NjMsNTU5IiBtYXJrZXItZW5kPSIiIGNsYXNzPSJsaW5rIi8+PHBhdGggc3R5bGU9InN0cm9rZS13aWR0aDogMC41OyBzdHJva2Utb3BhY2l0eTogMTsgc3Ryb2tlOiByZ2IoODAsIDgwLCA4MCk7IiBkPSJNMjMzLjY2NjY2NjY2NjY2NjY2LDIwOCwgNDM5LjY2NjY2NjY2NjY2NjYzLDYxOCIgbWFya2VyLWVuZD0iIiBjbGFzcz0ibGluayIvPjxwYXRoIHN0eWxlPSJzdHJva2Utd2lkdGg6IDAuNTsgc3Ryb2tlLW9wYWNpdHk6IDE7IHN0cm9rZTogcmdiKDgwLCA4MCwgODApOyIgZD0iTTIzMy42NjY2NjY2NjY2NjY2NiwyMDgsIDQzOS42NjY2NjY2NjY2NjY2Myw2NzciIG1hcmtlci1lbmQ9IiIgY2xhc3M9ImxpbmsiLz48cGF0aCBzdHlsZT0ic3Ryb2tlLXdpZHRoOiAwLjU7IHN0cm9rZS1vcGFjaXR5OiAxOyBzdHJva2U6IHJnYig4MCwgODAsIDgwKTsiIGQ9Ik0yMzMuNjY2NjY2NjY2NjY2NjYsMjA4LCA0MzkuNjY2NjY2NjY2NjY2NjMsNzM2IiBtYXJrZXItZW5kPSIiIGNsYXNzPSJsaW5rIi8+PHBhdGggc3R5bGU9InN0cm9rZS13aWR0aDogMC41OyBzdHJva2Utb3BhY2l0eTogMTsgc3Ryb2tlOiByZ2IoODAsIDgwLCA4MCk7IiBkPSJNMjMzLjY2NjY2NjY2NjY2NjY2LDIwOCwgNDM5LjY2NjY2NjY2NjY2NjYzLDc5NSIgbWFya2VyLWVuZD0iIiBjbGFzcz0ibGluayIvPjxwYXRoIHN0eWxlPSJzdHJva2Utd2lkdGg6IDAuNTsgc3Ryb2tlLW9wYWNpdHk6IDE7IHN0cm9rZTogcmdiKDgwLCA4MCwgODApOyIgZD0iTTIzMy42NjY2NjY2NjY2NjY2NiwyMDgsIDQzOS42NjY2NjY2NjY2NjY2Myw4NTQiIG1hcmtlci1lbmQ9IiIgY2xhc3M9ImxpbmsiLz48cGF0aCBzdHlsZT0ic3Ryb2tlLXdpZHRoOiAwLjU7IHN0cm9rZS1vcGFjaXR5OiAxOyBzdHJva2U6IHJnYig4MCwgODAsIDgwKTsiIGQ9Ik0yMzMuNjY2NjY2NjY2NjY2NjYsMjA4LCA0MzkuNjY2NjY2NjY2NjY2NjMsOTEzIiBtYXJrZXItZW5kPSIiIGNsYXNzPSJsaW5rIi8+PHBhdGggc3R5bGU9InN0cm9rZS13aWR0aDogMC41OyBzdHJva2Utb3BhY2l0eTogMTsgc3Ryb2tlOiByZ2IoODAsIDgwLCA4MCk7IiBkPSJNMjMzLjY2NjY2NjY2NjY2NjY2LDI0MywgNDM5LjY2NjY2NjY2NjY2NjYzLDUwMCIgbWFya2VyLWVuZD0iIiBjbGFzcz0ibGluayIvPjxwYXRoIHN0eWxlPSJzdHJva2Utd2lkdGg6IDAuNTsgc3Ryb2tlLW9wYWNpdHk6IDE7IHN0cm9rZTogcmdiKDgwLCA4MCwgODApOyIgZD0iTTIzMy42NjY2NjY2NjY2NjY2NiwyNDMsIDQzOS42NjY2NjY2NjY2NjY2Myw1NTkiIG1hcmtlci1lbmQ9IiIgY2xhc3M9ImxpbmsiLz48cGF0aCBzdHlsZT0ic3Ryb2tlLXdpZHRoOiAwLjU7IHN0cm9rZS1vcGFjaXR5OiAxOyBzdHJva2U6IHJnYig4MCwgODAsIDgwKTsiIGQ9Ik0yMzMuNjY2NjY2NjY2NjY2NjYsMjQzLCA0MzkuNjY2NjY2NjY2NjY2NjMsNjE4IiBtYXJrZXItZW5kPSIiIGNsYXNzPSJsaW5rIi8+PHBhdGggc3R5bGU9InN0cm9rZS13aWR0aDogMC41OyBzdHJva2Utb3BhY2l0eTogMTsgc3Ryb2tlOiByZ2IoODAsIDgwLCA4MCk7IiBkPSJNMjMzLjY2NjY2NjY2NjY2NjY2LDI0MywgNDM5LjY2NjY2NjY2NjY2NjYzLDY3NyIgbWFya2VyLWVuZD0iIiBjbGFzcz0ibGluayIvPjxwYXRoIHN0eWxlPSJzdHJva2Utd2lkdGg6IDAuNTsgc3Ryb2tlLW9wYWNpdHk6IDE7IHN0cm9rZTogcmdiKDgwLCA4MCwgODApOyIgZD0iTTIzMy42NjY2NjY2NjY2NjY2NiwyNDMsIDQzOS42NjY2NjY2NjY2NjY2Myw3MzYiIG1hcmtlci1lbmQ9IiIgY2xhc3M9ImxpbmsiLz48cGF0aCBzdHlsZT0ic3Ryb2tlLXdpZHRoOiAwLjU7IHN0cm9rZS1vcGFjaXR5OiAxOyBzdHJva2U6IHJnYig4MCwgODAsIDgwKTsiIGQ9Ik0yMzMuNjY2NjY2NjY2NjY2NjYsMjQzLCA0MzkuNjY2NjY2NjY2NjY2NjMsNzk1IiBtYXJrZXItZW5kPSIiIGNsYXNzPSJsaW5rIi8+PHBhdGggc3R5bGU9InN0cm9rZS13aWR0aDogMC41OyBzdHJva2Utb3BhY2l0eTogMTsgc3Ryb2tlOiByZ2IoODAsIDgwLCA4MCk7IiBkPSJNMjMzLjY2NjY2NjY2NjY2NjY2LDI0MywgNDM5LjY2NjY2NjY2NjY2NjYzLDg1NCIgbWFya2VyLWVuZD0iIiBjbGFzcz0ibGluayIvPjxwYXRoIHN0eWxlPSJzdHJva2Utd2lkdGg6IDAuNTsgc3Ryb2tlLW9wYWNpdHk6IDE7IHN0cm9rZTogcmdiKDgwLCA4MCwgODApOyIgZD0iTTIzMy42NjY2NjY2NjY2NjY2NiwyNDMsIDQzOS42NjY2NjY2NjY2NjY2Myw5MTMiIG1hcmtlci1lbmQ9IiIgY2xhc3M9ImxpbmsiLz48cGF0aCBzdHlsZT0ic3Ryb2tlLXdpZHRoOiAwLjU7IHN0cm9rZS1vcGFjaXR5OiAxOyBzdHJva2U6IHJnYig4MCwgODAsIDgwKTsiIGQ9Ik0yMzMuNjY2NjY2NjY2NjY2NjYsMjc4LCA0MzkuNjY2NjY2NjY2NjY2NjMsNTAwIiBtYXJrZXItZW5kPSIiIGNsYXNzPSJsaW5rIi8+PHBhdGggc3R5bGU9InN0cm9rZS13aWR0aDogMC41OyBzdHJva2Utb3BhY2l0eTogMTsgc3Ryb2tlOiByZ2IoODAsIDgwLCA4MCk7IiBkPSJNMjMzLjY2NjY2NjY2NjY2NjY2LDI3OCwgNDM5LjY2NjY2NjY2NjY2NjYzLDU1OSIgbWFya2VyLWVuZD0iIiBjbGFzcz0ibGluayIvPjxwYXRoIHN0eWxlPSJzdHJva2Utd2lkdGg6IDAuNTsgc3Ryb2tlLW9wYWNpdHk6IDE7IHN0cm9rZTogcmdiKDgwLCA4MCwgODApOyIgZD0iTTIzMy42NjY2NjY2NjY2NjY2NiwyNzgsIDQzOS42NjY2NjY2NjY2NjY2Myw2MTgiIG1hcmtlci1lbmQ9IiIgY2xhc3M9ImxpbmsiLz48cGF0aCBzdHlsZT0ic3Ryb2tlLXdpZHRoOiAwLjU7IHN0cm9rZS1vcGFjaXR5OiAxOyBzdHJva2U6IHJnYig4MCwgODAsIDgwKTsiIGQ9Ik0yMzMuNjY2NjY2NjY2NjY2NjYsMjc4LCA0MzkuNjY2NjY2NjY2NjY2NjMsNjc3IiBtYXJrZXItZW5kPSIiIGNsYXNzPSJsaW5rIi8+PHBhdGggc3R5bGU9InN0cm9rZS13aWR0aDogMC41OyBzdHJva2Utb3BhY2l0eTogMTsgc3Ryb2tlOiByZ2IoODAsIDgwLCA4MCk7IiBkPSJNMjMzLjY2NjY2NjY2NjY2NjY2LDI3OCwgNDM5LjY2NjY2NjY2NjY2NjYzLDczNiIgbWFya2VyLWVuZD0iIiBjbGFzcz0ibGluayIvPjxwYXRoIHN0eWxlPSJzdHJva2Utd2lkdGg6IDAuNTsgc3Ryb2tlLW9wYWNpdHk6IDE7IHN0cm9rZTogcmdiKDgwLCA4MCwgODApOyIgZD0iTTIzMy42NjY2NjY2NjY2NjY2NiwyNzgsIDQzOS42NjY2NjY2NjY2NjY2Myw3OTUiIG1hcmtlci1lbmQ9IiIgY2xhc3M9ImxpbmsiLz48cGF0aCBzdHlsZT0ic3Ryb2tlLXdpZHRoOiAwLjU7IHN0cm9rZS1vcGFjaXR5OiAxOyBzdHJva2U6IHJnYig4MCwgODAsIDgwKTsiIGQ9Ik0yMzMuNjY2NjY2NjY2NjY2NjYsMjc4LCA0MzkuNjY2NjY2NjY2NjY2NjMsODU0IiBtYXJrZXItZW5kPSIiIGNsYXNzPSJsaW5rIi8+PHBhdGggc3R5bGU9InN0cm9rZS13aWR0aDogMC41OyBzdHJva2Utb3BhY2l0eTogMTsgc3Ryb2tlOiByZ2IoODAsIDgwLCA4MCk7IiBkPSJNMjMzLjY2NjY2NjY2NjY2NjY2LDI3OCwgNDM5LjY2NjY2NjY2NjY2NjYzLDkxMyIgbWFya2VyLWVuZD0iIiBjbGFzcz0ibGluayIvPjxwYXRoIHN0eWxlPSJzdHJva2Utd2lkdGg6IDAuNTsgc3Ryb2tlLW9wYWNpdHk6IDE7IHN0cm9rZTogcmdiKDgwLCA4MCwgODApOyIgZD0iTTIzMy42NjY2NjY2NjY2NjY2NiwzMTMsIDQzOS42NjY2NjY2NjY2NjY2Myw1MDAiIG1hcmtlci1lbmQ9IiIgY2xhc3M9ImxpbmsiLz48cGF0aCBzdHlsZT0ic3Ryb2tlLXdpZHRoOiAwLjU7IHN0cm9rZS1vcGFjaXR5OiAxOyBzdHJva2U6IHJnYig4MCwgODAsIDgwKTsiIGQ9Ik0yMzMuNjY2NjY2NjY2NjY2NjYsMzEzLCA0MzkuNjY2NjY2NjY2NjY2NjMsNTU5IiBtYXJrZXItZW5kPSIiIGNsYXNzPSJsaW5rIi8+PHBhdGggc3R5bGU9InN0cm9rZS13aWR0aDogMC41OyBzdHJva2Utb3BhY2l0eTogMTsgc3Ryb2tlOiByZ2IoODAsIDgwLCA4MCk7IiBkPSJNMjMzLjY2NjY2NjY2NjY2NjY2LDMxMywgNDM5LjY2NjY2NjY2NjY2NjYzLDYxOCIgbWFya2VyLWVuZD0iIiBjbGFzcz0ibGluayIvPjxwYXRoIHN0eWxlPSJzdHJva2Utd2lkdGg6IDAuNTsgc3Ryb2tlLW9wYWNpdHk6IDE7IHN0cm9rZTogcmdiKDgwLCA4MCwgODApOyIgZD0iTTIzMy42NjY2NjY2NjY2NjY2NiwzMTMsIDQzOS42NjY2NjY2NjY2NjY2Myw2NzciIG1hcmtlci1lbmQ9IiIgY2xhc3M9ImxpbmsiLz48cGF0aCBzdHlsZT0ic3Ryb2tlLXdpZHRoOiAwLjU7IHN0cm9rZS1vcGFjaXR5OiAxOyBzdHJva2U6IHJnYig4MCwgODAsIDgwKTsiIGQ9Ik0yMzMuNjY2NjY2NjY2NjY2NjYsMzEzLCA0MzkuNjY2NjY2NjY2NjY2NjMsNzM2IiBtYXJrZXItZW5kPSIiIGNsYXNzPSJsaW5rIi8+PHBhdGggc3R5bGU9InN0cm9rZS13aWR0aDogMC41OyBzdHJva2Utb3BhY2l0eTogMTsgc3Ryb2tlOiByZ2IoODAsIDgwLCA4MCk7IiBkPSJNMjMzLjY2NjY2NjY2NjY2NjY2LDMxMywgNDM5LjY2NjY2NjY2NjY2NjYzLDc5NSIgbWFya2VyLWVuZD0iIiBjbGFzcz0ibGluayIvPjxwYXRoIHN0eWxlPSJzdHJva2Utd2lkdGg6IDAuNTsgc3Ryb2tlLW9wYWNpdHk6IDE7IHN0cm9rZTogcmdiKDgwLCA4MCwgODApOyIgZD0iTTIzMy42NjY2NjY2NjY2NjY2NiwzMTMsIDQzOS42NjY2NjY2NjY2NjY2Myw4NTQiIG1hcmtlci1lbmQ9IiIgY2xhc3M9ImxpbmsiLz48cGF0aCBzdHlsZT0ic3Ryb2tlLXdpZHRoOiAwLjU7IHN0cm9rZS1vcGFjaXR5OiAxOyBzdHJva2U6IHJnYig4MCwgODAsIDgwKTsiIGQ9Ik0yMzMuNjY2NjY2NjY2NjY2NjYsMzEzLCA0MzkuNjY2NjY2NjY2NjY2NjMsOTEzIiBtYXJrZXItZW5kPSIiIGNsYXNzPSJsaW5rIi8+PHBhdGggc3R5bGU9InN0cm9rZS13aWR0aDogMC41OyBzdHJva2Utb3BhY2l0eTogMTsgc3Ryb2tlOiByZ2IoODAsIDgwLCA4MCk7IiBkPSJNMjMzLjY2NjY2NjY2NjY2NjY2LDM0OCwgNDM5LjY2NjY2NjY2NjY2NjYzLDUwMCIgbWFya2VyLWVuZD0iIiBjbGFzcz0ibGluayIvPjxwYXRoIHN0eWxlPSJzdHJva2Utd2lkdGg6IDAuNTsgc3Ryb2tlLW9wYWNpdHk6IDE7IHN0cm9rZTogcmdiKDgwLCA4MCwgODApOyIgZD0iTTIzMy42NjY2NjY2NjY2NjY2NiwzNDgsIDQzOS42NjY2NjY2NjY2NjY2Myw1NTkiIG1hcmtlci1lbmQ9IiIgY2xhc3M9ImxpbmsiLz48cGF0aCBzdHlsZT0ic3Ryb2tlLXdpZHRoOiAwLjU7IHN0cm9rZS1vcGFjaXR5OiAxOyBzdHJva2U6IHJnYig4MCwgODAsIDgwKTsiIGQ9Ik0yMzMuNjY2NjY2NjY2NjY2NjYsMzQ4LCA0MzkuNjY2NjY2NjY2NjY2NjMsNjE4IiBtYXJrZXItZW5kPSIiIGNsYXNzPSJsaW5rIi8+PHBhdGggc3R5bGU9InN0cm9rZS13aWR0aDogMC41OyBzdHJva2Utb3BhY2l0eTogMTsgc3Ryb2tlOiByZ2IoODAsIDgwLCA4MCk7IiBkPSJNMjMzLjY2NjY2NjY2NjY2NjY2LDM0OCwgNDM5LjY2NjY2NjY2NjY2NjYzLDY3NyIgbWFya2VyLWVuZD0iIiBjbGFzcz0ibGluayIvPjxwYXRoIHN0eWxlPSJzdHJva2Utd2lkdGg6IDAuNTsgc3Ryb2tlLW9wYWNpdHk6IDE7IHN0cm9rZTogcmdiKDgwLCA4MCwgODApOyIgZD0iTTIzMy42NjY2NjY2NjY2NjY2NiwzNDgsIDQzOS42NjY2NjY2NjY2NjY2Myw3MzYiIG1hcmtlci1lbmQ9IiIgY2xhc3M9ImxpbmsiLz48cGF0aCBzdHlsZT0ic3Ryb2tlLXdpZHRoOiAwLjU7IHN0cm9rZS1vcGFjaXR5OiAxOyBzdHJva2U6IHJnYig4MCwgODAsIDgwKTsiIGQ9Ik0yMzMuNjY2NjY2NjY2NjY2NjYsMzQ4LCA0MzkuNjY2NjY2NjY2NjY2NjMsNzk1IiBtYXJrZXItZW5kPSIiIGNsYXNzPSJsaW5rIi8+PHBhdGggc3R5bGU9InN0cm9rZS13aWR0aDogMC41OyBzdHJva2Utb3BhY2l0eTogMTsgc3Ryb2tlOiByZ2IoODAsIDgwLCA4MCk7IiBkPSJNMjMzLjY2NjY2NjY2NjY2NjY2LDM0OCwgNDM5LjY2NjY2NjY2NjY2NjYzLDg1NCIgbWFya2VyLWVuZD0iIiBjbGFzcz0ibGluayIvPjxwYXRoIHN0eWxlPSJzdHJva2Utd2lkdGg6IDAuNTsgc3Ryb2tlLW9wYWNpdHk6IDE7IHN0cm9rZTogcmdiKDgwLCA4MCwgODApOyIgZD0iTTIzMy42NjY2NjY2NjY2NjY2NiwzNDgsIDQzOS42NjY2NjY2NjY2NjY2Myw5MTMiIG1hcmtlci1lbmQ9IiIgY2xhc3M9ImxpbmsiLz48cGF0aCBzdHlsZT0ic3Ryb2tlLXdpZHRoOiAwLjU7IHN0cm9rZS1vcGFjaXR5OiAxOyBzdHJva2U6IHJnYig4MCwgODAsIDgwKTsiIGQ9Ik0yMzMuNjY2NjY2NjY2NjY2NjYsMzgzLCA0MzkuNjY2NjY2NjY2NjY2NjMsNTAwIiBtYXJrZXItZW5kPSIiIGNsYXNzPSJsaW5rIi8+PHBhdGggc3R5bGU9InN0cm9rZS13aWR0aDogMC41OyBzdHJva2Utb3BhY2l0eTogMTsgc3Ryb2tlOiByZ2IoODAsIDgwLCA4MCk7IiBkPSJNMjMzLjY2NjY2NjY2NjY2NjY2LDM4MywgNDM5LjY2NjY2NjY2NjY2NjYzLDU1OSIgbWFya2VyLWVuZD0iIiBjbGFzcz0ibGluayIvPjxwYXRoIHN0eWxlPSJzdHJva2Utd2lkdGg6IDAuNTsgc3Ryb2tlLW9wYWNpdHk6IDE7IHN0cm9rZTogcmdiKDgwLCA4MCwgODApOyIgZD0iTTIzMy42NjY2NjY2NjY2NjY2NiwzODMsIDQzOS42NjY2NjY2NjY2NjY2Myw2MTgiIG1hcmtlci1lbmQ9IiIgY2xhc3M9ImxpbmsiLz48cGF0aCBzdHlsZT0ic3Ryb2tlLXdpZHRoOiAwLjU7IHN0cm9rZS1vcGFjaXR5OiAxOyBzdHJva2U6IHJnYig4MCwgODAsIDgwKTsiIGQ9Ik0yMzMuNjY2NjY2NjY2NjY2NjYsMzgzLCA0MzkuNjY2NjY2NjY2NjY2NjMsNjc3IiBtYXJrZXItZW5kPSIiIGNsYXNzPSJsaW5rIi8+PHBhdGggc3R5bGU9InN0cm9rZS13aWR0aDogMC41OyBzdHJva2Utb3BhY2l0eTogMTsgc3Ryb2tlOiByZ2IoODAsIDgwLCA4MCk7IiBkPSJNMjMzLjY2NjY2NjY2NjY2NjY2LDM4MywgNDM5LjY2NjY2NjY2NjY2NjYzLDczNiIgbWFya2VyLWVuZD0iIiBjbGFzcz0ibGluayIvPjxwYXRoIHN0eWxlPSJzdHJva2Utd2lkdGg6IDAuNTsgc3Ryb2tlLW9wYWNpdHk6IDE7IHN0cm9rZTogcmdiKDgwLCA4MCwgODApOyIgZD0iTTIzMy42NjY2NjY2NjY2NjY2NiwzODMsIDQzOS42NjY2NjY2NjY2NjY2Myw3OTUiIG1hcmtlci1lbmQ9IiIgY2xhc3M9ImxpbmsiLz48cGF0aCBzdHlsZT0ic3Ryb2tlLXdpZHRoOiAwLjU7IHN0cm9rZS1vcGFjaXR5OiAxOyBzdHJva2U6IHJnYig4MCwgODAsIDgwKTsiIGQ9Ik0yMzMuNjY2NjY2NjY2NjY2NjYsMzgzLCA0MzkuNjY2NjY2NjY2NjY2NjMsODU0IiBtYXJrZXItZW5kPSIiIGNsYXNzPSJsaW5rIi8+PHBhdGggc3R5bGU9InN0cm9rZS13aWR0aDogMC41OyBzdHJva2Utb3BhY2l0eTogMTsgc3Ryb2tlOiByZ2IoODAsIDgwLCA4MCk7IiBkPSJNMjMzLjY2NjY2NjY2NjY2NjY2LDM4MywgNDM5LjY2NjY2NjY2NjY2NjYzLDkxMyIgbWFya2VyLWVuZD0iIiBjbGFzcz0ibGluayIvPjxwYXRoIHN0eWxlPSJzdHJva2Utd2lkdGg6IDAuNTsgc3Ryb2tlLW9wYWNpdHk6IDE7IHN0cm9rZTogcmdiKDgwLCA4MCwgODApOyIgZD0iTTIzMy42NjY2NjY2NjY2NjY2Niw0MTgsIDQzOS42NjY2NjY2NjY2NjY2Myw1MDAiIG1hcmtlci1lbmQ9IiIgY2xhc3M9ImxpbmsiLz48cGF0aCBzdHlsZT0ic3Ryb2tlLXdpZHRoOiAwLjU7IHN0cm9rZS1vcGFjaXR5OiAxOyBzdHJva2U6IHJnYig4MCwgODAsIDgwKTsiIGQ9Ik0yMzMuNjY2NjY2NjY2NjY2NjYsNDE4LCA0MzkuNjY2NjY2NjY2NjY2NjMsNTU5IiBtYXJrZXItZW5kPSIiIGNsYXNzPSJsaW5rIi8+PHBhdGggc3R5bGU9InN0cm9rZS13aWR0aDogMC41OyBzdHJva2Utb3BhY2l0eTogMTsgc3Ryb2tlOiByZ2IoODAsIDgwLCA4MCk7IiBkPSJNMjMzLjY2NjY2NjY2NjY2NjY2LDQxOCwgNDM5LjY2NjY2NjY2NjY2NjYzLDYxOCIgbWFya2VyLWVuZD0iIiBjbGFzcz0ibGluayIvPjxwYXRoIHN0eWxlPSJzdHJva2Utd2lkdGg6IDAuNTsgc3Ryb2tlLW9wYWNpdHk6IDE7IHN0cm9rZTogcmdiKDgwLCA4MCwgODApOyIgZD0iTTIzMy42NjY2NjY2NjY2NjY2Niw0MTgsIDQzOS42NjY2NjY2NjY2NjY2Myw2NzciIG1hcmtlci1lbmQ9IiIgY2xhc3M9ImxpbmsiLz48cGF0aCBzdHlsZT0ic3Ryb2tlLXdpZHRoOiAwLjU7IHN0cm9rZS1vcGFjaXR5OiAxOyBzdHJva2U6IHJnYig4MCwgODAsIDgwKTsiIGQ9Ik0yMzMuNjY2NjY2NjY2NjY2NjYsNDE4LCA0MzkuNjY2NjY2NjY2NjY2NjMsNzM2IiBtYXJrZXItZW5kPSIiIGNsYXNzPSJsaW5rIi8+PHBhdGggc3R5bGU9InN0cm9rZS13aWR0aDogMC41OyBzdHJva2Utb3BhY2l0eTogMTsgc3Ryb2tlOiByZ2IoODAsIDgwLCA4MCk7IiBkPSJNMjMzLjY2NjY2NjY2NjY2NjY2LDQxOCwgNDM5LjY2NjY2NjY2NjY2NjYzLDc5NSIgbWFya2VyLWVuZD0iIiBjbGFzcz0ibGluayIvPjxwYXRoIHN0eWxlPSJzdHJva2Utd2lkdGg6IDAuNTsgc3Ryb2tlLW9wYWNpdHk6IDE7IHN0cm9rZTogcmdiKDgwLCA4MCwgODApOyIgZD0iTTIzMy42NjY2NjY2NjY2NjY2Niw0MTgsIDQzOS42NjY2NjY2NjY2NjY2Myw4NTQiIG1hcmtlci1lbmQ9IiIgY2xhc3M9ImxpbmsiLz48cGF0aCBzdHlsZT0ic3Ryb2tlLXdpZHRoOiAwLjU7IHN0cm9rZS1vcGFjaXR5OiAxOyBzdHJva2U6IHJnYig4MCwgODAsIDgwKTsiIGQ9Ik0yMzMuNjY2NjY2NjY2NjY2NjYsNDE4LCA0MzkuNjY2NjY2NjY2NjY2NjMsOTEzIiBtYXJrZXItZW5kPSIiIGNsYXNzPSJsaW5rIi8+PHBhdGggc3R5bGU9InN0cm9rZS13aWR0aDogMC41OyBzdHJva2Utb3BhY2l0eTogMTsgc3Ryb2tlOiByZ2IoODAsIDgwLCA4MCk7IiBkPSJNMjMzLjY2NjY2NjY2NjY2NjY2LDQ1MywgNDM5LjY2NjY2NjY2NjY2NjYzLDUwMCIgbWFya2VyLWVuZD0iIiBjbGFzcz0ibGluayIvPjxwYXRoIHN0eWxlPSJzdHJva2Utd2lkdGg6IDAuNTsgc3Ryb2tlLW9wYWNpdHk6IDE7IHN0cm9rZTogcmdiKDgwLCA4MCwgODApOyIgZD0iTTIzMy42NjY2NjY2NjY2NjY2Niw0NTMsIDQzOS42NjY2NjY2NjY2NjY2Myw1NTkiIG1hcmtlci1lbmQ9IiIgY2xhc3M9ImxpbmsiLz48cGF0aCBzdHlsZT0ic3Ryb2tlLXdpZHRoOiAwLjU7IHN0cm9rZS1vcGFjaXR5OiAxOyBzdHJva2U6IHJnYig4MCwgODAsIDgwKTsiIGQ9Ik0yMzMuNjY2NjY2NjY2NjY2NjYsNDUzLCA0MzkuNjY2NjY2NjY2NjY2NjMsNjE4IiBtYXJrZXItZW5kPSIiIGNsYXNzPSJsaW5rIi8+PHBhdGggc3R5bGU9InN0cm9rZS13aWR0aDogMC41OyBzdHJva2Utb3BhY2l0eTogMTsgc3Ryb2tlOiByZ2IoODAsIDgwLCA4MCk7IiBkPSJNMjMzLjY2NjY2NjY2NjY2NjY2LDQ1MywgNDM5LjY2NjY2NjY2NjY2NjYzLDY3NyIgbWFya2VyLWVuZD0iIiBjbGFzcz0ibGluayIvPjxwYXRoIHN0eWxlPSJzdHJva2Utd2lkdGg6IDAuNTsgc3Ryb2tlLW9wYWNpdHk6IDE7IHN0cm9rZTogcmdiKDgwLCA4MCwgODApOyIgZD0iTTIzMy42NjY2NjY2NjY2NjY2Niw0NTMsIDQzOS42NjY2NjY2NjY2NjY2Myw3MzYiIG1hcmtlci1lbmQ9IiIgY2xhc3M9ImxpbmsiLz48cGF0aCBzdHlsZT0ic3Ryb2tlLXdpZHRoOiAwLjU7IHN0cm9rZS1vcGFjaXR5OiAxOyBzdHJva2U6IHJnYig4MCwgODAsIDgwKTsiIGQ9Ik0yMzMuNjY2NjY2NjY2NjY2NjYsNDUzLCA0MzkuNjY2NjY2NjY2NjY2NjMsNzk1IiBtYXJrZXItZW5kPSIiIGNsYXNzPSJsaW5rIi8+PHBhdGggc3R5bGU9InN0cm9rZS13aWR0aDogMC41OyBzdHJva2Utb3BhY2l0eTogMTsgc3Ryb2tlOiByZ2IoODAsIDgwLCA4MCk7IiBkPSJNMjMzLjY2NjY2NjY2NjY2NjY2LDQ1MywgNDM5LjY2NjY2NjY2NjY2NjYzLDg1NCIgbWFya2VyLWVuZD0iIiBjbGFzcz0ibGluayIvPjxwYXRoIHN0eWxlPSJzdHJva2Utd2lkdGg6IDAuNTsgc3Ryb2tlLW9wYWNpdHk6IDE7IHN0cm9rZTogcmdiKDgwLCA4MCwgODApOyIgZD0iTTIzMy42NjY2NjY2NjY2NjY2Niw0NTMsIDQzOS42NjY2NjY2NjY2NjY2Myw5MTMiIG1hcmtlci1lbmQ9IiIgY2xhc3M9ImxpbmsiLz48cGF0aCBzdHlsZT0ic3Ryb2tlLXdpZHRoOiAwLjU7IHN0cm9rZS1vcGFjaXR5OiAxOyBzdHJva2U6IHJnYig4MCwgODAsIDgwKTsiIGQ9Ik0yMzMuNjY2NjY2NjY2NjY2NjYsNDg4LCA0MzkuNjY2NjY2NjY2NjY2NjMsNTAwIiBtYXJrZXItZW5kPSIiIGNsYXNzPSJsaW5rIi8+PHBhdGggc3R5bGU9InN0cm9rZS13aWR0aDogMC41OyBzdHJva2Utb3BhY2l0eTogMTsgc3Ryb2tlOiByZ2IoODAsIDgwLCA4MCk7IiBkPSJNMjMzLjY2NjY2NjY2NjY2NjY2LDQ4OCwgNDM5LjY2NjY2NjY2NjY2NjYzLDU1OSIgbWFya2VyLWVuZD0iIiBjbGFzcz0ibGluayIvPjxwYXRoIHN0eWxlPSJzdHJva2Utd2lkdGg6IDAuNTsgc3Ryb2tlLW9wYWNpdHk6IDE7IHN0cm9rZTogcmdiKDgwLCA4MCwgODApOyIgZD0iTTIzMy42NjY2NjY2NjY2NjY2Niw0ODgsIDQzOS42NjY2NjY2NjY2NjY2Myw2MTgiIG1hcmtlci1lbmQ9IiIgY2xhc3M9ImxpbmsiLz48cGF0aCBzdHlsZT0ic3Ryb2tlLXdpZHRoOiAwLjU7IHN0cm9rZS1vcGFjaXR5OiAxOyBzdHJva2U6IHJnYig4MCwgODAsIDgwKTsiIGQ9Ik0yMzMuNjY2NjY2NjY2NjY2NjYsNDg4LCA0MzkuNjY2NjY2NjY2NjY2NjMsNjc3IiBtYXJrZXItZW5kPSIiIGNsYXNzPSJsaW5rIi8+PHBhdGggc3R5bGU9InN0cm9rZS13aWR0aDogMC41OyBzdHJva2Utb3BhY2l0eTogMTsgc3Ryb2tlOiByZ2IoODAsIDgwLCA4MCk7IiBkPSJNMjMzLjY2NjY2NjY2NjY2NjY2LDQ4OCwgNDM5LjY2NjY2NjY2NjY2NjYzLDczNiIgbWFya2VyLWVuZD0iIiBjbGFzcz0ibGluayIvPjxwYXRoIHN0eWxlPSJzdHJva2Utd2lkdGg6IDAuNTsgc3Ryb2tlLW9wYWNpdHk6IDE7IHN0cm9rZTogcmdiKDgwLCA4MCwgODApOyIgZD0iTTIzMy42NjY2NjY2NjY2NjY2Niw0ODgsIDQzOS42NjY2NjY2NjY2NjY2Myw3OTUiIG1hcmtlci1lbmQ9IiIgY2xhc3M9ImxpbmsiLz48cGF0aCBzdHlsZT0ic3Ryb2tlLXdpZHRoOiAwLjU7IHN0cm9rZS1vcGFjaXR5OiAxOyBzdHJva2U6IHJnYig4MCwgODAsIDgwKTsiIGQ9Ik0yMzMuNjY2NjY2NjY2NjY2NjYsNDg4LCA0MzkuNjY2NjY2NjY2NjY2NjMsODU0IiBtYXJrZXItZW5kPSIiIGNsYXNzPSJsaW5rIi8+PHBhdGggc3R5bGU9InN0cm9rZS13aWR0aDogMC41OyBzdHJva2Utb3BhY2l0eTogMTsgc3Ryb2tlOiByZ2IoODAsIDgwLCA4MCk7IiBkPSJNMjMzLjY2NjY2NjY2NjY2NjY2LDQ4OCwgNDM5LjY2NjY2NjY2NjY2NjYzLDkxMyIgbWFya2VyLWVuZD0iIiBjbGFzcz0ibGluayIvPjxwYXRoIHN0eWxlPSJzdHJva2Utd2lkdGg6IDAuNTsgc3Ryb2tlLW9wYWNpdHk6IDE7IHN0cm9rZTogcmdiKDgwLCA4MCwgODApOyIgZD0iTTQzOS42NjY2NjY2NjY2NjY2Myw1MDAsIDY0NS42NjY2NjY2NjY2NjY2LDM1LjUiIG1hcmtlci1lbmQ9IiIgY2xhc3M9ImxpbmsiLz48cGF0aCBzdHlsZT0ic3Ryb2tlLXdpZHRoOiAwLjU7IHN0cm9rZS1vcGFjaXR5OiAxOyBzdHJva2U6IHJnYig4MCwgODAsIDgwKTsiIGQ9Ik00MzkuNjY2NjY2NjY2NjY2NjMsNTAwLCA2NDUuNjY2NjY2NjY2NjY2Niw5My41IiBtYXJrZXItZW5kPSIiIGNsYXNzPSJsaW5rIi8+PHBhdGggc3R5bGU9InN0cm9rZS13aWR0aDogMC41OyBzdHJva2Utb3BhY2l0eTogMTsgc3Ryb2tlOiByZ2IoODAsIDgwLCA4MCk7IiBkPSJNNDM5LjY2NjY2NjY2NjY2NjYzLDUwMCwgNjQ1LjY2NjY2NjY2NjY2NjYsMTUxLjUiIG1hcmtlci1lbmQ9IiIgY2xhc3M9ImxpbmsiLz48cGF0aCBzdHlsZT0ic3Ryb2tlLXdpZHRoOiAwLjU7IHN0cm9rZS1vcGFjaXR5OiAxOyBzdHJva2U6IHJnYig4MCwgODAsIDgwKTsiIGQ9Ik00MzkuNjY2NjY2NjY2NjY2NjMsNTAwLCA2NDUuNjY2NjY2NjY2NjY2NiwyMDkuNSIgbWFya2VyLWVuZD0iIiBjbGFzcz0ibGluayIvPjxwYXRoIHN0eWxlPSJzdHJva2Utd2lkdGg6IDAuNTsgc3Ryb2tlLW9wYWNpdHk6IDE7IHN0cm9rZTogcmdiKDgwLCA4MCwgODApOyIgZD0iTTQzOS42NjY2NjY2NjY2NjY2Myw1MDAsIDY0NS42NjY2NjY2NjY2NjY2LDI2Ny41IiBtYXJrZXItZW5kPSIiIGNsYXNzPSJsaW5rIi8+PHBhdGggc3R5bGU9InN0cm9rZS13aWR0aDogMC41OyBzdHJva2Utb3BhY2l0eTogMTsgc3Ryb2tlOiByZ2IoODAsIDgwLCA4MCk7IiBkPSJNNDM5LjY2NjY2NjY2NjY2NjYzLDUwMCwgNjQ1LjY2NjY2NjY2NjY2NjYsMzI1LjUiIG1hcmtlci1lbmQ9IiIgY2xhc3M9ImxpbmsiLz48cGF0aCBzdHlsZT0ic3Ryb2tlLXdpZHRoOiAwLjU7IHN0cm9rZS1vcGFjaXR5OiAxOyBzdHJva2U6IHJnYig4MCwgODAsIDgwKTsiIGQ9Ik00MzkuNjY2NjY2NjY2NjY2NjMsNTAwLCA2NDUuNjY2NjY2NjY2NjY2NiwzODMuNSIgbWFya2VyLWVuZD0iIiBjbGFzcz0ibGluayIvPjxwYXRoIHN0eWxlPSJzdHJva2Utd2lkdGg6IDAuNTsgc3Ryb2tlLW9wYWNpdHk6IDE7IHN0cm9rZTogcmdiKDgwLCA4MCwgODApOyIgZD0iTTQzOS42NjY2NjY2NjY2NjY2Myw1MDAsIDY0NS42NjY2NjY2NjY2NjY2LDQ0MS41IiBtYXJrZXItZW5kPSIiIGNsYXNzPSJsaW5rIi8+PHBhdGggc3R5bGU9InN0cm9rZS13aWR0aDogMC41OyBzdHJva2Utb3BhY2l0eTogMTsgc3Ryb2tlOiByZ2IoODAsIDgwLCA4MCk7IiBkPSJNNDM5LjY2NjY2NjY2NjY2NjYzLDU1OSwgNjQ1LjY2NjY2NjY2NjY2NjYsMzUuNSIgbWFya2VyLWVuZD0iIiBjbGFzcz0ibGluayIvPjxwYXRoIHN0eWxlPSJzdHJva2Utd2lkdGg6IDAuNTsgc3Ryb2tlLW9wYWNpdHk6IDE7IHN0cm9rZTogcmdiKDgwLCA4MCwgODApOyIgZD0iTTQzOS42NjY2NjY2NjY2NjY2Myw1NTksIDY0NS42NjY2NjY2NjY2NjY2LDkzLjUiIG1hcmtlci1lbmQ9IiIgY2xhc3M9ImxpbmsiLz48cGF0aCBzdHlsZT0ic3Ryb2tlLXdpZHRoOiAwLjU7IHN0cm9rZS1vcGFjaXR5OiAxOyBzdHJva2U6IHJnYig4MCwgODAsIDgwKTsiIGQ9Ik00MzkuNjY2NjY2NjY2NjY2NjMsNTU5LCA2NDUuNjY2NjY2NjY2NjY2NiwxNTEuNSIgbWFya2VyLWVuZD0iIiBjbGFzcz0ibGluayIvPjxwYXRoIHN0eWxlPSJzdHJva2Utd2lkdGg6IDAuNTsgc3Ryb2tlLW9wYWNpdHk6IDE7IHN0cm9rZTogcmdiKDgwLCA4MCwgODApOyIgZD0iTTQzOS42NjY2NjY2NjY2NjY2Myw1NTksIDY0NS42NjY2NjY2NjY2NjY2LDIwOS41IiBtYXJrZXItZW5kPSIiIGNsYXNzPSJsaW5rIi8+PHBhdGggc3R5bGU9InN0cm9rZS13aWR0aDogMC41OyBzdHJva2Utb3BhY2l0eTogMTsgc3Ryb2tlOiByZ2IoODAsIDgwLCA4MCk7IiBkPSJNNDM5LjY2NjY2NjY2NjY2NjYzLDU1OSwgNjQ1LjY2NjY2NjY2NjY2NjYsMjY3LjUiIG1hcmtlci1lbmQ9IiIgY2xhc3M9ImxpbmsiLz48cGF0aCBzdHlsZT0ic3Ryb2tlLXdpZHRoOiAwLjU7IHN0cm9rZS1vcGFjaXR5OiAxOyBzdHJva2U6IHJnYig4MCwgODAsIDgwKTsiIGQ9Ik00MzkuNjY2NjY2NjY2NjY2NjMsNTU5LCA2NDUuNjY2NjY2NjY2NjY2NiwzMjUuNSIgbWFya2VyLWVuZD0iIiBjbGFzcz0ibGluayIvPjxwYXRoIHN0eWxlPSJzdHJva2Utd2lkdGg6IDAuNTsgc3Ryb2tlLW9wYWNpdHk6IDE7IHN0cm9rZTogcmdiKDgwLCA4MCwgODApOyIgZD0iTTQzOS42NjY2NjY2NjY2NjY2Myw1NTksIDY0NS42NjY2NjY2NjY2NjY2LDM4My41IiBtYXJrZXItZW5kPSIiIGNsYXNzPSJsaW5rIi8+PHBhdGggc3R5bGU9InN0cm9rZS13aWR0aDogMC41OyBzdHJva2Utb3BhY2l0eTogMTsgc3Ryb2tlOiByZ2IoODAsIDgwLCA4MCk7IiBkPSJNNDM5LjY2NjY2NjY2NjY2NjYzLDU1OSwgNjQ1LjY2NjY2NjY2NjY2NjYsNDQxLjUiIG1hcmtlci1lbmQ9IiIgY2xhc3M9ImxpbmsiLz48cGF0aCBzdHlsZT0ic3Ryb2tlLXdpZHRoOiAwLjU7IHN0cm9rZS1vcGFjaXR5OiAxOyBzdHJva2U6IHJnYig4MCwgODAsIDgwKTsiIGQ9Ik00MzkuNjY2NjY2NjY2NjY2NjMsNjE4LCA2NDUuNjY2NjY2NjY2NjY2NiwzNS41IiBtYXJrZXItZW5kPSIiIGNsYXNzPSJsaW5rIi8+PHBhdGggc3R5bGU9InN0cm9rZS13aWR0aDogMC41OyBzdHJva2Utb3BhY2l0eTogMTsgc3Ryb2tlOiByZ2IoODAsIDgwLCA4MCk7IiBkPSJNNDM5LjY2NjY2NjY2NjY2NjYzLDYxOCwgNjQ1LjY2NjY2NjY2NjY2NjYsOTMuNSIgbWFya2VyLWVuZD0iIiBjbGFzcz0ibGluayIvPjxwYXRoIHN0eWxlPSJzdHJva2Utd2lkdGg6IDAuNTsgc3Ryb2tlLW9wYWNpdHk6IDE7IHN0cm9rZTogcmdiKDgwLCA4MCwgODApOyIgZD0iTTQzOS42NjY2NjY2NjY2NjY2Myw2MTgsIDY0NS42NjY2NjY2NjY2NjY2LDE1MS41IiBtYXJrZXItZW5kPSIiIGNsYXNzPSJsaW5rIi8+PHBhdGggc3R5bGU9InN0cm9rZS13aWR0aDogMC41OyBzdHJva2Utb3BhY2l0eTogMTsgc3Ryb2tlOiByZ2IoODAsIDgwLCA4MCk7IiBkPSJNNDM5LjY2NjY2NjY2NjY2NjYzLDYxOCwgNjQ1LjY2NjY2NjY2NjY2NjYsMjA5LjUiIG1hcmtlci1lbmQ9IiIgY2xhc3M9ImxpbmsiLz48cGF0aCBzdHlsZT0ic3Ryb2tlLXdpZHRoOiAwLjU7IHN0cm9rZS1vcGFjaXR5OiAxOyBzdHJva2U6IHJnYig4MCwgODAsIDgwKTsiIGQ9Ik00MzkuNjY2NjY2NjY2NjY2NjMsNjE4LCA2NDUuNjY2NjY2NjY2NjY2NiwyNjcuNSIgbWFya2VyLWVuZD0iIiBjbGFzcz0ibGluayIvPjxwYXRoIHN0eWxlPSJzdHJva2Utd2lkdGg6IDAuNTsgc3Ryb2tlLW9wYWNpdHk6IDE7IHN0cm9rZTogcmdiKDgwLCA4MCwgODApOyIgZD0iTTQzOS42NjY2NjY2NjY2NjY2Myw2MTgsIDY0NS42NjY2NjY2NjY2NjY2LDMyNS41IiBtYXJrZXItZW5kPSIiIGNsYXNzPSJsaW5rIi8+PHBhdGggc3R5bGU9InN0cm9rZS13aWR0aDogMC41OyBzdHJva2Utb3BhY2l0eTogMTsgc3Ryb2tlOiByZ2IoODAsIDgwLCA4MCk7IiBkPSJNNDM5LjY2NjY2NjY2NjY2NjYzLDYxOCwgNjQ1LjY2NjY2NjY2NjY2NjYsMzgzLjUiIG1hcmtlci1lbmQ9IiIgY2xhc3M9ImxpbmsiLz48cGF0aCBzdHlsZT0ic3Ryb2tlLXdpZHRoOiAwLjU7IHN0cm9rZS1vcGFjaXR5OiAxOyBzdHJva2U6IHJnYig4MCwgODAsIDgwKTsiIGQ9Ik00MzkuNjY2NjY2NjY2NjY2NjMsNjE4LCA2NDUuNjY2NjY2NjY2NjY2Niw0NDEuNSIgbWFya2VyLWVuZD0iIiBjbGFzcz0ibGluayIvPjxwYXRoIHN0eWxlPSJzdHJva2Utd2lkdGg6IDAuNTsgc3Ryb2tlLW9wYWNpdHk6IDE7IHN0cm9rZTogcmdiKDgwLCA4MCwgODApOyIgZD0iTTQzOS42NjY2NjY2NjY2NjY2Myw2NzcsIDY0NS42NjY2NjY2NjY2NjY2LDM1LjUiIG1hcmtlci1lbmQ9IiIgY2xhc3M9ImxpbmsiLz48cGF0aCBzdHlsZT0ic3Ryb2tlLXdpZHRoOiAwLjU7IHN0cm9rZS1vcGFjaXR5OiAxOyBzdHJva2U6IHJnYig4MCwgODAsIDgwKTsiIGQ9Ik00MzkuNjY2NjY2NjY2NjY2NjMsNjc3LCA2NDUuNjY2NjY2NjY2NjY2Niw5My41IiBtYXJrZXItZW5kPSIiIGNsYXNzPSJsaW5rIi8+PHBhdGggc3R5bGU9InN0cm9rZS13aWR0aDogMC41OyBzdHJva2Utb3BhY2l0eTogMTsgc3Ryb2tlOiByZ2IoODAsIDgwLCA4MCk7IiBkPSJNNDM5LjY2NjY2NjY2NjY2NjYzLDY3NywgNjQ1LjY2NjY2NjY2NjY2NjYsMTUxLjUiIG1hcmtlci1lbmQ9IiIgY2xhc3M9ImxpbmsiLz48cGF0aCBzdHlsZT0ic3Ryb2tlLXdpZHRoOiAwLjU7IHN0cm9rZS1vcGFjaXR5OiAxOyBzdHJva2U6IHJnYig4MCwgODAsIDgwKTsiIGQ9Ik00MzkuNjY2NjY2NjY2NjY2NjMsNjc3LCA2NDUuNjY2NjY2NjY2NjY2NiwyMDkuNSIgbWFya2VyLWVuZD0iIiBjbGFzcz0ibGluayIvPjxwYXRoIHN0eWxlPSJzdHJva2Utd2lkdGg6IDAuNTsgc3Ryb2tlLW9wYWNpdHk6IDE7IHN0cm9rZTogcmdiKDgwLCA4MCwgODApOyIgZD0iTTQzOS42NjY2NjY2NjY2NjY2Myw2NzcsIDY0NS42NjY2NjY2NjY2NjY2LDI2Ny41IiBtYXJrZXItZW5kPSIiIGNsYXNzPSJsaW5rIi8+PHBhdGggc3R5bGU9InN0cm9rZS13aWR0aDogMC41OyBzdHJva2Utb3BhY2l0eTogMTsgc3Ryb2tlOiByZ2IoODAsIDgwLCA4MCk7IiBkPSJNNDM5LjY2NjY2NjY2NjY2NjYzLDY3NywgNjQ1LjY2NjY2NjY2NjY2NjYsMzI1LjUiIG1hcmtlci1lbmQ9IiIgY2xhc3M9ImxpbmsiLz48cGF0aCBzdHlsZT0ic3Ryb2tlLXdpZHRoOiAwLjU7IHN0cm9rZS1vcGFjaXR5OiAxOyBzdHJva2U6IHJnYig4MCwgODAsIDgwKTsiIGQ9Ik00MzkuNjY2NjY2NjY2NjY2NjMsNjc3LCA2NDUuNjY2NjY2NjY2NjY2NiwzODMuNSIgbWFya2VyLWVuZD0iIiBjbGFzcz0ibGluayIvPjxwYXRoIHN0eWxlPSJzdHJva2Utd2lkdGg6IDAuNTsgc3Ryb2tlLW9wYWNpdHk6IDE7IHN0cm9rZTogcmdiKDgwLCA4MCwgODApOyIgZD0iTTQzOS42NjY2NjY2NjY2NjY2Myw2NzcsIDY0NS42NjY2NjY2NjY2NjY2LDQ0MS41IiBtYXJrZXItZW5kPSIiIGNsYXNzPSJsaW5rIi8+PHBhdGggc3R5bGU9InN0cm9rZS13aWR0aDogMC41OyBzdHJva2Utb3BhY2l0eTogMTsgc3Ryb2tlOiByZ2IoODAsIDgwLCA4MCk7IiBkPSJNNDM5LjY2NjY2NjY2NjY2NjYzLDczNiwgNjQ1LjY2NjY2NjY2NjY2NjYsMzUuNSIgbWFya2VyLWVuZD0iIiBjbGFzcz0ibGluayIvPjxwYXRoIHN0eWxlPSJzdHJva2Utd2lkdGg6IDAuNTsgc3Ryb2tlLW9wYWNpdHk6IDE7IHN0cm9rZTogcmdiKDgwLCA4MCwgODApOyIgZD0iTTQzOS42NjY2NjY2NjY2NjY2Myw3MzYsIDY0NS42NjY2NjY2NjY2NjY2LDkzLjUiIG1hcmtlci1lbmQ9IiIgY2xhc3M9ImxpbmsiLz48cGF0aCBzdHlsZT0ic3Ryb2tlLXdpZHRoOiAwLjU7IHN0cm9rZS1vcGFjaXR5OiAxOyBzdHJva2U6IHJnYig4MCwgODAsIDgwKTsiIGQ9Ik00MzkuNjY2NjY2NjY2NjY2NjMsNzM2LCA2NDUuNjY2NjY2NjY2NjY2NiwxNTEuNSIgbWFya2VyLWVuZD0iIiBjbGFzcz0ibGluayIvPjxwYXRoIHN0eWxlPSJzdHJva2Utd2lkdGg6IDAuNTsgc3Ryb2tlLW9wYWNpdHk6IDE7IHN0cm9rZTogcmdiKDgwLCA4MCwgODApOyIgZD0iTTQzOS42NjY2NjY2NjY2NjY2Myw3MzYsIDY0NS42NjY2NjY2NjY2NjY2LDIwOS41IiBtYXJrZXItZW5kPSIiIGNsYXNzPSJsaW5rIi8+PHBhdGggc3R5bGU9InN0cm9rZS13aWR0aDogMC41OyBzdHJva2Utb3BhY2l0eTogMTsgc3Ryb2tlOiByZ2IoODAsIDgwLCA4MCk7IiBkPSJNNDM5LjY2NjY2NjY2NjY2NjYzLDczNiwgNjQ1LjY2NjY2NjY2NjY2NjYsMjY3LjUiIG1hcmtlci1lbmQ9IiIgY2xhc3M9ImxpbmsiLz48cGF0aCBzdHlsZT0ic3Ryb2tlLXdpZHRoOiAwLjU7IHN0cm9rZS1vcGFjaXR5OiAxOyBzdHJva2U6IHJnYig4MCwgODAsIDgwKTsiIGQ9Ik00MzkuNjY2NjY2NjY2NjY2NjMsNzM2LCA2NDUuNjY2NjY2NjY2NjY2NiwzMjUuNSIgbWFya2VyLWVuZD0iIiBjbGFzcz0ibGluayIvPjxwYXRoIHN0eWxlPSJzdHJva2Utd2lkdGg6IDAuNTsgc3Ryb2tlLW9wYWNpdHk6IDE7IHN0cm9rZTogcmdiKDgwLCA4MCwgODApOyIgZD0iTTQzOS42NjY2NjY2NjY2NjY2Myw3MzYsIDY0NS42NjY2NjY2NjY2NjY2LDM4My41IiBtYXJrZXItZW5kPSIiIGNsYXNzPSJsaW5rIi8+PHBhdGggc3R5bGU9InN0cm9rZS13aWR0aDogMC41OyBzdHJva2Utb3BhY2l0eTogMTsgc3Ryb2tlOiByZ2IoODAsIDgwLCA4MCk7IiBkPSJNNDM5LjY2NjY2NjY2NjY2NjYzLDczNiwgNjQ1LjY2NjY2NjY2NjY2NjYsNDQxLjUiIG1hcmtlci1lbmQ9IiIgY2xhc3M9ImxpbmsiLz48cGF0aCBzdHlsZT0ic3Ryb2tlLXdpZHRoOiAwLjU7IHN0cm9rZS1vcGFjaXR5OiAxOyBzdHJva2U6IHJnYig4MCwgODAsIDgwKTsiIGQ9Ik00MzkuNjY2NjY2NjY2NjY2NjMsNzk1LCA2NDUuNjY2NjY2NjY2NjY2NiwzNS41IiBtYXJrZXItZW5kPSIiIGNsYXNzPSJsaW5rIi8+PHBhdGggc3R5bGU9InN0cm9rZS13aWR0aDogMC41OyBzdHJva2Utb3BhY2l0eTogMTsgc3Ryb2tlOiByZ2IoODAsIDgwLCA4MCk7IiBkPSJNNDM5LjY2NjY2NjY2NjY2NjYzLDc5NSwgNjQ1LjY2NjY2NjY2NjY2NjYsOTMuNSIgbWFya2VyLWVuZD0iIiBjbGFzcz0ibGluayIvPjxwYXRoIHN0eWxlPSJzdHJva2Utd2lkdGg6IDAuNTsgc3Ryb2tlLW9wYWNpdHk6IDE7IHN0cm9rZTogcmdiKDgwLCA4MCwgODApOyIgZD0iTTQzOS42NjY2NjY2NjY2NjY2Myw3OTUsIDY0NS42NjY2NjY2NjY2NjY2LDE1MS41IiBtYXJrZXItZW5kPSIiIGNsYXNzPSJsaW5rIi8+PHBhdGggc3R5bGU9InN0cm9rZS13aWR0aDogMC41OyBzdHJva2Utb3BhY2l0eTogMTsgc3Ryb2tlOiByZ2IoODAsIDgwLCA4MCk7IiBkPSJNNDM5LjY2NjY2NjY2NjY2NjYzLDc5NSwgNjQ1LjY2NjY2NjY2NjY2NjYsMjA5LjUiIG1hcmtlci1lbmQ9IiIgY2xhc3M9ImxpbmsiLz48cGF0aCBzdHlsZT0ic3Ryb2tlLXdpZHRoOiAwLjU7IHN0cm9rZS1vcGFjaXR5OiAxOyBzdHJva2U6IHJnYig4MCwgODAsIDgwKTsiIGQ9Ik00MzkuNjY2NjY2NjY2NjY2NjMsNzk1LCA2NDUuNjY2NjY2NjY2NjY2NiwyNjcuNSIgbWFya2VyLWVuZD0iIiBjbGFzcz0ibGluayIvPjxwYXRoIHN0eWxlPSJzdHJva2Utd2lkdGg6IDAuNTsgc3Ryb2tlLW9wYWNpdHk6IDE7IHN0cm9rZTogcmdiKDgwLCA4MCwgODApOyIgZD0iTTQzOS42NjY2NjY2NjY2NjY2Myw3OTUsIDY0NS42NjY2NjY2NjY2NjY2LDMyNS41IiBtYXJrZXItZW5kPSIiIGNsYXNzPSJsaW5rIi8+PHBhdGggc3R5bGU9InN0cm9rZS13aWR0aDogMC41OyBzdHJva2Utb3BhY2l0eTogMTsgc3Ryb2tlOiByZ2IoODAsIDgwLCA4MCk7IiBkPSJNNDM5LjY2NjY2NjY2NjY2NjYzLDc5NSwgNjQ1LjY2NjY2NjY2NjY2NjYsMzgzLjUiIG1hcmtlci1lbmQ9IiIgY2xhc3M9ImxpbmsiLz48cGF0aCBzdHlsZT0ic3Ryb2tlLXdpZHRoOiAwLjU7IHN0cm9rZS1vcGFjaXR5OiAxOyBzdHJva2U6IHJnYig4MCwgODAsIDgwKTsiIGQ9Ik00MzkuNjY2NjY2NjY2NjY2NjMsNzk1LCA2NDUuNjY2NjY2NjY2NjY2Niw0NDEuNSIgbWFya2VyLWVuZD0iIiBjbGFzcz0ibGluayIvPjxwYXRoIHN0eWxlPSJzdHJva2Utd2lkdGg6IDAuNTsgc3Ryb2tlLW9wYWNpdHk6IDE7IHN0cm9rZTogcmdiKDgwLCA4MCwgODApOyIgZD0iTTQzOS42NjY2NjY2NjY2NjY2Myw4NTQsIDY0NS42NjY2NjY2NjY2NjY2LDM1LjUiIG1hcmtlci1lbmQ9IiIgY2xhc3M9ImxpbmsiLz48cGF0aCBzdHlsZT0ic3Ryb2tlLXdpZHRoOiAwLjU7IHN0cm9rZS1vcGFjaXR5OiAxOyBzdHJva2U6IHJnYig4MCwgODAsIDgwKTsiIGQ9Ik00MzkuNjY2NjY2NjY2NjY2NjMsODU0LCA2NDUuNjY2NjY2NjY2NjY2Niw5My41IiBtYXJrZXItZW5kPSIiIGNsYXNzPSJsaW5rIi8+PHBhdGggc3R5bGU9InN0cm9rZS13aWR0aDogMC41OyBzdHJva2Utb3BhY2l0eTogMTsgc3Ryb2tlOiByZ2IoODAsIDgwLCA4MCk7IiBkPSJNNDM5LjY2NjY2NjY2NjY2NjYzLDg1NCwgNjQ1LjY2NjY2NjY2NjY2NjYsMTUxLjUiIG1hcmtlci1lbmQ9IiIgY2xhc3M9ImxpbmsiLz48cGF0aCBzdHlsZT0ic3Ryb2tlLXdpZHRoOiAwLjU7IHN0cm9rZS1vcGFjaXR5OiAxOyBzdHJva2U6IHJnYig4MCwgODAsIDgwKTsiIGQ9Ik00MzkuNjY2NjY2NjY2NjY2NjMsODU0LCA2NDUuNjY2NjY2NjY2NjY2NiwyMDkuNSIgbWFya2VyLWVuZD0iIiBjbGFzcz0ibGluayIvPjxwYXRoIHN0eWxlPSJzdHJva2Utd2lkdGg6IDAuNTsgc3Ryb2tlLW9wYWNpdHk6IDE7IHN0cm9rZTogcmdiKDgwLCA4MCwgODApOyIgZD0iTTQzOS42NjY2NjY2NjY2NjY2Myw4NTQsIDY0NS42NjY2NjY2NjY2NjY2LDI2Ny41IiBtYXJrZXItZW5kPSIiIGNsYXNzPSJsaW5rIi8+PHBhdGggc3R5bGU9InN0cm9rZS13aWR0aDogMC41OyBzdHJva2Utb3BhY2l0eTogMTsgc3Ryb2tlOiByZ2IoODAsIDgwLCA4MCk7IiBkPSJNNDM5LjY2NjY2NjY2NjY2NjYzLDg1NCwgNjQ1LjY2NjY2NjY2NjY2NjYsMzI1LjUiIG1hcmtlci1lbmQ9IiIgY2xhc3M9ImxpbmsiLz48cGF0aCBzdHlsZT0ic3Ryb2tlLXdpZHRoOiAwLjU7IHN0cm9rZS1vcGFjaXR5OiAxOyBzdHJva2U6IHJnYig4MCwgODAsIDgwKTsiIGQ9Ik00MzkuNjY2NjY2NjY2NjY2NjMsODU0LCA2NDUuNjY2NjY2NjY2NjY2NiwzODMuNSIgbWFya2VyLWVuZD0iIiBjbGFzcz0ibGluayIvPjxwYXRoIHN0eWxlPSJzdHJva2Utd2lkdGg6IDAuNTsgc3Ryb2tlLW9wYWNpdHk6IDE7IHN0cm9rZTogcmdiKDgwLCA4MCwgODApOyIgZD0iTTQzOS42NjY2NjY2NjY2NjY2Myw4NTQsIDY0NS42NjY2NjY2NjY2NjY2LDQ0MS41IiBtYXJrZXItZW5kPSIiIGNsYXNzPSJsaW5rIi8+PHBhdGggc3R5bGU9InN0cm9rZS13aWR0aDogMC41OyBzdHJva2Utb3BhY2l0eTogMTsgc3Ryb2tlOiByZ2IoODAsIDgwLCA4MCk7IiBkPSJNNDM5LjY2NjY2NjY2NjY2NjYzLDkxMywgNjQ1LjY2NjY2NjY2NjY2NjYsMzUuNSIgbWFya2VyLWVuZD0iIiBjbGFzcz0ibGluayIvPjxwYXRoIHN0eWxlPSJzdHJva2Utd2lkdGg6IDAuNTsgc3Ryb2tlLW9wYWNpdHk6IDE7IHN0cm9rZTogcmdiKDgwLCA4MCwgODApOyIgZD0iTTQzOS42NjY2NjY2NjY2NjY2Myw5MTMsIDY0NS42NjY2NjY2NjY2NjY2LDkzLjUiIG1hcmtlci1lbmQ9IiIgY2xhc3M9ImxpbmsiLz48cGF0aCBzdHlsZT0ic3Ryb2tlLXdpZHRoOiAwLjU7IHN0cm9rZS1vcGFjaXR5OiAxOyBzdHJva2U6IHJnYig4MCwgODAsIDgwKTsiIGQ9Ik00MzkuNjY2NjY2NjY2NjY2NjMsOTEzLCA2NDUuNjY2NjY2NjY2NjY2NiwxNTEuNSIgbWFya2VyLWVuZD0iIiBjbGFzcz0ibGluayIvPjxwYXRoIHN0eWxlPSJzdHJva2Utd2lkdGg6IDAuNTsgc3Ryb2tlLW9wYWNpdHk6IDE7IHN0cm9rZTogcmdiKDgwLCA4MCwgODApOyIgZD0iTTQzOS42NjY2NjY2NjY2NjY2Myw5MTMsIDY0NS42NjY2NjY2NjY2NjY2LDIwOS41IiBtYXJrZXItZW5kPSIiIGNsYXNzPSJsaW5rIi8+PHBhdGggc3R5bGU9InN0cm9rZS13aWR0aDogMC41OyBzdHJva2Utb3BhY2l0eTogMTsgc3Ryb2tlOiByZ2IoODAsIDgwLCA4MCk7IiBkPSJNNDM5LjY2NjY2NjY2NjY2NjYzLDkxMywgNjQ1LjY2NjY2NjY2NjY2NjYsMjY3LjUiIG1hcmtlci1lbmQ9IiIgY2xhc3M9ImxpbmsiLz48cGF0aCBzdHlsZT0ic3Ryb2tlLXdpZHRoOiAwLjU7IHN0cm9rZS1vcGFjaXR5OiAxOyBzdHJva2U6IHJnYig4MCwgODAsIDgwKTsiIGQ9Ik00MzkuNjY2NjY2NjY2NjY2NjMsOTEzLCA2NDUuNjY2NjY2NjY2NjY2NiwzMjUuNSIgbWFya2VyLWVuZD0iIiBjbGFzcz0ibGluayIvPjxwYXRoIHN0eWxlPSJzdHJva2Utd2lkdGg6IDAuNTsgc3Ryb2tlLW9wYWNpdHk6IDE7IHN0cm9rZTogcmdiKDgwLCA4MCwgODApOyIgZD0iTTQzOS42NjY2NjY2NjY2NjY2Myw5MTMsIDY0NS42NjY2NjY2NjY2NjY2LDM4My41IiBtYXJrZXItZW5kPSIiIGNsYXNzPSJsaW5rIi8+PHBhdGggc3R5bGU9InN0cm9rZS13aWR0aDogMC41OyBzdHJva2Utb3BhY2l0eTogMTsgc3Ryb2tlOiByZ2IoODAsIDgwLCA4MCk7IiBkPSJNNDM5LjY2NjY2NjY2NjY2NjYzLDkxMywgNjQ1LjY2NjY2NjY2NjY2NjYsNDQxLjUiIG1hcmtlci1lbmQ9IiIgY2xhc3M9ImxpbmsiLz48cGF0aCBzdHlsZT0ic3Ryb2tlLXdpZHRoOiAwLjU7IHN0cm9rZS1vcGFjaXR5OiAxOyBzdHJva2U6IHJnYig4MCwgODAsIDgwKTsiIGQ9Ik00MzkuNjY2NjY2NjY2NjY2NjMsMjgsIDY0NS42NjY2NjY2NjY2NjY2LDQ5OS41IiBtYXJrZXItZW5kPSIiIGNsYXNzPSJsaW5rIi8+PHBhdGggc3R5bGU9InN0cm9rZS13aWR0aDogMC41OyBzdHJva2Utb3BhY2l0eTogMTsgc3Ryb2tlOiByZ2IoODAsIDgwLCA4MCk7IiBkPSJNNDM5LjY2NjY2NjY2NjY2NjYzLDI4LCA2NDUuNjY2NjY2NjY2NjY2Niw1NTcuNSIgbWFya2VyLWVuZD0iIiBjbGFzcz0ibGluayIvPjxwYXRoIHN0eWxlPSJzdHJva2Utd2lkdGg6IDAuNTsgc3Ryb2tlLW9wYWNpdHk6IDE7IHN0cm9rZTogcmdiKDgwLCA4MCwgODApOyIgZD0iTTQzOS42NjY2NjY2NjY2NjY2MywyOCwgNjQ1LjY2NjY2NjY2NjY2NjYsNjE1LjUiIG1hcmtlci1lbmQ9IiIgY2xhc3M9ImxpbmsiLz48cGF0aCBzdHlsZT0ic3Ryb2tlLXdpZHRoOiAwLjU7IHN0cm9rZS1vcGFjaXR5OiAxOyBzdHJva2U6IHJnYig4MCwgODAsIDgwKTsiIGQ9Ik00MzkuNjY2NjY2NjY2NjY2NjMsMjgsIDY0NS42NjY2NjY2NjY2NjY2LDY3My41IiBtYXJrZXItZW5kPSIiIGNsYXNzPSJsaW5rIi8+PHBhdGggc3R5bGU9InN0cm9rZS13aWR0aDogMC41OyBzdHJva2Utb3BhY2l0eTogMTsgc3Ryb2tlOiByZ2IoODAsIDgwLCA4MCk7IiBkPSJNNDM5LjY2NjY2NjY2NjY2NjYzLDI4LCA2NDUuNjY2NjY2NjY2NjY2Niw3MzEuNSIgbWFya2VyLWVuZD0iIiBjbGFzcz0ibGluayIvPjxwYXRoIHN0eWxlPSJzdHJva2Utd2lkdGg6IDAuNTsgc3Ryb2tlLW9wYWNpdHk6IDE7IHN0cm9rZTogcmdiKDgwLCA4MCwgODApOyIgZD0iTTQzOS42NjY2NjY2NjY2NjY2MywyOCwgNjQ1LjY2NjY2NjY2NjY2NjYsNzg5LjUiIG1hcmtlci1lbmQ9IiIgY2xhc3M9ImxpbmsiLz48cGF0aCBzdHlsZT0ic3Ryb2tlLXdpZHRoOiAwLjU7IHN0cm9rZS1vcGFjaXR5OiAxOyBzdHJva2U6IHJnYig4MCwgODAsIDgwKTsiIGQ9Ik00MzkuNjY2NjY2NjY2NjY2NjMsMjgsIDY0NS42NjY2NjY2NjY2NjY2LDg0Ny41IiBtYXJrZXItZW5kPSIiIGNsYXNzPSJsaW5rIi8+PHBhdGggc3R5bGU9InN0cm9rZS13aWR0aDogMC41OyBzdHJva2Utb3BhY2l0eTogMTsgc3Ryb2tlOiByZ2IoODAsIDgwLCA4MCk7IiBkPSJNNDM5LjY2NjY2NjY2NjY2NjYzLDI4LCA2NDUuNjY2NjY2NjY2NjY2Niw5MDUuNSIgbWFya2VyLWVuZD0iIiBjbGFzcz0ibGluayIvPjxwYXRoIHN0eWxlPSJzdHJva2Utd2lkdGg6IDAuNTsgc3Ryb2tlLW9wYWNpdHk6IDE7IHN0cm9rZTogcmdiKDgwLCA4MCwgODApOyIgZD0iTTQzOS42NjY2NjY2NjY2NjY2Myw4NywgNjQ1LjY2NjY2NjY2NjY2NjYsNDk5LjUiIG1hcmtlci1lbmQ9IiIgY2xhc3M9ImxpbmsiLz48cGF0aCBzdHlsZT0ic3Ryb2tlLXdpZHRoOiAwLjU7IHN0cm9rZS1vcGFjaXR5OiAxOyBzdHJva2U6IHJnYig4MCwgODAsIDgwKTsiIGQ9Ik00MzkuNjY2NjY2NjY2NjY2NjMsODcsIDY0NS42NjY2NjY2NjY2NjY2LDU1Ny41IiBtYXJrZXItZW5kPSIiIGNsYXNzPSJsaW5rIi8+PHBhdGggc3R5bGU9InN0cm9rZS13aWR0aDogMC41OyBzdHJva2Utb3BhY2l0eTogMTsgc3Ryb2tlOiByZ2IoODAsIDgwLCA4MCk7IiBkPSJNNDM5LjY2NjY2NjY2NjY2NjYzLDg3LCA2NDUuNjY2NjY2NjY2NjY2Niw2MTUuNSIgbWFya2VyLWVuZD0iIiBjbGFzcz0ibGluayIvPjxwYXRoIHN0eWxlPSJzdHJva2Utd2lkdGg6IDAuNTsgc3Ryb2tlLW9wYWNpdHk6IDE7IHN0cm9rZTogcmdiKDgwLCA4MCwgODApOyIgZD0iTTQzOS42NjY2NjY2NjY2NjY2Myw4NywgNjQ1LjY2NjY2NjY2NjY2NjYsNjczLjUiIG1hcmtlci1lbmQ9IiIgY2xhc3M9ImxpbmsiLz48cGF0aCBzdHlsZT0ic3Ryb2tlLXdpZHRoOiAwLjU7IHN0cm9rZS1vcGFjaXR5OiAxOyBzdHJva2U6IHJnYig4MCwgODAsIDgwKTsiIGQ9Ik00MzkuNjY2NjY2NjY2NjY2NjMsODcsIDY0NS42NjY2NjY2NjY2NjY2LDczMS41IiBtYXJrZXItZW5kPSIiIGNsYXNzPSJsaW5rIi8+PHBhdGggc3R5bGU9InN0cm9rZS13aWR0aDogMC41OyBzdHJva2Utb3BhY2l0eTogMTsgc3Ryb2tlOiByZ2IoODAsIDgwLCA4MCk7IiBkPSJNNDM5LjY2NjY2NjY2NjY2NjYzLDg3LCA2NDUuNjY2NjY2NjY2NjY2Niw3ODkuNSIgbWFya2VyLWVuZD0iIiBjbGFzcz0ibGluayIvPjxwYXRoIHN0eWxlPSJzdHJva2Utd2lkdGg6IDAuNTsgc3Ryb2tlLW9wYWNpdHk6IDE7IHN0cm9rZTogcmdiKDgwLCA4MCwgODApOyIgZD0iTTQzOS42NjY2NjY2NjY2NjY2Myw4NywgNjQ1LjY2NjY2NjY2NjY2NjYsODQ3LjUiIG1hcmtlci1lbmQ9IiIgY2xhc3M9ImxpbmsiLz48cGF0aCBzdHlsZT0ic3Ryb2tlLXdpZHRoOiAwLjU7IHN0cm9rZS1vcGFjaXR5OiAxOyBzdHJva2U6IHJnYig4MCwgODAsIDgwKTsiIGQ9Ik00MzkuNjY2NjY2NjY2NjY2NjMsODcsIDY0NS42NjY2NjY2NjY2NjY2LDkwNS41IiBtYXJrZXItZW5kPSIiIGNsYXNzPSJsaW5rIi8+PHBhdGggc3R5bGU9InN0cm9rZS13aWR0aDogMC41OyBzdHJva2Utb3BhY2l0eTogMTsgc3Ryb2tlOiByZ2IoODAsIDgwLCA4MCk7IiBkPSJNNDM5LjY2NjY2NjY2NjY2NjYzLDE0NiwgNjQ1LjY2NjY2NjY2NjY2NjYsNDk5LjUiIG1hcmtlci1lbmQ9IiIgY2xhc3M9ImxpbmsiLz48cGF0aCBzdHlsZT0ic3Ryb2tlLXdpZHRoOiAwLjU7IHN0cm9rZS1vcGFjaXR5OiAxOyBzdHJva2U6IHJnYig4MCwgODAsIDgwKTsiIGQ9Ik00MzkuNjY2NjY2NjY2NjY2NjMsMTQ2LCA2NDUuNjY2NjY2NjY2NjY2Niw1NTcuNSIgbWFya2VyLWVuZD0iIiBjbGFzcz0ibGluayIvPjxwYXRoIHN0eWxlPSJzdHJva2Utd2lkdGg6IDAuNTsgc3Ryb2tlLW9wYWNpdHk6IDE7IHN0cm9rZTogcmdiKDgwLCA4MCwgODApOyIgZD0iTTQzOS42NjY2NjY2NjY2NjY2MywxNDYsIDY0NS42NjY2NjY2NjY2NjY2LDYxNS41IiBtYXJrZXItZW5kPSIiIGNsYXNzPSJsaW5rIi8+PHBhdGggc3R5bGU9InN0cm9rZS13aWR0aDogMC41OyBzdHJva2Utb3BhY2l0eTogMTsgc3Ryb2tlOiByZ2IoODAsIDgwLCA4MCk7IiBkPSJNNDM5LjY2NjY2NjY2NjY2NjYzLDE0NiwgNjQ1LjY2NjY2NjY2NjY2NjYsNjczLjUiIG1hcmtlci1lbmQ9IiIgY2xhc3M9ImxpbmsiLz48cGF0aCBzdHlsZT0ic3Ryb2tlLXdpZHRoOiAwLjU7IHN0cm9rZS1vcGFjaXR5OiAxOyBzdHJva2U6IHJnYig4MCwgODAsIDgwKTsiIGQ9Ik00MzkuNjY2NjY2NjY2NjY2NjMsMTQ2LCA2NDUuNjY2NjY2NjY2NjY2Niw3MzEuNSIgbWFya2VyLWVuZD0iIiBjbGFzcz0ibGluayIvPjxwYXRoIHN0eWxlPSJzdHJva2Utd2lkdGg6IDAuNTsgc3Ryb2tlLW9wYWNpdHk6IDE7IHN0cm9rZTogcmdiKDgwLCA4MCwgODApOyIgZD0iTTQzOS42NjY2NjY2NjY2NjY2MywxNDYsIDY0NS42NjY2NjY2NjY2NjY2LDc4OS41IiBtYXJrZXItZW5kPSIiIGNsYXNzPSJsaW5rIi8+PHBhdGggc3R5bGU9InN0cm9rZS13aWR0aDogMC41OyBzdHJva2Utb3BhY2l0eTogMTsgc3Ryb2tlOiByZ2IoODAsIDgwLCA4MCk7IiBkPSJNNDM5LjY2NjY2NjY2NjY2NjYzLDE0NiwgNjQ1LjY2NjY2NjY2NjY2NjYsODQ3LjUiIG1hcmtlci1lbmQ9IiIgY2xhc3M9ImxpbmsiLz48cGF0aCBzdHlsZT0ic3Ryb2tlLXdpZHRoOiAwLjU7IHN0cm9rZS1vcGFjaXR5OiAxOyBzdHJva2U6IHJnYig4MCwgODAsIDgwKTsiIGQ9Ik00MzkuNjY2NjY2NjY2NjY2NjMsMTQ2LCA2NDUuNjY2NjY2NjY2NjY2Niw5MDUuNSIgbWFya2VyLWVuZD0iIiBjbGFzcz0ibGluayIvPjxwYXRoIHN0eWxlPSJzdHJva2Utd2lkdGg6IDAuNTsgc3Ryb2tlLW9wYWNpdHk6IDE7IHN0cm9rZTogcmdiKDgwLCA4MCwgODApOyIgZD0iTTQzOS42NjY2NjY2NjY2NjY2MywyMDUsIDY0NS42NjY2NjY2NjY2NjY2LDQ5OS41IiBtYXJrZXItZW5kPSIiIGNsYXNzPSJsaW5rIi8+PHBhdGggc3R5bGU9InN0cm9rZS13aWR0aDogMC41OyBzdHJva2Utb3BhY2l0eTogMTsgc3Ryb2tlOiByZ2IoODAsIDgwLCA4MCk7IiBkPSJNNDM5LjY2NjY2NjY2NjY2NjYzLDIwNSwgNjQ1LjY2NjY2NjY2NjY2NjYsNTU3LjUiIG1hcmtlci1lbmQ9IiIgY2xhc3M9ImxpbmsiLz48cGF0aCBzdHlsZT0ic3Ryb2tlLXdpZHRoOiAwLjU7IHN0cm9rZS1vcGFjaXR5OiAxOyBzdHJva2U6IHJnYig4MCwgODAsIDgwKTsiIGQ9Ik00MzkuNjY2NjY2NjY2NjY2NjMsMjA1LCA2NDUuNjY2NjY2NjY2NjY2Niw2MTUuNSIgbWFya2VyLWVuZD0iIiBjbGFzcz0ibGluayIvPjxwYXRoIHN0eWxlPSJzdHJva2Utd2lkdGg6IDAuNTsgc3Ryb2tlLW9wYWNpdHk6IDE7IHN0cm9rZTogcmdiKDgwLCA4MCwgODApOyIgZD0iTTQzOS42NjY2NjY2NjY2NjY2MywyMDUsIDY0NS42NjY2NjY2NjY2NjY2LDY3My41IiBtYXJrZXItZW5kPSIiIGNsYXNzPSJsaW5rIi8+PHBhdGggc3R5bGU9InN0cm9rZS13aWR0aDogMC41OyBzdHJva2Utb3BhY2l0eTogMTsgc3Ryb2tlOiByZ2IoODAsIDgwLCA4MCk7IiBkPSJNNDM5LjY2NjY2NjY2NjY2NjYzLDIwNSwgNjQ1LjY2NjY2NjY2NjY2NjYsNzMxLjUiIG1hcmtlci1lbmQ9IiIgY2xhc3M9ImxpbmsiLz48cGF0aCBzdHlsZT0ic3Ryb2tlLXdpZHRoOiAwLjU7IHN0cm9rZS1vcGFjaXR5OiAxOyBzdHJva2U6IHJnYig4MCwgODAsIDgwKTsiIGQ9Ik00MzkuNjY2NjY2NjY2NjY2NjMsMjA1LCA2NDUuNjY2NjY2NjY2NjY2Niw3ODkuNSIgbWFya2VyLWVuZD0iIiBjbGFzcz0ibGluayIvPjxwYXRoIHN0eWxlPSJzdHJva2Utd2lkdGg6IDAuNTsgc3Ryb2tlLW9wYWNpdHk6IDE7IHN0cm9rZTogcmdiKDgwLCA4MCwgODApOyIgZD0iTTQzOS42NjY2NjY2NjY2NjY2MywyMDUsIDY0NS42NjY2NjY2NjY2NjY2LDg0Ny41IiBtYXJrZXItZW5kPSIiIGNsYXNzPSJsaW5rIi8+PHBhdGggc3R5bGU9InN0cm9rZS13aWR0aDogMC41OyBzdHJva2Utb3BhY2l0eTogMTsgc3Ryb2tlOiByZ2IoODAsIDgwLCA4MCk7IiBkPSJNNDM5LjY2NjY2NjY2NjY2NjYzLDIwNSwgNjQ1LjY2NjY2NjY2NjY2NjYsOTA1LjUiIG1hcmtlci1lbmQ9IiIgY2xhc3M9ImxpbmsiLz48cGF0aCBzdHlsZT0ic3Ryb2tlLXdpZHRoOiAwLjU7IHN0cm9rZS1vcGFjaXR5OiAxOyBzdHJva2U6IHJnYig4MCwgODAsIDgwKTsiIGQ9Ik00MzkuNjY2NjY2NjY2NjY2NjMsMjY0LCA2NDUuNjY2NjY2NjY2NjY2Niw0OTkuNSIgbWFya2VyLWVuZD0iIiBjbGFzcz0ibGluayIvPjxwYXRoIHN0eWxlPSJzdHJva2Utd2lkdGg6IDAuNTsgc3Ryb2tlLW9wYWNpdHk6IDE7IHN0cm9rZTogcmdiKDgwLCA4MCwgODApOyIgZD0iTTQzOS42NjY2NjY2NjY2NjY2MywyNjQsIDY0NS42NjY2NjY2NjY2NjY2LDU1Ny41IiBtYXJrZXItZW5kPSIiIGNsYXNzPSJsaW5rIi8+PHBhdGggc3R5bGU9InN0cm9rZS13aWR0aDogMC41OyBzdHJva2Utb3BhY2l0eTogMTsgc3Ryb2tlOiByZ2IoODAsIDgwLCA4MCk7IiBkPSJNNDM5LjY2NjY2NjY2NjY2NjYzLDI2NCwgNjQ1LjY2NjY2NjY2NjY2NjYsNjE1LjUiIG1hcmtlci1lbmQ9IiIgY2xhc3M9ImxpbmsiLz48cGF0aCBzdHlsZT0ic3Ryb2tlLXdpZHRoOiAwLjU7IHN0cm9rZS1vcGFjaXR5OiAxOyBzdHJva2U6IHJnYig4MCwgODAsIDgwKTsiIGQ9Ik00MzkuNjY2NjY2NjY2NjY2NjMsMjY0LCA2NDUuNjY2NjY2NjY2NjY2Niw2NzMuNSIgbWFya2VyLWVuZD0iIiBjbGFzcz0ibGluayIvPjxwYXRoIHN0eWxlPSJzdHJva2Utd2lkdGg6IDAuNTsgc3Ryb2tlLW9wYWNpdHk6IDE7IHN0cm9rZTogcmdiKDgwLCA4MCwgODApOyIgZD0iTTQzOS42NjY2NjY2NjY2NjY2MywyNjQsIDY0NS42NjY2NjY2NjY2NjY2LDczMS41IiBtYXJrZXItZW5kPSIiIGNsYXNzPSJsaW5rIi8+PHBhdGggc3R5bGU9InN0cm9rZS13aWR0aDogMC41OyBzdHJva2Utb3BhY2l0eTogMTsgc3Ryb2tlOiByZ2IoODAsIDgwLCA4MCk7IiBkPSJNNDM5LjY2NjY2NjY2NjY2NjYzLDI2NCwgNjQ1LjY2NjY2NjY2NjY2NjYsNzg5LjUiIG1hcmtlci1lbmQ9IiIgY2xhc3M9ImxpbmsiLz48cGF0aCBzdHlsZT0ic3Ryb2tlLXdpZHRoOiAwLjU7IHN0cm9rZS1vcGFjaXR5OiAxOyBzdHJva2U6IHJnYig4MCwgODAsIDgwKTsiIGQ9Ik00MzkuNjY2NjY2NjY2NjY2NjMsMjY0LCA2NDUuNjY2NjY2NjY2NjY2Niw4NDcuNSIgbWFya2VyLWVuZD0iIiBjbGFzcz0ibGluayIvPjxwYXRoIHN0eWxlPSJzdHJva2Utd2lkdGg6IDAuNTsgc3Ryb2tlLW9wYWNpdHk6IDE7IHN0cm9rZTogcmdiKDgwLCA4MCwgODApOyIgZD0iTTQzOS42NjY2NjY2NjY2NjY2MywyNjQsIDY0NS42NjY2NjY2NjY2NjY2LDkwNS41IiBtYXJrZXItZW5kPSIiIGNsYXNzPSJsaW5rIi8+PHBhdGggc3R5bGU9InN0cm9rZS13aWR0aDogMC41OyBzdHJva2Utb3BhY2l0eTogMTsgc3Ryb2tlOiByZ2IoODAsIDgwLCA4MCk7IiBkPSJNNDM5LjY2NjY2NjY2NjY2NjYzLDMyMywgNjQ1LjY2NjY2NjY2NjY2NjYsNDk5LjUiIG1hcmtlci1lbmQ9IiIgY2xhc3M9ImxpbmsiLz48cGF0aCBzdHlsZT0ic3Ryb2tlLXdpZHRoOiAwLjU7IHN0cm9rZS1vcGFjaXR5OiAxOyBzdHJva2U6IHJnYig4MCwgODAsIDgwKTsiIGQ9Ik00MzkuNjY2NjY2NjY2NjY2NjMsMzIzLCA2NDUuNjY2NjY2NjY2NjY2Niw1NTcuNSIgbWFya2VyLWVuZD0iIiBjbGFzcz0ibGluayIvPjxwYXRoIHN0eWxlPSJzdHJva2Utd2lkdGg6IDAuNTsgc3Ryb2tlLW9wYWNpdHk6IDE7IHN0cm9rZTogcmdiKDgwLCA4MCwgODApOyIgZD0iTTQzOS42NjY2NjY2NjY2NjY2MywzMjMsIDY0NS42NjY2NjY2NjY2NjY2LDYxNS41IiBtYXJrZXItZW5kPSIiIGNsYXNzPSJsaW5rIi8+PHBhdGggc3R5bGU9InN0cm9rZS13aWR0aDogMC41OyBzdHJva2Utb3BhY2l0eTogMTsgc3Ryb2tlOiByZ2IoODAsIDgwLCA4MCk7IiBkPSJNNDM5LjY2NjY2NjY2NjY2NjYzLDMyMywgNjQ1LjY2NjY2NjY2NjY2NjYsNjczLjUiIG1hcmtlci1lbmQ9IiIgY2xhc3M9ImxpbmsiLz48cGF0aCBzdHlsZT0ic3Ryb2tlLXdpZHRoOiAwLjU7IHN0cm9rZS1vcGFjaXR5OiAxOyBzdHJva2U6IHJnYig4MCwgODAsIDgwKTsiIGQ9Ik00MzkuNjY2NjY2NjY2NjY2NjMsMzIzLCA2NDUuNjY2NjY2NjY2NjY2Niw3MzEuNSIgbWFya2VyLWVuZD0iIiBjbGFzcz0ibGluayIvPjxwYXRoIHN0eWxlPSJzdHJva2Utd2lkdGg6IDAuNTsgc3Ryb2tlLW9wYWNpdHk6IDE7IHN0cm9rZTogcmdiKDgwLCA4MCwgODApOyIgZD0iTTQzOS42NjY2NjY2NjY2NjY2MywzMjMsIDY0NS42NjY2NjY2NjY2NjY2LDc4OS41IiBtYXJrZXItZW5kPSIiIGNsYXNzPSJsaW5rIi8+PHBhdGggc3R5bGU9InN0cm9rZS13aWR0aDogMC41OyBzdHJva2Utb3BhY2l0eTogMTsgc3Ryb2tlOiByZ2IoODAsIDgwLCA4MCk7IiBkPSJNNDM5LjY2NjY2NjY2NjY2NjYzLDMyMywgNjQ1LjY2NjY2NjY2NjY2NjYsODQ3LjUiIG1hcmtlci1lbmQ9IiIgY2xhc3M9ImxpbmsiLz48cGF0aCBzdHlsZT0ic3Ryb2tlLXdpZHRoOiAwLjU7IHN0cm9rZS1vcGFjaXR5OiAxOyBzdHJva2U6IHJnYig4MCwgODAsIDgwKTsiIGQ9Ik00MzkuNjY2NjY2NjY2NjY2NjMsMzIzLCA2NDUuNjY2NjY2NjY2NjY2Niw5MDUuNSIgbWFya2VyLWVuZD0iIiBjbGFzcz0ibGluayIvPjxwYXRoIHN0eWxlPSJzdHJva2Utd2lkdGg6IDAuNTsgc3Ryb2tlLW9wYWNpdHk6IDE7IHN0cm9rZTogcmdiKDgwLCA4MCwgODApOyIgZD0iTTQzOS42NjY2NjY2NjY2NjY2MywzODIsIDY0NS42NjY2NjY2NjY2NjY2LDQ5OS41IiBtYXJrZXItZW5kPSIiIGNsYXNzPSJsaW5rIi8+PHBhdGggc3R5bGU9InN0cm9rZS13aWR0aDogMC41OyBzdHJva2Utb3BhY2l0eTogMTsgc3Ryb2tlOiByZ2IoODAsIDgwLCA4MCk7IiBkPSJNNDM5LjY2NjY2NjY2NjY2NjYzLDM4MiwgNjQ1LjY2NjY2NjY2NjY2NjYsNTU3LjUiIG1hcmtlci1lbmQ9IiIgY2xhc3M9ImxpbmsiLz48cGF0aCBzdHlsZT0ic3Ryb2tlLXdpZHRoOiAwLjU7IHN0cm9rZS1vcGFjaXR5OiAxOyBzdHJva2U6IHJnYig4MCwgODAsIDgwKTsiIGQ9Ik00MzkuNjY2NjY2NjY2NjY2NjMsMzgyLCA2NDUuNjY2NjY2NjY2NjY2Niw2MTUuNSIgbWFya2VyLWVuZD0iIiBjbGFzcz0ibGluayIvPjxwYXRoIHN0eWxlPSJzdHJva2Utd2lkdGg6IDAuNTsgc3Ryb2tlLW9wYWNpdHk6IDE7IHN0cm9rZTogcmdiKDgwLCA4MCwgODApOyIgZD0iTTQzOS42NjY2NjY2NjY2NjY2MywzODIsIDY0NS42NjY2NjY2NjY2NjY2LDY3My41IiBtYXJrZXItZW5kPSIiIGNsYXNzPSJsaW5rIi8+PHBhdGggc3R5bGU9InN0cm9rZS13aWR0aDogMC41OyBzdHJva2Utb3BhY2l0eTogMTsgc3Ryb2tlOiByZ2IoODAsIDgwLCA4MCk7IiBkPSJNNDM5LjY2NjY2NjY2NjY2NjYzLDM4MiwgNjQ1LjY2NjY2NjY2NjY2NjYsNzMxLjUiIG1hcmtlci1lbmQ9IiIgY2xhc3M9ImxpbmsiLz48cGF0aCBzdHlsZT0ic3Ryb2tlLXdpZHRoOiAwLjU7IHN0cm9rZS1vcGFjaXR5OiAxOyBzdHJva2U6IHJnYig4MCwgODAsIDgwKTsiIGQ9Ik00MzkuNjY2NjY2NjY2NjY2NjMsMzgyLCA2NDUuNjY2NjY2NjY2NjY2Niw3ODkuNSIgbWFya2VyLWVuZD0iIiBjbGFzcz0ibGluayIvPjxwYXRoIHN0eWxlPSJzdHJva2Utd2lkdGg6IDAuNTsgc3Ryb2tlLW9wYWNpdHk6IDE7IHN0cm9rZTogcmdiKDgwLCA4MCwgODApOyIgZD0iTTQzOS42NjY2NjY2NjY2NjY2MywzODIsIDY0NS42NjY2NjY2NjY2NjY2LDg0Ny41IiBtYXJrZXItZW5kPSIiIGNsYXNzPSJsaW5rIi8+PHBhdGggc3R5bGU9InN0cm9rZS13aWR0aDogMC41OyBzdHJva2Utb3BhY2l0eTogMTsgc3Ryb2tlOiByZ2IoODAsIDgwLCA4MCk7IiBkPSJNNDM5LjY2NjY2NjY2NjY2NjYzLDM4MiwgNjQ1LjY2NjY2NjY2NjY2NjYsOTA1LjUiIG1hcmtlci1lbmQ9IiIgY2xhc3M9ImxpbmsiLz48cGF0aCBzdHlsZT0ic3Ryb2tlLXdpZHRoOiAwLjU7IHN0cm9rZS1vcGFjaXR5OiAxOyBzdHJva2U6IHJnYig4MCwgODAsIDgwKTsiIGQ9Ik00MzkuNjY2NjY2NjY2NjY2NjMsNDQxLCA2NDUuNjY2NjY2NjY2NjY2Niw0OTkuNSIgbWFya2VyLWVuZD0iIiBjbGFzcz0ibGluayIvPjxwYXRoIHN0eWxlPSJzdHJva2Utd2lkdGg6IDAuNTsgc3Ryb2tlLW9wYWNpdHk6IDE7IHN0cm9rZTogcmdiKDgwLCA4MCwgODApOyIgZD0iTTQzOS42NjY2NjY2NjY2NjY2Myw0NDEsIDY0NS42NjY2NjY2NjY2NjY2LDU1Ny41IiBtYXJrZXItZW5kPSIiIGNsYXNzPSJsaW5rIi8+PHBhdGggc3R5bGU9InN0cm9rZS13aWR0aDogMC41OyBzdHJva2Utb3BhY2l0eTogMTsgc3Ryb2tlOiByZ2IoODAsIDgwLCA4MCk7IiBkPSJNNDM5LjY2NjY2NjY2NjY2NjYzLDQ0MSwgNjQ1LjY2NjY2NjY2NjY2NjYsNjE1LjUiIG1hcmtlci1lbmQ9IiIgY2xhc3M9ImxpbmsiLz48cGF0aCBzdHlsZT0ic3Ryb2tlLXdpZHRoOiAwLjU7IHN0cm9rZS1vcGFjaXR5OiAxOyBzdHJva2U6IHJnYig4MCwgODAsIDgwKTsiIGQ9Ik00MzkuNjY2NjY2NjY2NjY2NjMsNDQxLCA2NDUuNjY2NjY2NjY2NjY2Niw2NzMuNSIgbWFya2VyLWVuZD0iIiBjbGFzcz0ibGluayIvPjxwYXRoIHN0eWxlPSJzdHJva2Utd2lkdGg6IDAuNTsgc3Ryb2tlLW9wYWNpdHk6IDE7IHN0cm9rZTogcmdiKDgwLCA4MCwgODApOyIgZD0iTTQzOS42NjY2NjY2NjY2NjY2Myw0NDEsIDY0NS42NjY2NjY2NjY2NjY2LDczMS41IiBtYXJrZXItZW5kPSIiIGNsYXNzPSJsaW5rIi8+PHBhdGggc3R5bGU9InN0cm9rZS13aWR0aDogMC41OyBzdHJva2Utb3BhY2l0eTogMTsgc3Ryb2tlOiByZ2IoODAsIDgwLCA4MCk7IiBkPSJNNDM5LjY2NjY2NjY2NjY2NjYzLDQ0MSwgNjQ1LjY2NjY2NjY2NjY2NjYsNzg5LjUiIG1hcmtlci1lbmQ9IiIgY2xhc3M9ImxpbmsiLz48cGF0aCBzdHlsZT0ic3Ryb2tlLXdpZHRoOiAwLjU7IHN0cm9rZS1vcGFjaXR5OiAxOyBzdHJva2U6IHJnYig4MCwgODAsIDgwKTsiIGQ9Ik00MzkuNjY2NjY2NjY2NjY2NjMsNDQxLCA2NDUuNjY2NjY2NjY2NjY2Niw4NDcuNSIgbWFya2VyLWVuZD0iIiBjbGFzcz0ibGluayIvPjxwYXRoIHN0eWxlPSJzdHJva2Utd2lkdGg6IDAuNTsgc3Ryb2tlLW9wYWNpdHk6IDE7IHN0cm9rZTogcmdiKDgwLCA4MCwgODApOyIgZD0iTTQzOS42NjY2NjY2NjY2NjY2Myw0NDEsIDY0NS42NjY2NjY2NjY2NjY2LDkwNS41IiBtYXJrZXItZW5kPSIiIGNsYXNzPSJsaW5rIi8+PHBhdGggc3R5bGU9InN0cm9rZS13aWR0aDogMC41OyBzdHJva2Utb3BhY2l0eTogMTsgc3Ryb2tlOiByZ2IoODAsIDgwLCA4MCk7IiBkPSJNNDM5LjY2NjY2NjY2NjY2NjYzLDUwMCwgNjQ1LjY2NjY2NjY2NjY2NjYsNDk5LjUiIG1hcmtlci1lbmQ9IiIgY2xhc3M9ImxpbmsiLz48cGF0aCBzdHlsZT0ic3Ryb2tlLXdpZHRoOiAwLjU7IHN0cm9rZS1vcGFjaXR5OiAxOyBzdHJva2U6IHJnYig4MCwgODAsIDgwKTsiIGQ9Ik00MzkuNjY2NjY2NjY2NjY2NjMsNTAwLCA2NDUuNjY2NjY2NjY2NjY2Niw1NTcuNSIgbWFya2VyLWVuZD0iIiBjbGFzcz0ibGluayIvPjxwYXRoIHN0eWxlPSJzdHJva2Utd2lkdGg6IDAuNTsgc3Ryb2tlLW9wYWNpdHk6IDE7IHN0cm9rZTogcmdiKDgwLCA4MCwgODApOyIgZD0iTTQzOS42NjY2NjY2NjY2NjY2Myw1MDAsIDY0NS42NjY2NjY2NjY2NjY2LDYxNS41IiBtYXJrZXItZW5kPSIiIGNsYXNzPSJsaW5rIi8+PHBhdGggc3R5bGU9InN0cm9rZS13aWR0aDogMC41OyBzdHJva2Utb3BhY2l0eTogMTsgc3Ryb2tlOiByZ2IoODAsIDgwLCA4MCk7IiBkPSJNNDM5LjY2NjY2NjY2NjY2NjYzLDUwMCwgNjQ1LjY2NjY2NjY2NjY2NjYsNjczLjUiIG1hcmtlci1lbmQ9IiIgY2xhc3M9ImxpbmsiLz48cGF0aCBzdHlsZT0ic3Ryb2tlLXdpZHRoOiAwLjU7IHN0cm9rZS1vcGFjaXR5OiAxOyBzdHJva2U6IHJnYig4MCwgODAsIDgwKTsiIGQ9Ik00MzkuNjY2NjY2NjY2NjY2NjMsNTAwLCA2NDUuNjY2NjY2NjY2NjY2Niw3MzEuNSIgbWFya2VyLWVuZD0iIiBjbGFzcz0ibGluayIvPjxwYXRoIHN0eWxlPSJzdHJva2Utd2lkdGg6IDAuNTsgc3Ryb2tlLW9wYWNpdHk6IDE7IHN0cm9rZTogcmdiKDgwLCA4MCwgODApOyIgZD0iTTQzOS42NjY2NjY2NjY2NjY2Myw1MDAsIDY0NS42NjY2NjY2NjY2NjY2LDc4OS41IiBtYXJrZXItZW5kPSIiIGNsYXNzPSJsaW5rIi8+PHBhdGggc3R5bGU9InN0cm9rZS13aWR0aDogMC41OyBzdHJva2Utb3BhY2l0eTogMTsgc3Ryb2tlOiByZ2IoODAsIDgwLCA4MCk7IiBkPSJNNDM5LjY2NjY2NjY2NjY2NjYzLDUwMCwgNjQ1LjY2NjY2NjY2NjY2NjYsODQ3LjUiIG1hcmtlci1lbmQ9IiIgY2xhc3M9ImxpbmsiLz48cGF0aCBzdHlsZT0ic3Ryb2tlLXdpZHRoOiAwLjU7IHN0cm9rZS1vcGFjaXR5OiAxOyBzdHJva2U6IHJnYig4MCwgODAsIDgwKTsiIGQ9Ik00MzkuNjY2NjY2NjY2NjY2NjMsNTAwLCA2NDUuNjY2NjY2NjY2NjY2Niw5MDUuNSIgbWFya2VyLWVuZD0iIiBjbGFzcz0ibGluayIvPjxwYXRoIHN0eWxlPSJzdHJva2Utd2lkdGg6IDAuNTsgc3Ryb2tlLW9wYWNpdHk6IDE7IHN0cm9rZTogcmdiKDgwLCA4MCwgODApOyIgZD0iTTQzOS42NjY2NjY2NjY2NjY2Myw1NTksIDY0NS42NjY2NjY2NjY2NjY2LDQ5OS41IiBtYXJrZXItZW5kPSIiIGNsYXNzPSJsaW5rIi8+PHBhdGggc3R5bGU9InN0cm9rZS13aWR0aDogMC41OyBzdHJva2Utb3BhY2l0eTogMTsgc3Ryb2tlOiByZ2IoODAsIDgwLCA4MCk7IiBkPSJNNDM5LjY2NjY2NjY2NjY2NjYzLDU1OSwgNjQ1LjY2NjY2NjY2NjY2NjYsNTU3LjUiIG1hcmtlci1lbmQ9IiIgY2xhc3M9ImxpbmsiLz48cGF0aCBzdHlsZT0ic3Ryb2tlLXdpZHRoOiAwLjU7IHN0cm9rZS1vcGFjaXR5OiAxOyBzdHJva2U6IHJnYig4MCwgODAsIDgwKTsiIGQ9Ik00MzkuNjY2NjY2NjY2NjY2NjMsNTU5LCA2NDUuNjY2NjY2NjY2NjY2Niw2MTUuNSIgbWFya2VyLWVuZD0iIiBjbGFzcz0ibGluayIvPjxwYXRoIHN0eWxlPSJzdHJva2Utd2lkdGg6IDAuNTsgc3Ryb2tlLW9wYWNpdHk6IDE7IHN0cm9rZTogcmdiKDgwLCA4MCwgODApOyIgZD0iTTQzOS42NjY2NjY2NjY2NjY2Myw1NTksIDY0NS42NjY2NjY2NjY2NjY2LDY3My41IiBtYXJrZXItZW5kPSIiIGNsYXNzPSJsaW5rIi8+PHBhdGggc3R5bGU9InN0cm9rZS13aWR0aDogMC41OyBzdHJva2Utb3BhY2l0eTogMTsgc3Ryb2tlOiByZ2IoODAsIDgwLCA4MCk7IiBkPSJNNDM5LjY2NjY2NjY2NjY2NjYzLDU1OSwgNjQ1LjY2NjY2NjY2NjY2NjYsNzMxLjUiIG1hcmtlci1lbmQ9IiIgY2xhc3M9ImxpbmsiLz48cGF0aCBzdHlsZT0ic3Ryb2tlLXdpZHRoOiAwLjU7IHN0cm9rZS1vcGFjaXR5OiAxOyBzdHJva2U6IHJnYig4MCwgODAsIDgwKTsiIGQ9Ik00MzkuNjY2NjY2NjY2NjY2NjMsNTU5LCA2NDUuNjY2NjY2NjY2NjY2Niw3ODkuNSIgbWFya2VyLWVuZD0iIiBjbGFzcz0ibGluayIvPjxwYXRoIHN0eWxlPSJzdHJva2Utd2lkdGg6IDAuNTsgc3Ryb2tlLW9wYWNpdHk6IDE7IHN0cm9rZTogcmdiKDgwLCA4MCwgODApOyIgZD0iTTQzOS42NjY2NjY2NjY2NjY2Myw1NTksIDY0NS42NjY2NjY2NjY2NjY2LDg0Ny41IiBtYXJrZXItZW5kPSIiIGNsYXNzPSJsaW5rIi8+PHBhdGggc3R5bGU9InN0cm9rZS13aWR0aDogMC41OyBzdHJva2Utb3BhY2l0eTogMTsgc3Ryb2tlOiByZ2IoODAsIDgwLCA4MCk7IiBkPSJNNDM5LjY2NjY2NjY2NjY2NjYzLDU1OSwgNjQ1LjY2NjY2NjY2NjY2NjYsOTA1LjUiIG1hcmtlci1lbmQ9IiIgY2xhc3M9ImxpbmsiLz48cGF0aCBzdHlsZT0ic3Ryb2tlLXdpZHRoOiAwLjU7IHN0cm9rZS1vcGFjaXR5OiAxOyBzdHJva2U6IHJnYig4MCwgODAsIDgwKTsiIGQ9Ik00MzkuNjY2NjY2NjY2NjY2NjMsNjE4LCA2NDUuNjY2NjY2NjY2NjY2Niw0OTkuNSIgbWFya2VyLWVuZD0iIiBjbGFzcz0ibGluayIvPjxwYXRoIHN0eWxlPSJzdHJva2Utd2lkdGg6IDAuNTsgc3Ryb2tlLW9wYWNpdHk6IDE7IHN0cm9rZTogcmdiKDgwLCA4MCwgODApOyIgZD0iTTQzOS42NjY2NjY2NjY2NjY2Myw2MTgsIDY0NS42NjY2NjY2NjY2NjY2LDU1Ny41IiBtYXJrZXItZW5kPSIiIGNsYXNzPSJsaW5rIi8+PHBhdGggc3R5bGU9InN0cm9rZS13aWR0aDogMC41OyBzdHJva2Utb3BhY2l0eTogMTsgc3Ryb2tlOiByZ2IoODAsIDgwLCA4MCk7IiBkPSJNNDM5LjY2NjY2NjY2NjY2NjYzLDYxOCwgNjQ1LjY2NjY2NjY2NjY2NjYsNjE1LjUiIG1hcmtlci1lbmQ9IiIgY2xhc3M9ImxpbmsiLz48cGF0aCBzdHlsZT0ic3Ryb2tlLXdpZHRoOiAwLjU7IHN0cm9rZS1vcGFjaXR5OiAxOyBzdHJva2U6IHJnYig4MCwgODAsIDgwKTsiIGQ9Ik00MzkuNjY2NjY2NjY2NjY2NjMsNjE4LCA2NDUuNjY2NjY2NjY2NjY2Niw2NzMuNSIgbWFya2VyLWVuZD0iIiBjbGFzcz0ibGluayIvPjxwYXRoIHN0eWxlPSJzdHJva2Utd2lkdGg6IDAuNTsgc3Ryb2tlLW9wYWNpdHk6IDE7IHN0cm9rZTogcmdiKDgwLCA4MCwgODApOyIgZD0iTTQzOS42NjY2NjY2NjY2NjY2Myw2MTgsIDY0NS42NjY2NjY2NjY2NjY2LDczMS41IiBtYXJrZXItZW5kPSIiIGNsYXNzPSJsaW5rIi8+PHBhdGggc3R5bGU9InN0cm9rZS13aWR0aDogMC41OyBzdHJva2Utb3BhY2l0eTogMTsgc3Ryb2tlOiByZ2IoODAsIDgwLCA4MCk7IiBkPSJNNDM5LjY2NjY2NjY2NjY2NjYzLDYxOCwgNjQ1LjY2NjY2NjY2NjY2NjYsNzg5LjUiIG1hcmtlci1lbmQ9IiIgY2xhc3M9ImxpbmsiLz48cGF0aCBzdHlsZT0ic3Ryb2tlLXdpZHRoOiAwLjU7IHN0cm9rZS1vcGFjaXR5OiAxOyBzdHJva2U6IHJnYig4MCwgODAsIDgwKTsiIGQ9Ik00MzkuNjY2NjY2NjY2NjY2NjMsNjE4LCA2NDUuNjY2NjY2NjY2NjY2Niw4NDcuNSIgbWFya2VyLWVuZD0iIiBjbGFzcz0ibGluayIvPjxwYXRoIHN0eWxlPSJzdHJva2Utd2lkdGg6IDAuNTsgc3Ryb2tlLW9wYWNpdHk6IDE7IHN0cm9rZTogcmdiKDgwLCA4MCwgODApOyIgZD0iTTQzOS42NjY2NjY2NjY2NjY2Myw2MTgsIDY0NS42NjY2NjY2NjY2NjY2LDkwNS41IiBtYXJrZXItZW5kPSIiIGNsYXNzPSJsaW5rIi8+PHBhdGggc3R5bGU9InN0cm9rZS13aWR0aDogMC41OyBzdHJva2Utb3BhY2l0eTogMTsgc3Ryb2tlOiByZ2IoODAsIDgwLCA4MCk7IiBkPSJNNDM5LjY2NjY2NjY2NjY2NjYzLDY3NywgNjQ1LjY2NjY2NjY2NjY2NjYsNDk5LjUiIG1hcmtlci1lbmQ9IiIgY2xhc3M9ImxpbmsiLz48cGF0aCBzdHlsZT0ic3Ryb2tlLXdpZHRoOiAwLjU7IHN0cm9rZS1vcGFjaXR5OiAxOyBzdHJva2U6IHJnYig4MCwgODAsIDgwKTsiIGQ9Ik00MzkuNjY2NjY2NjY2NjY2NjMsNjc3LCA2NDUuNjY2NjY2NjY2NjY2Niw1NTcuNSIgbWFya2VyLWVuZD0iIiBjbGFzcz0ibGluayIvPjxwYXRoIHN0eWxlPSJzdHJva2Utd2lkdGg6IDAuNTsgc3Ryb2tlLW9wYWNpdHk6IDE7IHN0cm9rZTogcmdiKDgwLCA4MCwgODApOyIgZD0iTTQzOS42NjY2NjY2NjY2NjY2Myw2NzcsIDY0NS42NjY2NjY2NjY2NjY2LDYxNS41IiBtYXJrZXItZW5kPSIiIGNsYXNzPSJsaW5rIi8+PHBhdGggc3R5bGU9InN0cm9rZS13aWR0aDogMC41OyBzdHJva2Utb3BhY2l0eTogMTsgc3Ryb2tlOiByZ2IoODAsIDgwLCA4MCk7IiBkPSJNNDM5LjY2NjY2NjY2NjY2NjYzLDY3NywgNjQ1LjY2NjY2NjY2NjY2NjYsNjczLjUiIG1hcmtlci1lbmQ9IiIgY2xhc3M9ImxpbmsiLz48cGF0aCBzdHlsZT0ic3Ryb2tlLXdpZHRoOiAwLjU7IHN0cm9rZS1vcGFjaXR5OiAxOyBzdHJva2U6IHJnYig4MCwgODAsIDgwKTsiIGQ9Ik00MzkuNjY2NjY2NjY2NjY2NjMsNjc3LCA2NDUuNjY2NjY2NjY2NjY2Niw3MzEuNSIgbWFya2VyLWVuZD0iIiBjbGFzcz0ibGluayIvPjxwYXRoIHN0eWxlPSJzdHJva2Utd2lkdGg6IDAuNTsgc3Ryb2tlLW9wYWNpdHk6IDE7IHN0cm9rZTogcmdiKDgwLCA4MCwgODApOyIgZD0iTTQzOS42NjY2NjY2NjY2NjY2Myw2NzcsIDY0NS42NjY2NjY2NjY2NjY2LDc4OS41IiBtYXJrZXItZW5kPSIiIGNsYXNzPSJsaW5rIi8+PHBhdGggc3R5bGU9InN0cm9rZS13aWR0aDogMC41OyBzdHJva2Utb3BhY2l0eTogMTsgc3Ryb2tlOiByZ2IoODAsIDgwLCA4MCk7IiBkPSJNNDM5LjY2NjY2NjY2NjY2NjYzLDY3NywgNjQ1LjY2NjY2NjY2NjY2NjYsODQ3LjUiIG1hcmtlci1lbmQ9IiIgY2xhc3M9ImxpbmsiLz48cGF0aCBzdHlsZT0ic3Ryb2tlLXdpZHRoOiAwLjU7IHN0cm9rZS1vcGFjaXR5OiAxOyBzdHJva2U6IHJnYig4MCwgODAsIDgwKTsiIGQ9Ik00MzkuNjY2NjY2NjY2NjY2NjMsNjc3LCA2NDUuNjY2NjY2NjY2NjY2Niw5MDUuNSIgbWFya2VyLWVuZD0iIiBjbGFzcz0ibGluayIvPjxwYXRoIHN0eWxlPSJzdHJva2Utd2lkdGg6IDAuNTsgc3Ryb2tlLW9wYWNpdHk6IDE7IHN0cm9rZTogcmdiKDgwLCA4MCwgODApOyIgZD0iTTQzOS42NjY2NjY2NjY2NjY2Myw3MzYsIDY0NS42NjY2NjY2NjY2NjY2LDQ5OS41IiBtYXJrZXItZW5kPSIiIGNsYXNzPSJsaW5rIi8+PHBhdGggc3R5bGU9InN0cm9rZS13aWR0aDogMC41OyBzdHJva2Utb3BhY2l0eTogMTsgc3Ryb2tlOiByZ2IoODAsIDgwLCA4MCk7IiBkPSJNNDM5LjY2NjY2NjY2NjY2NjYzLDczNiwgNjQ1LjY2NjY2NjY2NjY2NjYsNTU3LjUiIG1hcmtlci1lbmQ9IiIgY2xhc3M9ImxpbmsiLz48cGF0aCBzdHlsZT0ic3Ryb2tlLXdpZHRoOiAwLjU7IHN0cm9rZS1vcGFjaXR5OiAxOyBzdHJva2U6IHJnYig4MCwgODAsIDgwKTsiIGQ9Ik00MzkuNjY2NjY2NjY2NjY2NjMsNzM2LCA2NDUuNjY2NjY2NjY2NjY2Niw2MTUuNSIgbWFya2VyLWVuZD0iIiBjbGFzcz0ibGluayIvPjxwYXRoIHN0eWxlPSJzdHJva2Utd2lkdGg6IDAuNTsgc3Ryb2tlLW9wYWNpdHk6IDE7IHN0cm9rZTogcmdiKDgwLCA4MCwgODApOyIgZD0iTTQzOS42NjY2NjY2NjY2NjY2Myw3MzYsIDY0NS42NjY2NjY2NjY2NjY2LDY3My41IiBtYXJrZXItZW5kPSIiIGNsYXNzPSJsaW5rIi8+PHBhdGggc3R5bGU9InN0cm9rZS13aWR0aDogMC41OyBzdHJva2Utb3BhY2l0eTogMTsgc3Ryb2tlOiByZ2IoODAsIDgwLCA4MCk7IiBkPSJNNDM5LjY2NjY2NjY2NjY2NjYzLDczNiwgNjQ1LjY2NjY2NjY2NjY2NjYsNzMxLjUiIG1hcmtlci1lbmQ9IiIgY2xhc3M9ImxpbmsiLz48cGF0aCBzdHlsZT0ic3Ryb2tlLXdpZHRoOiAwLjU7IHN0cm9rZS1vcGFjaXR5OiAxOyBzdHJva2U6IHJnYig4MCwgODAsIDgwKTsiIGQ9Ik00MzkuNjY2NjY2NjY2NjY2NjMsNzM2LCA2NDUuNjY2NjY2NjY2NjY2Niw3ODkuNSIgbWFya2VyLWVuZD0iIiBjbGFzcz0ibGluayIvPjxwYXRoIHN0eWxlPSJzdHJva2Utd2lkdGg6IDAuNTsgc3Ryb2tlLW9wYWNpdHk6IDE7IHN0cm9rZTogcmdiKDgwLCA4MCwgODApOyIgZD0iTTQzOS42NjY2NjY2NjY2NjY2Myw3MzYsIDY0NS42NjY2NjY2NjY2NjY2LDg0Ny41IiBtYXJrZXItZW5kPSIiIGNsYXNzPSJsaW5rIi8+PHBhdGggc3R5bGU9InN0cm9rZS13aWR0aDogMC41OyBzdHJva2Utb3BhY2l0eTogMTsgc3Ryb2tlOiByZ2IoODAsIDgwLCA4MCk7IiBkPSJNNDM5LjY2NjY2NjY2NjY2NjYzLDczNiwgNjQ1LjY2NjY2NjY2NjY2NjYsOTA1LjUiIG1hcmtlci1lbmQ9IiIgY2xhc3M9ImxpbmsiLz48cGF0aCBzdHlsZT0ic3Ryb2tlLXdpZHRoOiAwLjU7IHN0cm9rZS1vcGFjaXR5OiAxOyBzdHJva2U6IHJnYig4MCwgODAsIDgwKTsiIGQ9Ik00MzkuNjY2NjY2NjY2NjY2NjMsNzk1LCA2NDUuNjY2NjY2NjY2NjY2Niw0OTkuNSIgbWFya2VyLWVuZD0iIiBjbGFzcz0ibGluayIvPjxwYXRoIHN0eWxlPSJzdHJva2Utd2lkdGg6IDAuNTsgc3Ryb2tlLW9wYWNpdHk6IDE7IHN0cm9rZTogcmdiKDgwLCA4MCwgODApOyIgZD0iTTQzOS42NjY2NjY2NjY2NjY2Myw3OTUsIDY0NS42NjY2NjY2NjY2NjY2LDU1Ny41IiBtYXJrZXItZW5kPSIiIGNsYXNzPSJsaW5rIi8+PHBhdGggc3R5bGU9InN0cm9rZS13aWR0aDogMC41OyBzdHJva2Utb3BhY2l0eTogMTsgc3Ryb2tlOiByZ2IoODAsIDgwLCA4MCk7IiBkPSJNNDM5LjY2NjY2NjY2NjY2NjYzLDc5NSwgNjQ1LjY2NjY2NjY2NjY2NjYsNjE1LjUiIG1hcmtlci1lbmQ9IiIgY2xhc3M9ImxpbmsiLz48cGF0aCBzdHlsZT0ic3Ryb2tlLXdpZHRoOiAwLjU7IHN0cm9rZS1vcGFjaXR5OiAxOyBzdHJva2U6IHJnYig4MCwgODAsIDgwKTsiIGQ9Ik00MzkuNjY2NjY2NjY2NjY2NjMsNzk1LCA2NDUuNjY2NjY2NjY2NjY2Niw2NzMuNSIgbWFya2VyLWVuZD0iIiBjbGFzcz0ibGluayIvPjxwYXRoIHN0eWxlPSJzdHJva2Utd2lkdGg6IDAuNTsgc3Ryb2tlLW9wYWNpdHk6IDE7IHN0cm9rZTogcmdiKDgwLCA4MCwgODApOyIgZD0iTTQzOS42NjY2NjY2NjY2NjY2Myw3OTUsIDY0NS42NjY2NjY2NjY2NjY2LDczMS41IiBtYXJrZXItZW5kPSIiIGNsYXNzPSJsaW5rIi8+PHBhdGggc3R5bGU9InN0cm9rZS13aWR0aDogMC41OyBzdHJva2Utb3BhY2l0eTogMTsgc3Ryb2tlOiByZ2IoODAsIDgwLCA4MCk7IiBkPSJNNDM5LjY2NjY2NjY2NjY2NjYzLDc5NSwgNjQ1LjY2NjY2NjY2NjY2NjYsNzg5LjUiIG1hcmtlci1lbmQ9IiIgY2xhc3M9ImxpbmsiLz48cGF0aCBzdHlsZT0ic3Ryb2tlLXdpZHRoOiAwLjU7IHN0cm9rZS1vcGFjaXR5OiAxOyBzdHJva2U6IHJnYig4MCwgODAsIDgwKTsiIGQ9Ik00MzkuNjY2NjY2NjY2NjY2NjMsNzk1LCA2NDUuNjY2NjY2NjY2NjY2Niw4NDcuNSIgbWFya2VyLWVuZD0iIiBjbGFzcz0ibGluayIvPjxwYXRoIHN0eWxlPSJzdHJva2Utd2lkdGg6IDAuNTsgc3Ryb2tlLW9wYWNpdHk6IDE7IHN0cm9rZTogcmdiKDgwLCA4MCwgODApOyIgZD0iTTQzOS42NjY2NjY2NjY2NjY2Myw3OTUsIDY0NS42NjY2NjY2NjY2NjY2LDkwNS41IiBtYXJrZXItZW5kPSIiIGNsYXNzPSJsaW5rIi8+PHBhdGggc3R5bGU9InN0cm9rZS13aWR0aDogMC41OyBzdHJva2Utb3BhY2l0eTogMTsgc3Ryb2tlOiByZ2IoODAsIDgwLCA4MCk7IiBkPSJNNDM5LjY2NjY2NjY2NjY2NjYzLDg1NCwgNjQ1LjY2NjY2NjY2NjY2NjYsNDk5LjUiIG1hcmtlci1lbmQ9IiIgY2xhc3M9ImxpbmsiLz48cGF0aCBzdHlsZT0ic3Ryb2tlLXdpZHRoOiAwLjU7IHN0cm9rZS1vcGFjaXR5OiAxOyBzdHJva2U6IHJnYig4MCwgODAsIDgwKTsiIGQ9Ik00MzkuNjY2NjY2NjY2NjY2NjMsODU0LCA2NDUuNjY2NjY2NjY2NjY2Niw1NTcuNSIgbWFya2VyLWVuZD0iIiBjbGFzcz0ibGluayIvPjxwYXRoIHN0eWxlPSJzdHJva2Utd2lkdGg6IDAuNTsgc3Ryb2tlLW9wYWNpdHk6IDE7IHN0cm9rZTogcmdiKDgwLCA4MCwgODApOyIgZD0iTTQzOS42NjY2NjY2NjY2NjY2Myw4NTQsIDY0NS42NjY2NjY2NjY2NjY2LDYxNS41IiBtYXJrZXItZW5kPSIiIGNsYXNzPSJsaW5rIi8+PHBhdGggc3R5bGU9InN0cm9rZS13aWR0aDogMC41OyBzdHJva2Utb3BhY2l0eTogMTsgc3Ryb2tlOiByZ2IoODAsIDgwLCA4MCk7IiBkPSJNNDM5LjY2NjY2NjY2NjY2NjYzLDg1NCwgNjQ1LjY2NjY2NjY2NjY2NjYsNjczLjUiIG1hcmtlci1lbmQ9IiIgY2xhc3M9ImxpbmsiLz48cGF0aCBzdHlsZT0ic3Ryb2tlLXdpZHRoOiAwLjU7IHN0cm9rZS1vcGFjaXR5OiAxOyBzdHJva2U6IHJnYig4MCwgODAsIDgwKTsiIGQ9Ik00MzkuNjY2NjY2NjY2NjY2NjMsODU0LCA2NDUuNjY2NjY2NjY2NjY2Niw3MzEuNSIgbWFya2VyLWVuZD0iIiBjbGFzcz0ibGluayIvPjxwYXRoIHN0eWxlPSJzdHJva2Utd2lkdGg6IDAuNTsgc3Ryb2tlLW9wYWNpdHk6IDE7IHN0cm9rZTogcmdiKDgwLCA4MCwgODApOyIgZD0iTTQzOS42NjY2NjY2NjY2NjY2Myw4NTQsIDY0NS42NjY2NjY2NjY2NjY2LDc4OS41IiBtYXJrZXItZW5kPSIiIGNsYXNzPSJsaW5rIi8+PHBhdGggc3R5bGU9InN0cm9rZS13aWR0aDogMC41OyBzdHJva2Utb3BhY2l0eTogMTsgc3Ryb2tlOiByZ2IoODAsIDgwLCA4MCk7IiBkPSJNNDM5LjY2NjY2NjY2NjY2NjYzLDg1NCwgNjQ1LjY2NjY2NjY2NjY2NjYsODQ3LjUiIG1hcmtlci1lbmQ9IiIgY2xhc3M9ImxpbmsiLz48cGF0aCBzdHlsZT0ic3Ryb2tlLXdpZHRoOiAwLjU7IHN0cm9rZS1vcGFjaXR5OiAxOyBzdHJva2U6IHJnYig4MCwgODAsIDgwKTsiIGQ9Ik00MzkuNjY2NjY2NjY2NjY2NjMsODU0LCA2NDUuNjY2NjY2NjY2NjY2Niw5MDUuNSIgbWFya2VyLWVuZD0iIiBjbGFzcz0ibGluayIvPjxwYXRoIHN0eWxlPSJzdHJva2Utd2lkdGg6IDAuNTsgc3Ryb2tlLW9wYWNpdHk6IDE7IHN0cm9rZTogcmdiKDgwLCA4MCwgODApOyIgZD0iTTQzOS42NjY2NjY2NjY2NjY2Myw5MTMsIDY0NS42NjY2NjY2NjY2NjY2LDQ5OS41IiBtYXJrZXItZW5kPSIiIGNsYXNzPSJsaW5rIi8+PHBhdGggc3R5bGU9InN0cm9rZS13aWR0aDogMC41OyBzdHJva2Utb3BhY2l0eTogMTsgc3Ryb2tlOiByZ2IoODAsIDgwLCA4MCk7IiBkPSJNNDM5LjY2NjY2NjY2NjY2NjYzLDkxMywgNjQ1LjY2NjY2NjY2NjY2NjYsNTU3LjUiIG1hcmtlci1lbmQ9IiIgY2xhc3M9ImxpbmsiLz48cGF0aCBzdHlsZT0ic3Ryb2tlLXdpZHRoOiAwLjU7IHN0cm9rZS1vcGFjaXR5OiAxOyBzdHJva2U6IHJnYig4MCwgODAsIDgwKTsiIGQ9Ik00MzkuNjY2NjY2NjY2NjY2NjMsOTEzLCA2NDUuNjY2NjY2NjY2NjY2Niw2MTUuNSIgbWFya2VyLWVuZD0iIiBjbGFzcz0ibGluayIvPjxwYXRoIHN0eWxlPSJzdHJva2Utd2lkdGg6IDAuNTsgc3Ryb2tlLW9wYWNpdHk6IDE7IHN0cm9rZTogcmdiKDgwLCA4MCwgODApOyIgZD0iTTQzOS42NjY2NjY2NjY2NjY2Myw5MTMsIDY0NS42NjY2NjY2NjY2NjY2LDY3My41IiBtYXJrZXItZW5kPSIiIGNsYXNzPSJsaW5rIi8+PHBhdGggc3R5bGU9InN0cm9rZS13aWR0aDogMC41OyBzdHJva2Utb3BhY2l0eTogMTsgc3Ryb2tlOiByZ2IoODAsIDgwLCA4MCk7IiBkPSJNNDM5LjY2NjY2NjY2NjY2NjYzLDkxMywgNjQ1LjY2NjY2NjY2NjY2NjYsNzMxLjUiIG1hcmtlci1lbmQ9IiIgY2xhc3M9ImxpbmsiLz48cGF0aCBzdHlsZT0ic3Ryb2tlLXdpZHRoOiAwLjU7IHN0cm9rZS1vcGFjaXR5OiAxOyBzdHJva2U6IHJnYig4MCwgODAsIDgwKTsiIGQ9Ik00MzkuNjY2NjY2NjY2NjY2NjMsOTEzLCA2NDUuNjY2NjY2NjY2NjY2Niw3ODkuNSIgbWFya2VyLWVuZD0iIiBjbGFzcz0ibGluayIvPjxwYXRoIHN0eWxlPSJzdHJva2Utd2lkdGg6IDAuNTsgc3Ryb2tlLW9wYWNpdHk6IDE7IHN0cm9rZTogcmdiKDgwLCA4MCwgODApOyIgZD0iTTQzOS42NjY2NjY2NjY2NjY2Myw5MTMsIDY0NS42NjY2NjY2NjY2NjY2LDg0Ny41IiBtYXJrZXItZW5kPSIiIGNsYXNzPSJsaW5rIi8+PHBhdGggc3R5bGU9InN0cm9rZS13aWR0aDogMC41OyBzdHJva2Utb3BhY2l0eTogMTsgc3Ryb2tlOiByZ2IoODAsIDgwLCA4MCk7IiBkPSJNNDM5LjY2NjY2NjY2NjY2NjYzLDkxMywgNjQ1LjY2NjY2NjY2NjY2NjYsOTA1LjUiIG1hcmtlci1lbmQ9IiIgY2xhc3M9ImxpbmsiLz48cGF0aCBzdHlsZT0ic3Ryb2tlLXdpZHRoOiAwLjU7IHN0cm9rZS1vcGFjaXR5OiAxOyBzdHJva2U6IHJnYig4MCwgODAsIDgwKTsiIGQ9Ik02NDUuNjY2NjY2NjY2NjY2Niw0OTkuNSwgODUxLjY2NjY2NjY2NjY2NjYsMTg1LjUiIG1hcmtlci1lbmQ9IiIgY2xhc3M9ImxpbmsiLz48cGF0aCBzdHlsZT0ic3Ryb2tlLXdpZHRoOiAwLjU7IHN0cm9rZS1vcGFjaXR5OiAxOyBzdHJva2U6IHJnYig4MCwgODAsIDgwKTsiIGQ9Ik02NDUuNjY2NjY2NjY2NjY2Niw0OTkuNSwgODUxLjY2NjY2NjY2NjY2NjYsMjIzLjUiIG1hcmtlci1lbmQ9IiIgY2xhc3M9ImxpbmsiLz48cGF0aCBzdHlsZT0ic3Ryb2tlLXdpZHRoOiAwLjU7IHN0cm9rZS1vcGFjaXR5OiAxOyBzdHJva2U6IHJnYig4MCwgODAsIDgwKTsiIGQ9Ik02NDUuNjY2NjY2NjY2NjY2Niw0OTkuNSwgODUxLjY2NjY2NjY2NjY2NjYsMjYxLjUiIG1hcmtlci1lbmQ9IiIgY2xhc3M9ImxpbmsiLz48cGF0aCBzdHlsZT0ic3Ryb2tlLXdpZHRoOiAwLjU7IHN0cm9rZS1vcGFjaXR5OiAxOyBzdHJva2U6IHJnYig4MCwgODAsIDgwKTsiIGQ9Ik02NDUuNjY2NjY2NjY2NjY2Niw0OTkuNSwgODUxLjY2NjY2NjY2NjY2NjYsMjk5LjUiIG1hcmtlci1lbmQ9IiIgY2xhc3M9ImxpbmsiLz48cGF0aCBzdHlsZT0ic3Ryb2tlLXdpZHRoOiAwLjU7IHN0cm9rZS1vcGFjaXR5OiAxOyBzdHJva2U6IHJnYig4MCwgODAsIDgwKTsiIGQ9Ik02NDUuNjY2NjY2NjY2NjY2Niw0OTkuNSwgODUxLjY2NjY2NjY2NjY2NjYsMzM3LjUiIG1hcmtlci1lbmQ9IiIgY2xhc3M9ImxpbmsiLz48cGF0aCBzdHlsZT0ic3Ryb2tlLXdpZHRoOiAwLjU7IHN0cm9rZS1vcGFjaXR5OiAxOyBzdHJva2U6IHJnYig4MCwgODAsIDgwKTsiIGQ9Ik02NDUuNjY2NjY2NjY2NjY2Niw0OTkuNSwgODUxLjY2NjY2NjY2NjY2NjYsMzc1LjUiIG1hcmtlci1lbmQ9IiIgY2xhc3M9ImxpbmsiLz48cGF0aCBzdHlsZT0ic3Ryb2tlLXdpZHRoOiAwLjU7IHN0cm9rZS1vcGFjaXR5OiAxOyBzdHJva2U6IHJnYig4MCwgODAsIDgwKTsiIGQ9Ik02NDUuNjY2NjY2NjY2NjY2Niw0OTkuNSwgODUxLjY2NjY2NjY2NjY2NjYsNDEzLjUiIG1hcmtlci1lbmQ9IiIgY2xhc3M9ImxpbmsiLz48cGF0aCBzdHlsZT0ic3Ryb2tlLXdpZHRoOiAwLjU7IHN0cm9rZS1vcGFjaXR5OiAxOyBzdHJva2U6IHJnYig4MCwgODAsIDgwKTsiIGQ9Ik02NDUuNjY2NjY2NjY2NjY2Niw0OTkuNSwgODUxLjY2NjY2NjY2NjY2NjYsNDUxLjUiIG1hcmtlci1lbmQ9IiIgY2xhc3M9ImxpbmsiLz48cGF0aCBzdHlsZT0ic3Ryb2tlLXdpZHRoOiAwLjU7IHN0cm9rZS1vcGFjaXR5OiAxOyBzdHJva2U6IHJnYig4MCwgODAsIDgwKTsiIGQ9Ik02NDUuNjY2NjY2NjY2NjY2Niw0OTkuNSwgODUxLjY2NjY2NjY2NjY2NjYsNDg5LjUiIG1hcmtlci1lbmQ9IiIgY2xhc3M9ImxpbmsiLz48cGF0aCBzdHlsZT0ic3Ryb2tlLXdpZHRoOiAwLjU7IHN0cm9rZS1vcGFjaXR5OiAxOyBzdHJva2U6IHJnYig4MCwgODAsIDgwKTsiIGQ9Ik02NDUuNjY2NjY2NjY2NjY2Niw1NTcuNSwgODUxLjY2NjY2NjY2NjY2NjYsMTg1LjUiIG1hcmtlci1lbmQ9IiIgY2xhc3M9ImxpbmsiLz48cGF0aCBzdHlsZT0ic3Ryb2tlLXdpZHRoOiAwLjU7IHN0cm9rZS1vcGFjaXR5OiAxOyBzdHJva2U6IHJnYig4MCwgODAsIDgwKTsiIGQ9Ik02NDUuNjY2NjY2NjY2NjY2Niw1NTcuNSwgODUxLjY2NjY2NjY2NjY2NjYsMjIzLjUiIG1hcmtlci1lbmQ9IiIgY2xhc3M9ImxpbmsiLz48cGF0aCBzdHlsZT0ic3Ryb2tlLXdpZHRoOiAwLjU7IHN0cm9rZS1vcGFjaXR5OiAxOyBzdHJva2U6IHJnYig4MCwgODAsIDgwKTsiIGQ9Ik02NDUuNjY2NjY2NjY2NjY2Niw1NTcuNSwgODUxLjY2NjY2NjY2NjY2NjYsMjYxLjUiIG1hcmtlci1lbmQ9IiIgY2xhc3M9ImxpbmsiLz48cGF0aCBzdHlsZT0ic3Ryb2tlLXdpZHRoOiAwLjU7IHN0cm9rZS1vcGFjaXR5OiAxOyBzdHJva2U6IHJnYig4MCwgODAsIDgwKTsiIGQ9Ik02NDUuNjY2NjY2NjY2NjY2Niw1NTcuNSwgODUxLjY2NjY2NjY2NjY2NjYsMjk5LjUiIG1hcmtlci1lbmQ9IiIgY2xhc3M9ImxpbmsiLz48cGF0aCBzdHlsZT0ic3Ryb2tlLXdpZHRoOiAwLjU7IHN0cm9rZS1vcGFjaXR5OiAxOyBzdHJva2U6IHJnYig4MCwgODAsIDgwKTsiIGQ9Ik02NDUuNjY2NjY2NjY2NjY2Niw1NTcuNSwgODUxLjY2NjY2NjY2NjY2NjYsMzM3LjUiIG1hcmtlci1lbmQ9IiIgY2xhc3M9ImxpbmsiLz48cGF0aCBzdHlsZT0ic3Ryb2tlLXdpZHRoOiAwLjU7IHN0cm9rZS1vcGFjaXR5OiAxOyBzdHJva2U6IHJnYig4MCwgODAsIDgwKTsiIGQ9Ik02NDUuNjY2NjY2NjY2NjY2Niw1NTcuNSwgODUxLjY2NjY2NjY2NjY2NjYsMzc1LjUiIG1hcmtlci1lbmQ9IiIgY2xhc3M9ImxpbmsiLz48cGF0aCBzdHlsZT0ic3Ryb2tlLXdpZHRoOiAwLjU7IHN0cm9rZS1vcGFjaXR5OiAxOyBzdHJva2U6IHJnYig4MCwgODAsIDgwKTsiIGQ9Ik02NDUuNjY2NjY2NjY2NjY2Niw1NTcuNSwgODUxLjY2NjY2NjY2NjY2NjYsNDEzLjUiIG1hcmtlci1lbmQ9IiIgY2xhc3M9ImxpbmsiLz48cGF0aCBzdHlsZT0ic3Ryb2tlLXdpZHRoOiAwLjU7IHN0cm9rZS1vcGFjaXR5OiAxOyBzdHJva2U6IHJnYig4MCwgODAsIDgwKTsiIGQ9Ik02NDUuNjY2NjY2NjY2NjY2Niw1NTcuNSwgODUxLjY2NjY2NjY2NjY2NjYsNDUxLjUiIG1hcmtlci1lbmQ9IiIgY2xhc3M9ImxpbmsiLz48cGF0aCBzdHlsZT0ic3Ryb2tlLXdpZHRoOiAwLjU7IHN0cm9rZS1vcGFjaXR5OiAxOyBzdHJva2U6IHJnYig4MCwgODAsIDgwKTsiIGQ9Ik02NDUuNjY2NjY2NjY2NjY2Niw1NTcuNSwgODUxLjY2NjY2NjY2NjY2NjYsNDg5LjUiIG1hcmtlci1lbmQ9IiIgY2xhc3M9ImxpbmsiLz48cGF0aCBzdHlsZT0ic3Ryb2tlLXdpZHRoOiAwLjU7IHN0cm9rZS1vcGFjaXR5OiAxOyBzdHJva2U6IHJnYig4MCwgODAsIDgwKTsiIGQ9Ik02NDUuNjY2NjY2NjY2NjY2Niw2MTUuNSwgODUxLjY2NjY2NjY2NjY2NjYsMTg1LjUiIG1hcmtlci1lbmQ9IiIgY2xhc3M9ImxpbmsiLz48cGF0aCBzdHlsZT0ic3Ryb2tlLXdpZHRoOiAwLjU7IHN0cm9rZS1vcGFjaXR5OiAxOyBzdHJva2U6IHJnYig4MCwgODAsIDgwKTsiIGQ9Ik02NDUuNjY2NjY2NjY2NjY2Niw2MTUuNSwgODUxLjY2NjY2NjY2NjY2NjYsMjIzLjUiIG1hcmtlci1lbmQ9IiIgY2xhc3M9ImxpbmsiLz48cGF0aCBzdHlsZT0ic3Ryb2tlLXdpZHRoOiAwLjU7IHN0cm9rZS1vcGFjaXR5OiAxOyBzdHJva2U6IHJnYig4MCwgODAsIDgwKTsiIGQ9Ik02NDUuNjY2NjY2NjY2NjY2Niw2MTUuNSwgODUxLjY2NjY2NjY2NjY2NjYsMjYxLjUiIG1hcmtlci1lbmQ9IiIgY2xhc3M9ImxpbmsiLz48cGF0aCBzdHlsZT0ic3Ryb2tlLXdpZHRoOiAwLjU7IHN0cm9rZS1vcGFjaXR5OiAxOyBzdHJva2U6IHJnYig4MCwgODAsIDgwKTsiIGQ9Ik02NDUuNjY2NjY2NjY2NjY2Niw2MTUuNSwgODUxLjY2NjY2NjY2NjY2NjYsMjk5LjUiIG1hcmtlci1lbmQ9IiIgY2xhc3M9ImxpbmsiLz48cGF0aCBzdHlsZT0ic3Ryb2tlLXdpZHRoOiAwLjU7IHN0cm9rZS1vcGFjaXR5OiAxOyBzdHJva2U6IHJnYig4MCwgODAsIDgwKTsiIGQ9Ik02NDUuNjY2NjY2NjY2NjY2Niw2MTUuNSwgODUxLjY2NjY2NjY2NjY2NjYsMzM3LjUiIG1hcmtlci1lbmQ9IiIgY2xhc3M9ImxpbmsiLz48cGF0aCBzdHlsZT0ic3Ryb2tlLXdpZHRoOiAwLjU7IHN0cm9rZS1vcGFjaXR5OiAxOyBzdHJva2U6IHJnYig4MCwgODAsIDgwKTsiIGQ9Ik02NDUuNjY2NjY2NjY2NjY2Niw2MTUuNSwgODUxLjY2NjY2NjY2NjY2NjYsMzc1LjUiIG1hcmtlci1lbmQ9IiIgY2xhc3M9ImxpbmsiLz48cGF0aCBzdHlsZT0ic3Ryb2tlLXdpZHRoOiAwLjU7IHN0cm9rZS1vcGFjaXR5OiAxOyBzdHJva2U6IHJnYig4MCwgODAsIDgwKTsiIGQ9Ik02NDUuNjY2NjY2NjY2NjY2Niw2MTUuNSwgODUxLjY2NjY2NjY2NjY2NjYsNDEzLjUiIG1hcmtlci1lbmQ9IiIgY2xhc3M9ImxpbmsiLz48cGF0aCBzdHlsZT0ic3Ryb2tlLXdpZHRoOiAwLjU7IHN0cm9rZS1vcGFjaXR5OiAxOyBzdHJva2U6IHJnYig4MCwgODAsIDgwKTsiIGQ9Ik02NDUuNjY2NjY2NjY2NjY2Niw2MTUuNSwgODUxLjY2NjY2NjY2NjY2NjYsNDUxLjUiIG1hcmtlci1lbmQ9IiIgY2xhc3M9ImxpbmsiLz48cGF0aCBzdHlsZT0ic3Ryb2tlLXdpZHRoOiAwLjU7IHN0cm9rZS1vcGFjaXR5OiAxOyBzdHJva2U6IHJnYig4MCwgODAsIDgwKTsiIGQ9Ik02NDUuNjY2NjY2NjY2NjY2Niw2MTUuNSwgODUxLjY2NjY2NjY2NjY2NjYsNDg5LjUiIG1hcmtlci1lbmQ9IiIgY2xhc3M9ImxpbmsiLz48cGF0aCBzdHlsZT0ic3Ryb2tlLXdpZHRoOiAwLjU7IHN0cm9rZS1vcGFjaXR5OiAxOyBzdHJva2U6IHJnYig4MCwgODAsIDgwKTsiIGQ9Ik02NDUuNjY2NjY2NjY2NjY2Niw2NzMuNSwgODUxLjY2NjY2NjY2NjY2NjYsMTg1LjUiIG1hcmtlci1lbmQ9IiIgY2xhc3M9ImxpbmsiLz48cGF0aCBzdHlsZT0ic3Ryb2tlLXdpZHRoOiAwLjU7IHN0cm9rZS1vcGFjaXR5OiAxOyBzdHJva2U6IHJnYig4MCwgODAsIDgwKTsiIGQ9Ik02NDUuNjY2NjY2NjY2NjY2Niw2NzMuNSwgODUxLjY2NjY2NjY2NjY2NjYsMjIzLjUiIG1hcmtlci1lbmQ9IiIgY2xhc3M9ImxpbmsiLz48cGF0aCBzdHlsZT0ic3Ryb2tlLXdpZHRoOiAwLjU7IHN0cm9rZS1vcGFjaXR5OiAxOyBzdHJva2U6IHJnYig4MCwgODAsIDgwKTsiIGQ9Ik02NDUuNjY2NjY2NjY2NjY2Niw2NzMuNSwgODUxLjY2NjY2NjY2NjY2NjYsMjYxLjUiIG1hcmtlci1lbmQ9IiIgY2xhc3M9ImxpbmsiLz48cGF0aCBzdHlsZT0ic3Ryb2tlLXdpZHRoOiAwLjU7IHN0cm9rZS1vcGFjaXR5OiAxOyBzdHJva2U6IHJnYig4MCwgODAsIDgwKTsiIGQ9Ik02NDUuNjY2NjY2NjY2NjY2Niw2NzMuNSwgODUxLjY2NjY2NjY2NjY2NjYsMjk5LjUiIG1hcmtlci1lbmQ9IiIgY2xhc3M9ImxpbmsiLz48cGF0aCBzdHlsZT0ic3Ryb2tlLXdpZHRoOiAwLjU7IHN0cm9rZS1vcGFjaXR5OiAxOyBzdHJva2U6IHJnYig4MCwgODAsIDgwKTsiIGQ9Ik02NDUuNjY2NjY2NjY2NjY2Niw2NzMuNSwgODUxLjY2NjY2NjY2NjY2NjYsMzM3LjUiIG1hcmtlci1lbmQ9IiIgY2xhc3M9ImxpbmsiLz48cGF0aCBzdHlsZT0ic3Ryb2tlLXdpZHRoOiAwLjU7IHN0cm9rZS1vcGFjaXR5OiAxOyBzdHJva2U6IHJnYig4MCwgODAsIDgwKTsiIGQ9Ik02NDUuNjY2NjY2NjY2NjY2Niw2NzMuNSwgODUxLjY2NjY2NjY2NjY2NjYsMzc1LjUiIG1hcmtlci1lbmQ9IiIgY2xhc3M9ImxpbmsiLz48cGF0aCBzdHlsZT0ic3Ryb2tlLXdpZHRoOiAwLjU7IHN0cm9rZS1vcGFjaXR5OiAxOyBzdHJva2U6IHJnYig4MCwgODAsIDgwKTsiIGQ9Ik02NDUuNjY2NjY2NjY2NjY2Niw2NzMuNSwgODUxLjY2NjY2NjY2NjY2NjYsNDEzLjUiIG1hcmtlci1lbmQ9IiIgY2xhc3M9ImxpbmsiLz48cGF0aCBzdHlsZT0ic3Ryb2tlLXdpZHRoOiAwLjU7IHN0cm9rZS1vcGFjaXR5OiAxOyBzdHJva2U6IHJnYig4MCwgODAsIDgwKTsiIGQ9Ik02NDUuNjY2NjY2NjY2NjY2Niw2NzMuNSwgODUxLjY2NjY2NjY2NjY2NjYsNDUxLjUiIG1hcmtlci1lbmQ9IiIgY2xhc3M9ImxpbmsiLz48cGF0aCBzdHlsZT0ic3Ryb2tlLXdpZHRoOiAwLjU7IHN0cm9rZS1vcGFjaXR5OiAxOyBzdHJva2U6IHJnYig4MCwgODAsIDgwKTsiIGQ9Ik02NDUuNjY2NjY2NjY2NjY2Niw2NzMuNSwgODUxLjY2NjY2NjY2NjY2NjYsNDg5LjUiIG1hcmtlci1lbmQ9IiIgY2xhc3M9ImxpbmsiLz48cGF0aCBzdHlsZT0ic3Ryb2tlLXdpZHRoOiAwLjU7IHN0cm9rZS1vcGFjaXR5OiAxOyBzdHJva2U6IHJnYig4MCwgODAsIDgwKTsiIGQ9Ik02NDUuNjY2NjY2NjY2NjY2Niw3MzEuNSwgODUxLjY2NjY2NjY2NjY2NjYsMTg1LjUiIG1hcmtlci1lbmQ9IiIgY2xhc3M9ImxpbmsiLz48cGF0aCBzdHlsZT0ic3Ryb2tlLXdpZHRoOiAwLjU7IHN0cm9rZS1vcGFjaXR5OiAxOyBzdHJva2U6IHJnYig4MCwgODAsIDgwKTsiIGQ9Ik02NDUuNjY2NjY2NjY2NjY2Niw3MzEuNSwgODUxLjY2NjY2NjY2NjY2NjYsMjIzLjUiIG1hcmtlci1lbmQ9IiIgY2xhc3M9ImxpbmsiLz48cGF0aCBzdHlsZT0ic3Ryb2tlLXdpZHRoOiAwLjU7IHN0cm9rZS1vcGFjaXR5OiAxOyBzdHJva2U6IHJnYig4MCwgODAsIDgwKTsiIGQ9Ik02NDUuNjY2NjY2NjY2NjY2Niw3MzEuNSwgODUxLjY2NjY2NjY2NjY2NjYsMjYxLjUiIG1hcmtlci1lbmQ9IiIgY2xhc3M9ImxpbmsiLz48cGF0aCBzdHlsZT0ic3Ryb2tlLXdpZHRoOiAwLjU7IHN0cm9rZS1vcGFjaXR5OiAxOyBzdHJva2U6IHJnYig4MCwgODAsIDgwKTsiIGQ9Ik02NDUuNjY2NjY2NjY2NjY2Niw3MzEuNSwgODUxLjY2NjY2NjY2NjY2NjYsMjk5LjUiIG1hcmtlci1lbmQ9IiIgY2xhc3M9ImxpbmsiLz48cGF0aCBzdHlsZT0ic3Ryb2tlLXdpZHRoOiAwLjU7IHN0cm9rZS1vcGFjaXR5OiAxOyBzdHJva2U6IHJnYig4MCwgODAsIDgwKTsiIGQ9Ik02NDUuNjY2NjY2NjY2NjY2Niw3MzEuNSwgODUxLjY2NjY2NjY2NjY2NjYsMzM3LjUiIG1hcmtlci1lbmQ9IiIgY2xhc3M9ImxpbmsiLz48cGF0aCBzdHlsZT0ic3Ryb2tlLXdpZHRoOiAwLjU7IHN0cm9rZS1vcGFjaXR5OiAxOyBzdHJva2U6IHJnYig4MCwgODAsIDgwKTsiIGQ9Ik02NDUuNjY2NjY2NjY2NjY2Niw3MzEuNSwgODUxLjY2NjY2NjY2NjY2NjYsMzc1LjUiIG1hcmtlci1lbmQ9IiIgY2xhc3M9ImxpbmsiLz48cGF0aCBzdHlsZT0ic3Ryb2tlLXdpZHRoOiAwLjU7IHN0cm9rZS1vcGFjaXR5OiAxOyBzdHJva2U6IHJnYig4MCwgODAsIDgwKTsiIGQ9Ik02NDUuNjY2NjY2NjY2NjY2Niw3MzEuNSwgODUxLjY2NjY2NjY2NjY2NjYsNDEzLjUiIG1hcmtlci1lbmQ9IiIgY2xhc3M9ImxpbmsiLz48cGF0aCBzdHlsZT0ic3Ryb2tlLXdpZHRoOiAwLjU7IHN0cm9rZS1vcGFjaXR5OiAxOyBzdHJva2U6IHJnYig4MCwgODAsIDgwKTsiIGQ9Ik02NDUuNjY2NjY2NjY2NjY2Niw3MzEuNSwgODUxLjY2NjY2NjY2NjY2NjYsNDUxLjUiIG1hcmtlci1lbmQ9IiIgY2xhc3M9ImxpbmsiLz48cGF0aCBzdHlsZT0ic3Ryb2tlLXdpZHRoOiAwLjU7IHN0cm9rZS1vcGFjaXR5OiAxOyBzdHJva2U6IHJnYig4MCwgODAsIDgwKTsiIGQ9Ik02NDUuNjY2NjY2NjY2NjY2Niw3MzEuNSwgODUxLjY2NjY2NjY2NjY2NjYsNDg5LjUiIG1hcmtlci1lbmQ9IiIgY2xhc3M9ImxpbmsiLz48cGF0aCBzdHlsZT0ic3Ryb2tlLXdpZHRoOiAwLjU7IHN0cm9rZS1vcGFjaXR5OiAxOyBzdHJva2U6IHJnYig4MCwgODAsIDgwKTsiIGQ9Ik02NDUuNjY2NjY2NjY2NjY2Niw3ODkuNSwgODUxLjY2NjY2NjY2NjY2NjYsMTg1LjUiIG1hcmtlci1lbmQ9IiIgY2xhc3M9ImxpbmsiLz48cGF0aCBzdHlsZT0ic3Ryb2tlLXdpZHRoOiAwLjU7IHN0cm9rZS1vcGFjaXR5OiAxOyBzdHJva2U6IHJnYig4MCwgODAsIDgwKTsiIGQ9Ik02NDUuNjY2NjY2NjY2NjY2Niw3ODkuNSwgODUxLjY2NjY2NjY2NjY2NjYsMjIzLjUiIG1hcmtlci1lbmQ9IiIgY2xhc3M9ImxpbmsiLz48cGF0aCBzdHlsZT0ic3Ryb2tlLXdpZHRoOiAwLjU7IHN0cm9rZS1vcGFjaXR5OiAxOyBzdHJva2U6IHJnYig4MCwgODAsIDgwKTsiIGQ9Ik02NDUuNjY2NjY2NjY2NjY2Niw3ODkuNSwgODUxLjY2NjY2NjY2NjY2NjYsMjYxLjUiIG1hcmtlci1lbmQ9IiIgY2xhc3M9ImxpbmsiLz48cGF0aCBzdHlsZT0ic3Ryb2tlLXdpZHRoOiAwLjU7IHN0cm9rZS1vcGFjaXR5OiAxOyBzdHJva2U6IHJnYig4MCwgODAsIDgwKTsiIGQ9Ik02NDUuNjY2NjY2NjY2NjY2Niw3ODkuNSwgODUxLjY2NjY2NjY2NjY2NjYsMjk5LjUiIG1hcmtlci1lbmQ9IiIgY2xhc3M9ImxpbmsiLz48cGF0aCBzdHlsZT0ic3Ryb2tlLXdpZHRoOiAwLjU7IHN0cm9rZS1vcGFjaXR5OiAxOyBzdHJva2U6IHJnYig4MCwgODAsIDgwKTsiIGQ9Ik02NDUuNjY2NjY2NjY2NjY2Niw3ODkuNSwgODUxLjY2NjY2NjY2NjY2NjYsMzM3LjUiIG1hcmtlci1lbmQ9IiIgY2xhc3M9ImxpbmsiLz48cGF0aCBzdHlsZT0ic3Ryb2tlLXdpZHRoOiAwLjU7IHN0cm9rZS1vcGFjaXR5OiAxOyBzdHJva2U6IHJnYig4MCwgODAsIDgwKTsiIGQ9Ik02NDUuNjY2NjY2NjY2NjY2Niw3ODkuNSwgODUxLjY2NjY2NjY2NjY2NjYsMzc1LjUiIG1hcmtlci1lbmQ9IiIgY2xhc3M9ImxpbmsiLz48cGF0aCBzdHlsZT0ic3Ryb2tlLXdpZHRoOiAwLjU7IHN0cm9rZS1vcGFjaXR5OiAxOyBzdHJva2U6IHJnYig4MCwgODAsIDgwKTsiIGQ9Ik02NDUuNjY2NjY2NjY2NjY2Niw3ODkuNSwgODUxLjY2NjY2NjY2NjY2NjYsNDEzLjUiIG1hcmtlci1lbmQ9IiIgY2xhc3M9ImxpbmsiLz48cGF0aCBzdHlsZT0ic3Ryb2tlLXdpZHRoOiAwLjU7IHN0cm9rZS1vcGFjaXR5OiAxOyBzdHJva2U6IHJnYig4MCwgODAsIDgwKTsiIGQ9Ik02NDUuNjY2NjY2NjY2NjY2Niw3ODkuNSwgODUxLjY2NjY2NjY2NjY2NjYsNDUxLjUiIG1hcmtlci1lbmQ9IiIgY2xhc3M9ImxpbmsiLz48cGF0aCBzdHlsZT0ic3Ryb2tlLXdpZHRoOiAwLjU7IHN0cm9rZS1vcGFjaXR5OiAxOyBzdHJva2U6IHJnYig4MCwgODAsIDgwKTsiIGQ9Ik02NDUuNjY2NjY2NjY2NjY2Niw3ODkuNSwgODUxLjY2NjY2NjY2NjY2NjYsNDg5LjUiIG1hcmtlci1lbmQ9IiIgY2xhc3M9ImxpbmsiLz48cGF0aCBzdHlsZT0ic3Ryb2tlLXdpZHRoOiAwLjU7IHN0cm9rZS1vcGFjaXR5OiAxOyBzdHJva2U6IHJnYig4MCwgODAsIDgwKTsiIGQ9Ik02NDUuNjY2NjY2NjY2NjY2Niw4NDcuNSwgODUxLjY2NjY2NjY2NjY2NjYsMTg1LjUiIG1hcmtlci1lbmQ9IiIgY2xhc3M9ImxpbmsiLz48cGF0aCBzdHlsZT0ic3Ryb2tlLXdpZHRoOiAwLjU7IHN0cm9rZS1vcGFjaXR5OiAxOyBzdHJva2U6IHJnYig4MCwgODAsIDgwKTsiIGQ9Ik02NDUuNjY2NjY2NjY2NjY2Niw4NDcuNSwgODUxLjY2NjY2NjY2NjY2NjYsMjIzLjUiIG1hcmtlci1lbmQ9IiIgY2xhc3M9ImxpbmsiLz48cGF0aCBzdHlsZT0ic3Ryb2tlLXdpZHRoOiAwLjU7IHN0cm9rZS1vcGFjaXR5OiAxOyBzdHJva2U6IHJnYig4MCwgODAsIDgwKTsiIGQ9Ik02NDUuNjY2NjY2NjY2NjY2Niw4NDcuNSwgODUxLjY2NjY2NjY2NjY2NjYsMjYxLjUiIG1hcmtlci1lbmQ9IiIgY2xhc3M9ImxpbmsiLz48cGF0aCBzdHlsZT0ic3Ryb2tlLXdpZHRoOiAwLjU7IHN0cm9rZS1vcGFjaXR5OiAxOyBzdHJva2U6IHJnYig4MCwgODAsIDgwKTsiIGQ9Ik02NDUuNjY2NjY2NjY2NjY2Niw4NDcuNSwgODUxLjY2NjY2NjY2NjY2NjYsMjk5LjUiIG1hcmtlci1lbmQ9IiIgY2xhc3M9ImxpbmsiLz48cGF0aCBzdHlsZT0ic3Ryb2tlLXdpZHRoOiAwLjU7IHN0cm9rZS1vcGFjaXR5OiAxOyBzdHJva2U6IHJnYig4MCwgODAsIDgwKTsiIGQ9Ik02NDUuNjY2NjY2NjY2NjY2Niw4NDcuNSwgODUxLjY2NjY2NjY2NjY2NjYsMzM3LjUiIG1hcmtlci1lbmQ9IiIgY2xhc3M9ImxpbmsiLz48cGF0aCBzdHlsZT0ic3Ryb2tlLXdpZHRoOiAwLjU7IHN0cm9rZS1vcGFjaXR5OiAxOyBzdHJva2U6IHJnYig4MCwgODAsIDgwKTsiIGQ9Ik02NDUuNjY2NjY2NjY2NjY2Niw4NDcuNSwgODUxLjY2NjY2NjY2NjY2NjYsMzc1LjUiIG1hcmtlci1lbmQ9IiIgY2xhc3M9ImxpbmsiLz48cGF0aCBzdHlsZT0ic3Ryb2tlLXdpZHRoOiAwLjU7IHN0cm9rZS1vcGFjaXR5OiAxOyBzdHJva2U6IHJnYig4MCwgODAsIDgwKTsiIGQ9Ik02NDUuNjY2NjY2NjY2NjY2Niw4NDcuNSwgODUxLjY2NjY2NjY2NjY2NjYsNDEzLjUiIG1hcmtlci1lbmQ9IiIgY2xhc3M9ImxpbmsiLz48cGF0aCBzdHlsZT0ic3Ryb2tlLXdpZHRoOiAwLjU7IHN0cm9rZS1vcGFjaXR5OiAxOyBzdHJva2U6IHJnYig4MCwgODAsIDgwKTsiIGQ9Ik02NDUuNjY2NjY2NjY2NjY2Niw4NDcuNSwgODUxLjY2NjY2NjY2NjY2NjYsNDUxLjUiIG1hcmtlci1lbmQ9IiIgY2xhc3M9ImxpbmsiLz48cGF0aCBzdHlsZT0ic3Ryb2tlLXdpZHRoOiAwLjU7IHN0cm9rZS1vcGFjaXR5OiAxOyBzdHJva2U6IHJnYig4MCwgODAsIDgwKTsiIGQ9Ik02NDUuNjY2NjY2NjY2NjY2Niw4NDcuNSwgODUxLjY2NjY2NjY2NjY2NjYsNDg5LjUiIG1hcmtlci1lbmQ9IiIgY2xhc3M9ImxpbmsiLz48cGF0aCBzdHlsZT0ic3Ryb2tlLXdpZHRoOiAwLjU7IHN0cm9rZS1vcGFjaXR5OiAxOyBzdHJva2U6IHJnYig4MCwgODAsIDgwKTsiIGQ9Ik02NDUuNjY2NjY2NjY2NjY2Niw5MDUuNSwgODUxLjY2NjY2NjY2NjY2NjYsMTg1LjUiIG1hcmtlci1lbmQ9IiIgY2xhc3M9ImxpbmsiLz48cGF0aCBzdHlsZT0ic3Ryb2tlLXdpZHRoOiAwLjU7IHN0cm9rZS1vcGFjaXR5OiAxOyBzdHJva2U6IHJnYig4MCwgODAsIDgwKTsiIGQ9Ik02NDUuNjY2NjY2NjY2NjY2Niw5MDUuNSwgODUxLjY2NjY2NjY2NjY2NjYsMjIzLjUiIG1hcmtlci1lbmQ9IiIgY2xhc3M9ImxpbmsiLz48cGF0aCBzdHlsZT0ic3Ryb2tlLXdpZHRoOiAwLjU7IHN0cm9rZS1vcGFjaXR5OiAxOyBzdHJva2U6IHJnYig4MCwgODAsIDgwKTsiIGQ9Ik02NDUuNjY2NjY2NjY2NjY2Niw5MDUuNSwgODUxLjY2NjY2NjY2NjY2NjYsMjYxLjUiIG1hcmtlci1lbmQ9IiIgY2xhc3M9ImxpbmsiLz48cGF0aCBzdHlsZT0ic3Ryb2tlLXdpZHRoOiAwLjU7IHN0cm9rZS1vcGFjaXR5OiAxOyBzdHJva2U6IHJnYig4MCwgODAsIDgwKTsiIGQ9Ik02NDUuNjY2NjY2NjY2NjY2Niw5MDUuNSwgODUxLjY2NjY2NjY2NjY2NjYsMjk5LjUiIG1hcmtlci1lbmQ9IiIgY2xhc3M9ImxpbmsiLz48cGF0aCBzdHlsZT0ic3Ryb2tlLXdpZHRoOiAwLjU7IHN0cm9rZS1vcGFjaXR5OiAxOyBzdHJva2U6IHJnYig4MCwgODAsIDgwKTsiIGQ9Ik02NDUuNjY2NjY2NjY2NjY2Niw5MDUuNSwgODUxLjY2NjY2NjY2NjY2NjYsMzM3LjUiIG1hcmtlci1lbmQ9IiIgY2xhc3M9ImxpbmsiLz48cGF0aCBzdHlsZT0ic3Ryb2tlLXdpZHRoOiAwLjU7IHN0cm9rZS1vcGFjaXR5OiAxOyBzdHJva2U6IHJnYig4MCwgODAsIDgwKTsiIGQ9Ik02NDUuNjY2NjY2NjY2NjY2Niw5MDUuNSwgODUxLjY2NjY2NjY2NjY2NjYsMzc1LjUiIG1hcmtlci1lbmQ9IiIgY2xhc3M9ImxpbmsiLz48cGF0aCBzdHlsZT0ic3Ryb2tlLXdpZHRoOiAwLjU7IHN0cm9rZS1vcGFjaXR5OiAxOyBzdHJva2U6IHJnYig4MCwgODAsIDgwKTsiIGQ9Ik02NDUuNjY2NjY2NjY2NjY2Niw5MDUuNSwgODUxLjY2NjY2NjY2NjY2NjYsNDEzLjUiIG1hcmtlci1lbmQ9IiIgY2xhc3M9ImxpbmsiLz48cGF0aCBzdHlsZT0ic3Ryb2tlLXdpZHRoOiAwLjU7IHN0cm9rZS1vcGFjaXR5OiAxOyBzdHJva2U6IHJnYig4MCwgODAsIDgwKTsiIGQ9Ik02NDUuNjY2NjY2NjY2NjY2Niw5MDUuNSwgODUxLjY2NjY2NjY2NjY2NjYsNDUxLjUiIG1hcmtlci1lbmQ9IiIgY2xhc3M9ImxpbmsiLz48cGF0aCBzdHlsZT0ic3Ryb2tlLXdpZHRoOiAwLjU7IHN0cm9rZS1vcGFjaXR5OiAxOyBzdHJva2U6IHJnYig4MCwgODAsIDgwKTsiIGQ9Ik02NDUuNjY2NjY2NjY2NjY2Niw5MDUuNSwgODUxLjY2NjY2NjY2NjY2NjYsNDg5LjUiIG1hcmtlci1lbmQ9IiIgY2xhc3M9ImxpbmsiLz48cGF0aCBzdHlsZT0ic3Ryb2tlLXdpZHRoOiAwLjU7IHN0cm9rZS1vcGFjaXR5OiAxOyBzdHJva2U6IHJnYig4MCwgODAsIDgwKTsiIGQ9Ik0yMzMuNjY2NjY2NjY2NjY2NjYsNTIzLCA0MzkuNjY2NjY2NjY2NjY2NjMsMjgiIG1hcmtlci1lbmQ9IiIgY2xhc3M9ImxpbmsiLz48cGF0aCBzdHlsZT0ic3Ryb2tlLXdpZHRoOiAwLjU7IHN0cm9rZS1vcGFjaXR5OiAxOyBzdHJva2U6IHJnYig4MCwgODAsIDgwKTsiIGQ9Ik0yMzMuNjY2NjY2NjY2NjY2NjYsNTIzLCA0MzkuNjY2NjY2NjY2NjY2NjMsODciIG1hcmtlci1lbmQ9IiIgY2xhc3M9ImxpbmsiLz48cGF0aCBzdHlsZT0ic3Ryb2tlLXdpZHRoOiAwLjU7IHN0cm9rZS1vcGFjaXR5OiAxOyBzdHJva2U6IHJnYig4MCwgODAsIDgwKTsiIGQ9Ik0yMzMuNjY2NjY2NjY2NjY2NjYsNTIzLCA0MzkuNjY2NjY2NjY2NjY2NjMsMTQ2IiBtYXJrZXItZW5kPSIiIGNsYXNzPSJsaW5rIi8+PHBhdGggc3R5bGU9InN0cm9rZS13aWR0aDogMC41OyBzdHJva2Utb3BhY2l0eTogMTsgc3Ryb2tlOiByZ2IoODAsIDgwLCA4MCk7IiBkPSJNMjMzLjY2NjY2NjY2NjY2NjY2LDUyMywgNDM5LjY2NjY2NjY2NjY2NjYzLDIwNSIgbWFya2VyLWVuZD0iIiBjbGFzcz0ibGluayIvPjxwYXRoIHN0eWxlPSJzdHJva2Utd2lkdGg6IDAuNTsgc3Ryb2tlLW9wYWNpdHk6IDE7IHN0cm9rZTogcmdiKDgwLCA4MCwgODApOyIgZD0iTTIzMy42NjY2NjY2NjY2NjY2Niw1MjMsIDQzOS42NjY2NjY2NjY2NjY2MywyNjQiIG1hcmtlci1lbmQ9IiIgY2xhc3M9ImxpbmsiLz48cGF0aCBzdHlsZT0ic3Ryb2tlLXdpZHRoOiAwLjU7IHN0cm9rZS1vcGFjaXR5OiAxOyBzdHJva2U6IHJnYig4MCwgODAsIDgwKTsiIGQ9Ik0yMzMuNjY2NjY2NjY2NjY2NjYsNTIzLCA0MzkuNjY2NjY2NjY2NjY2NjMsMzIzIiBtYXJrZXItZW5kPSIiIGNsYXNzPSJsaW5rIi8+PHBhdGggc3R5bGU9InN0cm9rZS13aWR0aDogMC41OyBzdHJva2Utb3BhY2l0eTogMTsgc3Ryb2tlOiByZ2IoODAsIDgwLCA4MCk7IiBkPSJNMjMzLjY2NjY2NjY2NjY2NjY2LDUyMywgNDM5LjY2NjY2NjY2NjY2NjYzLDM4MiIgbWFya2VyLWVuZD0iIiBjbGFzcz0ibGluayIvPjxwYXRoIHN0eWxlPSJzdHJva2Utd2lkdGg6IDAuNTsgc3Ryb2tlLW9wYWNpdHk6IDE7IHN0cm9rZTogcmdiKDgwLCA4MCwgODApOyIgZD0iTTIzMy42NjY2NjY2NjY2NjY2Niw1MjMsIDQzOS42NjY2NjY2NjY2NjY2Myw0NDEiIG1hcmtlci1lbmQ9IiIgY2xhc3M9ImxpbmsiLz48cGF0aCBzdHlsZT0ic3Ryb2tlLXdpZHRoOiAwLjU7IHN0cm9rZS1vcGFjaXR5OiAxOyBzdHJva2U6IHJnYig4MCwgODAsIDgwKTsiIGQ9Ik0yMzMuNjY2NjY2NjY2NjY2NjYsNTIzLCA0MzkuNjY2NjY2NjY2NjY2NjMsNTAwIiBtYXJrZXItZW5kPSIiIGNsYXNzPSJsaW5rIi8+PHBhdGggc3R5bGU9InN0cm9rZS13aWR0aDogMC41OyBzdHJva2Utb3BhY2l0eTogMTsgc3Ryb2tlOiByZ2IoODAsIDgwLCA4MCk7IiBkPSJNMjMzLjY2NjY2NjY2NjY2NjY2LDUyMywgNDM5LjY2NjY2NjY2NjY2NjYzLDU1OSIgbWFya2VyLWVuZD0iIiBjbGFzcz0ibGluayIvPjxwYXRoIHN0eWxlPSJzdHJva2Utd2lkdGg6IDAuNTsgc3Ryb2tlLW9wYWNpdHk6IDE7IHN0cm9rZTogcmdiKDgwLCA4MCwgODApOyIgZD0iTTIzMy42NjY2NjY2NjY2NjY2Niw1MjMsIDQzOS42NjY2NjY2NjY2NjY2Myw2MTgiIG1hcmtlci1lbmQ9IiIgY2xhc3M9ImxpbmsiLz48cGF0aCBzdHlsZT0ic3Ryb2tlLXdpZHRoOiAwLjU7IHN0cm9rZS1vcGFjaXR5OiAxOyBzdHJva2U6IHJnYig4MCwgODAsIDgwKTsiIGQ9Ik0yMzMuNjY2NjY2NjY2NjY2NjYsNTIzLCA0MzkuNjY2NjY2NjY2NjY2NjMsNjc3IiBtYXJrZXItZW5kPSIiIGNsYXNzPSJsaW5rIi8+PHBhdGggc3R5bGU9InN0cm9rZS13aWR0aDogMC41OyBzdHJva2Utb3BhY2l0eTogMTsgc3Ryb2tlOiByZ2IoODAsIDgwLCA4MCk7IiBkPSJNMjMzLjY2NjY2NjY2NjY2NjY2LDUyMywgNDM5LjY2NjY2NjY2NjY2NjYzLDczNiIgbWFya2VyLWVuZD0iIiBjbGFzcz0ibGluayIvPjxwYXRoIHN0eWxlPSJzdHJva2Utd2lkdGg6IDAuNTsgc3Ryb2tlLW9wYWNpdHk6IDE7IHN0cm9rZTogcmdiKDgwLCA4MCwgODApOyIgZD0iTTIzMy42NjY2NjY2NjY2NjY2Niw1MjMsIDQzOS42NjY2NjY2NjY2NjY2Myw3OTUiIG1hcmtlci1lbmQ9IiIgY2xhc3M9ImxpbmsiLz48cGF0aCBzdHlsZT0ic3Ryb2tlLXdpZHRoOiAwLjU7IHN0cm9rZS1vcGFjaXR5OiAxOyBzdHJva2U6IHJnYig4MCwgODAsIDgwKTsiIGQ9Ik0yMzMuNjY2NjY2NjY2NjY2NjYsNTIzLCA0MzkuNjY2NjY2NjY2NjY2NjMsODU0IiBtYXJrZXItZW5kPSIiIGNsYXNzPSJsaW5rIi8+PHBhdGggc3R5bGU9InN0cm9rZS13aWR0aDogMC41OyBzdHJva2Utb3BhY2l0eTogMTsgc3Ryb2tlOiByZ2IoODAsIDgwLCA4MCk7IiBkPSJNMjMzLjY2NjY2NjY2NjY2NjY2LDUyMywgNDM5LjY2NjY2NjY2NjY2NjYzLDkxMyIgbWFya2VyLWVuZD0iIiBjbGFzcz0ibGluayIvPjxwYXRoIHN0eWxlPSJzdHJva2Utd2lkdGg6IDAuNTsgc3Ryb2tlLW9wYWNpdHk6IDE7IHN0cm9rZTogcmdiKDgwLCA4MCwgODApOyIgZD0iTTIzMy42NjY2NjY2NjY2NjY2Niw1NTgsIDQzOS42NjY2NjY2NjY2NjY2MywyOCIgbWFya2VyLWVuZD0iIiBjbGFzcz0ibGluayIvPjxwYXRoIHN0eWxlPSJzdHJva2Utd2lkdGg6IDAuNTsgc3Ryb2tlLW9wYWNpdHk6IDE7IHN0cm9rZTogcmdiKDgwLCA4MCwgODApOyIgZD0iTTIzMy42NjY2NjY2NjY2NjY2Niw1NTgsIDQzOS42NjY2NjY2NjY2NjY2Myw4NyIgbWFya2VyLWVuZD0iIiBjbGFzcz0ibGluayIvPjxwYXRoIHN0eWxlPSJzdHJva2Utd2lkdGg6IDAuNTsgc3Ryb2tlLW9wYWNpdHk6IDE7IHN0cm9rZTogcmdiKDgwLCA4MCwgODApOyIgZD0iTTIzMy42NjY2NjY2NjY2NjY2Niw1NTgsIDQzOS42NjY2NjY2NjY2NjY2MywxNDYiIG1hcmtlci1lbmQ9IiIgY2xhc3M9ImxpbmsiLz48cGF0aCBzdHlsZT0ic3Ryb2tlLXdpZHRoOiAwLjU7IHN0cm9rZS1vcGFjaXR5OiAxOyBzdHJva2U6IHJnYig4MCwgODAsIDgwKTsiIGQ9Ik0yMzMuNjY2NjY2NjY2NjY2NjYsNTU4LCA0MzkuNjY2NjY2NjY2NjY2NjMsMjA1IiBtYXJrZXItZW5kPSIiIGNsYXNzPSJsaW5rIi8+PHBhdGggc3R5bGU9InN0cm9rZS13aWR0aDogMC41OyBzdHJva2Utb3BhY2l0eTogMTsgc3Ryb2tlOiByZ2IoODAsIDgwLCA4MCk7IiBkPSJNMjMzLjY2NjY2NjY2NjY2NjY2LDU1OCwgNDM5LjY2NjY2NjY2NjY2NjYzLDI2NCIgbWFya2VyLWVuZD0iIiBjbGFzcz0ibGluayIvPjxwYXRoIHN0eWxlPSJzdHJva2Utd2lkdGg6IDAuNTsgc3Ryb2tlLW9wYWNpdHk6IDE7IHN0cm9rZTogcmdiKDgwLCA4MCwgODApOyIgZD0iTTIzMy42NjY2NjY2NjY2NjY2Niw1NTgsIDQzOS42NjY2NjY2NjY2NjY2MywzMjMiIG1hcmtlci1lbmQ9IiIgY2xhc3M9ImxpbmsiLz48cGF0aCBzdHlsZT0ic3Ryb2tlLXdpZHRoOiAwLjU7IHN0cm9rZS1vcGFjaXR5OiAxOyBzdHJva2U6IHJnYig4MCwgODAsIDgwKTsiIGQ9Ik0yMzMuNjY2NjY2NjY2NjY2NjYsNTU4LCA0MzkuNjY2NjY2NjY2NjY2NjMsMzgyIiBtYXJrZXItZW5kPSIiIGNsYXNzPSJsaW5rIi8+PHBhdGggc3R5bGU9InN0cm9rZS13aWR0aDogMC41OyBzdHJva2Utb3BhY2l0eTogMTsgc3Ryb2tlOiByZ2IoODAsIDgwLCA4MCk7IiBkPSJNMjMzLjY2NjY2NjY2NjY2NjY2LDU1OCwgNDM5LjY2NjY2NjY2NjY2NjYzLDQ0MSIgbWFya2VyLWVuZD0iIiBjbGFzcz0ibGluayIvPjxwYXRoIHN0eWxlPSJzdHJva2Utd2lkdGg6IDAuNTsgc3Ryb2tlLW9wYWNpdHk6IDE7IHN0cm9rZTogcmdiKDgwLCA4MCwgODApOyIgZD0iTTIzMy42NjY2NjY2NjY2NjY2Niw1NTgsIDQzOS42NjY2NjY2NjY2NjY2Myw1MDAiIG1hcmtlci1lbmQ9IiIgY2xhc3M9ImxpbmsiLz48cGF0aCBzdHlsZT0ic3Ryb2tlLXdpZHRoOiAwLjU7IHN0cm9rZS1vcGFjaXR5OiAxOyBzdHJva2U6IHJnYig4MCwgODAsIDgwKTsiIGQ9Ik0yMzMuNjY2NjY2NjY2NjY2NjYsNTU4LCA0MzkuNjY2NjY2NjY2NjY2NjMsNTU5IiBtYXJrZXItZW5kPSIiIGNsYXNzPSJsaW5rIi8+PHBhdGggc3R5bGU9InN0cm9rZS13aWR0aDogMC41OyBzdHJva2Utb3BhY2l0eTogMTsgc3Ryb2tlOiByZ2IoODAsIDgwLCA4MCk7IiBkPSJNMjMzLjY2NjY2NjY2NjY2NjY2LDU1OCwgNDM5LjY2NjY2NjY2NjY2NjYzLDYxOCIgbWFya2VyLWVuZD0iIiBjbGFzcz0ibGluayIvPjxwYXRoIHN0eWxlPSJzdHJva2Utd2lkdGg6IDAuNTsgc3Ryb2tlLW9wYWNpdHk6IDE7IHN0cm9rZTogcmdiKDgwLCA4MCwgODApOyIgZD0iTTIzMy42NjY2NjY2NjY2NjY2Niw1NTgsIDQzOS42NjY2NjY2NjY2NjY2Myw2NzciIG1hcmtlci1lbmQ9IiIgY2xhc3M9ImxpbmsiLz48cGF0aCBzdHlsZT0ic3Ryb2tlLXdpZHRoOiAwLjU7IHN0cm9rZS1vcGFjaXR5OiAxOyBzdHJva2U6IHJnYig4MCwgODAsIDgwKTsiIGQ9Ik0yMzMuNjY2NjY2NjY2NjY2NjYsNTU4LCA0MzkuNjY2NjY2NjY2NjY2NjMsNzM2IiBtYXJrZXItZW5kPSIiIGNsYXNzPSJsaW5rIi8+PHBhdGggc3R5bGU9InN0cm9rZS13aWR0aDogMC41OyBzdHJva2Utb3BhY2l0eTogMTsgc3Ryb2tlOiByZ2IoODAsIDgwLCA4MCk7IiBkPSJNMjMzLjY2NjY2NjY2NjY2NjY2LDU1OCwgNDM5LjY2NjY2NjY2NjY2NjYzLDc5NSIgbWFya2VyLWVuZD0iIiBjbGFzcz0ibGluayIvPjxwYXRoIHN0eWxlPSJzdHJva2Utd2lkdGg6IDAuNTsgc3Ryb2tlLW9wYWNpdHk6IDE7IHN0cm9rZTogcmdiKDgwLCA4MCwgODApOyIgZD0iTTIzMy42NjY2NjY2NjY2NjY2Niw1NTgsIDQzOS42NjY2NjY2NjY2NjY2Myw4NTQiIG1hcmtlci1lbmQ9IiIgY2xhc3M9ImxpbmsiLz48cGF0aCBzdHlsZT0ic3Ryb2tlLXdpZHRoOiAwLjU7IHN0cm9rZS1vcGFjaXR5OiAxOyBzdHJva2U6IHJnYig4MCwgODAsIDgwKTsiIGQ9Ik0yMzMuNjY2NjY2NjY2NjY2NjYsNTU4LCA0MzkuNjY2NjY2NjY2NjY2NjMsOTEzIiBtYXJrZXItZW5kPSIiIGNsYXNzPSJsaW5rIi8+PHBhdGggc3R5bGU9InN0cm9rZS13aWR0aDogMC41OyBzdHJva2Utb3BhY2l0eTogMTsgc3Ryb2tlOiByZ2IoODAsIDgwLCA4MCk7IiBkPSJNMjMzLjY2NjY2NjY2NjY2NjY2LDU5MywgNDM5LjY2NjY2NjY2NjY2NjYzLDI4IiBtYXJrZXItZW5kPSIiIGNsYXNzPSJsaW5rIi8+PHBhdGggc3R5bGU9InN0cm9rZS13aWR0aDogMC41OyBzdHJva2Utb3BhY2l0eTogMTsgc3Ryb2tlOiByZ2IoODAsIDgwLCA4MCk7IiBkPSJNMjMzLjY2NjY2NjY2NjY2NjY2LDU5MywgNDM5LjY2NjY2NjY2NjY2NjYzLDg3IiBtYXJrZXItZW5kPSIiIGNsYXNzPSJsaW5rIi8+PHBhdGggc3R5bGU9InN0cm9rZS13aWR0aDogMC41OyBzdHJva2Utb3BhY2l0eTogMTsgc3Ryb2tlOiByZ2IoODAsIDgwLCA4MCk7IiBkPSJNMjMzLjY2NjY2NjY2NjY2NjY2LDU5MywgNDM5LjY2NjY2NjY2NjY2NjYzLDE0NiIgbWFya2VyLWVuZD0iIiBjbGFzcz0ibGluayIvPjxwYXRoIHN0eWxlPSJzdHJva2Utd2lkdGg6IDAuNTsgc3Ryb2tlLW9wYWNpdHk6IDE7IHN0cm9rZTogcmdiKDgwLCA4MCwgODApOyIgZD0iTTIzMy42NjY2NjY2NjY2NjY2Niw1OTMsIDQzOS42NjY2NjY2NjY2NjY2MywyMDUiIG1hcmtlci1lbmQ9IiIgY2xhc3M9ImxpbmsiLz48cGF0aCBzdHlsZT0ic3Ryb2tlLXdpZHRoOiAwLjU7IHN0cm9rZS1vcGFjaXR5OiAxOyBzdHJva2U6IHJnYig4MCwgODAsIDgwKTsiIGQ9Ik0yMzMuNjY2NjY2NjY2NjY2NjYsNTkzLCA0MzkuNjY2NjY2NjY2NjY2NjMsMjY0IiBtYXJrZXItZW5kPSIiIGNsYXNzPSJsaW5rIi8+PHBhdGggc3R5bGU9InN0cm9rZS13aWR0aDogMC41OyBzdHJva2Utb3BhY2l0eTogMTsgc3Ryb2tlOiByZ2IoODAsIDgwLCA4MCk7IiBkPSJNMjMzLjY2NjY2NjY2NjY2NjY2LDU5MywgNDM5LjY2NjY2NjY2NjY2NjYzLDMyMyIgbWFya2VyLWVuZD0iIiBjbGFzcz0ibGluayIvPjxwYXRoIHN0eWxlPSJzdHJva2Utd2lkdGg6IDAuNTsgc3Ryb2tlLW9wYWNpdHk6IDE7IHN0cm9rZTogcmdiKDgwLCA4MCwgODApOyIgZD0iTTIzMy42NjY2NjY2NjY2NjY2Niw1OTMsIDQzOS42NjY2NjY2NjY2NjY2MywzODIiIG1hcmtlci1lbmQ9IiIgY2xhc3M9ImxpbmsiLz48cGF0aCBzdHlsZT0ic3Ryb2tlLXdpZHRoOiAwLjU7IHN0cm9rZS1vcGFjaXR5OiAxOyBzdHJva2U6IHJnYig4MCwgODAsIDgwKTsiIGQ9Ik0yMzMuNjY2NjY2NjY2NjY2NjYsNTkzLCA0MzkuNjY2NjY2NjY2NjY2NjMsNDQxIiBtYXJrZXItZW5kPSIiIGNsYXNzPSJsaW5rIi8+PHBhdGggc3R5bGU9InN0cm9rZS13aWR0aDogMC41OyBzdHJva2Utb3BhY2l0eTogMTsgc3Ryb2tlOiByZ2IoODAsIDgwLCA4MCk7IiBkPSJNMjMzLjY2NjY2NjY2NjY2NjY2LDU5MywgNDM5LjY2NjY2NjY2NjY2NjYzLDUwMCIgbWFya2VyLWVuZD0iIiBjbGFzcz0ibGluayIvPjxwYXRoIHN0eWxlPSJzdHJva2Utd2lkdGg6IDAuNTsgc3Ryb2tlLW9wYWNpdHk6IDE7IHN0cm9rZTogcmdiKDgwLCA4MCwgODApOyIgZD0iTTIzMy42NjY2NjY2NjY2NjY2Niw1OTMsIDQzOS42NjY2NjY2NjY2NjY2Myw1NTkiIG1hcmtlci1lbmQ9IiIgY2xhc3M9ImxpbmsiLz48cGF0aCBzdHlsZT0ic3Ryb2tlLXdpZHRoOiAwLjU7IHN0cm9rZS1vcGFjaXR5OiAxOyBzdHJva2U6IHJnYig4MCwgODAsIDgwKTsiIGQ9Ik0yMzMuNjY2NjY2NjY2NjY2NjYsNTkzLCA0MzkuNjY2NjY2NjY2NjY2NjMsNjE4IiBtYXJrZXItZW5kPSIiIGNsYXNzPSJsaW5rIi8+PHBhdGggc3R5bGU9InN0cm9rZS13aWR0aDogMC41OyBzdHJva2Utb3BhY2l0eTogMTsgc3Ryb2tlOiByZ2IoODAsIDgwLCA4MCk7IiBkPSJNMjMzLjY2NjY2NjY2NjY2NjY2LDU5MywgNDM5LjY2NjY2NjY2NjY2NjYzLDY3NyIgbWFya2VyLWVuZD0iIiBjbGFzcz0ibGluayIvPjxwYXRoIHN0eWxlPSJzdHJva2Utd2lkdGg6IDAuNTsgc3Ryb2tlLW9wYWNpdHk6IDE7IHN0cm9rZTogcmdiKDgwLCA4MCwgODApOyIgZD0iTTIzMy42NjY2NjY2NjY2NjY2Niw1OTMsIDQzOS42NjY2NjY2NjY2NjY2Myw3MzYiIG1hcmtlci1lbmQ9IiIgY2xhc3M9ImxpbmsiLz48cGF0aCBzdHlsZT0ic3Ryb2tlLXdpZHRoOiAwLjU7IHN0cm9rZS1vcGFjaXR5OiAxOyBzdHJva2U6IHJnYig4MCwgODAsIDgwKTsiIGQ9Ik0yMzMuNjY2NjY2NjY2NjY2NjYsNTkzLCA0MzkuNjY2NjY2NjY2NjY2NjMsNzk1IiBtYXJrZXItZW5kPSIiIGNsYXNzPSJsaW5rIi8+PHBhdGggc3R5bGU9InN0cm9rZS13aWR0aDogMC41OyBzdHJva2Utb3BhY2l0eTogMTsgc3Ryb2tlOiByZ2IoODAsIDgwLCA4MCk7IiBkPSJNMjMzLjY2NjY2NjY2NjY2NjY2LDU5MywgNDM5LjY2NjY2NjY2NjY2NjYzLDg1NCIgbWFya2VyLWVuZD0iIiBjbGFzcz0ibGluayIvPjxwYXRoIHN0eWxlPSJzdHJva2Utd2lkdGg6IDAuNTsgc3Ryb2tlLW9wYWNpdHk6IDE7IHN0cm9rZTogcmdiKDgwLCA4MCwgODApOyIgZD0iTTIzMy42NjY2NjY2NjY2NjY2Niw1OTMsIDQzOS42NjY2NjY2NjY2NjY2Myw5MTMiIG1hcmtlci1lbmQ9IiIgY2xhc3M9ImxpbmsiLz48cGF0aCBzdHlsZT0ic3Ryb2tlLXdpZHRoOiAwLjU7IHN0cm9rZS1vcGFjaXR5OiAxOyBzdHJva2U6IHJnYig4MCwgODAsIDgwKTsiIGQ9Ik0yMzMuNjY2NjY2NjY2NjY2NjYsNjI4LCA0MzkuNjY2NjY2NjY2NjY2NjMsMjgiIG1hcmtlci1lbmQ9IiIgY2xhc3M9ImxpbmsiLz48cGF0aCBzdHlsZT0ic3Ryb2tlLXdpZHRoOiAwLjU7IHN0cm9rZS1vcGFjaXR5OiAxOyBzdHJva2U6IHJnYig4MCwgODAsIDgwKTsiIGQ9Ik0yMzMuNjY2NjY2NjY2NjY2NjYsNjI4LCA0MzkuNjY2NjY2NjY2NjY2NjMsODciIG1hcmtlci1lbmQ9IiIgY2xhc3M9ImxpbmsiLz48cGF0aCBzdHlsZT0ic3Ryb2tlLXdpZHRoOiAwLjU7IHN0cm9rZS1vcGFjaXR5OiAxOyBzdHJva2U6IHJnYig4MCwgODAsIDgwKTsiIGQ9Ik0yMzMuNjY2NjY2NjY2NjY2NjYsNjI4LCA0MzkuNjY2NjY2NjY2NjY2NjMsMTQ2IiBtYXJrZXItZW5kPSIiIGNsYXNzPSJsaW5rIi8+PHBhdGggc3R5bGU9InN0cm9rZS13aWR0aDogMC41OyBzdHJva2Utb3BhY2l0eTogMTsgc3Ryb2tlOiByZ2IoODAsIDgwLCA4MCk7IiBkPSJNMjMzLjY2NjY2NjY2NjY2NjY2LDYyOCwgNDM5LjY2NjY2NjY2NjY2NjYzLDIwNSIgbWFya2VyLWVuZD0iIiBjbGFzcz0ibGluayIvPjxwYXRoIHN0eWxlPSJzdHJva2Utd2lkdGg6IDAuNTsgc3Ryb2tlLW9wYWNpdHk6IDE7IHN0cm9rZTogcmdiKDgwLCA4MCwgODApOyIgZD0iTTIzMy42NjY2NjY2NjY2NjY2Niw2MjgsIDQzOS42NjY2NjY2NjY2NjY2MywyNjQiIG1hcmtlci1lbmQ9IiIgY2xhc3M9ImxpbmsiLz48cGF0aCBzdHlsZT0ic3Ryb2tlLXdpZHRoOiAwLjU7IHN0cm9rZS1vcGFjaXR5OiAxOyBzdHJva2U6IHJnYig4MCwgODAsIDgwKTsiIGQ9Ik0yMzMuNjY2NjY2NjY2NjY2NjYsNjI4LCA0MzkuNjY2NjY2NjY2NjY2NjMsMzIzIiBtYXJrZXItZW5kPSIiIGNsYXNzPSJsaW5rIi8+PHBhdGggc3R5bGU9InN0cm9rZS13aWR0aDogMC41OyBzdHJva2Utb3BhY2l0eTogMTsgc3Ryb2tlOiByZ2IoODAsIDgwLCA4MCk7IiBkPSJNMjMzLjY2NjY2NjY2NjY2NjY2LDYyOCwgNDM5LjY2NjY2NjY2NjY2NjYzLDM4MiIgbWFya2VyLWVuZD0iIiBjbGFzcz0ibGluayIvPjxwYXRoIHN0eWxlPSJzdHJva2Utd2lkdGg6IDAuNTsgc3Ryb2tlLW9wYWNpdHk6IDE7IHN0cm9rZTogcmdiKDgwLCA4MCwgODApOyIgZD0iTTIzMy42NjY2NjY2NjY2NjY2Niw2MjgsIDQzOS42NjY2NjY2NjY2NjY2Myw0NDEiIG1hcmtlci1lbmQ9IiIgY2xhc3M9ImxpbmsiLz48cGF0aCBzdHlsZT0ic3Ryb2tlLXdpZHRoOiAwLjU7IHN0cm9rZS1vcGFjaXR5OiAxOyBzdHJva2U6IHJnYig4MCwgODAsIDgwKTsiIGQ9Ik0yMzMuNjY2NjY2NjY2NjY2NjYsNjI4LCA0MzkuNjY2NjY2NjY2NjY2NjMsNTAwIiBtYXJrZXItZW5kPSIiIGNsYXNzPSJsaW5rIi8+PHBhdGggc3R5bGU9InN0cm9rZS13aWR0aDogMC41OyBzdHJva2Utb3BhY2l0eTogMTsgc3Ryb2tlOiByZ2IoODAsIDgwLCA4MCk7IiBkPSJNMjMzLjY2NjY2NjY2NjY2NjY2LDYyOCwgNDM5LjY2NjY2NjY2NjY2NjYzLDU1OSIgbWFya2VyLWVuZD0iIiBjbGFzcz0ibGluayIvPjxwYXRoIHN0eWxlPSJzdHJva2Utd2lkdGg6IDAuNTsgc3Ryb2tlLW9wYWNpdHk6IDE7IHN0cm9rZTogcmdiKDgwLCA4MCwgODApOyIgZD0iTTIzMy42NjY2NjY2NjY2NjY2Niw2MjgsIDQzOS42NjY2NjY2NjY2NjY2Myw2MTgiIG1hcmtlci1lbmQ9IiIgY2xhc3M9ImxpbmsiLz48cGF0aCBzdHlsZT0ic3Ryb2tlLXdpZHRoOiAwLjU7IHN0cm9rZS1vcGFjaXR5OiAxOyBzdHJva2U6IHJnYig4MCwgODAsIDgwKTsiIGQ9Ik0yMzMuNjY2NjY2NjY2NjY2NjYsNjI4LCA0MzkuNjY2NjY2NjY2NjY2NjMsNjc3IiBtYXJrZXItZW5kPSIiIGNsYXNzPSJsaW5rIi8+PHBhdGggc3R5bGU9InN0cm9rZS13aWR0aDogMC41OyBzdHJva2Utb3BhY2l0eTogMTsgc3Ryb2tlOiByZ2IoODAsIDgwLCA4MCk7IiBkPSJNMjMzLjY2NjY2NjY2NjY2NjY2LDYyOCwgNDM5LjY2NjY2NjY2NjY2NjYzLDczNiIgbWFya2VyLWVuZD0iIiBjbGFzcz0ibGluayIvPjxwYXRoIHN0eWxlPSJzdHJva2Utd2lkdGg6IDAuNTsgc3Ryb2tlLW9wYWNpdHk6IDE7IHN0cm9rZTogcmdiKDgwLCA4MCwgODApOyIgZD0iTTIzMy42NjY2NjY2NjY2NjY2Niw2MjgsIDQzOS42NjY2NjY2NjY2NjY2Myw3OTUiIG1hcmtlci1lbmQ9IiIgY2xhc3M9ImxpbmsiLz48cGF0aCBzdHlsZT0ic3Ryb2tlLXdpZHRoOiAwLjU7IHN0cm9rZS1vcGFjaXR5OiAxOyBzdHJva2U6IHJnYig4MCwgODAsIDgwKTsiIGQ9Ik0yMzMuNjY2NjY2NjY2NjY2NjYsNjI4LCA0MzkuNjY2NjY2NjY2NjY2NjMsODU0IiBtYXJrZXItZW5kPSIiIGNsYXNzPSJsaW5rIi8+PHBhdGggc3R5bGU9InN0cm9rZS13aWR0aDogMC41OyBzdHJva2Utb3BhY2l0eTogMTsgc3Ryb2tlOiByZ2IoODAsIDgwLCA4MCk7IiBkPSJNMjMzLjY2NjY2NjY2NjY2NjY2LDYyOCwgNDM5LjY2NjY2NjY2NjY2NjYzLDkxMyIgbWFya2VyLWVuZD0iIiBjbGFzcz0ibGluayIvPjxwYXRoIHN0eWxlPSJzdHJva2Utd2lkdGg6IDAuNTsgc3Ryb2tlLW9wYWNpdHk6IDE7IHN0cm9rZTogcmdiKDgwLCA4MCwgODApOyIgZD0iTTIzMy42NjY2NjY2NjY2NjY2Niw2NjMsIDQzOS42NjY2NjY2NjY2NjY2MywyOCIgbWFya2VyLWVuZD0iIiBjbGFzcz0ibGluayIvPjxwYXRoIHN0eWxlPSJzdHJva2Utd2lkdGg6IDAuNTsgc3Ryb2tlLW9wYWNpdHk6IDE7IHN0cm9rZTogcmdiKDgwLCA4MCwgODApOyIgZD0iTTIzMy42NjY2NjY2NjY2NjY2Niw2NjMsIDQzOS42NjY2NjY2NjY2NjY2Myw4NyIgbWFya2VyLWVuZD0iIiBjbGFzcz0ibGluayIvPjxwYXRoIHN0eWxlPSJzdHJva2Utd2lkdGg6IDAuNTsgc3Ryb2tlLW9wYWNpdHk6IDE7IHN0cm9rZTogcmdiKDgwLCA4MCwgODApOyIgZD0iTTIzMy42NjY2NjY2NjY2NjY2Niw2NjMsIDQzOS42NjY2NjY2NjY2NjY2MywxNDYiIG1hcmtlci1lbmQ9IiIgY2xhc3M9ImxpbmsiLz48cGF0aCBzdHlsZT0ic3Ryb2tlLXdpZHRoOiAwLjU7IHN0cm9rZS1vcGFjaXR5OiAxOyBzdHJva2U6IHJnYig4MCwgODAsIDgwKTsiIGQ9Ik0yMzMuNjY2NjY2NjY2NjY2NjYsNjYzLCA0MzkuNjY2NjY2NjY2NjY2NjMsMjA1IiBtYXJrZXItZW5kPSIiIGNsYXNzPSJsaW5rIi8+PHBhdGggc3R5bGU9InN0cm9rZS13aWR0aDogMC41OyBzdHJva2Utb3BhY2l0eTogMTsgc3Ryb2tlOiByZ2IoODAsIDgwLCA4MCk7IiBkPSJNMjMzLjY2NjY2NjY2NjY2NjY2LDY2MywgNDM5LjY2NjY2NjY2NjY2NjYzLDI2NCIgbWFya2VyLWVuZD0iIiBjbGFzcz0ibGluayIvPjxwYXRoIHN0eWxlPSJzdHJva2Utd2lkdGg6IDAuNTsgc3Ryb2tlLW9wYWNpdHk6IDE7IHN0cm9rZTogcmdiKDgwLCA4MCwgODApOyIgZD0iTTIzMy42NjY2NjY2NjY2NjY2Niw2NjMsIDQzOS42NjY2NjY2NjY2NjY2MywzMjMiIG1hcmtlci1lbmQ9IiIgY2xhc3M9ImxpbmsiLz48cGF0aCBzdHlsZT0ic3Ryb2tlLXdpZHRoOiAwLjU7IHN0cm9rZS1vcGFjaXR5OiAxOyBzdHJva2U6IHJnYig4MCwgODAsIDgwKTsiIGQ9Ik0yMzMuNjY2NjY2NjY2NjY2NjYsNjYzLCA0MzkuNjY2NjY2NjY2NjY2NjMsMzgyIiBtYXJrZXItZW5kPSIiIGNsYXNzPSJsaW5rIi8+PHBhdGggc3R5bGU9InN0cm9rZS13aWR0aDogMC41OyBzdHJva2Utb3BhY2l0eTogMTsgc3Ryb2tlOiByZ2IoODAsIDgwLCA4MCk7IiBkPSJNMjMzLjY2NjY2NjY2NjY2NjY2LDY2MywgNDM5LjY2NjY2NjY2NjY2NjYzLDQ0MSIgbWFya2VyLWVuZD0iIiBjbGFzcz0ibGluayIvPjxwYXRoIHN0eWxlPSJzdHJva2Utd2lkdGg6IDAuNTsgc3Ryb2tlLW9wYWNpdHk6IDE7IHN0cm9rZTogcmdiKDgwLCA4MCwgODApOyIgZD0iTTIzMy42NjY2NjY2NjY2NjY2Niw2NjMsIDQzOS42NjY2NjY2NjY2NjY2Myw1MDAiIG1hcmtlci1lbmQ9IiIgY2xhc3M9ImxpbmsiLz48cGF0aCBzdHlsZT0ic3Ryb2tlLXdpZHRoOiAwLjU7IHN0cm9rZS1vcGFjaXR5OiAxOyBzdHJva2U6IHJnYig4MCwgODAsIDgwKTsiIGQ9Ik0yMzMuNjY2NjY2NjY2NjY2NjYsNjYzLCA0MzkuNjY2NjY2NjY2NjY2NjMsNTU5IiBtYXJrZXItZW5kPSIiIGNsYXNzPSJsaW5rIi8+PHBhdGggc3R5bGU9InN0cm9rZS13aWR0aDogMC41OyBzdHJva2Utb3BhY2l0eTogMTsgc3Ryb2tlOiByZ2IoODAsIDgwLCA4MCk7IiBkPSJNMjMzLjY2NjY2NjY2NjY2NjY2LDY2MywgNDM5LjY2NjY2NjY2NjY2NjYzLDYxOCIgbWFya2VyLWVuZD0iIiBjbGFzcz0ibGluayIvPjxwYXRoIHN0eWxlPSJzdHJva2Utd2lkdGg6IDAuNTsgc3Ryb2tlLW9wYWNpdHk6IDE7IHN0cm9rZTogcmdiKDgwLCA4MCwgODApOyIgZD0iTTIzMy42NjY2NjY2NjY2NjY2Niw2NjMsIDQzOS42NjY2NjY2NjY2NjY2Myw2NzciIG1hcmtlci1lbmQ9IiIgY2xhc3M9ImxpbmsiLz48cGF0aCBzdHlsZT0ic3Ryb2tlLXdpZHRoOiAwLjU7IHN0cm9rZS1vcGFjaXR5OiAxOyBzdHJva2U6IHJnYig4MCwgODAsIDgwKTsiIGQ9Ik0yMzMuNjY2NjY2NjY2NjY2NjYsNjYzLCA0MzkuNjY2NjY2NjY2NjY2NjMsNzM2IiBtYXJrZXItZW5kPSIiIGNsYXNzPSJsaW5rIi8+PHBhdGggc3R5bGU9InN0cm9rZS13aWR0aDogMC41OyBzdHJva2Utb3BhY2l0eTogMTsgc3Ryb2tlOiByZ2IoODAsIDgwLCA4MCk7IiBkPSJNMjMzLjY2NjY2NjY2NjY2NjY2LDY2MywgNDM5LjY2NjY2NjY2NjY2NjYzLDc5NSIgbWFya2VyLWVuZD0iIiBjbGFzcz0ibGluayIvPjxwYXRoIHN0eWxlPSJzdHJva2Utd2lkdGg6IDAuNTsgc3Ryb2tlLW9wYWNpdHk6IDE7IHN0cm9rZTogcmdiKDgwLCA4MCwgODApOyIgZD0iTTIzMy42NjY2NjY2NjY2NjY2Niw2NjMsIDQzOS42NjY2NjY2NjY2NjY2Myw4NTQiIG1hcmtlci1lbmQ9IiIgY2xhc3M9ImxpbmsiLz48cGF0aCBzdHlsZT0ic3Ryb2tlLXdpZHRoOiAwLjU7IHN0cm9rZS1vcGFjaXR5OiAxOyBzdHJva2U6IHJnYig4MCwgODAsIDgwKTsiIGQ9Ik0yMzMuNjY2NjY2NjY2NjY2NjYsNjYzLCA0MzkuNjY2NjY2NjY2NjY2NjMsOTEzIiBtYXJrZXItZW5kPSIiIGNsYXNzPSJsaW5rIi8+PHBhdGggc3R5bGU9InN0cm9rZS13aWR0aDogMC41OyBzdHJva2Utb3BhY2l0eTogMTsgc3Ryb2tlOiByZ2IoODAsIDgwLCA4MCk7IiBkPSJNMjMzLjY2NjY2NjY2NjY2NjY2LDY5OCwgNDM5LjY2NjY2NjY2NjY2NjYzLDI4IiBtYXJrZXItZW5kPSIiIGNsYXNzPSJsaW5rIi8+PHBhdGggc3R5bGU9InN0cm9rZS13aWR0aDogMC41OyBzdHJva2Utb3BhY2l0eTogMTsgc3Ryb2tlOiByZ2IoODAsIDgwLCA4MCk7IiBkPSJNMjMzLjY2NjY2NjY2NjY2NjY2LDY5OCwgNDM5LjY2NjY2NjY2NjY2NjYzLDg3IiBtYXJrZXItZW5kPSIiIGNsYXNzPSJsaW5rIi8+PHBhdGggc3R5bGU9InN0cm9rZS13aWR0aDogMC41OyBzdHJva2Utb3BhY2l0eTogMTsgc3Ryb2tlOiByZ2IoODAsIDgwLCA4MCk7IiBkPSJNMjMzLjY2NjY2NjY2NjY2NjY2LDY5OCwgNDM5LjY2NjY2NjY2NjY2NjYzLDE0NiIgbWFya2VyLWVuZD0iIiBjbGFzcz0ibGluayIvPjxwYXRoIHN0eWxlPSJzdHJva2Utd2lkdGg6IDAuNTsgc3Ryb2tlLW9wYWNpdHk6IDE7IHN0cm9rZTogcmdiKDgwLCA4MCwgODApOyIgZD0iTTIzMy42NjY2NjY2NjY2NjY2Niw2OTgsIDQzOS42NjY2NjY2NjY2NjY2MywyMDUiIG1hcmtlci1lbmQ9IiIgY2xhc3M9ImxpbmsiLz48cGF0aCBzdHlsZT0ic3Ryb2tlLXdpZHRoOiAwLjU7IHN0cm9rZS1vcGFjaXR5OiAxOyBzdHJva2U6IHJnYig4MCwgODAsIDgwKTsiIGQ9Ik0yMzMuNjY2NjY2NjY2NjY2NjYsNjk4LCA0MzkuNjY2NjY2NjY2NjY2NjMsMjY0IiBtYXJrZXItZW5kPSIiIGNsYXNzPSJsaW5rIi8+PHBhdGggc3R5bGU9InN0cm9rZS13aWR0aDogMC41OyBzdHJva2Utb3BhY2l0eTogMTsgc3Ryb2tlOiByZ2IoODAsIDgwLCA4MCk7IiBkPSJNMjMzLjY2NjY2NjY2NjY2NjY2LDY5OCwgNDM5LjY2NjY2NjY2NjY2NjYzLDMyMyIgbWFya2VyLWVuZD0iIiBjbGFzcz0ibGluayIvPjxwYXRoIHN0eWxlPSJzdHJva2Utd2lkdGg6IDAuNTsgc3Ryb2tlLW9wYWNpdHk6IDE7IHN0cm9rZTogcmdiKDgwLCA4MCwgODApOyIgZD0iTTIzMy42NjY2NjY2NjY2NjY2Niw2OTgsIDQzOS42NjY2NjY2NjY2NjY2MywzODIiIG1hcmtlci1lbmQ9IiIgY2xhc3M9ImxpbmsiLz48cGF0aCBzdHlsZT0ic3Ryb2tlLXdpZHRoOiAwLjU7IHN0cm9rZS1vcGFjaXR5OiAxOyBzdHJva2U6IHJnYig4MCwgODAsIDgwKTsiIGQ9Ik0yMzMuNjY2NjY2NjY2NjY2NjYsNjk4LCA0MzkuNjY2NjY2NjY2NjY2NjMsNDQxIiBtYXJrZXItZW5kPSIiIGNsYXNzPSJsaW5rIi8+PHBhdGggc3R5bGU9InN0cm9rZS13aWR0aDogMC41OyBzdHJva2Utb3BhY2l0eTogMTsgc3Ryb2tlOiByZ2IoODAsIDgwLCA4MCk7IiBkPSJNMjMzLjY2NjY2NjY2NjY2NjY2LDY5OCwgNDM5LjY2NjY2NjY2NjY2NjYzLDUwMCIgbWFya2VyLWVuZD0iIiBjbGFzcz0ibGluayIvPjxwYXRoIHN0eWxlPSJzdHJva2Utd2lkdGg6IDAuNTsgc3Ryb2tlLW9wYWNpdHk6IDE7IHN0cm9rZTogcmdiKDgwLCA4MCwgODApOyIgZD0iTTIzMy42NjY2NjY2NjY2NjY2Niw2OTgsIDQzOS42NjY2NjY2NjY2NjY2Myw1NTkiIG1hcmtlci1lbmQ9IiIgY2xhc3M9ImxpbmsiLz48cGF0aCBzdHlsZT0ic3Ryb2tlLXdpZHRoOiAwLjU7IHN0cm9rZS1vcGFjaXR5OiAxOyBzdHJva2U6IHJnYig4MCwgODAsIDgwKTsiIGQ9Ik0yMzMuNjY2NjY2NjY2NjY2NjYsNjk4LCA0MzkuNjY2NjY2NjY2NjY2NjMsNjE4IiBtYXJrZXItZW5kPSIiIGNsYXNzPSJsaW5rIi8+PHBhdGggc3R5bGU9InN0cm9rZS13aWR0aDogMC41OyBzdHJva2Utb3BhY2l0eTogMTsgc3Ryb2tlOiByZ2IoODAsIDgwLCA4MCk7IiBkPSJNMjMzLjY2NjY2NjY2NjY2NjY2LDY5OCwgNDM5LjY2NjY2NjY2NjY2NjYzLDY3NyIgbWFya2VyLWVuZD0iIiBjbGFzcz0ibGluayIvPjxwYXRoIHN0eWxlPSJzdHJva2Utd2lkdGg6IDAuNTsgc3Ryb2tlLW9wYWNpdHk6IDE7IHN0cm9rZTogcmdiKDgwLCA4MCwgODApOyIgZD0iTTIzMy42NjY2NjY2NjY2NjY2Niw2OTgsIDQzOS42NjY2NjY2NjY2NjY2Myw3MzYiIG1hcmtlci1lbmQ9IiIgY2xhc3M9ImxpbmsiLz48cGF0aCBzdHlsZT0ic3Ryb2tlLXdpZHRoOiAwLjU7IHN0cm9rZS1vcGFjaXR5OiAxOyBzdHJva2U6IHJnYig4MCwgODAsIDgwKTsiIGQ9Ik0yMzMuNjY2NjY2NjY2NjY2NjYsNjk4LCA0MzkuNjY2NjY2NjY2NjY2NjMsNzk1IiBtYXJrZXItZW5kPSIiIGNsYXNzPSJsaW5rIi8+PHBhdGggc3R5bGU9InN0cm9rZS13aWR0aDogMC41OyBzdHJva2Utb3BhY2l0eTogMTsgc3Ryb2tlOiByZ2IoODAsIDgwLCA4MCk7IiBkPSJNMjMzLjY2NjY2NjY2NjY2NjY2LDY5OCwgNDM5LjY2NjY2NjY2NjY2NjYzLDg1NCIgbWFya2VyLWVuZD0iIiBjbGFzcz0ibGluayIvPjxwYXRoIHN0eWxlPSJzdHJva2Utd2lkdGg6IDAuNTsgc3Ryb2tlLW9wYWNpdHk6IDE7IHN0cm9rZTogcmdiKDgwLCA4MCwgODApOyIgZD0iTTIzMy42NjY2NjY2NjY2NjY2Niw2OTgsIDQzOS42NjY2NjY2NjY2NjY2Myw5MTMiIG1hcmtlci1lbmQ9IiIgY2xhc3M9ImxpbmsiLz48cGF0aCBzdHlsZT0ic3Ryb2tlLXdpZHRoOiAwLjU7IHN0cm9rZS1vcGFjaXR5OiAxOyBzdHJva2U6IHJnYig4MCwgODAsIDgwKTsiIGQ9Ik0yMzMuNjY2NjY2NjY2NjY2NjYsNzMzLCA0MzkuNjY2NjY2NjY2NjY2NjMsMjgiIG1hcmtlci1lbmQ9IiIgY2xhc3M9ImxpbmsiLz48cGF0aCBzdHlsZT0ic3Ryb2tlLXdpZHRoOiAwLjU7IHN0cm9rZS1vcGFjaXR5OiAxOyBzdHJva2U6IHJnYig4MCwgODAsIDgwKTsiIGQ9Ik0yMzMuNjY2NjY2NjY2NjY2NjYsNzMzLCA0MzkuNjY2NjY2NjY2NjY2NjMsODciIG1hcmtlci1lbmQ9IiIgY2xhc3M9ImxpbmsiLz48cGF0aCBzdHlsZT0ic3Ryb2tlLXdpZHRoOiAwLjU7IHN0cm9rZS1vcGFjaXR5OiAxOyBzdHJva2U6IHJnYig4MCwgODAsIDgwKTsiIGQ9Ik0yMzMuNjY2NjY2NjY2NjY2NjYsNzMzLCA0MzkuNjY2NjY2NjY2NjY2NjMsMTQ2IiBtYXJrZXItZW5kPSIiIGNsYXNzPSJsaW5rIi8+PHBhdGggc3R5bGU9InN0cm9rZS13aWR0aDogMC41OyBzdHJva2Utb3BhY2l0eTogMTsgc3Ryb2tlOiByZ2IoODAsIDgwLCA4MCk7IiBkPSJNMjMzLjY2NjY2NjY2NjY2NjY2LDczMywgNDM5LjY2NjY2NjY2NjY2NjYzLDIwNSIgbWFya2VyLWVuZD0iIiBjbGFzcz0ibGluayIvPjxwYXRoIHN0eWxlPSJzdHJva2Utd2lkdGg6IDAuNTsgc3Ryb2tlLW9wYWNpdHk6IDE7IHN0cm9rZTogcmdiKDgwLCA4MCwgODApOyIgZD0iTTIzMy42NjY2NjY2NjY2NjY2Niw3MzMsIDQzOS42NjY2NjY2NjY2NjY2MywyNjQiIG1hcmtlci1lbmQ9IiIgY2xhc3M9ImxpbmsiLz48cGF0aCBzdHlsZT0ic3Ryb2tlLXdpZHRoOiAwLjU7IHN0cm9rZS1vcGFjaXR5OiAxOyBzdHJva2U6IHJnYig4MCwgODAsIDgwKTsiIGQ9Ik0yMzMuNjY2NjY2NjY2NjY2NjYsNzMzLCA0MzkuNjY2NjY2NjY2NjY2NjMsMzIzIiBtYXJrZXItZW5kPSIiIGNsYXNzPSJsaW5rIi8+PHBhdGggc3R5bGU9InN0cm9rZS13aWR0aDogMC41OyBzdHJva2Utb3BhY2l0eTogMTsgc3Ryb2tlOiByZ2IoODAsIDgwLCA4MCk7IiBkPSJNMjMzLjY2NjY2NjY2NjY2NjY2LDczMywgNDM5LjY2NjY2NjY2NjY2NjYzLDM4MiIgbWFya2VyLWVuZD0iIiBjbGFzcz0ibGluayIvPjxwYXRoIHN0eWxlPSJzdHJva2Utd2lkdGg6IDAuNTsgc3Ryb2tlLW9wYWNpdHk6IDE7IHN0cm9rZTogcmdiKDgwLCA4MCwgODApOyIgZD0iTTIzMy42NjY2NjY2NjY2NjY2Niw3MzMsIDQzOS42NjY2NjY2NjY2NjY2Myw0NDEiIG1hcmtlci1lbmQ9IiIgY2xhc3M9ImxpbmsiLz48cGF0aCBzdHlsZT0ic3Ryb2tlLXdpZHRoOiAwLjU7IHN0cm9rZS1vcGFjaXR5OiAxOyBzdHJva2U6IHJnYig4MCwgODAsIDgwKTsiIGQ9Ik0yMzMuNjY2NjY2NjY2NjY2NjYsNzMzLCA0MzkuNjY2NjY2NjY2NjY2NjMsNTAwIiBtYXJrZXItZW5kPSIiIGNsYXNzPSJsaW5rIi8+PHBhdGggc3R5bGU9InN0cm9rZS13aWR0aDogMC41OyBzdHJva2Utb3BhY2l0eTogMTsgc3Ryb2tlOiByZ2IoODAsIDgwLCA4MCk7IiBkPSJNMjMzLjY2NjY2NjY2NjY2NjY2LDczMywgNDM5LjY2NjY2NjY2NjY2NjYzLDU1OSIgbWFya2VyLWVuZD0iIiBjbGFzcz0ibGluayIvPjxwYXRoIHN0eWxlPSJzdHJva2Utd2lkdGg6IDAuNTsgc3Ryb2tlLW9wYWNpdHk6IDE7IHN0cm9rZTogcmdiKDgwLCA4MCwgODApOyIgZD0iTTIzMy42NjY2NjY2NjY2NjY2Niw3MzMsIDQzOS42NjY2NjY2NjY2NjY2Myw2MTgiIG1hcmtlci1lbmQ9IiIgY2xhc3M9ImxpbmsiLz48cGF0aCBzdHlsZT0ic3Ryb2tlLXdpZHRoOiAwLjU7IHN0cm9rZS1vcGFjaXR5OiAxOyBzdHJva2U6IHJnYig4MCwgODAsIDgwKTsiIGQ9Ik0yMzMuNjY2NjY2NjY2NjY2NjYsNzMzLCA0MzkuNjY2NjY2NjY2NjY2NjMsNjc3IiBtYXJrZXItZW5kPSIiIGNsYXNzPSJsaW5rIi8+PHBhdGggc3R5bGU9InN0cm9rZS13aWR0aDogMC41OyBzdHJva2Utb3BhY2l0eTogMTsgc3Ryb2tlOiByZ2IoODAsIDgwLCA4MCk7IiBkPSJNMjMzLjY2NjY2NjY2NjY2NjY2LDczMywgNDM5LjY2NjY2NjY2NjY2NjYzLDczNiIgbWFya2VyLWVuZD0iIiBjbGFzcz0ibGluayIvPjxwYXRoIHN0eWxlPSJzdHJva2Utd2lkdGg6IDAuNTsgc3Ryb2tlLW9wYWNpdHk6IDE7IHN0cm9rZTogcmdiKDgwLCA4MCwgODApOyIgZD0iTTIzMy42NjY2NjY2NjY2NjY2Niw3MzMsIDQzOS42NjY2NjY2NjY2NjY2Myw3OTUiIG1hcmtlci1lbmQ9IiIgY2xhc3M9ImxpbmsiLz48cGF0aCBzdHlsZT0ic3Ryb2tlLXdpZHRoOiAwLjU7IHN0cm9rZS1vcGFjaXR5OiAxOyBzdHJva2U6IHJnYig4MCwgODAsIDgwKTsiIGQ9Ik0yMzMuNjY2NjY2NjY2NjY2NjYsNzMzLCA0MzkuNjY2NjY2NjY2NjY2NjMsODU0IiBtYXJrZXItZW5kPSIiIGNsYXNzPSJsaW5rIi8+PHBhdGggc3R5bGU9InN0cm9rZS13aWR0aDogMC41OyBzdHJva2Utb3BhY2l0eTogMTsgc3Ryb2tlOiByZ2IoODAsIDgwLCA4MCk7IiBkPSJNMjMzLjY2NjY2NjY2NjY2NjY2LDczMywgNDM5LjY2NjY2NjY2NjY2NjYzLDkxMyIgbWFya2VyLWVuZD0iIiBjbGFzcz0ibGluayIvPjxwYXRoIHN0eWxlPSJzdHJva2Utd2lkdGg6IDAuNTsgc3Ryb2tlLW9wYWNpdHk6IDE7IHN0cm9rZTogcmdiKDgwLCA4MCwgODApOyIgZD0iTTY0NS42NjY2NjY2NjY2NjY2LDM1LjUsIDg1MS42NjY2NjY2NjY2NjY2LDUyNy41IiBtYXJrZXItZW5kPSIiIGNsYXNzPSJsaW5rIi8+PHBhdGggc3R5bGU9InN0cm9rZS13aWR0aDogMC41OyBzdHJva2Utb3BhY2l0eTogMTsgc3Ryb2tlOiByZ2IoODAsIDgwLCA4MCk7IiBkPSJNNjQ1LjY2NjY2NjY2NjY2NjYsMzUuNSwgODUxLjY2NjY2NjY2NjY2NjYsNTY1LjUiIG1hcmtlci1lbmQ9IiIgY2xhc3M9ImxpbmsiLz48cGF0aCBzdHlsZT0ic3Ryb2tlLXdpZHRoOiAwLjU7IHN0cm9rZS1vcGFjaXR5OiAxOyBzdHJva2U6IHJnYig4MCwgODAsIDgwKTsiIGQ9Ik02NDUuNjY2NjY2NjY2NjY2NiwzNS41LCA4NTEuNjY2NjY2NjY2NjY2Niw2MDMuNSIgbWFya2VyLWVuZD0iIiBjbGFzcz0ibGluayIvPjxwYXRoIHN0eWxlPSJzdHJva2Utd2lkdGg6IDAuNTsgc3Ryb2tlLW9wYWNpdHk6IDE7IHN0cm9rZTogcmdiKDgwLCA4MCwgODApOyIgZD0iTTY0NS42NjY2NjY2NjY2NjY2LDM1LjUsIDg1MS42NjY2NjY2NjY2NjY2LDY0MS41IiBtYXJrZXItZW5kPSIiIGNsYXNzPSJsaW5rIi8+PHBhdGggc3R5bGU9InN0cm9rZS13aWR0aDogMC41OyBzdHJva2Utb3BhY2l0eTogMTsgc3Ryb2tlOiByZ2IoODAsIDgwLCA4MCk7IiBkPSJNNjQ1LjY2NjY2NjY2NjY2NjYsMzUuNSwgODUxLjY2NjY2NjY2NjY2NjYsNjc5LjUiIG1hcmtlci1lbmQ9IiIgY2xhc3M9ImxpbmsiLz48cGF0aCBzdHlsZT0ic3Ryb2tlLXdpZHRoOiAwLjU7IHN0cm9rZS1vcGFjaXR5OiAxOyBzdHJva2U6IHJnYig4MCwgODAsIDgwKTsiIGQ9Ik02NDUuNjY2NjY2NjY2NjY2NiwzNS41LCA4NTEuNjY2NjY2NjY2NjY2Niw3MTcuNSIgbWFya2VyLWVuZD0iIiBjbGFzcz0ibGluayIvPjxwYXRoIHN0eWxlPSJzdHJva2Utd2lkdGg6IDAuNTsgc3Ryb2tlLW9wYWNpdHk6IDE7IHN0cm9rZTogcmdiKDgwLCA4MCwgODApOyIgZD0iTTY0NS42NjY2NjY2NjY2NjY2LDM1LjUsIDg1MS42NjY2NjY2NjY2NjY2LDc1NS41IiBtYXJrZXItZW5kPSIiIGNsYXNzPSJsaW5rIi8+PHBhdGggc3R5bGU9InN0cm9rZS13aWR0aDogMC41OyBzdHJva2Utb3BhY2l0eTogMTsgc3Ryb2tlOiByZ2IoODAsIDgwLCA4MCk7IiBkPSJNNjQ1LjY2NjY2NjY2NjY2NjYsOTMuNSwgODUxLjY2NjY2NjY2NjY2NjYsNTI3LjUiIG1hcmtlci1lbmQ9IiIgY2xhc3M9ImxpbmsiLz48cGF0aCBzdHlsZT0ic3Ryb2tlLXdpZHRoOiAwLjU7IHN0cm9rZS1vcGFjaXR5OiAxOyBzdHJva2U6IHJnYig4MCwgODAsIDgwKTsiIGQ9Ik02NDUuNjY2NjY2NjY2NjY2Niw5My41LCA4NTEuNjY2NjY2NjY2NjY2Niw1NjUuNSIgbWFya2VyLWVuZD0iIiBjbGFzcz0ibGluayIvPjxwYXRoIHN0eWxlPSJzdHJva2Utd2lkdGg6IDAuNTsgc3Ryb2tlLW9wYWNpdHk6IDE7IHN0cm9rZTogcmdiKDgwLCA4MCwgODApOyIgZD0iTTY0NS42NjY2NjY2NjY2NjY2LDkzLjUsIDg1MS42NjY2NjY2NjY2NjY2LDYwMy41IiBtYXJrZXItZW5kPSIiIGNsYXNzPSJsaW5rIi8+PHBhdGggc3R5bGU9InN0cm9rZS13aWR0aDogMC41OyBzdHJva2Utb3BhY2l0eTogMTsgc3Ryb2tlOiByZ2IoODAsIDgwLCA4MCk7IiBkPSJNNjQ1LjY2NjY2NjY2NjY2NjYsOTMuNSwgODUxLjY2NjY2NjY2NjY2NjYsNjQxLjUiIG1hcmtlci1lbmQ9IiIgY2xhc3M9ImxpbmsiLz48cGF0aCBzdHlsZT0ic3Ryb2tlLXdpZHRoOiAwLjU7IHN0cm9rZS1vcGFjaXR5OiAxOyBzdHJva2U6IHJnYig4MCwgODAsIDgwKTsiIGQ9Ik02NDUuNjY2NjY2NjY2NjY2Niw5My41LCA4NTEuNjY2NjY2NjY2NjY2Niw2NzkuNSIgbWFya2VyLWVuZD0iIiBjbGFzcz0ibGluayIvPjxwYXRoIHN0eWxlPSJzdHJva2Utd2lkdGg6IDAuNTsgc3Ryb2tlLW9wYWNpdHk6IDE7IHN0cm9rZTogcmdiKDgwLCA4MCwgODApOyIgZD0iTTY0NS42NjY2NjY2NjY2NjY2LDkzLjUsIDg1MS42NjY2NjY2NjY2NjY2LDcxNy41IiBtYXJrZXItZW5kPSIiIGNsYXNzPSJsaW5rIi8+PHBhdGggc3R5bGU9InN0cm9rZS13aWR0aDogMC41OyBzdHJva2Utb3BhY2l0eTogMTsgc3Ryb2tlOiByZ2IoODAsIDgwLCA4MCk7IiBkPSJNNjQ1LjY2NjY2NjY2NjY2NjYsOTMuNSwgODUxLjY2NjY2NjY2NjY2NjYsNzU1LjUiIG1hcmtlci1lbmQ9IiIgY2xhc3M9ImxpbmsiLz48cGF0aCBzdHlsZT0ic3Ryb2tlLXdpZHRoOiAwLjU7IHN0cm9rZS1vcGFjaXR5OiAxOyBzdHJva2U6IHJnYig4MCwgODAsIDgwKTsiIGQ9Ik02NDUuNjY2NjY2NjY2NjY2NiwxNTEuNSwgODUxLjY2NjY2NjY2NjY2NjYsNTI3LjUiIG1hcmtlci1lbmQ9IiIgY2xhc3M9ImxpbmsiLz48cGF0aCBzdHlsZT0ic3Ryb2tlLXdpZHRoOiAwLjU7IHN0cm9rZS1vcGFjaXR5OiAxOyBzdHJva2U6IHJnYig4MCwgODAsIDgwKTsiIGQ9Ik02NDUuNjY2NjY2NjY2NjY2NiwxNTEuNSwgODUxLjY2NjY2NjY2NjY2NjYsNTY1LjUiIG1hcmtlci1lbmQ9IiIgY2xhc3M9ImxpbmsiLz48cGF0aCBzdHlsZT0ic3Ryb2tlLXdpZHRoOiAwLjU7IHN0cm9rZS1vcGFjaXR5OiAxOyBzdHJva2U6IHJnYig4MCwgODAsIDgwKTsiIGQ9Ik02NDUuNjY2NjY2NjY2NjY2NiwxNTEuNSwgODUxLjY2NjY2NjY2NjY2NjYsNjAzLjUiIG1hcmtlci1lbmQ9IiIgY2xhc3M9ImxpbmsiLz48cGF0aCBzdHlsZT0ic3Ryb2tlLXdpZHRoOiAwLjU7IHN0cm9rZS1vcGFjaXR5OiAxOyBzdHJva2U6IHJnYig4MCwgODAsIDgwKTsiIGQ9Ik02NDUuNjY2NjY2NjY2NjY2NiwxNTEuNSwgODUxLjY2NjY2NjY2NjY2NjYsNjQxLjUiIG1hcmtlci1lbmQ9IiIgY2xhc3M9ImxpbmsiLz48cGF0aCBzdHlsZT0ic3Ryb2tlLXdpZHRoOiAwLjU7IHN0cm9rZS1vcGFjaXR5OiAxOyBzdHJva2U6IHJnYig4MCwgODAsIDgwKTsiIGQ9Ik02NDUuNjY2NjY2NjY2NjY2NiwxNTEuNSwgODUxLjY2NjY2NjY2NjY2NjYsNjc5LjUiIG1hcmtlci1lbmQ9IiIgY2xhc3M9ImxpbmsiLz48cGF0aCBzdHlsZT0ic3Ryb2tlLXdpZHRoOiAwLjU7IHN0cm9rZS1vcGFjaXR5OiAxOyBzdHJva2U6IHJnYig4MCwgODAsIDgwKTsiIGQ9Ik02NDUuNjY2NjY2NjY2NjY2NiwxNTEuNSwgODUxLjY2NjY2NjY2NjY2NjYsNzE3LjUiIG1hcmtlci1lbmQ9IiIgY2xhc3M9ImxpbmsiLz48cGF0aCBzdHlsZT0ic3Ryb2tlLXdpZHRoOiAwLjU7IHN0cm9rZS1vcGFjaXR5OiAxOyBzdHJva2U6IHJnYig4MCwgODAsIDgwKTsiIGQ9Ik02NDUuNjY2NjY2NjY2NjY2NiwxNTEuNSwgODUxLjY2NjY2NjY2NjY2NjYsNzU1LjUiIG1hcmtlci1lbmQ9IiIgY2xhc3M9ImxpbmsiLz48cGF0aCBzdHlsZT0ic3Ryb2tlLXdpZHRoOiAwLjU7IHN0cm9rZS1vcGFjaXR5OiAxOyBzdHJva2U6IHJnYig4MCwgODAsIDgwKTsiIGQ9Ik02NDUuNjY2NjY2NjY2NjY2NiwyMDkuNSwgODUxLjY2NjY2NjY2NjY2NjYsNTI3LjUiIG1hcmtlci1lbmQ9IiIgY2xhc3M9ImxpbmsiLz48cGF0aCBzdHlsZT0ic3Ryb2tlLXdpZHRoOiAwLjU7IHN0cm9rZS1vcGFjaXR5OiAxOyBzdHJva2U6IHJnYig4MCwgODAsIDgwKTsiIGQ9Ik02NDUuNjY2NjY2NjY2NjY2NiwyMDkuNSwgODUxLjY2NjY2NjY2NjY2NjYsNTY1LjUiIG1hcmtlci1lbmQ9IiIgY2xhc3M9ImxpbmsiLz48cGF0aCBzdHlsZT0ic3Ryb2tlLXdpZHRoOiAwLjU7IHN0cm9rZS1vcGFjaXR5OiAxOyBzdHJva2U6IHJnYig4MCwgODAsIDgwKTsiIGQ9Ik02NDUuNjY2NjY2NjY2NjY2NiwyMDkuNSwgODUxLjY2NjY2NjY2NjY2NjYsNjAzLjUiIG1hcmtlci1lbmQ9IiIgY2xhc3M9ImxpbmsiLz48cGF0aCBzdHlsZT0ic3Ryb2tlLXdpZHRoOiAwLjU7IHN0cm9rZS1vcGFjaXR5OiAxOyBzdHJva2U6IHJnYig4MCwgODAsIDgwKTsiIGQ9Ik02NDUuNjY2NjY2NjY2NjY2NiwyMDkuNSwgODUxLjY2NjY2NjY2NjY2NjYsNjQxLjUiIG1hcmtlci1lbmQ9IiIgY2xhc3M9ImxpbmsiLz48cGF0aCBzdHlsZT0ic3Ryb2tlLXdpZHRoOiAwLjU7IHN0cm9rZS1vcGFjaXR5OiAxOyBzdHJva2U6IHJnYig4MCwgODAsIDgwKTsiIGQ9Ik02NDUuNjY2NjY2NjY2NjY2NiwyMDkuNSwgODUxLjY2NjY2NjY2NjY2NjYsNjc5LjUiIG1hcmtlci1lbmQ9IiIgY2xhc3M9ImxpbmsiLz48cGF0aCBzdHlsZT0ic3Ryb2tlLXdpZHRoOiAwLjU7IHN0cm9rZS1vcGFjaXR5OiAxOyBzdHJva2U6IHJnYig4MCwgODAsIDgwKTsiIGQ9Ik02NDUuNjY2NjY2NjY2NjY2NiwyMDkuNSwgODUxLjY2NjY2NjY2NjY2NjYsNzE3LjUiIG1hcmtlci1lbmQ9IiIgY2xhc3M9ImxpbmsiLz48cGF0aCBzdHlsZT0ic3Ryb2tlLXdpZHRoOiAwLjU7IHN0cm9rZS1vcGFjaXR5OiAxOyBzdHJva2U6IHJnYig4MCwgODAsIDgwKTsiIGQ9Ik02NDUuNjY2NjY2NjY2NjY2NiwyMDkuNSwgODUxLjY2NjY2NjY2NjY2NjYsNzU1LjUiIG1hcmtlci1lbmQ9IiIgY2xhc3M9ImxpbmsiLz48cGF0aCBzdHlsZT0ic3Ryb2tlLXdpZHRoOiAwLjU7IHN0cm9rZS1vcGFjaXR5OiAxOyBzdHJva2U6IHJnYig4MCwgODAsIDgwKTsiIGQ9Ik02NDUuNjY2NjY2NjY2NjY2NiwyNjcuNSwgODUxLjY2NjY2NjY2NjY2NjYsNTI3LjUiIG1hcmtlci1lbmQ9IiIgY2xhc3M9ImxpbmsiLz48cGF0aCBzdHlsZT0ic3Ryb2tlLXdpZHRoOiAwLjU7IHN0cm9rZS1vcGFjaXR5OiAxOyBzdHJva2U6IHJnYig4MCwgODAsIDgwKTsiIGQ9Ik02NDUuNjY2NjY2NjY2NjY2NiwyNjcuNSwgODUxLjY2NjY2NjY2NjY2NjYsNTY1LjUiIG1hcmtlci1lbmQ9IiIgY2xhc3M9ImxpbmsiLz48cGF0aCBzdHlsZT0ic3Ryb2tlLXdpZHRoOiAwLjU7IHN0cm9rZS1vcGFjaXR5OiAxOyBzdHJva2U6IHJnYig4MCwgODAsIDgwKTsiIGQ9Ik02NDUuNjY2NjY2NjY2NjY2NiwyNjcuNSwgODUxLjY2NjY2NjY2NjY2NjYsNjAzLjUiIG1hcmtlci1lbmQ9IiIgY2xhc3M9ImxpbmsiLz48cGF0aCBzdHlsZT0ic3Ryb2tlLXdpZHRoOiAwLjU7IHN0cm9rZS1vcGFjaXR5OiAxOyBzdHJva2U6IHJnYig4MCwgODAsIDgwKTsiIGQ9Ik02NDUuNjY2NjY2NjY2NjY2NiwyNjcuNSwgODUxLjY2NjY2NjY2NjY2NjYsNjQxLjUiIG1hcmtlci1lbmQ9IiIgY2xhc3M9ImxpbmsiLz48cGF0aCBzdHlsZT0ic3Ryb2tlLXdpZHRoOiAwLjU7IHN0cm9rZS1vcGFjaXR5OiAxOyBzdHJva2U6IHJnYig4MCwgODAsIDgwKTsiIGQ9Ik02NDUuNjY2NjY2NjY2NjY2NiwyNjcuNSwgODUxLjY2NjY2NjY2NjY2NjYsNjc5LjUiIG1hcmtlci1lbmQ9IiIgY2xhc3M9ImxpbmsiLz48cGF0aCBzdHlsZT0ic3Ryb2tlLXdpZHRoOiAwLjU7IHN0cm9rZS1vcGFjaXR5OiAxOyBzdHJva2U6IHJnYig4MCwgODAsIDgwKTsiIGQ9Ik02NDUuNjY2NjY2NjY2NjY2NiwyNjcuNSwgODUxLjY2NjY2NjY2NjY2NjYsNzE3LjUiIG1hcmtlci1lbmQ9IiIgY2xhc3M9ImxpbmsiLz48cGF0aCBzdHlsZT0ic3Ryb2tlLXdpZHRoOiAwLjU7IHN0cm9rZS1vcGFjaXR5OiAxOyBzdHJva2U6IHJnYig4MCwgODAsIDgwKTsiIGQ9Ik02NDUuNjY2NjY2NjY2NjY2NiwyNjcuNSwgODUxLjY2NjY2NjY2NjY2NjYsNzU1LjUiIG1hcmtlci1lbmQ9IiIgY2xhc3M9ImxpbmsiLz48cGF0aCBzdHlsZT0ic3Ryb2tlLXdpZHRoOiAwLjU7IHN0cm9rZS1vcGFjaXR5OiAxOyBzdHJva2U6IHJnYig4MCwgODAsIDgwKTsiIGQ9Ik02NDUuNjY2NjY2NjY2NjY2NiwzMjUuNSwgODUxLjY2NjY2NjY2NjY2NjYsNTI3LjUiIG1hcmtlci1lbmQ9IiIgY2xhc3M9ImxpbmsiLz48cGF0aCBzdHlsZT0ic3Ryb2tlLXdpZHRoOiAwLjU7IHN0cm9rZS1vcGFjaXR5OiAxOyBzdHJva2U6IHJnYig4MCwgODAsIDgwKTsiIGQ9Ik02NDUuNjY2NjY2NjY2NjY2NiwzMjUuNSwgODUxLjY2NjY2NjY2NjY2NjYsNTY1LjUiIG1hcmtlci1lbmQ9IiIgY2xhc3M9ImxpbmsiLz48cGF0aCBzdHlsZT0ic3Ryb2tlLXdpZHRoOiAwLjU7IHN0cm9rZS1vcGFjaXR5OiAxOyBzdHJva2U6IHJnYig4MCwgODAsIDgwKTsiIGQ9Ik02NDUuNjY2NjY2NjY2NjY2NiwzMjUuNSwgODUxLjY2NjY2NjY2NjY2NjYsNjAzLjUiIG1hcmtlci1lbmQ9IiIgY2xhc3M9ImxpbmsiLz48cGF0aCBzdHlsZT0ic3Ryb2tlLXdpZHRoOiAwLjU7IHN0cm9rZS1vcGFjaXR5OiAxOyBzdHJva2U6IHJnYig4MCwgODAsIDgwKTsiIGQ9Ik02NDUuNjY2NjY2NjY2NjY2NiwzMjUuNSwgODUxLjY2NjY2NjY2NjY2NjYsNjQxLjUiIG1hcmtlci1lbmQ9IiIgY2xhc3M9ImxpbmsiLz48cGF0aCBzdHlsZT0ic3Ryb2tlLXdpZHRoOiAwLjU7IHN0cm9rZS1vcGFjaXR5OiAxOyBzdHJva2U6IHJnYig4MCwgODAsIDgwKTsiIGQ9Ik02NDUuNjY2NjY2NjY2NjY2NiwzMjUuNSwgODUxLjY2NjY2NjY2NjY2NjYsNjc5LjUiIG1hcmtlci1lbmQ9IiIgY2xhc3M9ImxpbmsiLz48cGF0aCBzdHlsZT0ic3Ryb2tlLXdpZHRoOiAwLjU7IHN0cm9rZS1vcGFjaXR5OiAxOyBzdHJva2U6IHJnYig4MCwgODAsIDgwKTsiIGQ9Ik02NDUuNjY2NjY2NjY2NjY2NiwzMjUuNSwgODUxLjY2NjY2NjY2NjY2NjYsNzE3LjUiIG1hcmtlci1lbmQ9IiIgY2xhc3M9ImxpbmsiLz48cGF0aCBzdHlsZT0ic3Ryb2tlLXdpZHRoOiAwLjU7IHN0cm9rZS1vcGFjaXR5OiAxOyBzdHJva2U6IHJnYig4MCwgODAsIDgwKTsiIGQ9Ik02NDUuNjY2NjY2NjY2NjY2NiwzMjUuNSwgODUxLjY2NjY2NjY2NjY2NjYsNzU1LjUiIG1hcmtlci1lbmQ9IiIgY2xhc3M9ImxpbmsiLz48cGF0aCBzdHlsZT0ic3Ryb2tlLXdpZHRoOiAwLjU7IHN0cm9rZS1vcGFjaXR5OiAxOyBzdHJva2U6IHJnYig4MCwgODAsIDgwKTsiIGQ9Ik02NDUuNjY2NjY2NjY2NjY2NiwzODMuNSwgODUxLjY2NjY2NjY2NjY2NjYsNTI3LjUiIG1hcmtlci1lbmQ9IiIgY2xhc3M9ImxpbmsiLz48cGF0aCBzdHlsZT0ic3Ryb2tlLXdpZHRoOiAwLjU7IHN0cm9rZS1vcGFjaXR5OiAxOyBzdHJva2U6IHJnYig4MCwgODAsIDgwKTsiIGQ9Ik02NDUuNjY2NjY2NjY2NjY2NiwzODMuNSwgODUxLjY2NjY2NjY2NjY2NjYsNTY1LjUiIG1hcmtlci1lbmQ9IiIgY2xhc3M9ImxpbmsiLz48cGF0aCBzdHlsZT0ic3Ryb2tlLXdpZHRoOiAwLjU7IHN0cm9rZS1vcGFjaXR5OiAxOyBzdHJva2U6IHJnYig4MCwgODAsIDgwKTsiIGQ9Ik02NDUuNjY2NjY2NjY2NjY2NiwzODMuNSwgODUxLjY2NjY2NjY2NjY2NjYsNjAzLjUiIG1hcmtlci1lbmQ9IiIgY2xhc3M9ImxpbmsiLz48cGF0aCBzdHlsZT0ic3Ryb2tlLXdpZHRoOiAwLjU7IHN0cm9rZS1vcGFjaXR5OiAxOyBzdHJva2U6IHJnYig4MCwgODAsIDgwKTsiIGQ9Ik02NDUuNjY2NjY2NjY2NjY2NiwzODMuNSwgODUxLjY2NjY2NjY2NjY2NjYsNjQxLjUiIG1hcmtlci1lbmQ9IiIgY2xhc3M9ImxpbmsiLz48cGF0aCBzdHlsZT0ic3Ryb2tlLXdpZHRoOiAwLjU7IHN0cm9rZS1vcGFjaXR5OiAxOyBzdHJva2U6IHJnYig4MCwgODAsIDgwKTsiIGQ9Ik02NDUuNjY2NjY2NjY2NjY2NiwzODMuNSwgODUxLjY2NjY2NjY2NjY2NjYsNjc5LjUiIG1hcmtlci1lbmQ9IiIgY2xhc3M9ImxpbmsiLz48cGF0aCBzdHlsZT0ic3Ryb2tlLXdpZHRoOiAwLjU7IHN0cm9rZS1vcGFjaXR5OiAxOyBzdHJva2U6IHJnYig4MCwgODAsIDgwKTsiIGQ9Ik02NDUuNjY2NjY2NjY2NjY2NiwzODMuNSwgODUxLjY2NjY2NjY2NjY2NjYsNzE3LjUiIG1hcmtlci1lbmQ9IiIgY2xhc3M9ImxpbmsiLz48cGF0aCBzdHlsZT0ic3Ryb2tlLXdpZHRoOiAwLjU7IHN0cm9rZS1vcGFjaXR5OiAxOyBzdHJva2U6IHJnYig4MCwgODAsIDgwKTsiIGQ9Ik02NDUuNjY2NjY2NjY2NjY2NiwzODMuNSwgODUxLjY2NjY2NjY2NjY2NjYsNzU1LjUiIG1hcmtlci1lbmQ9IiIgY2xhc3M9ImxpbmsiLz48cGF0aCBzdHlsZT0ic3Ryb2tlLXdpZHRoOiAwLjU7IHN0cm9rZS1vcGFjaXR5OiAxOyBzdHJva2U6IHJnYig4MCwgODAsIDgwKTsiIGQ9Ik02NDUuNjY2NjY2NjY2NjY2Niw0NDEuNSwgODUxLjY2NjY2NjY2NjY2NjYsNTI3LjUiIG1hcmtlci1lbmQ9IiIgY2xhc3M9ImxpbmsiLz48cGF0aCBzdHlsZT0ic3Ryb2tlLXdpZHRoOiAwLjU7IHN0cm9rZS1vcGFjaXR5OiAxOyBzdHJva2U6IHJnYig4MCwgODAsIDgwKTsiIGQ9Ik02NDUuNjY2NjY2NjY2NjY2Niw0NDEuNSwgODUxLjY2NjY2NjY2NjY2NjYsNTY1LjUiIG1hcmtlci1lbmQ9IiIgY2xhc3M9ImxpbmsiLz48cGF0aCBzdHlsZT0ic3Ryb2tlLXdpZHRoOiAwLjU7IHN0cm9rZS1vcGFjaXR5OiAxOyBzdHJva2U6IHJnYig4MCwgODAsIDgwKTsiIGQ9Ik02NDUuNjY2NjY2NjY2NjY2Niw0NDEuNSwgODUxLjY2NjY2NjY2NjY2NjYsNjAzLjUiIG1hcmtlci1lbmQ9IiIgY2xhc3M9ImxpbmsiLz48cGF0aCBzdHlsZT0ic3Ryb2tlLXdpZHRoOiAwLjU7IHN0cm9rZS1vcGFjaXR5OiAxOyBzdHJva2U6IHJnYig4MCwgODAsIDgwKTsiIGQ9Ik02NDUuNjY2NjY2NjY2NjY2Niw0NDEuNSwgODUxLjY2NjY2NjY2NjY2NjYsNjQxLjUiIG1hcmtlci1lbmQ9IiIgY2xhc3M9ImxpbmsiLz48cGF0aCBzdHlsZT0ic3Ryb2tlLXdpZHRoOiAwLjU7IHN0cm9rZS1vcGFjaXR5OiAxOyBzdHJva2U6IHJnYig4MCwgODAsIDgwKTsiIGQ9Ik02NDUuNjY2NjY2NjY2NjY2Niw0NDEuNSwgODUxLjY2NjY2NjY2NjY2NjYsNjc5LjUiIG1hcmtlci1lbmQ9IiIgY2xhc3M9ImxpbmsiLz48cGF0aCBzdHlsZT0ic3Ryb2tlLXdpZHRoOiAwLjU7IHN0cm9rZS1vcGFjaXR5OiAxOyBzdHJva2U6IHJnYig4MCwgODAsIDgwKTsiIGQ9Ik02NDUuNjY2NjY2NjY2NjY2Niw0NDEuNSwgODUxLjY2NjY2NjY2NjY2NjYsNzE3LjUiIG1hcmtlci1lbmQ9IiIgY2xhc3M9ImxpbmsiLz48cGF0aCBzdHlsZT0ic3Ryb2tlLXdpZHRoOiAwLjU7IHN0cm9rZS1vcGFjaXR5OiAxOyBzdHJva2U6IHJnYig4MCwgODAsIDgwKTsiIGQ9Ik02NDUuNjY2NjY2NjY2NjY2Niw0NDEuNSwgODUxLjY2NjY2NjY2NjY2NjYsNzU1LjUiIG1hcmtlci1lbmQ9IiIgY2xhc3M9ImxpbmsiLz48cGF0aCBzdHlsZT0ic3Ryb2tlLXdpZHRoOiAwLjU7IHN0cm9rZS1vcGFjaXR5OiAxOyBzdHJva2U6IHJnYig4MCwgODAsIDgwKTsiIGQ9Ik02NDUuNjY2NjY2NjY2NjY2Niw0OTkuNSwgODUxLjY2NjY2NjY2NjY2NjYsNTI3LjUiIG1hcmtlci1lbmQ9IiIgY2xhc3M9ImxpbmsiLz48cGF0aCBzdHlsZT0ic3Ryb2tlLXdpZHRoOiAwLjU7IHN0cm9rZS1vcGFjaXR5OiAxOyBzdHJva2U6IHJnYig4MCwgODAsIDgwKTsiIGQ9Ik02NDUuNjY2NjY2NjY2NjY2Niw0OTkuNSwgODUxLjY2NjY2NjY2NjY2NjYsNTY1LjUiIG1hcmtlci1lbmQ9IiIgY2xhc3M9ImxpbmsiLz48cGF0aCBzdHlsZT0ic3Ryb2tlLXdpZHRoOiAwLjU7IHN0cm9rZS1vcGFjaXR5OiAxOyBzdHJva2U6IHJnYig4MCwgODAsIDgwKTsiIGQ9Ik02NDUuNjY2NjY2NjY2NjY2Niw0OTkuNSwgODUxLjY2NjY2NjY2NjY2NjYsNjAzLjUiIG1hcmtlci1lbmQ9IiIgY2xhc3M9ImxpbmsiLz48cGF0aCBzdHlsZT0ic3Ryb2tlLXdpZHRoOiAwLjU7IHN0cm9rZS1vcGFjaXR5OiAxOyBzdHJva2U6IHJnYig4MCwgODAsIDgwKTsiIGQ9Ik02NDUuNjY2NjY2NjY2NjY2Niw0OTkuNSwgODUxLjY2NjY2NjY2NjY2NjYsNjQxLjUiIG1hcmtlci1lbmQ9IiIgY2xhc3M9ImxpbmsiLz48cGF0aCBzdHlsZT0ic3Ryb2tlLXdpZHRoOiAwLjU7IHN0cm9rZS1vcGFjaXR5OiAxOyBzdHJva2U6IHJnYig4MCwgODAsIDgwKTsiIGQ9Ik02NDUuNjY2NjY2NjY2NjY2Niw0OTkuNSwgODUxLjY2NjY2NjY2NjY2NjYsNjc5LjUiIG1hcmtlci1lbmQ9IiIgY2xhc3M9ImxpbmsiLz48cGF0aCBzdHlsZT0ic3Ryb2tlLXdpZHRoOiAwLjU7IHN0cm9rZS1vcGFjaXR5OiAxOyBzdHJva2U6IHJnYig4MCwgODAsIDgwKTsiIGQ9Ik02NDUuNjY2NjY2NjY2NjY2Niw0OTkuNSwgODUxLjY2NjY2NjY2NjY2NjYsNzE3LjUiIG1hcmtlci1lbmQ9IiIgY2xhc3M9ImxpbmsiLz48cGF0aCBzdHlsZT0ic3Ryb2tlLXdpZHRoOiAwLjU7IHN0cm9rZS1vcGFjaXR5OiAxOyBzdHJva2U6IHJnYig4MCwgODAsIDgwKTsiIGQ9Ik02NDUuNjY2NjY2NjY2NjY2Niw0OTkuNSwgODUxLjY2NjY2NjY2NjY2NjYsNzU1LjUiIG1hcmtlci1lbmQ9IiIgY2xhc3M9ImxpbmsiLz48cGF0aCBzdHlsZT0ic3Ryb2tlLXdpZHRoOiAwLjU7IHN0cm9rZS1vcGFjaXR5OiAxOyBzdHJva2U6IHJnYig4MCwgODAsIDgwKTsiIGQ9Ik02NDUuNjY2NjY2NjY2NjY2Niw1NTcuNSwgODUxLjY2NjY2NjY2NjY2NjYsNTI3LjUiIG1hcmtlci1lbmQ9IiIgY2xhc3M9ImxpbmsiLz48cGF0aCBzdHlsZT0ic3Ryb2tlLXdpZHRoOiAwLjU7IHN0cm9rZS1vcGFjaXR5OiAxOyBzdHJva2U6IHJnYig4MCwgODAsIDgwKTsiIGQ9Ik02NDUuNjY2NjY2NjY2NjY2Niw1NTcuNSwgODUxLjY2NjY2NjY2NjY2NjYsNTY1LjUiIG1hcmtlci1lbmQ9IiIgY2xhc3M9ImxpbmsiLz48cGF0aCBzdHlsZT0ic3Ryb2tlLXdpZHRoOiAwLjU7IHN0cm9rZS1vcGFjaXR5OiAxOyBzdHJva2U6IHJnYig4MCwgODAsIDgwKTsiIGQ9Ik02NDUuNjY2NjY2NjY2NjY2Niw1NTcuNSwgODUxLjY2NjY2NjY2NjY2NjYsNjAzLjUiIG1hcmtlci1lbmQ9IiIgY2xhc3M9ImxpbmsiLz48cGF0aCBzdHlsZT0ic3Ryb2tlLXdpZHRoOiAwLjU7IHN0cm9rZS1vcGFjaXR5OiAxOyBzdHJva2U6IHJnYig4MCwgODAsIDgwKTsiIGQ9Ik02NDUuNjY2NjY2NjY2NjY2Niw1NTcuNSwgODUxLjY2NjY2NjY2NjY2NjYsNjQxLjUiIG1hcmtlci1lbmQ9IiIgY2xhc3M9ImxpbmsiLz48cGF0aCBzdHlsZT0ic3Ryb2tlLXdpZHRoOiAwLjU7IHN0cm9rZS1vcGFjaXR5OiAxOyBzdHJva2U6IHJnYig4MCwgODAsIDgwKTsiIGQ9Ik02NDUuNjY2NjY2NjY2NjY2Niw1NTcuNSwgODUxLjY2NjY2NjY2NjY2NjYsNjc5LjUiIG1hcmtlci1lbmQ9IiIgY2xhc3M9ImxpbmsiLz48cGF0aCBzdHlsZT0ic3Ryb2tlLXdpZHRoOiAwLjU7IHN0cm9rZS1vcGFjaXR5OiAxOyBzdHJva2U6IHJnYig4MCwgODAsIDgwKTsiIGQ9Ik02NDUuNjY2NjY2NjY2NjY2Niw1NTcuNSwgODUxLjY2NjY2NjY2NjY2NjYsNzE3LjUiIG1hcmtlci1lbmQ9IiIgY2xhc3M9ImxpbmsiLz48cGF0aCBzdHlsZT0ic3Ryb2tlLXdpZHRoOiAwLjU7IHN0cm9rZS1vcGFjaXR5OiAxOyBzdHJva2U6IHJnYig4MCwgODAsIDgwKTsiIGQ9Ik02NDUuNjY2NjY2NjY2NjY2Niw1NTcuNSwgODUxLjY2NjY2NjY2NjY2NjYsNzU1LjUiIG1hcmtlci1lbmQ9IiIgY2xhc3M9ImxpbmsiLz48cGF0aCBzdHlsZT0ic3Ryb2tlLXdpZHRoOiAwLjU7IHN0cm9rZS1vcGFjaXR5OiAxOyBzdHJva2U6IHJnYig4MCwgODAsIDgwKTsiIGQ9Ik02NDUuNjY2NjY2NjY2NjY2Niw2MTUuNSwgODUxLjY2NjY2NjY2NjY2NjYsNTI3LjUiIG1hcmtlci1lbmQ9IiIgY2xhc3M9ImxpbmsiLz48cGF0aCBzdHlsZT0ic3Ryb2tlLXdpZHRoOiAwLjU7IHN0cm9rZS1vcGFjaXR5OiAxOyBzdHJva2U6IHJnYig4MCwgODAsIDgwKTsiIGQ9Ik02NDUuNjY2NjY2NjY2NjY2Niw2MTUuNSwgODUxLjY2NjY2NjY2NjY2NjYsNTY1LjUiIG1hcmtlci1lbmQ9IiIgY2xhc3M9ImxpbmsiLz48cGF0aCBzdHlsZT0ic3Ryb2tlLXdpZHRoOiAwLjU7IHN0cm9rZS1vcGFjaXR5OiAxOyBzdHJva2U6IHJnYig4MCwgODAsIDgwKTsiIGQ9Ik02NDUuNjY2NjY2NjY2NjY2Niw2MTUuNSwgODUxLjY2NjY2NjY2NjY2NjYsNjAzLjUiIG1hcmtlci1lbmQ9IiIgY2xhc3M9ImxpbmsiLz48cGF0aCBzdHlsZT0ic3Ryb2tlLXdpZHRoOiAwLjU7IHN0cm9rZS1vcGFjaXR5OiAxOyBzdHJva2U6IHJnYig4MCwgODAsIDgwKTsiIGQ9Ik02NDUuNjY2NjY2NjY2NjY2Niw2MTUuNSwgODUxLjY2NjY2NjY2NjY2NjYsNjQxLjUiIG1hcmtlci1lbmQ9IiIgY2xhc3M9ImxpbmsiLz48cGF0aCBzdHlsZT0ic3Ryb2tlLXdpZHRoOiAwLjU7IHN0cm9rZS1vcGFjaXR5OiAxOyBzdHJva2U6IHJnYig4MCwgODAsIDgwKTsiIGQ9Ik02NDUuNjY2NjY2NjY2NjY2Niw2MTUuNSwgODUxLjY2NjY2NjY2NjY2NjYsNjc5LjUiIG1hcmtlci1lbmQ9IiIgY2xhc3M9ImxpbmsiLz48cGF0aCBzdHlsZT0ic3Ryb2tlLXdpZHRoOiAwLjU7IHN0cm9rZS1vcGFjaXR5OiAxOyBzdHJva2U6IHJnYig4MCwgODAsIDgwKTsiIGQ9Ik02NDUuNjY2NjY2NjY2NjY2Niw2MTUuNSwgODUxLjY2NjY2NjY2NjY2NjYsNzE3LjUiIG1hcmtlci1lbmQ9IiIgY2xhc3M9ImxpbmsiLz48cGF0aCBzdHlsZT0ic3Ryb2tlLXdpZHRoOiAwLjU7IHN0cm9rZS1vcGFjaXR5OiAxOyBzdHJva2U6IHJnYig4MCwgODAsIDgwKTsiIGQ9Ik02NDUuNjY2NjY2NjY2NjY2Niw2MTUuNSwgODUxLjY2NjY2NjY2NjY2NjYsNzU1LjUiIG1hcmtlci1lbmQ9IiIgY2xhc3M9ImxpbmsiLz48cGF0aCBzdHlsZT0ic3Ryb2tlLXdpZHRoOiAwLjU7IHN0cm9rZS1vcGFjaXR5OiAxOyBzdHJva2U6IHJnYig4MCwgODAsIDgwKTsiIGQ9Ik02NDUuNjY2NjY2NjY2NjY2Niw2NzMuNSwgODUxLjY2NjY2NjY2NjY2NjYsNTI3LjUiIG1hcmtlci1lbmQ9IiIgY2xhc3M9ImxpbmsiLz48cGF0aCBzdHlsZT0ic3Ryb2tlLXdpZHRoOiAwLjU7IHN0cm9rZS1vcGFjaXR5OiAxOyBzdHJva2U6IHJnYig4MCwgODAsIDgwKTsiIGQ9Ik02NDUuNjY2NjY2NjY2NjY2Niw2NzMuNSwgODUxLjY2NjY2NjY2NjY2NjYsNTY1LjUiIG1hcmtlci1lbmQ9IiIgY2xhc3M9ImxpbmsiLz48cGF0aCBzdHlsZT0ic3Ryb2tlLXdpZHRoOiAwLjU7IHN0cm9rZS1vcGFjaXR5OiAxOyBzdHJva2U6IHJnYig4MCwgODAsIDgwKTsiIGQ9Ik02NDUuNjY2NjY2NjY2NjY2Niw2NzMuNSwgODUxLjY2NjY2NjY2NjY2NjYsNjAzLjUiIG1hcmtlci1lbmQ9IiIgY2xhc3M9ImxpbmsiLz48cGF0aCBzdHlsZT0ic3Ryb2tlLXdpZHRoOiAwLjU7IHN0cm9rZS1vcGFjaXR5OiAxOyBzdHJva2U6IHJnYig4MCwgODAsIDgwKTsiIGQ9Ik02NDUuNjY2NjY2NjY2NjY2Niw2NzMuNSwgODUxLjY2NjY2NjY2NjY2NjYsNjQxLjUiIG1hcmtlci1lbmQ9IiIgY2xhc3M9ImxpbmsiLz48cGF0aCBzdHlsZT0ic3Ryb2tlLXdpZHRoOiAwLjU7IHN0cm9rZS1vcGFjaXR5OiAxOyBzdHJva2U6IHJnYig4MCwgODAsIDgwKTsiIGQ9Ik02NDUuNjY2NjY2NjY2NjY2Niw2NzMuNSwgODUxLjY2NjY2NjY2NjY2NjYsNjc5LjUiIG1hcmtlci1lbmQ9IiIgY2xhc3M9ImxpbmsiLz48cGF0aCBzdHlsZT0ic3Ryb2tlLXdpZHRoOiAwLjU7IHN0cm9rZS1vcGFjaXR5OiAxOyBzdHJva2U6IHJnYig4MCwgODAsIDgwKTsiIGQ9Ik02NDUuNjY2NjY2NjY2NjY2Niw2NzMuNSwgODUxLjY2NjY2NjY2NjY2NjYsNzE3LjUiIG1hcmtlci1lbmQ9IiIgY2xhc3M9ImxpbmsiLz48cGF0aCBzdHlsZT0ic3Ryb2tlLXdpZHRoOiAwLjU7IHN0cm9rZS1vcGFjaXR5OiAxOyBzdHJva2U6IHJnYig4MCwgODAsIDgwKTsiIGQ9Ik02NDUuNjY2NjY2NjY2NjY2Niw2NzMuNSwgODUxLjY2NjY2NjY2NjY2NjYsNzU1LjUiIG1hcmtlci1lbmQ9IiIgY2xhc3M9ImxpbmsiLz48cGF0aCBzdHlsZT0ic3Ryb2tlLXdpZHRoOiAwLjU7IHN0cm9rZS1vcGFjaXR5OiAxOyBzdHJva2U6IHJnYig4MCwgODAsIDgwKTsiIGQ9Ik02NDUuNjY2NjY2NjY2NjY2Niw3MzEuNSwgODUxLjY2NjY2NjY2NjY2NjYsNTI3LjUiIG1hcmtlci1lbmQ9IiIgY2xhc3M9ImxpbmsiLz48cGF0aCBzdHlsZT0ic3Ryb2tlLXdpZHRoOiAwLjU7IHN0cm9rZS1vcGFjaXR5OiAxOyBzdHJva2U6IHJnYig4MCwgODAsIDgwKTsiIGQ9Ik02NDUuNjY2NjY2NjY2NjY2Niw3MzEuNSwgODUxLjY2NjY2NjY2NjY2NjYsNTY1LjUiIG1hcmtlci1lbmQ9IiIgY2xhc3M9ImxpbmsiLz48cGF0aCBzdHlsZT0ic3Ryb2tlLXdpZHRoOiAwLjU7IHN0cm9rZS1vcGFjaXR5OiAxOyBzdHJva2U6IHJnYig4MCwgODAsIDgwKTsiIGQ9Ik02NDUuNjY2NjY2NjY2NjY2Niw3MzEuNSwgODUxLjY2NjY2NjY2NjY2NjYsNjAzLjUiIG1hcmtlci1lbmQ9IiIgY2xhc3M9ImxpbmsiLz48cGF0aCBzdHlsZT0ic3Ryb2tlLXdpZHRoOiAwLjU7IHN0cm9rZS1vcGFjaXR5OiAxOyBzdHJva2U6IHJnYig4MCwgODAsIDgwKTsiIGQ9Ik02NDUuNjY2NjY2NjY2NjY2Niw3MzEuNSwgODUxLjY2NjY2NjY2NjY2NjYsNjQxLjUiIG1hcmtlci1lbmQ9IiIgY2xhc3M9ImxpbmsiLz48cGF0aCBzdHlsZT0ic3Ryb2tlLXdpZHRoOiAwLjU7IHN0cm9rZS1vcGFjaXR5OiAxOyBzdHJva2U6IHJnYig4MCwgODAsIDgwKTsiIGQ9Ik02NDUuNjY2NjY2NjY2NjY2Niw3MzEuNSwgODUxLjY2NjY2NjY2NjY2NjYsNjc5LjUiIG1hcmtlci1lbmQ9IiIgY2xhc3M9ImxpbmsiLz48cGF0aCBzdHlsZT0ic3Ryb2tlLXdpZHRoOiAwLjU7IHN0cm9rZS1vcGFjaXR5OiAxOyBzdHJva2U6IHJnYig4MCwgODAsIDgwKTsiIGQ9Ik02NDUuNjY2NjY2NjY2NjY2Niw3MzEuNSwgODUxLjY2NjY2NjY2NjY2NjYsNzE3LjUiIG1hcmtlci1lbmQ9IiIgY2xhc3M9ImxpbmsiLz48cGF0aCBzdHlsZT0ic3Ryb2tlLXdpZHRoOiAwLjU7IHN0cm9rZS1vcGFjaXR5OiAxOyBzdHJva2U6IHJnYig4MCwgODAsIDgwKTsiIGQ9Ik02NDUuNjY2NjY2NjY2NjY2Niw3MzEuNSwgODUxLjY2NjY2NjY2NjY2NjYsNzU1LjUiIG1hcmtlci1lbmQ9IiIgY2xhc3M9ImxpbmsiLz48cGF0aCBzdHlsZT0ic3Ryb2tlLXdpZHRoOiAwLjU7IHN0cm9rZS1vcGFjaXR5OiAxOyBzdHJva2U6IHJnYig4MCwgODAsIDgwKTsiIGQ9Ik02NDUuNjY2NjY2NjY2NjY2Niw3ODkuNSwgODUxLjY2NjY2NjY2NjY2NjYsNTI3LjUiIG1hcmtlci1lbmQ9IiIgY2xhc3M9ImxpbmsiLz48cGF0aCBzdHlsZT0ic3Ryb2tlLXdpZHRoOiAwLjU7IHN0cm9rZS1vcGFjaXR5OiAxOyBzdHJva2U6IHJnYig4MCwgODAsIDgwKTsiIGQ9Ik02NDUuNjY2NjY2NjY2NjY2Niw3ODkuNSwgODUxLjY2NjY2NjY2NjY2NjYsNTY1LjUiIG1hcmtlci1lbmQ9IiIgY2xhc3M9ImxpbmsiLz48cGF0aCBzdHlsZT0ic3Ryb2tlLXdpZHRoOiAwLjU7IHN0cm9rZS1vcGFjaXR5OiAxOyBzdHJva2U6IHJnYig4MCwgODAsIDgwKTsiIGQ9Ik02NDUuNjY2NjY2NjY2NjY2Niw3ODkuNSwgODUxLjY2NjY2NjY2NjY2NjYsNjAzLjUiIG1hcmtlci1lbmQ9IiIgY2xhc3M9ImxpbmsiLz48cGF0aCBzdHlsZT0ic3Ryb2tlLXdpZHRoOiAwLjU7IHN0cm9rZS1vcGFjaXR5OiAxOyBzdHJva2U6IHJnYig4MCwgODAsIDgwKTsiIGQ9Ik02NDUuNjY2NjY2NjY2NjY2Niw3ODkuNSwgODUxLjY2NjY2NjY2NjY2NjYsNjQxLjUiIG1hcmtlci1lbmQ9IiIgY2xhc3M9ImxpbmsiLz48cGF0aCBzdHlsZT0ic3Ryb2tlLXdpZHRoOiAwLjU7IHN0cm9rZS1vcGFjaXR5OiAxOyBzdHJva2U6IHJnYig4MCwgODAsIDgwKTsiIGQ9Ik02NDUuNjY2NjY2NjY2NjY2Niw3ODkuNSwgODUxLjY2NjY2NjY2NjY2NjYsNjc5LjUiIG1hcmtlci1lbmQ9IiIgY2xhc3M9ImxpbmsiLz48cGF0aCBzdHlsZT0ic3Ryb2tlLXdpZHRoOiAwLjU7IHN0cm9rZS1vcGFjaXR5OiAxOyBzdHJva2U6IHJnYig4MCwgODAsIDgwKTsiIGQ9Ik02NDUuNjY2NjY2NjY2NjY2Niw3ODkuNSwgODUxLjY2NjY2NjY2NjY2NjYsNzE3LjUiIG1hcmtlci1lbmQ9IiIgY2xhc3M9ImxpbmsiLz48cGF0aCBzdHlsZT0ic3Ryb2tlLXdpZHRoOiAwLjU7IHN0cm9rZS1vcGFjaXR5OiAxOyBzdHJva2U6IHJnYig4MCwgODAsIDgwKTsiIGQ9Ik02NDUuNjY2NjY2NjY2NjY2Niw3ODkuNSwgODUxLjY2NjY2NjY2NjY2NjYsNzU1LjUiIG1hcmtlci1lbmQ9IiIgY2xhc3M9ImxpbmsiLz48cGF0aCBzdHlsZT0ic3Ryb2tlLXdpZHRoOiAwLjU7IHN0cm9rZS1vcGFjaXR5OiAxOyBzdHJva2U6IHJnYig4MCwgODAsIDgwKTsiIGQ9Ik02NDUuNjY2NjY2NjY2NjY2Niw4NDcuNSwgODUxLjY2NjY2NjY2NjY2NjYsNTI3LjUiIG1hcmtlci1lbmQ9IiIgY2xhc3M9ImxpbmsiLz48cGF0aCBzdHlsZT0ic3Ryb2tlLXdpZHRoOiAwLjU7IHN0cm9rZS1vcGFjaXR5OiAxOyBzdHJva2U6IHJnYig4MCwgODAsIDgwKTsiIGQ9Ik02NDUuNjY2NjY2NjY2NjY2Niw4NDcuNSwgODUxLjY2NjY2NjY2NjY2NjYsNTY1LjUiIG1hcmtlci1lbmQ9IiIgY2xhc3M9ImxpbmsiLz48cGF0aCBzdHlsZT0ic3Ryb2tlLXdpZHRoOiAwLjU7IHN0cm9rZS1vcGFjaXR5OiAxOyBzdHJva2U6IHJnYig4MCwgODAsIDgwKTsiIGQ9Ik02NDUuNjY2NjY2NjY2NjY2Niw4NDcuNSwgODUxLjY2NjY2NjY2NjY2NjYsNjAzLjUiIG1hcmtlci1lbmQ9IiIgY2xhc3M9ImxpbmsiLz48cGF0aCBzdHlsZT0ic3Ryb2tlLXdpZHRoOiAwLjU7IHN0cm9rZS1vcGFjaXR5OiAxOyBzdHJva2U6IHJnYig4MCwgODAsIDgwKTsiIGQ9Ik02NDUuNjY2NjY2NjY2NjY2Niw4NDcuNSwgODUxLjY2NjY2NjY2NjY2NjYsNjQxLjUiIG1hcmtlci1lbmQ9IiIgY2xhc3M9ImxpbmsiLz48cGF0aCBzdHlsZT0ic3Ryb2tlLXdpZHRoOiAwLjU7IHN0cm9rZS1vcGFjaXR5OiAxOyBzdHJva2U6IHJnYig4MCwgODAsIDgwKTsiIGQ9Ik02NDUuNjY2NjY2NjY2NjY2Niw4NDcuNSwgODUxLjY2NjY2NjY2NjY2NjYsNjc5LjUiIG1hcmtlci1lbmQ9IiIgY2xhc3M9ImxpbmsiLz48cGF0aCBzdHlsZT0ic3Ryb2tlLXdpZHRoOiAwLjU7IHN0cm9rZS1vcGFjaXR5OiAxOyBzdHJva2U6IHJnYig4MCwgODAsIDgwKTsiIGQ9Ik02NDUuNjY2NjY2NjY2NjY2Niw4NDcuNSwgODUxLjY2NjY2NjY2NjY2NjYsNzE3LjUiIG1hcmtlci1lbmQ9IiIgY2xhc3M9ImxpbmsiLz48cGF0aCBzdHlsZT0ic3Ryb2tlLXdpZHRoOiAwLjU7IHN0cm9rZS1vcGFjaXR5OiAxOyBzdHJva2U6IHJnYig4MCwgODAsIDgwKTsiIGQ9Ik02NDUuNjY2NjY2NjY2NjY2Niw4NDcuNSwgODUxLjY2NjY2NjY2NjY2NjYsNzU1LjUiIG1hcmtlci1lbmQ9IiIgY2xhc3M9ImxpbmsiLz48cGF0aCBzdHlsZT0ic3Ryb2tlLXdpZHRoOiAwLjU7IHN0cm9rZS1vcGFjaXR5OiAxOyBzdHJva2U6IHJnYig4MCwgODAsIDgwKTsiIGQ9Ik02NDUuNjY2NjY2NjY2NjY2Niw5MDUuNSwgODUxLjY2NjY2NjY2NjY2NjYsNTI3LjUiIG1hcmtlci1lbmQ9IiIgY2xhc3M9ImxpbmsiLz48cGF0aCBzdHlsZT0ic3Ryb2tlLXdpZHRoOiAwLjU7IHN0cm9rZS1vcGFjaXR5OiAxOyBzdHJva2U6IHJnYig4MCwgODAsIDgwKTsiIGQ9Ik02NDUuNjY2NjY2NjY2NjY2Niw5MDUuNSwgODUxLjY2NjY2NjY2NjY2NjYsNTY1LjUiIG1hcmtlci1lbmQ9IiIgY2xhc3M9ImxpbmsiLz48cGF0aCBzdHlsZT0ic3Ryb2tlLXdpZHRoOiAwLjU7IHN0cm9rZS1vcGFjaXR5OiAxOyBzdHJva2U6IHJnYig4MCwgODAsIDgwKTsiIGQ9Ik02NDUuNjY2NjY2NjY2NjY2Niw5MDUuNSwgODUxLjY2NjY2NjY2NjY2NjYsNjAzLjUiIG1hcmtlci1lbmQ9IiIgY2xhc3M9ImxpbmsiLz48cGF0aCBzdHlsZT0ic3Ryb2tlLXdpZHRoOiAwLjU7IHN0cm9rZS1vcGFjaXR5OiAxOyBzdHJva2U6IHJnYig4MCwgODAsIDgwKTsiIGQ9Ik02NDUuNjY2NjY2NjY2NjY2Niw5MDUuNSwgODUxLjY2NjY2NjY2NjY2NjYsNjQxLjUiIG1hcmtlci1lbmQ9IiIgY2xhc3M9ImxpbmsiLz48cGF0aCBzdHlsZT0ic3Ryb2tlLXdpZHRoOiAwLjU7IHN0cm9rZS1vcGFjaXR5OiAxOyBzdHJva2U6IHJnYig4MCwgODAsIDgwKTsiIGQ9Ik02NDUuNjY2NjY2NjY2NjY2Niw5MDUuNSwgODUxLjY2NjY2NjY2NjY2NjYsNjc5LjUiIG1hcmtlci1lbmQ9IiIgY2xhc3M9ImxpbmsiLz48cGF0aCBzdHlsZT0ic3Ryb2tlLXdpZHRoOiAwLjU7IHN0cm9rZS1vcGFjaXR5OiAxOyBzdHJva2U6IHJnYig4MCwgODAsIDgwKTsiIGQ9Ik02NDUuNjY2NjY2NjY2NjY2Niw5MDUuNSwgODUxLjY2NjY2NjY2NjY2NjYsNzE3LjUiIG1hcmtlci1lbmQ9IiIgY2xhc3M9ImxpbmsiLz48cGF0aCBzdHlsZT0ic3Ryb2tlLXdpZHRoOiAwLjU7IHN0cm9rZS1vcGFjaXR5OiAxOyBzdHJva2U6IHJnYig4MCwgODAsIDgwKTsiIGQ9Ik02NDUuNjY2NjY2NjY2NjY2Niw5MDUuNSwgODUxLjY2NjY2NjY2NjY2NjYsNzU1LjUiIG1hcmtlci1lbmQ9IiIgY2xhc3M9ImxpbmsiLz48Y2lyY2xlIHN0eWxlPSJmaWxsOiByZ2IoNjgsIDAsIDI1NSk7IHN0cm9rZTogcmdiKDUxLCA1MSwgNTEpOyIgY3k9IjIwOCIgY3g9IjIzMy42NjY2NjY2NjY2NjY2NiIgaWQ9IjBfMCIgY2xhc3M9Im5vZGUiIHI9IjExIi8+PGNpcmNsZSBzdHlsZT0iZmlsbDogcmdiKDY4LCAwLCAyNTUpOyBzdHJva2U6IHJnYig1MSwgNTEsIDUxKTsiIGN5PSIyNDMiIGN4PSIyMzMuNjY2NjY2NjY2NjY2NjYiIGlkPSIwXzEiIGNsYXNzPSJub2RlIiByPSIxMSIvPjxjaXJjbGUgc3R5bGU9ImZpbGw6IHJnYig2OCwgMCwgMjU1KTsgc3Ryb2tlOiByZ2IoNTEsIDUxLCA1MSk7IiBjeT0iMjc4IiBjeD0iMjMzLjY2NjY2NjY2NjY2NjY2IiBpZD0iMF8yIiBjbGFzcz0ibm9kZSIgcj0iMTEiLz48Y2lyY2xlIHN0eWxlPSJmaWxsOiByZ2IoNjgsIDAsIDI1NSk7IHN0cm9rZTogcmdiKDUxLCA1MSwgNTEpOyIgY3k9IjMxMyIgY3g9IjIzMy42NjY2NjY2NjY2NjY2NiIgaWQ9IjBfMyIgY2xhc3M9Im5vZGUiIHI9IjExIi8+PGNpcmNsZSBzdHlsZT0iZmlsbDogcmdiKDY4LCAwLCAyNTUpOyBzdHJva2U6IHJnYig1MSwgNTEsIDUxKTsiIGN5PSIzNDgiIGN4PSIyMzMuNjY2NjY2NjY2NjY2NjYiIGlkPSIwXzQiIGNsYXNzPSJub2RlIiByPSIxMSIvPjxjaXJjbGUgc3R5bGU9ImZpbGw6IHJnYig2OCwgMCwgMjU1KTsgc3Ryb2tlOiByZ2IoNTEsIDUxLCA1MSk7IiBjeT0iMzgzIiBjeD0iMjMzLjY2NjY2NjY2NjY2NjY2IiBpZD0iMF81IiBjbGFzcz0ibm9kZSIgcj0iMTEiLz48Y2lyY2xlIHN0eWxlPSJmaWxsOiByZ2IoNjgsIDAsIDI1NSk7IHN0cm9rZTogcmdiKDUxLCA1MSwgNTEpOyIgY3k9IjQxOCIgY3g9IjIzMy42NjY2NjY2NjY2NjY2NiIgaWQ9IjBfNiIgY2xhc3M9Im5vZGUiIHI9IjExIi8+PGNpcmNsZSBzdHlsZT0iZmlsbDogcmdiKDY4LCAwLCAyNTUpOyBzdHJva2U6IHJnYig1MSwgNTEsIDUxKTsiIGN5PSI0NTMiIGN4PSIyMzMuNjY2NjY2NjY2NjY2NjYiIGlkPSIwXzciIGNsYXNzPSJub2RlIiByPSIxMSIvPjxjaXJjbGUgc3R5bGU9ImZpbGw6IHJnYig2OCwgMCwgMjU1KTsgc3Ryb2tlOiByZ2IoNTEsIDUxLCA1MSk7IiBjeT0iNDg4IiBjeD0iMjMzLjY2NjY2NjY2NjY2NjY2IiBpZD0iMF84IiBjbGFzcz0ibm9kZSIgcj0iMTEiLz48Y2lyY2xlIHN0eWxlPSJmaWxsOiByZ2IoNjgsIDAsIDI1NSk7IHN0cm9rZTogcmdiKDUxLCA1MSwgNTEpOyIgY3k9IjUyMyIgY3g9IjIzMy42NjY2NjY2NjY2NjY2NiIgaWQ9IjBfOSIgY2xhc3M9Im5vZGUiIHI9IjExIi8+PGNpcmNsZSBzdHlsZT0iZmlsbDogcmdiKDY4LCAwLCAyNTUpOyBzdHJva2U6IHJnYig1MSwgNTEsIDUxKTsiIGN5PSI1NTgiIGN4PSIyMzMuNjY2NjY2NjY2NjY2NjYiIGlkPSIwXzEwIiBjbGFzcz0ibm9kZSIgcj0iMTEiLz48Y2lyY2xlIHN0eWxlPSJmaWxsOiByZ2IoNjgsIDAsIDI1NSk7IHN0cm9rZTogcmdiKDUxLCA1MSwgNTEpOyIgY3k9IjU5MyIgY3g9IjIzMy42NjY2NjY2NjY2NjY2NiIgaWQ9IjBfMTEiIGNsYXNzPSJub2RlIiByPSIxMSIvPjxjaXJjbGUgc3R5bGU9ImZpbGw6IHJnYig2OCwgMCwgMjU1KTsgc3Ryb2tlOiByZ2IoNTEsIDUxLCA1MSk7IiBjeT0iNjI4IiBjeD0iMjMzLjY2NjY2NjY2NjY2NjY2IiBpZD0iMF8xMiIgY2xhc3M9Im5vZGUiIHI9IjExIi8+PGNpcmNsZSBzdHlsZT0iZmlsbDogcmdiKDY4LCAwLCAyNTUpOyBzdHJva2U6IHJnYig1MSwgNTEsIDUxKTsiIGN5PSI2NjMiIGN4PSIyMzMuNjY2NjY2NjY2NjY2NjYiIGlkPSIwXzEzIiBjbGFzcz0ibm9kZSIgcj0iMTEiLz48Y2lyY2xlIHN0eWxlPSJmaWxsOiByZ2IoNjgsIDAsIDI1NSk7IHN0cm9rZTogcmdiKDUxLCA1MSwgNTEpOyIgY3k9IjY5OCIgY3g9IjIzMy42NjY2NjY2NjY2NjY2NiIgaWQ9IjBfMTQiIGNsYXNzPSJub2RlIiByPSIxMSIvPjxjaXJjbGUgc3R5bGU9ImZpbGw6IHJnYig2OCwgMCwgMjU1KTsgc3Ryb2tlOiByZ2IoNTEsIDUxLCA1MSk7IiBjeT0iNzMzIiBjeD0iMjMzLjY2NjY2NjY2NjY2NjY2IiBpZD0iMF8xNSIgY2xhc3M9Im5vZGUiIHI9IjExIi8+PGNpcmNsZSBzdHlsZT0iZmlsbDogcmdiKDY4LCAwLCAyNTUpOyBzdHJva2U6IHJnYig1MSwgNTEsIDUxKTsiIGN5PSIyOCIgY3g9IjQzOS42NjY2NjY2NjY2NjY2MyIgaWQ9IjFfMCIgY2xhc3M9Im5vZGUiIHI9IjExIi8+PGNpcmNsZSBzdHlsZT0iZmlsbDogcmdiKDY4LCAwLCAyNTUpOyBzdHJva2U6IHJnYig1MSwgNTEsIDUxKTsiIGN5PSI4NyIgY3g9IjQzOS42NjY2NjY2NjY2NjY2MyIgaWQ9IjFfMSIgY2xhc3M9Im5vZGUiIHI9IjExIi8+PGNpcmNsZSBzdHlsZT0iZmlsbDogcmdiKDY4LCAwLCAyNTUpOyBzdHJva2U6IHJnYig1MSwgNTEsIDUxKTsiIGN5PSIxNDYiIGN4PSI0MzkuNjY2NjY2NjY2NjY2NjMiIGlkPSIxXzIiIGNsYXNzPSJub2RlIiByPSIxMSIvPjxjaXJjbGUgc3R5bGU9ImZpbGw6IHJnYig2OCwgMCwgMjU1KTsgc3Ryb2tlOiByZ2IoNTEsIDUxLCA1MSk7IiBjeT0iMjA1IiBjeD0iNDM5LjY2NjY2NjY2NjY2NjYzIiBpZD0iMV8zIiBjbGFzcz0ibm9kZSIgcj0iMTEiLz48Y2lyY2xlIHN0eWxlPSJmaWxsOiByZ2IoNjgsIDAsIDI1NSk7IHN0cm9rZTogcmdiKDUxLCA1MSwgNTEpOyIgY3k9IjI2NCIgY3g9IjQzOS42NjY2NjY2NjY2NjY2MyIgaWQ9IjFfNCIgY2xhc3M9Im5vZGUiIHI9IjExIi8+PGNpcmNsZSBzdHlsZT0iZmlsbDogcmdiKDY4LCAwLCAyNTUpOyBzdHJva2U6IHJnYig1MSwgNTEsIDUxKTsiIGN5PSIzMjMiIGN4PSI0MzkuNjY2NjY2NjY2NjY2NjMiIGlkPSIxXzUiIGNsYXNzPSJub2RlIiByPSIxMSIvPjxjaXJjbGUgc3R5bGU9ImZpbGw6IHJnYig2OCwgMCwgMjU1KTsgc3Ryb2tlOiByZ2IoNTEsIDUxLCA1MSk7IiBjeT0iMzgyIiBjeD0iNDM5LjY2NjY2NjY2NjY2NjYzIiBpZD0iMV82IiBjbGFzcz0ibm9kZSIgcj0iMTEiLz48Y2lyY2xlIHN0eWxlPSJmaWxsOiByZ2IoNjgsIDAsIDI1NSk7IHN0cm9rZTogcmdiKDUxLCA1MSwgNTEpOyIgY3k9IjQ0MSIgY3g9IjQzOS42NjY2NjY2NjY2NjY2MyIgaWQ9IjFfNyIgY2xhc3M9Im5vZGUiIHI9IjExIi8+PGNpcmNsZSBzdHlsZT0iZmlsbDogcmdiKDY4LCAwLCAyNTUpOyBzdHJva2U6IHJnYig1MSwgNTEsIDUxKTsiIGN5PSI1MDAiIGN4PSI0MzkuNjY2NjY2NjY2NjY2NjMiIGlkPSIxXzgiIGNsYXNzPSJub2RlIiByPSIxMSIvPjxjaXJjbGUgc3R5bGU9ImZpbGw6IHJnYig2OCwgMCwgMjU1KTsgc3Ryb2tlOiByZ2IoNTEsIDUxLCA1MSk7IiBjeT0iNTU5IiBjeD0iNDM5LjY2NjY2NjY2NjY2NjYzIiBpZD0iMV85IiBjbGFzcz0ibm9kZSIgcj0iMTEiLz48Y2lyY2xlIHN0eWxlPSJmaWxsOiByZ2IoNjgsIDAsIDI1NSk7IHN0cm9rZTogcmdiKDUxLCA1MSwgNTEpOyIgY3k9IjYxOCIgY3g9IjQzOS42NjY2NjY2NjY2NjY2MyIgaWQ9IjFfMTAiIGNsYXNzPSJub2RlIiByPSIxMSIvPjxjaXJjbGUgc3R5bGU9ImZpbGw6IHJnYig2OCwgMCwgMjU1KTsgc3Ryb2tlOiByZ2IoNTEsIDUxLCA1MSk7IiBjeT0iNjc3IiBjeD0iNDM5LjY2NjY2NjY2NjY2NjYzIiBpZD0iMV8xMSIgY2xhc3M9Im5vZGUiIHI9IjExIi8+PGNpcmNsZSBzdHlsZT0iZmlsbDogcmdiKDY4LCAwLCAyNTUpOyBzdHJva2U6IHJnYig1MSwgNTEsIDUxKTsiIGN5PSI3MzYiIGN4PSI0MzkuNjY2NjY2NjY2NjY2NjMiIGlkPSIxXzEyIiBjbGFzcz0ibm9kZSIgcj0iMTEiLz48Y2lyY2xlIHN0eWxlPSJmaWxsOiByZ2IoNjgsIDAsIDI1NSk7IHN0cm9rZTogcmdiKDUxLCA1MSwgNTEpOyIgY3k9Ijc5NSIgY3g9IjQzOS42NjY2NjY2NjY2NjY2MyIgaWQ9IjFfMTMiIGNsYXNzPSJub2RlIiByPSIxMSIvPjxjaXJjbGUgc3R5bGU9ImZpbGw6IHJnYig2OCwgMCwgMjU1KTsgc3Ryb2tlOiByZ2IoNTEsIDUxLCA1MSk7IiBjeT0iODU0IiBjeD0iNDM5LjY2NjY2NjY2NjY2NjYzIiBpZD0iMV8xNCIgY2xhc3M9Im5vZGUiIHI9IjExIi8+PGNpcmNsZSBzdHlsZT0iZmlsbDogcmdiKDY4LCAwLCAyNTUpOyBzdHJva2U6IHJnYig1MSwgNTEsIDUxKTsiIGN5PSI5MTMiIGN4PSI0MzkuNjY2NjY2NjY2NjY2NjMiIGlkPSIxXzE1IiBjbGFzcz0ibm9kZSIgcj0iMTEiLz48Y2lyY2xlIHN0eWxlPSJmaWxsOiByZ2IoNjgsIDAsIDI1NSk7IHN0cm9rZTogcmdiKDUxLCA1MSwgNTEpOyIgY3k9IjM1LjUiIGN4PSI2NDUuNjY2NjY2NjY2NjY2NiIgaWQ9IjJfMCIgY2xhc3M9Im5vZGUiIHI9IjExIi8+PGNpcmNsZSBzdHlsZT0iZmlsbDogcmdiKDY4LCAwLCAyNTUpOyBzdHJva2U6IHJnYig1MSwgNTEsIDUxKTsiIGN5PSI5My41IiBjeD0iNjQ1LjY2NjY2NjY2NjY2NjYiIGlkPSIyXzEiIGNsYXNzPSJub2RlIiByPSIxMSIvPjxjaXJjbGUgc3R5bGU9ImZpbGw6IHJnYig2OCwgMCwgMjU1KTsgc3Ryb2tlOiByZ2IoNTEsIDUxLCA1MSk7IiBjeT0iMTUxLjUiIGN4PSI2NDUuNjY2NjY2NjY2NjY2NiIgaWQ9IjJfMiIgY2xhc3M9Im5vZGUiIHI9IjExIi8+PGNpcmNsZSBzdHlsZT0iZmlsbDogcmdiKDY4LCAwLCAyNTUpOyBzdHJva2U6IHJnYig1MSwgNTEsIDUxKTsiIGN5PSIyMDkuNSIgY3g9IjY0NS42NjY2NjY2NjY2NjY2IiBpZD0iMl8zIiBjbGFzcz0ibm9kZSIgcj0iMTEiLz48Y2lyY2xlIHN0eWxlPSJmaWxsOiByZ2IoNjgsIDAsIDI1NSk7IHN0cm9rZTogcmdiKDUxLCA1MSwgNTEpOyIgY3k9IjI2Ny41IiBjeD0iNjQ1LjY2NjY2NjY2NjY2NjYiIGlkPSIyXzQiIGNsYXNzPSJub2RlIiByPSIxMSIvPjxjaXJjbGUgc3R5bGU9ImZpbGw6IHJnYig2OCwgMCwgMjU1KTsgc3Ryb2tlOiByZ2IoNTEsIDUxLCA1MSk7IiBjeT0iMzI1LjUiIGN4PSI2NDUuNjY2NjY2NjY2NjY2NiIgaWQ9IjJfNSIgY2xhc3M9Im5vZGUiIHI9IjExIi8+PGNpcmNsZSBzdHlsZT0iZmlsbDogcmdiKDY4LCAwLCAyNTUpOyBzdHJva2U6IHJnYig1MSwgNTEsIDUxKTsiIGN5PSIzODMuNSIgY3g9IjY0NS42NjY2NjY2NjY2NjY2IiBpZD0iMl82IiBjbGFzcz0ibm9kZSIgcj0iMTEiLz48Y2lyY2xlIHN0eWxlPSJmaWxsOiByZ2IoNjgsIDAsIDI1NSk7IHN0cm9rZTogcmdiKDUxLCA1MSwgNTEpOyIgY3k9IjQ0MS41IiBjeD0iNjQ1LjY2NjY2NjY2NjY2NjYiIGlkPSIyXzciIGNsYXNzPSJub2RlIiByPSIxMSIvPjxjaXJjbGUgc3R5bGU9ImZpbGw6IHJnYig2OCwgMCwgMjU1KTsgc3Ryb2tlOiByZ2IoNTEsIDUxLCA1MSk7IiBjeT0iNDk5LjUiIGN4PSI2NDUuNjY2NjY2NjY2NjY2NiIgaWQ9IjJfOCIgY2xhc3M9Im5vZGUiIHI9IjExIi8+PGNpcmNsZSBzdHlsZT0iZmlsbDogcmdiKDY4LCAwLCAyNTUpOyBzdHJva2U6IHJnYig1MSwgNTEsIDUxKTsiIGN5PSI1NTcuNSIgY3g9IjY0NS42NjY2NjY2NjY2NjY2IiBpZD0iMl85IiBjbGFzcz0ibm9kZSIgcj0iMTEiLz48Y2lyY2xlIHN0eWxlPSJmaWxsOiByZ2IoNjgsIDAsIDI1NSk7IHN0cm9rZTogcmdiKDUxLCA1MSwgNTEpOyIgY3k9IjYxNS41IiBjeD0iNjQ1LjY2NjY2NjY2NjY2NjYiIGlkPSIyXzEwIiBjbGFzcz0ibm9kZSIgcj0iMTEiLz48Y2lyY2xlIHN0eWxlPSJmaWxsOiByZ2IoNjgsIDAsIDI1NSk7IHN0cm9rZTogcmdiKDUxLCA1MSwgNTEpOyIgY3k9IjY3My41IiBjeD0iNjQ1LjY2NjY2NjY2NjY2NjYiIGlkPSIyXzExIiBjbGFzcz0ibm9kZSIgcj0iMTEiLz48Y2lyY2xlIHN0eWxlPSJmaWxsOiByZ2IoNjgsIDAsIDI1NSk7IHN0cm9rZTogcmdiKDUxLCA1MSwgNTEpOyIgY3k9IjczMS41IiBjeD0iNjQ1LjY2NjY2NjY2NjY2NjYiIGlkPSIyXzEyIiBjbGFzcz0ibm9kZSIgcj0iMTEiLz48Y2lyY2xlIHN0eWxlPSJmaWxsOiByZ2IoNjgsIDAsIDI1NSk7IHN0cm9rZTogcmdiKDUxLCA1MSwgNTEpOyIgY3k9Ijc4OS41IiBjeD0iNjQ1LjY2NjY2NjY2NjY2NjYiIGlkPSIyXzEzIiBjbGFzcz0ibm9kZSIgcj0iMTEiLz48Y2lyY2xlIHN0eWxlPSJmaWxsOiByZ2IoNjgsIDAsIDI1NSk7IHN0cm9rZTogcmdiKDUxLCA1MSwgNTEpOyIgY3k9Ijg0Ny41IiBjeD0iNjQ1LjY2NjY2NjY2NjY2NjYiIGlkPSIyXzE0IiBjbGFzcz0ibm9kZSIgcj0iMTEiLz48Y2lyY2xlIHN0eWxlPSJmaWxsOiByZ2IoNjgsIDAsIDI1NSk7IHN0cm9rZTogcmdiKDUxLCA1MSwgNTEpOyIgY3k9IjkwNS41IiBjeD0iNjQ1LjY2NjY2NjY2NjY2NjYiIGlkPSIyXzE1IiBjbGFzcz0ibm9kZSIgcj0iMTEiLz48Y2lyY2xlIHN0eWxlPSJmaWxsOiByZ2IoNjgsIDAsIDI1NSk7IHN0cm9rZTogcmdiKDUxLCA1MSwgNTEpOyIgY3k9IjE4NS41IiBjeD0iODUxLjY2NjY2NjY2NjY2NjYiIGlkPSIzXzAiIGNsYXNzPSJub2RlIiByPSIxMSIvPjx0ZXh0IHN0eWxlPSJmb250LXNpemU6IDEycHg7IiB5PSI5NTUiIHg9IjE5OC42NjY2NjY2NjY2NjY2NiIgZHk9Ii4zNWVtIiBjbGFzcz0idGV4dCI+SW5wdXQgTGF5ZXIg4oiIIOKEncK54oG2PC90ZXh0Pjx0ZXh0IHN0eWxlPSJmb250LXNpemU6IDEycHg7IiB5PSI5NTUiIHg9IjQwNC42NjY2NjY2NjY2NjY2MyIgZHk9Ii4zNWVtIiBjbGFzcz0idGV4dCI+SGlkZGVuIExheWVyIOKIiCDihJ3CueKBtjwvdGV4dD48dGV4dCBzdHlsZT0iZm9udC1zaXplOiAxMnB4OyIgeT0iOTU1IiB4PSI2MTAuNjY2NjY2NjY2NjY2NiIgZHk9Ii4zNWVtIiBjbGFzcz0idGV4dCI+SGlkZGVuIExheWVyIOKIiCDihJ3CueKBtjwvdGV4dD48dGV4dCBzdHlsZT0iZm9udC1zaXplOiAxMnB4OyIgeT0iOTU1IiB4PSI4MTYuNjY2NjY2NjY2NjY2NiIgZHk9Ii4zNWVtIiBjbGFzcz0idGV4dCI+T3V0cHV0IExheWVyIOKIiCDihJ3CueKBtjwvdGV4dD48Y2lyY2xlIHN0eWxlPSJmaWxsOiByZ2IoNjgsIDAsIDI1NSk7IHN0cm9rZTogcmdiKDUxLCA1MSwgNTEpOyIgY3k9IjIyMy41IiBjeD0iODUxLjY2NjY2NjY2NjY2NjYiIGlkPSIzXzEiIGNsYXNzPSJub2RlIiByPSIxMSIvPjxjaXJjbGUgc3R5bGU9ImZpbGw6IHJnYig2OCwgMCwgMjU1KTsgc3Ryb2tlOiByZ2IoNTEsIDUxLCA1MSk7IiBjeT0iMjYxLjUiIGN4PSI4NTEuNjY2NjY2NjY2NjY2NiIgaWQ9IjNfMiIgY2xhc3M9Im5vZGUiIHI9IjExIi8+PGNpcmNsZSBzdHlsZT0iZmlsbDogcmdiKDY4LCAwLCAyNTUpOyBzdHJva2U6IHJnYig1MSwgNTEsIDUxKTsiIGN5PSIyOTkuNSIgY3g9Ijg1MS42NjY2NjY2NjY2NjY2IiBpZD0iM18zIiBjbGFzcz0ibm9kZSIgcj0iMTEiLz48Y2lyY2xlIHN0eWxlPSJmaWxsOiByZ2IoNjgsIDAsIDI1NSk7IHN0cm9rZTogcmdiKDUxLCA1MSwgNTEpOyIgY3k9IjMzNy41IiBjeD0iODUxLjY2NjY2NjY2NjY2NjYiIGlkPSIzXzQiIGNsYXNzPSJub2RlIiByPSIxMSIvPjxjaXJjbGUgc3R5bGU9ImZpbGw6IHJnYig2OCwgMCwgMjU1KTsgc3Ryb2tlOiByZ2IoNTEsIDUxLCA1MSk7IiBjeT0iMzc1LjUiIGN4PSI4NTEuNjY2NjY2NjY2NjY2NiIgaWQ9IjNfNSIgY2xhc3M9Im5vZGUiIHI9IjExIi8+PGNpcmNsZSBzdHlsZT0iZmlsbDogcmdiKDY4LCAwLCAyNTUpOyBzdHJva2U6IHJnYig1MSwgNTEsIDUxKTsiIGN5PSI0MTMuNSIgY3g9Ijg1MS42NjY2NjY2NjY2NjY2IiBpZD0iM182IiBjbGFzcz0ibm9kZSIgcj0iMTEiLz48Y2lyY2xlIHN0eWxlPSJmaWxsOiByZ2IoNjgsIDAsIDI1NSk7IHN0cm9rZTogcmdiKDUxLCA1MSwgNTEpOyIgY3k9IjQ1MS41IiBjeD0iODUxLjY2NjY2NjY2NjY2NjYiIGlkPSIzXzciIGNsYXNzPSJub2RlIiByPSIxMSIvPjxjaXJjbGUgc3R5bGU9ImZpbGw6IHJnYig2OCwgMCwgMjU1KTsgc3Ryb2tlOiByZ2IoNTEsIDUxLCA1MSk7IiBjeT0iNDg5LjUiIGN4PSI4NTEuNjY2NjY2NjY2NjY2NiIgaWQ9IjNfOCIgY2xhc3M9Im5vZGUiIHI9IjExIi8+PGNpcmNsZSBzdHlsZT0iZmlsbDogcmdiKDY4LCAwLCAyNTUpOyBzdHJva2U6IHJnYig1MSwgNTEsIDUxKTsiIGN5PSI1MjcuNSIgY3g9Ijg1MS42NjY2NjY2NjY2NjY2IiBpZD0iM185IiBjbGFzcz0ibm9kZSIgcj0iMTEiLz48Y2lyY2xlIHN0eWxlPSJmaWxsOiByZ2IoNjgsIDAsIDI1NSk7IHN0cm9rZTogcmdiKDUxLCA1MSwgNTEpOyIgY3k9IjU2NS41IiBjeD0iODUxLjY2NjY2NjY2NjY2NjYiIGlkPSIzXzEwIiBjbGFzcz0ibm9kZSIgcj0iMTEiLz48Y2lyY2xlIHN0eWxlPSJmaWxsOiByZ2IoNjgsIDAsIDI1NSk7IHN0cm9rZTogcmdiKDUxLCA1MSwgNTEpOyIgY3k9IjYwMy41IiBjeD0iODUxLjY2NjY2NjY2NjY2NjYiIGlkPSIzXzExIiBjbGFzcz0ibm9kZSIgcj0iMTEiLz48Y2lyY2xlIHN0eWxlPSJmaWxsOiByZ2IoNjgsIDAsIDI1NSk7IHN0cm9rZTogcmdiKDUxLCA1MSwgNTEpOyIgY3k9IjY0MS41IiBjeD0iODUxLjY2NjY2NjY2NjY2NjYiIGlkPSIzXzEyIiBjbGFzcz0ibm9kZSIgcj0iMTEiLz48Y2lyY2xlIHN0eWxlPSJmaWxsOiByZ2IoNjgsIDAsIDI1NSk7IHN0cm9rZTogcmdiKDUxLCA1MSwgNTEpOyIgY3k9IjY3OS41IiBjeD0iODUxLjY2NjY2NjY2NjY2NjYiIGlkPSIzXzEzIiBjbGFzcz0ibm9kZSIgcj0iMTEiLz48Y2lyY2xlIHN0eWxlPSJmaWxsOiByZ2IoNjgsIDAsIDI1NSk7IHN0cm9rZTogcmdiKDUxLCA1MSwgNTEpOyIgY3k9IjcxNy41IiBjeD0iODUxLjY2NjY2NjY2NjY2NjYiIGlkPSIzXzE0IiBjbGFzcz0ibm9kZSIgcj0iMTEiLz48Y2lyY2xlIHN0eWxlPSJmaWxsOiByZ2IoNjgsIDAsIDI1NSk7IHN0cm9rZTogcmdiKDUxLCA1MSwgNTEpOyIgY3k9Ijc1NS41IiBjeD0iODUxLjY2NjY2NjY2NjY2NjYiIGlkPSIzXzE1IiBjbGFzcz0ibm9kZSIgcj0iMTEiLz48L2c+PGRlZnM+PG1hcmtlciByZWZYPSI0Mi44IiBvcmllbnQ9ImF1dG8iIG1hcmtlckhlaWdodD0iNyIgbWFya2VyV2lkdGg9IjciIHZpZXdCb3g9IjAgLTUgMTAgMTAiIGlkPSJhcnJvdyI+PHBhdGggc3R5bGU9InN0cm9rZTogcmdiKDgwLCA4MCwgODApOyBmaWxsOiBub25lOyIgZD0iTTAsLTVMMTAsMEwwLDUiLz48L21hcmtlcj48L2RlZnM+PC9zdmc+;clipPath=inset(14.33% 2.35% 17.33% 46.64%);" vertex="1" parent="1">
          <mxGeometry x="650" y="195" width="600.59" height="810" as="geometry" />
        </mxCell>
        <mxCell id="7f94tFSoGYnsbO0w17XI-65" value="" style="whiteSpace=wrap;html=1;aspect=fixed;" vertex="1" parent="1">
          <mxGeometry x="130" y="410" width="80" height="80" as="geometry" />
        </mxCell>
        <mxCell id="7f94tFSoGYnsbO0w17XI-66" value="" style="whiteSpace=wrap;html=1;aspect=fixed;" vertex="1" parent="1">
          <mxGeometry x="210" y="410" width="80" height="80" as="geometry" />
        </mxCell>
        <mxCell id="7f94tFSoGYnsbO0w17XI-67" value="" style="whiteSpace=wrap;html=1;aspect=fixed;" vertex="1" parent="1">
          <mxGeometry x="290" y="410" width="80" height="80" as="geometry" />
        </mxCell>
        <mxCell id="7f94tFSoGYnsbO0w17XI-68" value="" style="whiteSpace=wrap;html=1;aspect=fixed;" vertex="1" parent="1">
          <mxGeometry x="370" y="410" width="80" height="80" as="geometry" />
        </mxCell>
        <mxCell id="7f94tFSoGYnsbO0w17XI-69" value="" style="whiteSpace=wrap;html=1;aspect=fixed;" vertex="1" parent="1">
          <mxGeometry x="130" y="490" width="80" height="80" as="geometry" />
        </mxCell>
        <mxCell id="7f94tFSoGYnsbO0w17XI-70" value="" style="whiteSpace=wrap;html=1;aspect=fixed;" vertex="1" parent="1">
          <mxGeometry x="210" y="490" width="80" height="80" as="geometry" />
        </mxCell>
        <mxCell id="7f94tFSoGYnsbO0w17XI-71" value="" style="whiteSpace=wrap;html=1;aspect=fixed;" vertex="1" parent="1">
          <mxGeometry x="290" y="490" width="80" height="80" as="geometry" />
        </mxCell>
        <mxCell id="7f94tFSoGYnsbO0w17XI-72" value="" style="whiteSpace=wrap;html=1;aspect=fixed;" vertex="1" parent="1">
          <mxGeometry x="370" y="490" width="80" height="80" as="geometry" />
        </mxCell>
        <mxCell id="7f94tFSoGYnsbO0w17XI-73" value="" style="whiteSpace=wrap;html=1;aspect=fixed;" vertex="1" parent="1">
          <mxGeometry x="130" y="570" width="80" height="80" as="geometry" />
        </mxCell>
        <mxCell id="7f94tFSoGYnsbO0w17XI-74" value="" style="whiteSpace=wrap;html=1;aspect=fixed;" vertex="1" parent="1">
          <mxGeometry x="210" y="570" width="80" height="80" as="geometry" />
        </mxCell>
        <mxCell id="7f94tFSoGYnsbO0w17XI-75" value="" style="whiteSpace=wrap;html=1;aspect=fixed;" vertex="1" parent="1">
          <mxGeometry x="290" y="570" width="80" height="80" as="geometry" />
        </mxCell>
        <mxCell id="7f94tFSoGYnsbO0w17XI-76" value="" style="whiteSpace=wrap;html=1;aspect=fixed;" vertex="1" parent="1">
          <mxGeometry x="370" y="570" width="80" height="80" as="geometry" />
        </mxCell>
        <mxCell id="7f94tFSoGYnsbO0w17XI-77" value="" style="whiteSpace=wrap;html=1;aspect=fixed;" vertex="1" parent="1">
          <mxGeometry x="130" y="650" width="80" height="80" as="geometry" />
        </mxCell>
        <mxCell id="7f94tFSoGYnsbO0w17XI-78" value="" style="whiteSpace=wrap;html=1;aspect=fixed;" vertex="1" parent="1">
          <mxGeometry x="210" y="650" width="80" height="80" as="geometry" />
        </mxCell>
        <mxCell id="7f94tFSoGYnsbO0w17XI-79" value="" style="whiteSpace=wrap;html=1;aspect=fixed;" vertex="1" parent="1">
          <mxGeometry x="290" y="650" width="80" height="80" as="geometry" />
        </mxCell>
        <mxCell id="7f94tFSoGYnsbO0w17XI-80" value="" style="whiteSpace=wrap;html=1;aspect=fixed;" vertex="1" parent="1">
          <mxGeometry x="370" y="650" width="80" height="80" as="geometry" />
        </mxCell>
        <mxCell id="7f94tFSoGYnsbO0w17XI-84" value="" style="ellipse;whiteSpace=wrap;html=1;aspect=fixed;fillColor=#FFFFFF;" vertex="1" parent="1">
          <mxGeometry x="215" y="575" width="70" height="70" as="geometry" />
        </mxCell>
        <mxCell id="7f94tFSoGYnsbO0w17XI-85" value="" style="endArrow=none;dashed=1;html=1;dashPattern=1 3;strokeWidth=2;rounded=0;entryX=-0.008;entryY=0.197;entryDx=0;entryDy=0;entryPerimeter=0;exitX=1;exitY=0;exitDx=0;exitDy=0;" edge="1" parent="1" source="7f94tFSoGYnsbO0w17XI-68" target="7f94tFSoGYnsbO0w17XI-64">
          <mxGeometry width="50" height="50" relative="1" as="geometry">
            <mxPoint x="480" y="440" as="sourcePoint" />
            <mxPoint x="600" y="330" as="targetPoint" />
          </mxGeometry>
        </mxCell>
        <mxCell id="7f94tFSoGYnsbO0w17XI-86" value="" style="endArrow=none;dashed=1;html=1;dashPattern=1 3;strokeWidth=2;rounded=0;entryX=1;entryY=1;entryDx=0;entryDy=0;" edge="1" parent="1" target="7f94tFSoGYnsbO0w17XI-80">
          <mxGeometry width="50" height="50" relative="1" as="geometry">
            <mxPoint x="640" y="800" as="sourcePoint" />
            <mxPoint x="470" y="800" as="targetPoint" />
          </mxGeometry>
        </mxCell>
        <mxCell id="7f94tFSoGYnsbO0w17XI-87" value="" style="shape=flexArrow;endArrow=classic;html=1;rounded=0;fillColor=#000000;" edge="1" parent="1">
          <mxGeometry width="50" height="50" relative="1" as="geometry">
            <mxPoint x="495" y="575" as="sourcePoint" />
            <mxPoint x="595" y="575" as="targetPoint" />
          </mxGeometry>
        </mxCell>
        <mxCell id="7f94tFSoGYnsbO0w17XI-88" value="&lt;font style=&quot;font-size: 24px;&quot; face=&quot;Times New Roman&quot;&gt;&lt;b&gt;Encoding Function&lt;/b&gt;&lt;/font&gt;" style="text;html=1;strokeColor=none;fillColor=none;align=center;verticalAlign=middle;whiteSpace=wrap;rounded=0;" vertex="1" parent="1">
          <mxGeometry x="520" y="515" width="50" height="30" as="geometry" />
        </mxCell>
        <mxCell id="7f94tFSoGYnsbO0w17XI-109" value="" style="ellipse;whiteSpace=wrap;html=1;aspect=fixed;fillColor=#000000;" vertex="1" parent="1">
          <mxGeometry x="295" y="575" width="70" height="70" as="geometry" />
        </mxCell>
        <mxCell id="7f94tFSoGYnsbO0w17XI-110" value="" style="ellipse;whiteSpace=wrap;html=1;aspect=fixed;fillColor=#FFFFFF;" vertex="1" parent="1">
          <mxGeometry x="295" y="495" width="70" height="70" as="geometry" />
        </mxCell>
        <mxCell id="7f94tFSoGYnsbO0w17XI-111" value="" style="ellipse;whiteSpace=wrap;html=1;aspect=fixed;fillColor=#000000;" vertex="1" parent="1">
          <mxGeometry x="215" y="495" width="70" height="70" as="geometry" />
        </mxCell>
        <mxCell id="7f94tFSoGYnsbO0w17XI-112" value="" style="whiteSpace=wrap;html=1;aspect=fixed;" vertex="1" parent="1">
          <mxGeometry x="1395" y="410" width="80" height="80" as="geometry" />
        </mxCell>
        <mxCell id="7f94tFSoGYnsbO0w17XI-113" value="" style="whiteSpace=wrap;html=1;aspect=fixed;" vertex="1" parent="1">
          <mxGeometry x="1475" y="410" width="80" height="80" as="geometry" />
        </mxCell>
        <mxCell id="7f94tFSoGYnsbO0w17XI-114" value="" style="whiteSpace=wrap;html=1;aspect=fixed;" vertex="1" parent="1">
          <mxGeometry x="1555" y="410" width="80" height="80" as="geometry" />
        </mxCell>
        <mxCell id="7f94tFSoGYnsbO0w17XI-115" value="" style="whiteSpace=wrap;html=1;aspect=fixed;" vertex="1" parent="1">
          <mxGeometry x="1635" y="410" width="80" height="80" as="geometry" />
        </mxCell>
        <mxCell id="7f94tFSoGYnsbO0w17XI-116" value="" style="whiteSpace=wrap;html=1;aspect=fixed;" vertex="1" parent="1">
          <mxGeometry x="1395" y="490" width="80" height="80" as="geometry" />
        </mxCell>
        <mxCell id="7f94tFSoGYnsbO0w17XI-117" value="" style="whiteSpace=wrap;html=1;aspect=fixed;" vertex="1" parent="1">
          <mxGeometry x="1475" y="490" width="80" height="80" as="geometry" />
        </mxCell>
        <mxCell id="7f94tFSoGYnsbO0w17XI-118" value="" style="whiteSpace=wrap;html=1;aspect=fixed;" vertex="1" parent="1">
          <mxGeometry x="1555" y="490" width="80" height="80" as="geometry" />
        </mxCell>
        <mxCell id="7f94tFSoGYnsbO0w17XI-119" value="" style="whiteSpace=wrap;html=1;aspect=fixed;" vertex="1" parent="1">
          <mxGeometry x="1635" y="490" width="80" height="80" as="geometry" />
        </mxCell>
        <mxCell id="7f94tFSoGYnsbO0w17XI-120" value="" style="whiteSpace=wrap;html=1;aspect=fixed;" vertex="1" parent="1">
          <mxGeometry x="1395" y="570" width="80" height="80" as="geometry" />
        </mxCell>
        <mxCell id="7f94tFSoGYnsbO0w17XI-121" value="" style="whiteSpace=wrap;html=1;aspect=fixed;" vertex="1" parent="1">
          <mxGeometry x="1475" y="570" width="80" height="80" as="geometry" />
        </mxCell>
        <mxCell id="7f94tFSoGYnsbO0w17XI-122" value="" style="whiteSpace=wrap;html=1;aspect=fixed;" vertex="1" parent="1">
          <mxGeometry x="1555" y="570" width="80" height="80" as="geometry" />
        </mxCell>
        <mxCell id="7f94tFSoGYnsbO0w17XI-123" value="" style="whiteSpace=wrap;html=1;aspect=fixed;" vertex="1" parent="1">
          <mxGeometry x="1635" y="570" width="80" height="80" as="geometry" />
        </mxCell>
        <mxCell id="7f94tFSoGYnsbO0w17XI-124" value="" style="whiteSpace=wrap;html=1;aspect=fixed;" vertex="1" parent="1">
          <mxGeometry x="1395" y="650" width="80" height="80" as="geometry" />
        </mxCell>
        <mxCell id="7f94tFSoGYnsbO0w17XI-125" value="" style="whiteSpace=wrap;html=1;aspect=fixed;" vertex="1" parent="1">
          <mxGeometry x="1475" y="650" width="80" height="80" as="geometry" />
        </mxCell>
        <mxCell id="7f94tFSoGYnsbO0w17XI-126" value="" style="whiteSpace=wrap;html=1;aspect=fixed;" vertex="1" parent="1">
          <mxGeometry x="1555" y="650" width="80" height="80" as="geometry" />
        </mxCell>
        <mxCell id="7f94tFSoGYnsbO0w17XI-127" value="" style="whiteSpace=wrap;html=1;aspect=fixed;" vertex="1" parent="1">
          <mxGeometry x="1635" y="650" width="80" height="80" as="geometry" />
        </mxCell>
        <mxCell id="7f94tFSoGYnsbO0w17XI-128" value="" style="ellipse;whiteSpace=wrap;html=1;aspect=fixed;fillColor=#FFFFFF;" vertex="1" parent="1">
          <mxGeometry x="1480" y="575" width="70" height="70" as="geometry" />
        </mxCell>
        <mxCell id="7f94tFSoGYnsbO0w17XI-130" value="" style="shape=flexArrow;endArrow=classic;html=1;rounded=0;fillColor=#000000;" edge="1" parent="1">
          <mxGeometry width="50" height="50" relative="1" as="geometry">
            <mxPoint x="1275.59" y="573.57" as="sourcePoint" />
            <mxPoint x="1375.59" y="573.57" as="targetPoint" />
          </mxGeometry>
        </mxCell>
        <mxCell id="7f94tFSoGYnsbO0w17XI-131" value="&lt;font style=&quot;font-size: 24px;&quot; face=&quot;Times New Roman&quot;&gt;&lt;b&gt;Decoding&lt;br&gt;Function&lt;/b&gt;&lt;/font&gt;" style="text;html=1;strokeColor=none;fillColor=none;align=center;verticalAlign=middle;whiteSpace=wrap;rounded=0;" vertex="1" parent="1">
          <mxGeometry x="1300.59" y="513.57" width="50" height="30" as="geometry" />
        </mxCell>
        <mxCell id="7f94tFSoGYnsbO0w17XI-132" value="" style="ellipse;whiteSpace=wrap;html=1;aspect=fixed;fillColor=#000000;" vertex="1" parent="1">
          <mxGeometry x="1560" y="575" width="70" height="70" as="geometry" />
        </mxCell>
        <mxCell id="7f94tFSoGYnsbO0w17XI-133" value="" style="ellipse;whiteSpace=wrap;html=1;aspect=fixed;fillColor=#FFFFFF;" vertex="1" parent="1">
          <mxGeometry x="1560" y="495" width="70" height="70" as="geometry" />
        </mxCell>
        <mxCell id="7f94tFSoGYnsbO0w17XI-134" value="" style="ellipse;whiteSpace=wrap;html=1;aspect=fixed;fillColor=#000000;" vertex="1" parent="1">
          <mxGeometry x="1480" y="495" width="70" height="70" as="geometry" />
        </mxCell>
        <mxCell id="7f94tFSoGYnsbO0w17XI-135" value="" style="endArrow=none;dashed=1;html=1;dashPattern=1 3;strokeWidth=2;rounded=0;exitX=1.001;exitY=0.189;exitDx=0;exitDy=0;exitPerimeter=0;entryX=0;entryY=0;entryDx=0;entryDy=0;" edge="1" parent="1" source="7f94tFSoGYnsbO0w17XI-64" target="7f94tFSoGYnsbO0w17XI-112">
          <mxGeometry width="50" height="50" relative="1" as="geometry">
            <mxPoint x="1300" y="390" as="sourcePoint" />
            <mxPoint x="1350" y="340" as="targetPoint" />
          </mxGeometry>
        </mxCell>
        <mxCell id="7f94tFSoGYnsbO0w17XI-136" value="" style="endArrow=none;dashed=1;html=1;dashPattern=1 3;strokeWidth=2;rounded=0;entryX=0;entryY=1;entryDx=0;entryDy=0;exitX=1.002;exitY=0.768;exitDx=0;exitDy=0;exitPerimeter=0;" edge="1" parent="1" source="7f94tFSoGYnsbO0w17XI-64" target="7f94tFSoGYnsbO0w17XI-124">
          <mxGeometry width="50" height="50" relative="1" as="geometry">
            <mxPoint x="1360" y="820" as="sourcePoint" />
            <mxPoint x="1410" y="770" as="targetPoint" />
          </mxGeometry>
        </mxCell>
        <mxCell id="7f94tFSoGYnsbO0w17XI-137" value="&lt;font face=&quot;Times New Roman&quot; style=&quot;font-size: 24px;&quot;&gt;&lt;b style=&quot;&quot;&gt;0.22&lt;/b&gt;&lt;/font&gt;" style="text;html=1;strokeColor=none;fillColor=none;align=center;verticalAlign=middle;whiteSpace=wrap;rounded=0;" vertex="1" parent="1">
          <mxGeometry x="1645" y="515" width="60" height="30" as="geometry" />
        </mxCell>
        <mxCell id="7f94tFSoGYnsbO0w17XI-138" value="&lt;font face=&quot;Times New Roman&quot; style=&quot;font-size: 24px;&quot;&gt;&lt;b style=&quot;&quot;&gt;0.31&lt;/b&gt;&lt;/font&gt;" style="text;html=1;strokeColor=none;fillColor=none;align=center;verticalAlign=middle;whiteSpace=wrap;rounded=0;" vertex="1" parent="1">
          <mxGeometry x="1565" y="435" width="60" height="30" as="geometry" />
        </mxCell>
        <mxCell id="7f94tFSoGYnsbO0w17XI-139" value="&lt;font face=&quot;Times New Roman&quot; style=&quot;font-size: 24px;&quot;&gt;&lt;b style=&quot;&quot;&gt;0.03&lt;/b&gt;&lt;/font&gt;" style="text;html=1;strokeColor=none;fillColor=none;align=center;verticalAlign=middle;whiteSpace=wrap;rounded=0;" vertex="1" parent="1">
          <mxGeometry x="1405" y="595" width="60" height="30" as="geometry" />
        </mxCell>
        <mxCell id="7f94tFSoGYnsbO0w17XI-140" value="&lt;font face=&quot;Times New Roman&quot; style=&quot;font-size: 24px;&quot;&gt;&lt;b style=&quot;&quot;&gt;0.44&lt;/b&gt;&lt;/font&gt;" style="text;html=1;strokeColor=none;fillColor=none;align=center;verticalAlign=middle;whiteSpace=wrap;rounded=0;" vertex="1" parent="1">
          <mxGeometry x="1485" y="675" width="60" height="30" as="geometry" />
        </mxCell>
        <mxCell id="7f94tFSoGYnsbO0w17XI-141" value="&lt;font face=&quot;Times New Roman&quot; style=&quot;font-size: 24px;&quot;&gt;&lt;b&gt;Game state (Black to move)&lt;/b&gt;&lt;/font&gt;" style="text;html=1;strokeColor=none;fillColor=none;align=center;verticalAlign=middle;whiteSpace=wrap;rounded=0;" vertex="1" parent="1">
          <mxGeometry x="140" y="360" width="300" height="30" as="geometry" />
        </mxCell>
        <mxCell id="7f94tFSoGYnsbO0w17XI-142" value="&lt;font face=&quot;Times New Roman&quot; style=&quot;font-size: 24px;&quot;&gt;&lt;b&gt;Move probabilities&lt;/b&gt;&lt;/font&gt;" style="text;html=1;strokeColor=none;fillColor=none;align=center;verticalAlign=middle;whiteSpace=wrap;rounded=0;" vertex="1" parent="1">
          <mxGeometry x="1395" y="360" width="300" height="30" as="geometry" />
        </mxCell>
      </root>
    </mxGraphModel>
  </diagram>
</mxfile>
